<svg version="1.1" viewBox="0.0 0.0 600.0 371.0" fill="none" stroke="none" stroke-linecap="square" stroke-miterlimit="10" width="600" height="371" xmlns:xlink="http://www.w3.org/1999/xlink" xmlns="http://www.w3.org/2000/svg"><path fill="#ffffff" d="M0 0L600.0 0L600.0 371.0L0 371.0L0 0Z" fill-rule="nonzero"/><path fill="#ea4335" d="M210.26355 318.89423C167.20543 281.45746 151.9124 221.22366 171.89665 167.78078C191.88092 114.33788 242.94289 78.916664 300.0 78.916664L300.0 215.68333Z" fill-rule="nonzero"/><path fill="#4285f4" d="M300.0 78.916664C360.72208 78.916664 414.1734 118.95315 431.2482 177.22513C448.323 235.4971 424.93225 298.04977 373.81287 330.82144C322.6935 363.5931 256.08743 358.7357 210.26355 318.89423L300.0 215.68333Z" fill-rule="nonzero"/><path fill="#1a1a1a" d="M19.471874 165.6759L19.471874 157.08215L20.628124 157.08215L25.14375 163.83215L25.14375 157.08215L26.2375 157.08215L26.2375 165.6759L25.065624 165.6759L20.55 158.9259L20.55 165.6759L19.471874 165.6759ZM27.95625 162.56653Q27.95625 160.83215 28.909374 160.00403Q29.70625 159.31653 30.8625 159.31653Q32.14375 159.31653 32.95625 160.16028Q33.784374 160.9884 33.784374 162.47278Q33.784374 163.6759 33.425 164.3634Q33.065624 165.0509 32.3625 165.44153Q31.675 165.81653 30.8625 165.81653Q29.565624 165.81653 28.753124 164.9884Q27.95625 164.14465 27.95625 162.56653ZM29.034374 162.56653Q29.034374 163.75403 29.55 164.34778Q30.08125 164.94153 30.8625 164.94153Q31.659374 164.94153 32.175 164.34778Q32.690624 163.75403 32.690624 162.53528Q32.690624 161.37903 32.159374 160.78528Q31.64375 160.19153 30.8625 160.19153Q30.08125 160.19153 29.55 160.78528Q29.034374 161.3634 29.034374 162.56653ZM35.346874 165.6759L35.346874 159.45715L36.284374 159.45715L36.284374 160.33215Q36.971874 159.31653 38.26875 159.31653Q38.83125 159.31653 39.3 159.51965Q39.784374 159.72278 40.01875 160.0509Q40.253124 160.37903 40.346874 160.81653Q40.39375 161.1134 40.39375 161.84778L40.39375 165.6759L39.346874 165.6759L39.346874 161.89465Q39.346874 161.2384 39.221874 160.9259Q39.096874 160.6134 38.784374 160.4259Q38.471874 160.22278 38.05 160.22278Q37.378124 160.22278 36.878124 160.66028Q36.39375 161.08215 36.39375 162.26965L36.39375 165.6759L35.346874 165.6759ZM49.596874 163.6759L50.690624 163.8009Q50.440624 164.75403 49.7375 165.28528Q49.034374 165.81653 47.95625 165.81653Q46.596874 165.81653 45.784374 164.97278Q44.9875 164.12903 44.9875 162.6134Q44.9875 161.0509 45.8 160.19153Q46.6125 159.31653 47.89375 159.31653Q49.14375 159.31653 49.925 160.16028Q50.721874 161.00403 50.721874 162.5509Q50.721874 162.64465 50.721874 162.83215L46.08125 162.83215Q46.14375 163.8634 46.659374 164.41028Q47.175 164.94153 47.95625 164.94153Q48.534374 164.94153 48.940624 164.64465Q49.3625 164.33215 49.596874 163.6759ZM46.14375 161.97278L49.6125 161.97278Q49.55 161.1759 49.221874 160.78528Q48.70625 160.1759 47.909374 160.1759Q47.175 160.1759 46.675 160.66028Q46.190624 161.14465 46.14375 161.97278ZM51.64375 165.6759L53.909374 162.44153L51.815624 159.45715L53.128124 159.45715L54.08125 160.91028Q54.346874 161.33215 54.51875 161.6134Q54.76875 161.22278 54.9875 160.9259L56.034374 159.45715L57.3 159.45715L55.14375 162.37903L57.45625 165.6759L56.175 165.6759L54.89375 163.7384L54.55 163.22278L52.909374 165.6759L51.64375 165.6759ZM61.409374 163.39465L62.440624 163.53528Q62.26875 164.59778 61.565624 165.20715Q60.8625 165.81653 59.846874 165.81653Q58.565624 165.81653 57.784374 164.9884Q57.01875 164.14465 57.01875 162.58215Q57.01875 161.58215 57.346874 160.83215Q57.690624 160.06653 58.3625 159.69153Q59.05 159.31653 59.8625 159.31653Q60.8625 159.31653 61.503124 159.83215Q62.159374 160.33215 62.346874 161.28528L61.315624 161.44153Q61.175 160.81653 60.8 160.50403Q60.425 160.1759 59.89375 160.1759Q59.096874 160.1759 58.596874 160.75403Q58.096874 161.31653 58.096874 162.5509Q58.096874 163.81653 58.58125 164.37903Q59.065624 164.94153 59.83125 164.94153Q60.45625 164.94153 60.8625 164.56653Q61.284374 164.19153 61.409374 163.39465ZM63.315624 165.6759L63.315624 157.08215L64.37813 157.08215L64.37813 165.6759L63.315624 165.6759ZM70.425 165.6759L70.425 164.75403Q69.69063 165.81653 68.44063 165.81653Q67.89375 165.81653 67.40938 165.6134Q66.94063 165.39465 66.70625 165.08215Q66.47188 164.75403 66.37813 164.28528Q66.31563 163.9884 66.31563 163.3009L66.31563 159.45715L67.37813 159.45715L67.37813 162.91028Q67.37813 163.72278 67.44063 164.01965Q67.53438 164.4259 67.84688 164.6759Q68.175 164.91028 68.65938 164.91028Q69.12813 164.91028 69.53438 164.6759Q69.95625 164.4259 70.12813 164.00403Q70.31563 163.58215 70.31563 162.78528L70.31563 159.45715L71.3625 159.45715L71.3625 165.6759L70.425 165.6759ZM72.925 163.81653L73.95625 163.66028Q74.05 164.28528 74.44063 164.6134Q74.84688 164.94153 75.58125 164.94153Q76.3 164.94153 76.64375 164.66028Q77.00313 164.3634 77.00313 163.95715Q77.00313 163.59778 76.69063 163.39465Q76.47188 163.25403 75.6125 163.03528Q74.45625 162.7384 74.00313 162.53528Q73.56563 162.31653 73.33125 161.94153Q73.09688 161.56653 73.09688 161.09778Q73.09688 160.69153 73.28438 160.33215Q73.47188 159.97278 73.8 159.7384Q74.05 159.56653 74.47188 159.44153Q74.89375 159.31653 75.39375 159.31653Q76.1125 159.31653 76.65938 159.53528Q77.22188 159.7384 77.4875 160.09778Q77.75313 160.45715 77.84688 161.0509L76.81563 161.19153Q76.75313 160.72278 76.40938 160.45715Q76.08125 160.1759 75.45625 160.1759Q74.7375 160.1759 74.425 160.4259Q74.1125 160.66028 74.1125 160.9884Q74.1125 161.19153 74.2375 161.34778Q74.37813 161.51965 74.64375 161.62903Q74.8 161.69153 75.58125 161.89465Q76.70625 162.20715 77.14375 162.39465Q77.58125 162.58215 77.83125 162.94153Q78.08125 163.3009 78.08125 163.84778Q78.08125 164.37903 77.76875 164.84778Q77.47188 165.3009 76.89375 165.56653Q76.31563 165.81653 75.58125 165.81653Q74.3625 165.81653 73.72188 165.31653Q73.09688 164.8009 72.925 163.81653ZM80.34688 158.3009L80.34688 157.08215L81.40938 157.08215L81.40938 158.3009L80.34688 158.3009ZM80.34688 165.6759L80.34688 159.45715L81.40938 159.45715L81.40938 165.6759L80.34688 165.6759ZM83.59688 165.6759L83.59688 160.26965L82.65938 160.26965L82.65938 159.45715L83.59688 159.45715L83.59688 158.78528Q83.59688 158.16028 83.70625 157.8634Q83.8625 157.44153 84.2375 157.19153Q84.62813 156.94153 85.31563 156.94153Q85.76875 156.94153 86.3 157.0509L86.14375 157.95715Q85.81563 157.91028 85.51875 157.91028Q85.03438 157.91028 84.83125 158.1134Q84.64375 158.31653 84.64375 158.87903L84.64375 159.45715L85.8625 159.45715L85.8625 160.26965L84.64375 160.26965L84.64375 165.6759L83.59688 165.6759ZM85.925 163.81653L86.95625 163.66028Q87.05 164.28528 87.44063 164.6134Q87.84688 164.94153 88.58125 164.94153Q89.3 164.94153 89.64375 164.66028Q90.00313 164.3634 90.00313 163.95715Q90.00313 163.59778 89.69063 163.39465Q89.47188 163.25403 88.6125 163.03528Q87.45625 162.7384 87.00313 162.53528Q86.56563 162.31653 86.33125 161.94153Q86.09688 161.56653 86.09688 161.09778Q86.09688 160.69153 86.28438 160.33215Q86.47188 159.97278 86.8 159.7384Q87.05 159.56653 87.47188 159.44153Q87.89375 159.31653 88.39375 159.31653Q89.1125 159.31653 89.65938 159.53528Q90.22188 159.7384 90.4875 160.09778Q90.75313 160.45715 90.84688 161.0509L89.81563 161.19153Q89.75313 160.72278 89.40938 160.45715Q89.08125 160.1759 88.45625 160.1759Q87.7375 160.1759 87.425 160.4259Q87.1125 160.66028 87.1125 160.9884Q87.1125 161.19153 87.2375 161.34778Q87.37813 161.51965 87.64375 161.62903Q87.8 161.69153 88.58125 161.89465Q89.70625 162.20715 90.14375 162.39465Q90.58125 162.58215 90.83125 162.94153Q91.08125 163.3009 91.08125 163.84778Q91.08125 164.37903 90.76875 164.84778Q90.47188 165.3009 89.89375 165.56653Q89.31563 165.81653 88.58125 165.81653Q87.3625 165.81653 86.72188 165.31653Q86.09688 164.8009 85.925 163.81653Z" fill-rule="nonzero"/><path fill="#9e9e9e" d="M19.05 180.41028L20.1125 180.26965Q20.284374 181.16028 20.721874 181.56653Q21.159374 181.95715 21.784374 181.95715Q22.534374 181.95715 23.05 181.44153Q23.565624 180.9259 23.565624 180.16028Q23.565624 179.44153 23.08125 178.97278Q22.6125 178.4884 21.878124 178.4884Q21.58125 178.4884 21.128124 178.6134L21.253124 177.6759Q21.3625 177.69153 21.425 177.69153Q22.096874 177.69153 22.628124 177.34778Q23.175 176.9884 23.175 176.25403Q23.175 175.6759 22.784374 175.3009Q22.39375 174.91028 21.76875 174.91028Q21.159374 174.91028 20.7375 175.3009Q20.33125 175.69153 20.221874 176.45715L19.159374 176.26965Q19.346874 175.22278 20.034374 174.64465Q20.721874 174.0509 21.7375 174.0509Q22.440624 174.0509 23.034374 174.3634Q23.628124 174.66028 23.940624 175.1759Q24.253124 175.69153 24.253124 176.28528Q24.253124 176.83215 23.95625 177.3009Q23.659374 177.75403 23.08125 178.01965Q23.83125 178.19153 24.253124 178.75403Q24.675 179.3009 24.675 180.14465Q24.675 181.26965 23.846874 182.0509Q23.034374 182.83215 21.784374 182.83215Q20.659374 182.83215 19.909374 182.16028Q19.159374 181.47278 19.05 180.41028ZM27.675 178.01965Q27.01875 177.76965 26.690624 177.33215Q26.378124 176.87903 26.378124 176.26965Q26.378124 175.33215 27.05 174.69153Q27.7375 174.0509 28.846874 174.0509Q29.971874 174.0509 30.659374 174.70715Q31.346874 175.3634 31.346874 176.3009Q31.346874 176.89465 31.034374 177.33215Q30.721874 177.76965 30.08125 178.01965Q30.878124 178.26965 31.284374 178.84778Q31.690624 179.4259 31.690624 180.22278Q31.690624 181.31653 30.909374 182.06653Q30.14375 182.81653 28.8625 182.81653Q27.596874 182.81653 26.815624 182.06653Q26.034374 181.31653 26.034374 180.19153Q26.034374 179.34778 26.45625 178.78528Q26.89375 178.22278 27.675 178.01965ZM27.45625 176.22278Q27.45625 176.83215 27.846874 177.22278Q28.253124 177.6134 28.878124 177.6134Q29.4875 177.6134 29.878124 177.2384Q30.26875 176.84778 30.26875 176.28528Q30.26875 175.70715 29.8625 175.31653Q29.45625 174.91028 28.8625 174.91028Q28.253124 174.91028 27.846874 175.3009Q27.45625 175.69153 27.45625 176.22278ZM27.128124 180.19153Q27.128124 180.64465 27.33125 181.06653Q27.55 181.4884 27.971874 181.72278Q28.39375 181.95715 28.878124 181.95715Q29.628124 181.95715 30.1125 181.47278Q30.6125 180.9884 30.6125 180.2384Q30.6125 179.47278 30.1125 178.97278Q29.6125 178.47278 28.846874 178.47278Q28.096874 178.47278 27.6125 178.97278Q27.128124 179.45715 27.128124 180.19153ZM33.6125 182.6759L33.6125 181.47278L34.815624 181.47278L34.815624 182.6759Q34.815624 183.33215 34.58125 183.7384Q34.346874 184.16028 33.846874 184.37903L33.55 183.9259Q33.878124 183.78528 34.034374 183.4884Q34.190624 183.20715 34.221874 182.6759L33.6125 182.6759ZM41.51875 176.19153L40.471874 176.26965Q40.33125 175.64465 40.08125 175.3634Q39.64375 174.91028 39.01875 174.91028Q38.51875 174.91028 38.128124 175.19153Q37.64375 175.56653 37.346874 176.26965Q37.065624 176.95715 37.05 178.2384Q37.425 177.66028 37.971874 177.37903Q38.534374 177.09778 39.14375 177.09778Q40.190624 177.09778 40.925 177.87903Q41.675 178.66028 41.675 179.87903Q41.675 180.69153 41.315624 181.39465Q40.971874 182.08215 40.3625 182.45715Q39.753124 182.81653 38.9875 182.81653Q37.659374 182.81653 36.83125 181.84778Q36.003124 180.87903 36.003124 178.66028Q36.003124 176.16028 36.925 175.03528Q37.721874 174.0509 39.08125 174.0509Q40.096874 174.0509 40.7375 174.62903Q41.39375 175.19153 41.51875 176.19153ZM37.221874 179.89465Q37.221874 180.44153 37.440624 180.94153Q37.675 181.4259 38.08125 181.69153Q38.503124 181.95715 38.971874 181.95715Q39.628124 181.95715 40.1125 181.4259Q40.596874 180.87903 40.596874 179.95715Q40.596874 179.06653 40.1125 178.5509Q39.64375 178.03528 38.925 178.03528Q38.20625 178.03528 37.70625 178.5509Q37.221874 179.06653 37.221874 179.89465ZM43.253124 176.14465Q43.253124 175.22278 43.70625 174.58215Q44.175 173.94153 45.05 173.94153Q45.8625 173.94153 46.39375 174.51965Q46.925 175.09778 46.925 176.20715Q46.925 177.3009 46.378124 177.89465Q45.846874 178.47278 45.065624 178.47278Q44.284374 178.47278 43.76875 177.89465Q43.253124 177.31653 43.253124 176.14465ZM45.08125 174.66028Q44.690624 174.66028 44.425 175.00403Q44.175 175.34778 44.175 176.25403Q44.175 177.08215 44.425 177.4259Q44.690624 177.75403 45.08125 177.75403Q45.4875 177.75403 45.7375 177.41028Q46.003124 177.06653 46.003124 176.1759Q46.003124 175.33215 45.7375 175.00403Q45.471874 174.66028 45.08125 174.66028ZM45.08125 182.9884L49.784374 173.94153L50.64375 173.94153L45.95625 182.9884L45.08125 182.9884ZM48.8 180.66028Q48.8 179.7384 49.253124 179.09778Q49.721874 178.45715 50.6125 178.45715Q51.425 178.45715 51.95625 179.03528Q52.4875 179.59778 52.4875 180.72278Q52.4875 181.81653 51.940624 182.41028Q51.409374 182.9884 50.6125 182.9884Q49.846874 182.9884 49.315624 182.41028Q48.8 181.83215 48.8 180.66028ZM50.64375 179.1759Q50.2375 179.1759 49.971874 179.51965Q49.721874 179.8634 49.721874 180.76965Q49.721874 181.58215 49.9875 181.9259Q50.253124 182.26965 50.64375 182.26965Q51.034374 182.26965 51.3 181.9259Q51.565624 181.58215 51.565624 180.6759Q51.565624 179.84778 51.3 179.51965Q51.034374 179.1759 50.64375 179.1759Z" fill-rule="nonzero"/><path stroke="#757575" stroke-width="1.0" stroke-linecap="butt" d="M18.55 170.1759L157.23334 170.1759L178.30183 170.1759" fill-rule="nonzero"/><path fill="#9e9e9e" d="M180.30183 170.1759C180.30183 169.07133 179.4064 168.1759 178.30183 168.1759C177.19725 168.1759 176.30183 169.07133 176.30183 170.1759C176.30183 171.28047 177.19725 172.1759 178.30183 172.1759C179.4064 172.1759 180.30183 171.28047 180.30183 170.1759" fill-rule="nonzero"/><path fill="#1a1a1a" d="M533.40314 256.69077L533.40314 248.09702L539.60626 248.09702L539.60626 249.11264L534.54376 249.11264L534.54376 251.73764L539.29376 251.73764L539.29376 252.75327L534.54376 252.75327L534.54376 255.67514L539.8094 255.67514L539.8094 256.69077L533.40314 256.69077ZM540.54376 256.69077L542.8094 253.45639L540.71564 250.47202L542.02814 250.47202L542.98126 251.92514Q543.2469 252.34702 543.41876 252.62827Q543.66876 252.23764 543.8875 251.94077L544.9344 250.47202L546.2 250.47202L544.04376 253.39389L546.35626 256.69077L545.075 256.69077L543.79376 254.75327L543.45 254.23764L541.8094 256.69077L540.54376 256.69077ZM550.3094 254.40952L551.34064 254.55014Q551.16876 255.61264 550.46564 256.22202Q549.7625 256.8314 548.7469 256.8314Q547.46564 256.8314 546.6844 256.00327Q545.91876 255.15952 545.91876 253.59702Q545.91876 252.59702 546.2469 251.84702Q546.59064 251.08139 547.2625 250.70639Q547.95 250.33139 548.7625 250.33139Q549.7625 250.33139 550.40314 250.84702Q551.0594 251.34702 551.2469 252.30014L550.21564 252.45639Q550.075 251.83139 549.7 251.51889Q549.325 251.19077 548.79376 251.19077Q547.9969 251.19077 547.4969 251.76889Q546.9969 252.33139 546.9969 253.56577Q546.9969 254.83139 547.48126 255.39389Q547.96564 255.95639 548.73126 255.95639Q549.35626 255.95639 549.7625 255.58139Q550.1844 255.20639 550.3094 254.40952ZM552.21564 256.69077L552.21564 248.09702L553.27814 248.09702L553.27814 256.69077L552.21564 256.69077ZM559.325 256.69077L559.325 255.76889Q558.59064 256.8314 557.34064 256.8314Q556.79376 256.8314 556.3094 256.62827Q555.84064 256.40952 555.60626 256.09702Q555.3719 255.76889 555.27814 255.30014Q555.21564 255.00327 555.21564 254.31577L555.21564 250.47202L556.27814 250.47202L556.27814 253.92514Q556.27814 254.73764 556.34064 255.03452Q556.4344 255.44077 556.7469 255.69077Q557.075 255.92514 557.5594 255.92514Q558.02814 255.92514 558.4344 255.69077Q558.85626 255.44077 559.02814 255.01889Q559.21564 254.59702 559.21564 253.80014L559.21564 250.47202L560.2625 250.47202L560.2625 256.69077L559.325 256.69077ZM561.825 254.83139L562.85626 254.67514Q562.95 255.30014 563.34064 255.62827Q563.7469 255.95639 564.48126 255.95639Q565.2 255.95639 565.54376 255.67514Q565.90314 255.37827 565.90314 254.97202Q565.90314 254.61264 565.59064 254.40952Q565.3719 254.26889 564.5125 254.05014Q563.35626 253.75327 562.90314 253.55014Q562.46564 253.33139 562.23126 252.95639Q561.9969 252.58139 561.9969 252.11264Q561.9969 251.70639 562.1844 251.34702Q562.3719 250.98764 562.7 250.75327Q562.95 250.58139 563.3719 250.45639Q563.79376 250.33139 564.29376 250.33139Q565.0125 250.33139 565.5594 250.55014Q566.1219 250.75327 566.3875 251.11264Q566.65314 251.47202 566.7469 252.06577L565.71564 252.20639Q565.65314 251.73764 565.3094 251.47202Q564.98126 251.19077 564.35626 251.19077Q563.6375 251.19077 563.325 251.44077Q563.0125 251.67514 563.0125 252.00327Q563.0125 252.20639 563.1375 252.36264Q563.27814 252.53452 563.54376 252.64389Q563.7 252.70639 564.48126 252.90952Q565.60626 253.22202 566.04376 253.40952Q566.48126 253.59702 566.73126 253.95639Q566.98126 254.31577 566.98126 254.86264Q566.98126 255.39389 566.66876 255.86264Q566.3719 256.31577 565.79376 256.5814Q565.21564 256.8314 564.48126 256.8314Q563.2625 256.8314 562.6219 256.3314Q561.9969 255.81577 561.825 254.83139ZM569.2469 249.31577L569.2469 248.09702L570.3094 248.09702L570.3094 249.31577L569.2469 249.31577ZM569.2469 256.69077L569.2469 250.47202L570.3094 250.47202L570.3094 256.69077L569.2469 256.69077ZM572.4969 256.69077L572.4969 251.28452L571.5594 251.28452L571.5594 250.47202L572.4969 250.47202L572.4969 249.80014Q572.4969 249.17514 572.60626 248.87827Q572.7625 248.45639 573.1375 248.20639Q573.52814 247.95639 574.21564 247.95639Q574.66876 247.95639 575.2 248.06577L575.04376 248.97202Q574.71564 248.92514 574.41876 248.92514Q573.9344 248.92514 573.73126 249.12827Q573.54376 249.33139 573.54376 249.89389L573.54376 250.47202L574.7625 250.47202L574.7625 251.28452L573.54376 251.28452L573.54376 256.69077L572.4969 256.69077ZM574.825 254.83139L575.85626 254.67514Q575.95 255.30014 576.34064 255.62827Q576.7469 255.95639 577.48126 255.95639Q578.2 255.95639 578.54376 255.67514Q578.90314 255.37827 578.90314 254.97202Q578.90314 254.61264 578.59064 254.40952Q578.3719 254.26889 577.5125 254.05014Q576.35626 253.75327 575.90314 253.55014Q575.46564 253.33139 575.23126 252.95639Q574.9969 252.58139 574.9969 252.11264Q574.9969 251.70639 575.1844 251.34702Q575.3719 250.98764 575.7 250.75327Q575.95 250.58139 576.3719 250.45639Q576.79376 250.33139 577.29376 250.33139Q578.0125 250.33139 578.5594 250.55014Q579.1219 250.75327 579.3875 251.11264Q579.65314 251.47202 579.7469 252.06577L578.71564 252.20639Q578.65314 251.73764 578.3094 251.47202Q577.98126 251.19077 577.35626 251.19077Q576.6375 251.19077 576.325 251.44077Q576.0125 251.67514 576.0125 252.00327Q576.0125 252.20639 576.1375 252.36264Q576.27814 252.53452 576.54376 252.64389Q576.7 252.70639 577.48126 252.90952Q578.60626 253.22202 579.04376 253.40952Q579.48126 253.59702 579.73126 253.95639Q579.98126 254.31577 579.98126 254.86264Q579.98126 255.39389 579.66876 255.86264Q579.3719 256.31577 578.79376 256.5814Q578.21564 256.8314 577.48126 256.8314Q576.2625 256.8314 575.6219 256.3314Q574.9969 255.81577 574.825 254.83139Z" fill-rule="nonzero"/><path fill="#9e9e9e" d="M552.41876 267.2064L551.3719 267.28452Q551.23126 266.65952 550.98126 266.37827Q550.54376 265.92514 549.91876 265.92514Q549.41876 265.92514 549.02814 266.2064Q548.54376 266.5814 548.2469 267.28452Q547.96564 267.97202 547.95 269.25327Q548.325 268.67514 548.8719 268.3939Q549.4344 268.11264 550.04376 268.11264Q551.09064 268.11264 551.825 268.8939Q552.575 269.67514 552.575 270.8939Q552.575 271.7064 552.21564 272.40952Q551.8719 273.09702 551.2625 273.47202Q550.65314 273.8314 549.8875 273.8314Q548.5594 273.8314 547.73126 272.86264Q546.90314 271.8939 546.90314 269.67514Q546.90314 267.17514 547.825 266.05014Q548.6219 265.06577 549.98126 265.06577Q550.9969 265.06577 551.6375 265.6439Q552.29376 266.2064 552.41876 267.2064ZM548.1219 270.90952Q548.1219 271.4564 548.34064 271.9564Q548.575 272.44077 548.98126 272.7064Q549.40314 272.97202 549.8719 272.97202Q550.52814 272.97202 551.0125 272.44077Q551.4969 271.8939 551.4969 270.97202Q551.4969 270.0814 551.0125 269.56577Q550.54376 269.05014 549.825 269.05014Q549.10626 269.05014 548.60626 269.56577Q548.1219 270.0814 548.1219 270.90952ZM557.91876 273.69077L556.8719 273.69077L556.8719 266.97202Q556.48126 267.3314 555.85626 267.7064Q555.2469 268.06577 554.7625 268.23764L554.7625 267.22202Q555.6375 266.80014 556.29376 266.22202Q556.96564 265.62827 557.2469 265.06577L557.91876 265.06577L557.91876 273.69077ZM561.5125 273.69077L561.5125 272.48764L562.71564 272.48764L562.71564 273.69077Q562.71564 274.34702 562.48126 274.75327Q562.2469 275.17514 561.7469 275.3939L561.45 274.94077Q561.77814 274.80014 561.9344 274.50327Q562.09064 274.22202 562.1219 273.69077L561.5125 273.69077ZM567.325 273.69077L567.325 271.62827L563.60626 271.62827L563.60626 270.65952L567.52814 265.09702L568.3875 265.09702L568.3875 270.65952L569.54376 270.65952L569.54376 271.62827L568.3875 271.62827L568.3875 273.69077L567.325 273.69077ZM567.325 270.65952L567.325 266.80014L564.6375 270.65952L567.325 270.65952ZM571.15314 267.15952Q571.15314 266.23764 571.60626 265.59702Q572.075 264.9564 572.95 264.9564Q573.7625 264.9564 574.29376 265.53452Q574.825 266.11264 574.825 267.22202Q574.825 268.31577 574.27814 268.90952Q573.7469 269.48764 572.96564 269.48764Q572.1844 269.48764 571.66876 268.90952Q571.15314 268.3314 571.15314 267.15952ZM572.98126 265.67514Q572.59064 265.67514 572.325 266.0189Q572.075 266.36264 572.075 267.2689Q572.075 268.09702 572.325 268.44077Q572.59064 268.7689 572.98126 268.7689Q573.3875 268.7689 573.6375 268.42514Q573.90314 268.0814 573.90314 267.19077Q573.90314 266.34702 573.6375 266.0189Q573.3719 265.67514 572.98126 265.67514ZM572.98126 274.00327L577.6844 264.9564L578.54376 264.9564L573.85626 274.00327L572.98126 274.00327ZM576.7 271.67514Q576.7 270.75327 577.15314 270.11264Q577.6219 269.47202 578.5125 269.47202Q579.325 269.47202 579.85626 270.05014Q580.3875 270.61264 580.3875 271.73764Q580.3875 272.8314 579.84064 273.42514Q579.3094 274.00327 578.5125 274.00327Q577.7469 274.00327 577.21564 273.42514Q576.7 272.84702 576.7 271.67514ZM578.54376 270.19077Q578.1375 270.19077 577.8719 270.53452Q577.6219 270.87827 577.6219 271.78452Q577.6219 272.59702 577.8875 272.94077Q578.15314 273.28452 578.54376 273.28452Q578.9344 273.28452 579.2 272.94077Q579.46564 272.59702 579.46564 271.69077Q579.46564 270.86264 579.2 270.53452Q578.9344 270.19077 578.54376 270.19077Z" fill-rule="nonzero"/><path stroke="#757575" stroke-width="1.0" stroke-linecap="butt" d="M581.45 261.19077L442.76666 261.19077L421.69818 261.19077" fill-rule="nonzero"/><path fill="#9e9e9e" d="M423.69818 261.19077C423.69818 260.08618 422.80273 259.19077 421.69818 259.19077C420.5936 259.19077 419.69818 260.08618 419.69818 261.19077C419.69818 262.29535 420.5936 263.19077 421.69818 263.19077C422.80273 263.19077 423.69818 262.29535 423.69818 261.19077" fill-rule="nonzero"/><path fill="#757575" d="M20.128124 37.55L20.128124 23.2375L26.471874 23.2375Q28.378124 23.2375 29.378124 23.628124Q30.378124 24.003124 30.971874 24.9875Q31.565624 25.95625 31.565624 27.14375Q31.565624 28.659374 30.58125 29.70625Q29.596874 30.753124 27.534374 31.034374Q28.284374 31.39375 28.675 31.753124Q29.503124 32.503124 30.253124 33.659374L32.7375 37.55L30.3625 37.55L28.45625 34.565624Q27.628124 33.284374 27.096874 32.596874Q26.565624 31.909374 26.128124 31.64375Q25.70625 31.3625 25.26875 31.253124Q24.940624 31.190624 24.221874 31.190624L22.01875 31.190624L22.01875 37.55L20.128124 37.55ZM22.01875 29.55L26.096874 29.55Q27.39375 29.55 28.1125 29.284374Q28.846874 29.01875 29.221874 28.425Q29.6125 27.83125 29.6125 27.14375Q29.6125 26.128124 28.878124 25.471874Q28.14375 24.815624 26.55 24.815624L22.01875 24.815624L22.01875 29.55ZM40.971874 34.20625L42.784374 34.440624Q42.3625 36.01875 41.190624 36.909374Q40.034374 37.784374 38.221874 37.784374Q35.95625 37.784374 34.6125 36.39375Q33.284374 34.9875 33.284374 32.45625Q33.284374 29.83125 34.628124 28.39375Q35.971874 26.940624 38.128124 26.940624Q40.20625 26.940624 41.51875 28.3625Q42.846874 29.76875 42.846874 32.346874Q42.846874 32.503124 42.83125 32.815624L35.096874 32.815624Q35.190624 34.51875 36.065624 35.425Q36.940624 36.33125 38.2375 36.33125Q39.20625 36.33125 39.878124 35.83125Q40.565624 35.315624 40.971874 34.20625ZM35.190624 31.3625L40.9875 31.3625Q40.878124 30.065624 40.33125 29.409374Q39.4875 28.39375 38.14375 28.39375Q36.940624 28.39375 36.1125 29.20625Q35.284374 30.003124 35.190624 31.3625ZM37.096874 25.89375L38.39375 23.159374L40.690624 23.159374L38.55 25.89375L37.096874 25.89375ZM44.8625 41.51875L44.8625 27.175L46.471874 27.175L46.471874 28.51875Q47.034374 27.7375 47.7375 27.346874Q48.45625 26.940624 49.471874 26.940624Q50.8 26.940624 51.815624 27.628124Q52.83125 28.315624 53.346874 29.565624Q53.878124 30.8 53.878124 32.284374Q53.878124 33.878124 53.3 35.159374Q52.7375 36.425 51.64375 37.1125Q50.55 37.784374 49.346874 37.784374Q48.471874 37.784374 47.76875 37.409374Q47.08125 37.034374 46.628124 36.471874L46.628124 41.51875L44.8625 41.51875ZM46.45625 32.425Q46.45625 34.425 47.26875 35.378124Q48.08125 36.33125 49.2375 36.33125Q50.409374 36.33125 51.2375 35.346874Q52.08125 34.3625 52.08125 32.26875Q52.08125 30.3 51.253124 29.315624Q50.440624 28.315624 49.315624 28.315624Q48.190624 28.315624 47.315624 29.378124Q46.45625 30.425 46.45625 32.425ZM62.64375 36.26875Q61.659374 37.096874 60.753124 37.440624Q59.846874 37.784374 58.815624 37.784374Q57.1125 37.784374 56.190624 36.95625Q55.26875 36.1125 55.26875 34.815624Q55.26875 34.05 55.6125 33.425Q55.971874 32.8 56.534374 32.425Q57.096874 32.034374 57.8 31.83125Q58.315624 31.70625 59.3625 31.565624Q61.4875 31.315624 62.4875 30.971874Q62.503124 30.6125 62.503124 30.503124Q62.503124 29.440624 62.003124 28.9875Q61.33125 28.39375 60.003124 28.39375Q58.753124 28.39375 58.159374 28.83125Q57.58125 29.26875 57.3 30.378124L55.58125 30.14375Q55.815624 29.034374 56.346874 28.3625Q56.878124 27.675 57.89375 27.315624Q58.909374 26.940624 60.253124 26.940624Q61.58125 26.940624 62.409374 27.253124Q63.2375 27.565624 63.628124 28.05Q64.01875 28.51875 64.175 29.2375Q64.26875 29.690624 64.26875 30.8625L64.26875 33.20625Q64.26875 35.659374 64.37813 36.315624Q64.4875 36.95625 64.83125 37.55L62.9875 37.55Q62.721874 37.003124 62.64375 36.26875ZM62.4875 32.346874Q61.534374 32.7375 59.6125 33.003124Q58.534374 33.159374 58.08125 33.3625Q57.64375 33.55 57.39375 33.925Q57.14375 34.3 57.14375 34.76875Q57.14375 35.471874 57.675 35.940624Q58.20625 36.409374 59.2375 36.409374Q60.253124 36.409374 61.034374 35.971874Q61.83125 35.51875 62.20625 34.753124Q62.4875 34.14375 62.4875 32.9875L62.4875 32.346874ZM66.84688 37.55L66.84688 27.175L68.425 27.175L68.425 28.753124Q69.03438 27.64375 69.55 27.3Q70.06563 26.940624 70.675 26.940624Q71.56563 26.940624 72.4875 27.503124L71.87813 29.14375Q71.2375 28.753124 70.59688 28.753124Q70.01875 28.753124 69.55 29.1125Q69.09688 29.45625 68.89375 30.065624Q68.6125 31.003124 68.6125 32.1125L68.6125 37.55L66.84688 37.55ZM77.70625 35.971874L77.95625 37.534374Q77.22188 37.690624 76.62813 37.690624Q75.675 37.690624 75.14375 37.39375Q74.62813 37.08125 74.40938 36.596874Q74.19063 36.096874 74.19063 34.51875L74.19063 28.55L72.90938 28.55L72.90938 27.175L74.19063 27.175L74.19063 24.6125L75.94063 23.55L75.94063 27.175L77.70625 27.175L77.70625 28.55L75.94063 28.55L75.94063 34.6125Q75.94063 35.3625 76.03438 35.58125Q76.12813 35.784374 76.33125 35.925Q76.55 36.05 76.94063 36.05Q77.22188 36.05 77.70625 35.971874ZM79.87813 25.253124L79.87813 23.2375L81.64375 23.2375L81.64375 25.253124L79.87813 25.253124ZM79.87813 37.55L79.87813 27.175L81.64375 27.175L81.64375 37.55L79.87813 37.55ZM87.70625 35.971874L87.95625 37.534374Q87.22188 37.690624 86.62813 37.690624Q85.675 37.690624 85.14375 37.39375Q84.62813 37.08125 84.40938 36.596874Q84.19063 36.096874 84.19063 34.51875L84.19063 28.55L82.90938 28.55L82.90938 27.175L84.19063 27.175L84.19063 24.6125L85.94063 23.55L85.94063 27.175L87.70625 27.175L87.70625 28.55L85.94063 28.55L85.94063 34.6125Q85.94063 35.3625 86.03438 35.58125Q86.12813 35.784374 86.33125 35.925Q86.55 36.05 86.94063 36.05Q87.22188 36.05 87.70625 35.971874ZM89.87813 25.253124L89.87813 23.2375L91.64375 23.2375L91.64375 25.253124L89.87813 25.253124ZM89.87813 37.55L89.87813 27.175L91.64375 27.175L91.64375 37.55L89.87813 37.55ZM93.22188 32.3625Q93.22188 29.4875 94.81563 28.096874Q96.15938 26.940624 98.08125 26.940624Q100.22188 26.940624 101.56563 28.346874Q102.925 29.753124 102.925 32.221874Q102.925 34.221874 102.33125 35.378124Q101.7375 36.51875 100.58125 37.159374Q99.44063 37.784374 98.08125 37.784374Q95.89375 37.784374 94.55 36.39375Q93.22188 34.9875 93.22188 32.3625ZM95.01875 32.3625Q95.01875 34.3625 95.87813 35.346874Q96.75313 36.33125 98.08125 36.33125Q99.39375 36.33125 100.25313 35.346874Q101.12813 34.346874 101.12813 32.3Q101.12813 30.378124 100.25313 29.39375Q99.37813 28.39375 98.08125 28.39375Q96.75313 28.39375 95.87813 29.39375Q95.01875 30.378124 95.01875 32.3625ZM104.8625 37.55L104.8625 27.175L106.45625 27.175L106.45625 28.659374Q107.59688 26.940624 109.75313 26.940624Q110.69063 26.940624 111.47188 27.284374Q112.26875 27.6125 112.65938 28.159374Q113.05 28.70625 113.20625 29.45625Q113.3 29.95625 113.3 31.175L113.3 37.55L111.53438 37.55L111.53438 31.2375Q111.53438 30.159374 111.33125 29.628124Q111.12813 29.096874 110.59688 28.784374Q110.08125 28.471874 109.37813 28.471874Q108.25313 28.471874 107.44063 29.190624Q106.62813 29.89375 106.62813 31.878124L106.62813 37.55L104.8625 37.55ZM127.59688 37.55L127.59688 36.2375Q126.6125 37.784374 124.69063 37.784374Q123.45625 37.784374 122.40938 37.096874Q121.37813 36.409374 120.8 35.190624Q120.2375 33.971874 120.2375 32.378124Q120.2375 30.815624 120.75313 29.55Q121.26875 28.284374 122.3 27.6125Q123.34688 26.940624 124.6125 26.940624Q125.55 26.940624 126.28438 27.346874Q127.01875 27.7375 127.4875 28.3625L127.4875 23.2375L129.22188 23.2375L129.22188 37.55L127.59688 37.55ZM122.03438 32.378124Q122.03438 34.3625 122.87813 35.346874Q123.72188 36.33125 124.8625 36.33125Q126.01875 36.33125 126.81563 35.39375Q127.62813 34.45625 127.62813 32.51875Q127.62813 30.39375 126.8 29.39375Q125.9875 28.39375 124.78438 28.39375Q123.6125 28.39375 122.81563 29.3625Q122.03438 30.315624 122.03438 32.378124ZM138.97188 34.20625L140.78438 34.440624Q140.3625 36.01875 139.19063 36.909374Q138.03438 37.784374 136.22188 37.784374Q133.95625 37.784374 132.6125 36.39375Q131.28438 34.9875 131.28438 32.45625Q131.28438 29.83125 132.62813 28.39375Q133.97188 26.940624 136.12813 26.940624Q138.20625 26.940624 139.51875 28.3625Q140.84688 29.76875 140.84688 32.346874Q140.84688 32.503124 140.83125 32.815624L133.09688 32.815624Q133.19063 34.51875 134.06563 35.425Q134.94063 36.33125 136.2375 36.33125Q137.20625 36.33125 137.87813 35.83125Q138.56563 35.315624 138.97188 34.20625ZM133.19063 31.3625L138.9875 31.3625Q138.87813 30.065624 138.33125 29.409374Q137.4875 28.39375 136.14375 28.39375Q134.94063 28.39375 134.1125 29.20625Q133.28438 30.003124 133.19063 31.3625ZM142.15938 34.45625L143.90938 34.175Q144.05 35.221874 144.72188 35.784374Q145.39375 36.33125 146.59688 36.33125Q147.8 36.33125 148.37813 35.846874Q148.97188 35.346874 148.97188 34.690624Q148.97188 34.096874 148.45625 33.753124Q148.09688 33.51875 146.65938 33.159374Q144.72188 32.659374 143.97188 32.315624Q143.2375 31.95625 142.84688 31.33125Q142.45625 30.690624 142.45625 29.925Q142.45625 29.2375 142.76875 28.64375Q143.09688 28.05 143.64375 27.659374Q144.05 27.3625 144.75313 27.159374Q145.47188 26.940624 146.28438 26.940624Q147.50313 26.940624 148.425 27.3Q149.34688 27.64375 149.78438 28.253124Q150.22188 28.846874 150.39375 29.846874L148.675 30.08125Q148.55 29.284374 147.9875 28.846874Q147.425 28.39375 146.40938 28.39375Q145.19063 28.39375 144.675 28.8Q144.15938 29.190624 144.15938 29.721874Q144.15938 30.065624 144.37813 30.346874Q144.58125 30.628124 145.05 30.815624Q145.31563 30.909374 146.59688 31.253124Q148.47188 31.753124 149.20625 32.08125Q149.94063 32.39375 150.3625 33.003124Q150.78438 33.596874 150.78438 34.503124Q150.78438 35.378124 150.26875 36.159374Q149.75313 36.940624 148.78438 37.3625Q147.81563 37.784374 146.59688 37.784374Q144.58125 37.784374 143.51875 36.940624Q142.45625 36.096874 142.15938 34.45625ZM158.22188 32.3625Q158.22188 29.4875 159.81563 28.096874Q161.15938 26.940624 163.08125 26.940624Q165.22188 26.940624 166.56563 28.346874Q167.925 29.753124 167.925 32.221874Q167.925 34.221874 167.33125 35.378124Q166.7375 36.51875 165.58125 37.159374Q164.44063 37.784374 163.08125 37.784374Q160.89375 37.784374 159.55 36.39375Q158.22188 34.9875 158.22188 32.3625ZM160.01875 32.3625Q160.01875 34.3625 160.87813 35.346874Q161.75313 36.33125 163.08125 36.33125Q164.39375 36.33125 165.25313 35.346874Q166.12813 34.346874 166.12813 32.3Q166.12813 30.378124 165.25313 29.39375Q164.37813 28.39375 163.08125 28.39375Q161.75313 28.39375 160.87813 29.39375Q160.01875 30.378124 160.01875 32.3625ZM169.15938 34.45625L170.90938 34.175Q171.05 35.221874 171.72188 35.784374Q172.39375 36.33125 173.59688 36.33125Q174.8 36.33125 175.37813 35.846874Q175.97188 35.346874 175.97188 34.690624Q175.97188 34.096874 175.45625 33.753124Q175.09688 33.51875 173.65938 33.159374Q171.72188 32.659374 170.97188 32.315624Q170.2375 31.95625 169.84688 31.33125Q169.45625 30.690624 169.45625 29.925Q169.45625 29.2375 169.76875 28.64375Q170.09688 28.05 170.64375 27.659374Q171.05 27.3625 171.75313 27.159374Q172.47188 26.940624 173.28438 26.940624Q174.50313 26.940624 175.425 27.3Q176.34688 27.64375 176.78438 28.253124Q177.22188 28.846874 177.39375 29.846874L175.675 30.08125Q175.55 29.284374 174.9875 28.846874Q174.425 28.39375 173.40938 28.39375Q172.19063 28.39375 171.675 28.8Q171.15938 29.190624 171.15938 29.721874Q171.15938 30.065624 171.37813 30.346874Q171.58125 30.628124 172.05 30.815624Q172.31563 30.909374 173.59688 31.253124Q175.47188 31.753124 176.20625 32.08125Q176.94063 32.39375 177.3625 33.003124Q177.78438 33.596874 177.78438 34.503124Q177.78438 35.378124 177.26875 36.159374Q176.75313 36.940624 175.78438 37.3625Q174.81563 37.784374 173.59688 37.784374Q171.58125 37.784374 170.51875 36.940624Q169.45625 36.096874 169.15938 34.45625ZM183.70625 35.971874L183.95625 37.534374Q183.22188 37.690624 182.62813 37.690624Q181.675 37.690624 181.14375 37.39375Q180.62813 37.08125 180.40938 36.596874Q180.19063 36.096874 180.19063 34.51875L180.19063 28.55L178.90938 28.55L178.90938 27.175L180.19063 27.175L180.19063 24.6125L181.94063 23.55L181.94063 27.175L183.70625 27.175L183.70625 28.55L181.94063 28.55L181.94063 34.6125Q181.94063 35.3625 182.03438 35.58125Q182.12813 35.784374 182.33125 35.925Q182.55 36.05 182.94063 36.05Q183.22188 36.05 183.70625 35.971874ZM192.97188 34.20625L194.78438 34.440624Q194.3625 36.01875 193.19063 36.909374Q192.03438 37.784374 190.22188 37.784374Q187.95625 37.784374 186.6125 36.39375Q185.28438 34.9875 185.28438 32.45625Q185.28438 29.83125 186.62813 28.39375Q187.97188 26.940624 190.12813 26.940624Q192.20625 26.940624 193.51875 28.3625Q194.84688 29.76875 194.84688 32.346874Q194.84688 32.503124 194.83125 32.815624L187.09688 32.815624Q187.19063 34.51875 188.06563 35.425Q188.94063 36.33125 190.2375 36.33125Q191.20625 36.33125 191.87813 35.83125Q192.56563 35.315624 192.97188 34.20625ZM187.19063 31.3625L192.9875 31.3625Q192.87813 30.065624 192.33125 29.409374Q191.4875 28.39375 190.14375 28.39375Q188.94063 28.39375 188.1125 29.20625Q187.28438 30.003124 187.19063 31.3625ZM189.09688 25.89375L190.39375 23.159374L192.69063 23.159374L190.55 25.89375L189.09688 25.89375ZM196.22188 32.3625Q196.22188 29.4875 197.81563 28.096874Q199.15938 26.940624 201.08125 26.940624Q203.22188 26.940624 204.56563 28.346874Q205.925 29.753124 205.925 32.221874Q205.925 34.221874 205.33125 35.378124Q204.7375 36.51875 203.58125 37.159374Q202.44063 37.784374 201.08125 37.784374Q198.89375 37.784374 197.55 36.39375Q196.22188 34.9875 196.22188 32.3625ZM198.01875 32.3625Q198.01875 34.3625 198.87813 35.346874Q199.75313 36.33125 201.08125 36.33125Q202.39375 36.33125 203.25313 35.346874Q204.12813 34.346874 204.12813 32.3Q204.12813 30.378124 203.25313 29.39375Q202.37813 28.39375 201.08125 28.39375Q199.75313 28.39375 198.87813 29.39375Q198.01875 30.378124 198.01875 32.3625ZM207.8625 41.51875L207.8625 27.175L209.47188 27.175L209.47188 28.51875Q210.03438 27.7375 210.7375 27.346874Q211.45625 26.940624 212.47188 26.940624Q213.8 26.940624 214.81563 27.628124Q215.83125 28.315624 216.34688 29.565624Q216.87813 30.8 216.87813 32.284374Q216.87813 33.878124 216.3 35.159374Q215.7375 36.425 214.64375 37.1125Q213.55 37.784374 212.34688 37.784374Q211.47188 37.784374 210.76875 37.409374Q210.08125 37.034374 209.62813 36.471874L209.62813 41.51875L207.8625 41.51875ZM209.45625 32.425Q209.45625 34.425 210.26875 35.378124Q211.08125 36.33125 212.2375 36.33125Q213.40938 36.33125 214.2375 35.346874Q215.08125 34.3625 215.08125 32.26875Q215.08125 30.3 214.25313 29.315624Q213.44063 28.315624 212.31563 28.315624Q211.19063 28.315624 210.31563 29.378124Q209.45625 30.425 209.45625 32.425ZM225.64375 36.26875Q224.65938 37.096874 223.75313 37.440624Q222.84688 37.784374 221.81563 37.784374Q220.1125 37.784374 219.19063 36.95625Q218.26875 36.1125 218.26875 34.815624Q218.26875 34.05 218.6125 33.425Q218.97188 32.8 219.53438 32.425Q220.09688 32.034374 220.8 31.83125Q221.31563 31.70625 222.3625 31.565624Q224.4875 31.315624 225.4875 30.971874Q225.50313 30.6125 225.50313 30.503124Q225.50313 29.440624 225.00313 28.9875Q224.33125 28.39375 223.00313 28.39375Q221.75313 28.39375 221.15938 28.83125Q220.58125 29.26875 220.3 30.378124L218.58125 30.14375Q218.81563 29.034374 219.34688 28.3625Q219.87813 27.675 220.89375 27.315624Q221.90938 26.940624 223.25313 26.940624Q224.58125 26.940624 225.40938 27.253124Q226.2375 27.565624 226.62813 28.05Q227.01875 28.51875 227.175 29.2375Q227.26875 29.690624 227.26875 30.8625L227.26875 33.20625Q227.26875 35.659374 227.37813 36.315624Q227.4875 36.95625 227.83125 37.55L225.9875 37.55Q225.72188 37.003124 225.64375 36.26875ZM225.4875 32.346874Q224.53438 32.7375 222.6125 33.003124Q221.53438 33.159374 221.08125 33.3625Q220.64375 33.55 220.39375 33.925Q220.14375 34.3 220.14375 34.76875Q220.14375 35.471874 220.675 35.940624Q221.20625 36.409374 222.2375 36.409374Q223.25313 36.409374 224.03438 35.971874Q224.83125 35.51875 225.20625 34.753124Q225.4875 34.14375 225.4875 32.9875L225.4875 32.346874ZM233.70625 35.971874L233.95625 37.534374Q233.22188 37.690624 232.62813 37.690624Q231.675 37.690624 231.14375 37.39375Q230.62813 37.08125 230.40938 36.596874Q230.19063 36.096874 230.19063 34.51875L230.19063 28.55L228.90938 28.55L228.90938 27.175L230.19063 27.175L230.19063 24.6125L231.94063 23.55L231.94063 27.175L233.70625 27.175L233.70625 28.55L231.94063 28.55L231.94063 34.6125Q231.94063 35.3625 232.03438 35.58125Q232.12813 35.784374 232.33125 35.925Q232.55 36.05 232.94063 36.05Q233.22188 36.05 233.70625 35.971874ZM235.8625 37.55L235.8625 23.2375L237.62813 23.2375L237.62813 28.3625Q238.8625 26.940624 240.7375 26.940624Q241.87813 26.940624 242.72188 27.39375Q243.58125 27.846874 243.94063 28.659374Q244.31563 29.45625 244.31563 30.971874L244.31563 37.55L242.56563 37.55L242.56563 30.971874Q242.56563 29.659374 241.9875 29.065624Q241.40938 28.45625 240.37813 28.45625Q239.59688 28.45625 238.89375 28.8625Q238.20625 29.26875 237.90938 29.971874Q237.62813 30.659374 237.62813 31.878124L237.62813 37.55L235.8625 37.55ZM252.97188 34.20625L254.78438 34.440624Q254.3625 36.01875 253.19063 36.909374Q252.03438 37.784374 250.22188 37.784374Q247.95625 37.784374 246.6125 36.39375Q245.28438 34.9875 245.28438 32.45625Q245.28438 29.83125 246.62813 28.39375Q247.97188 26.940624 250.12813 26.940624Q252.20625 26.940624 253.51875 28.3625Q254.84688 29.76875 254.84688 32.346874Q254.84688 32.503124 254.83125 32.815624L247.09688 32.815624Q247.19063 34.51875 248.06563 35.425Q248.94063 36.33125 250.2375 36.33125Q251.20625 36.33125 251.87813 35.83125Q252.56563 35.315624 252.97188 34.20625ZM247.19063 31.3625L252.9875 31.3625Q252.87813 30.065624 252.33125 29.409374Q251.4875 28.39375 250.14375 28.39375Q248.94063 28.39375 248.1125 29.20625Q247.28438 30.003124 247.19063 31.3625ZM256.15936 34.45625L257.90936 34.175Q258.05 35.221874 258.72186 35.784374Q259.39374 36.33125 260.59686 36.33125Q261.8 36.33125 262.3781 35.846874Q262.97186 35.346874 262.97186 34.690624Q262.97186 34.096874 262.45624 33.753124Q262.09686 33.51875 260.65936 33.159374Q258.72186 32.659374 257.97186 32.315624Q257.2375 31.95625 256.84686 31.33125Q256.45624 30.690624 256.45624 29.925Q256.45624 29.2375 256.76874 28.64375Q257.09686 28.05 257.64374 27.659374Q258.05 27.3625 258.7531 27.159374Q259.47186 26.940624 260.28436 26.940624Q261.5031 26.940624 262.425 27.3Q263.34686 27.64375 263.78436 28.253124Q264.22186 28.846874 264.39374 29.846874L262.675 30.08125Q262.55 29.284374 261.9875 28.846874Q261.425 28.39375 260.40936 28.39375Q259.1906 28.39375 258.675 28.8Q258.15936 29.190624 258.15936 29.721874Q258.15936 30.065624 258.3781 30.346874Q258.58124 30.628124 259.05 30.815624Q259.3156 30.909374 260.59686 31.253124Q262.47186 31.753124 263.20624 32.08125Q263.9406 32.39375 264.3625 33.003124Q264.78436 33.596874 264.78436 34.503124Q264.78436 35.378124 264.26874 36.159374Q263.7531 36.940624 262.78436 37.3625Q261.8156 37.784374 260.59686 37.784374Q258.58124 37.784374 257.51874 36.940624Q256.45624 36.096874 256.15936 34.45625ZM279.97186 34.20625L281.78436 34.440624Q281.3625 36.01875 280.1906 36.909374Q279.03436 37.784374 277.22186 37.784374Q274.95624 37.784374 273.6125 36.39375Q272.28436 34.9875 272.28436 32.45625Q272.28436 29.83125 273.6281 28.39375Q274.97186 26.940624 277.1281 26.940624Q279.20624 26.940624 280.51874 28.3625Q281.84686 29.76875 281.84686 32.346874Q281.84686 32.503124 281.83124 32.815624L274.09686 32.815624Q274.1906 34.51875 275.0656 35.425Q275.9406 36.33125 277.2375 36.33125Q278.20624 36.33125 278.8781 35.83125Q279.5656 35.315624 279.97186 34.20625ZM274.1906 31.3625L279.9875 31.3625Q279.8781 30.065624 279.33124 29.409374Q278.4875 28.39375 277.14374 28.39375Q275.9406 28.39375 275.1125 29.20625Q274.28436 30.003124 274.1906 31.3625ZM282.6906 37.55L286.4875 32.159374L282.9875 27.175L285.175 27.175L286.76874 29.6125Q287.22186 30.3 287.4875 30.76875Q287.925 30.128124 288.28436 29.628124L290.03436 27.175L292.1281 27.175L288.55 32.065624L292.40936 37.55L290.2531 37.55L288.1125 34.33125L287.55 33.45625L284.83124 37.55L282.6906 37.55ZM299.64374 33.753124L301.3625 33.971874Q301.08124 35.76875 299.90936 36.784374Q298.7531 37.784374 297.05 37.784374Q294.925 37.784374 293.6281 36.39375Q292.33124 35.003124 292.33124 32.409374Q292.33124 30.721874 292.8781 29.471874Q293.4406 28.20625 294.58124 27.58125Q295.72186 26.940624 297.0656 26.940624Q298.7531 26.940624 299.8156 27.8Q300.89374 28.659374 301.20624 30.221874L299.4875 30.4875Q299.2531 29.440624 298.6281 28.925Q298.0031 28.39375 297.1281 28.39375Q295.8 28.39375 294.97186 29.346874Q294.14374 30.3 294.14374 32.346874Q294.14374 34.440624 294.9406 35.39375Q295.7375 36.33125 297.03436 36.33125Q298.0656 36.33125 298.7531 35.70625Q299.45624 35.065624 299.64374 33.753124ZM302.83124 37.55L302.83124 23.2375L304.58124 23.2375L304.58124 37.55L302.83124 37.55ZM313.65936 37.55L313.65936 36.01875Q312.45624 37.784374 310.3781 37.784374Q309.45624 37.784374 308.65936 37.440624Q307.8625 37.08125 307.47186 36.55Q307.09686 36.01875 306.9406 35.2375Q306.83124 34.721874 306.83124 33.596874L306.83124 27.175L308.58124 27.175L308.58124 32.925Q308.58124 34.3 308.6906 34.784374Q308.8625 35.471874 309.39374 35.878124Q309.9406 36.26875 310.72186 36.26875Q311.51874 36.26875 312.20624 35.8625Q312.90936 35.45625 313.1906 34.76875Q313.4875 34.065624 313.4875 32.7375L313.4875 27.175L315.2375 27.175L315.2375 37.55L313.65936 37.55ZM316.15936 34.45625L317.90936 34.175Q318.05 35.221874 318.72186 35.784374Q319.39374 36.33125 320.59686 36.33125Q321.8 36.33125 322.3781 35.846874Q322.97186 35.346874 322.97186 34.690624Q322.97186 34.096874 322.45624 33.753124Q322.09686 33.51875 320.65936 33.159374Q318.72186 32.659374 317.97186 32.315624Q317.2375 31.95625 316.84686 31.33125Q316.45624 30.690624 316.45624 29.925Q316.45624 29.2375 316.76874 28.64375Q317.09686 28.05 317.64374 27.659374Q318.05 27.3625 318.7531 27.159374Q319.47186 26.940624 320.28436 26.940624Q321.5031 26.940624 322.425 27.3Q323.34686 27.64375 323.78436 28.253124Q324.22186 28.846874 324.39374 29.846874L322.675 30.08125Q322.55 29.284374 321.9875 28.846874Q321.425 28.39375 320.40936 28.39375Q319.1906 28.39375 318.675 28.8Q318.15936 29.190624 318.15936 29.721874Q318.15936 30.065624 318.3781 30.346874Q318.58124 30.628124 319.05 30.815624Q319.3156 30.909374 320.59686 31.253124Q322.47186 31.753124 323.20624 32.08125Q323.9406 32.39375 324.3625 33.003124Q324.78436 33.596874 324.78436 34.503124Q324.78436 35.378124 324.26874 36.159374Q323.7531 36.940624 322.78436 37.3625Q321.8156 37.784374 320.59686 37.784374Q318.58124 37.784374 317.51874 36.940624Q316.45624 36.096874 316.15936 34.45625ZM326.8781 25.253124L326.8781 23.2375L328.64374 23.2375L328.64374 25.253124L326.8781 25.253124ZM326.8781 37.55L326.8781 27.175L328.64374 27.175L328.64374 37.55L326.8781 37.55ZM331.28436 37.55L331.28436 28.55L329.7375 28.55L329.7375 27.175L331.28436 27.175L331.28436 26.08125Q331.28436 25.034374 331.47186 24.51875Q331.72186 23.83125 332.3625 23.409374Q333.0031 22.9875 334.15936 22.9875Q334.90936 22.9875 335.8 23.159374L335.53436 24.690624Q334.9875 24.596874 334.5031 24.596874Q333.70624 24.596874 333.3625 24.940624Q333.03436 25.284374 333.03436 26.221874L333.03436 27.175L335.0656 27.175L335.0656 28.55L333.03436 28.55L333.03436 37.55L331.28436 37.55ZM336.15936 34.45625L337.90936 34.175Q338.05 35.221874 338.72186 35.784374Q339.39374 36.33125 340.59686 36.33125Q341.8 36.33125 342.3781 35.846874Q342.97186 35.346874 342.97186 34.690624Q342.97186 34.096874 342.45624 33.753124Q342.09686 33.51875 340.65936 33.159374Q338.72186 32.659374 337.97186 32.315624Q337.2375 31.95625 336.84686 31.33125Q336.45624 30.690624 336.45624 29.925Q336.45624 29.2375 336.76874 28.64375Q337.09686 28.05 337.64374 27.659374Q338.05 27.3625 338.7531 27.159374Q339.47186 26.940624 340.28436 26.940624Q341.5031 26.940624 342.425 27.3Q343.34686 27.64375 343.78436 28.253124Q344.22186 28.846874 344.39374 29.846874L342.675 30.08125Q342.55 29.284374 341.9875 28.846874Q341.425 28.39375 340.40936 28.39375Q339.1906 28.39375 338.675 28.8Q338.15936 29.190624 338.15936 29.721874Q338.15936 30.065624 338.3781 30.346874Q338.58124 30.628124 339.05 30.815624Q339.3156 30.909374 340.59686 31.253124Q342.47186 31.753124 343.20624 32.08125Q343.9406 32.39375 344.3625 33.003124Q344.78436 33.596874 344.78436 34.503124Q344.78436 35.378124 344.26874 36.159374Q343.7531 36.940624 342.78436 37.3625Q341.8156 37.784374 340.59686 37.784374Q338.58124 37.784374 337.51874 36.940624Q336.45624 36.096874 336.15936 34.45625ZM359.97186 34.20625L361.78436 34.440624Q361.3625 36.01875 360.1906 36.909374Q359.03436 37.784374 357.22186 37.784374Q354.95624 37.784374 353.6125 36.39375Q352.28436 34.9875 352.28436 32.45625Q352.28436 29.83125 353.6281 28.39375Q354.97186 26.940624 357.1281 26.940624Q359.20624 26.940624 360.51874 28.3625Q361.84686 29.76875 361.84686 32.346874Q361.84686 32.503124 361.83124 32.815624L354.09686 32.815624Q354.1906 34.51875 355.0656 35.425Q355.9406 36.33125 357.2375 36.33125Q358.20624 36.33125 358.8781 35.83125Q359.5656 35.315624 359.97186 34.20625ZM354.1906 31.3625L359.9875 31.3625Q359.8781 30.065624 359.33124 29.409374Q358.4875 28.39375 357.14374 28.39375Q355.9406 28.39375 355.1125 29.20625Q354.28436 30.003124 354.1906 31.3625ZM367.70624 35.971874L367.95624 37.534374Q367.22186 37.690624 366.6281 37.690624Q365.675 37.690624 365.14374 37.39375Q364.6281 37.08125 364.40936 36.596874Q364.1906 36.096874 364.1906 34.51875L364.1906 28.55L362.90936 28.55L362.90936 27.175L364.1906 27.175L364.1906 24.6125L365.9406 23.55L365.9406 27.175L367.70624 27.175L367.70624 28.55L365.9406 28.55L365.9406 34.6125Q365.9406 35.3625 366.03436 35.58125Q366.1281 35.784374 366.33124 35.925Q366.55 36.05 366.9406 36.05Q367.22186 36.05 367.70624 35.971874ZM375.8625 37.55L375.8625 27.175L377.45624 27.175L377.45624 28.659374Q378.59686 26.940624 380.7531 26.940624Q381.6906 26.940624 382.47186 27.284374Q383.26874 27.6125 383.65936 28.159374Q384.05 28.70625 384.20624 29.45625Q384.3 29.95625 384.3 31.175L384.3 37.55L382.53436 37.55L382.53436 31.2375Q382.53436 30.159374 382.33124 29.628124Q382.1281 29.096874 381.59686 28.784374Q381.08124 28.471874 380.3781 28.471874Q379.2531 28.471874 378.4406 29.190624Q377.6281 29.89375 377.6281 31.878124L377.6281 37.55L375.8625 37.55ZM385.22186 32.3625Q385.22186 29.4875 386.8156 28.096874Q388.15936 26.940624 390.08124 26.940624Q392.22186 26.940624 393.5656 28.346874Q394.925 29.753124 394.925 32.221874Q394.925 34.221874 394.33124 35.378124Q393.7375 36.51875 392.58124 37.159374Q391.4406 37.784374 390.08124 37.784374Q387.89374 37.784374 386.55 36.39375Q385.22186 34.9875 385.22186 32.3625ZM387.01874 32.3625Q387.01874 34.3625 387.8781 35.346874Q388.7531 36.33125 390.08124 36.33125Q391.39374 36.33125 392.2531 35.346874Q393.1281 34.346874 393.1281 32.3Q393.1281 30.378124 392.2531 29.39375Q391.3781 28.39375 390.08124 28.39375Q388.7531 28.39375 387.8781 29.39375Q387.01874 30.378124 387.01874 32.3625ZM396.8625 37.55L396.8625 27.175L398.45624 27.175L398.45624 28.659374Q399.59686 26.940624 401.7531 26.940624Q402.6906 26.940624 403.47186 27.284374Q404.26874 27.6125 404.65936 28.159374Q405.05 28.70625 405.20624 29.45625Q405.3 29.95625 405.3 31.175L405.3 37.55L403.53436 37.55L403.53436 31.2375Q403.53436 30.159374 403.33124 29.628124Q403.1281 29.096874 402.59686 28.784374Q402.08124 28.471874 401.3781 28.471874Q400.2531 28.471874 399.4406 29.190624Q398.6281 29.89375 398.6281 31.878124L398.6281 37.55L396.8625 37.55ZM419.97186 34.20625L421.78436 34.440624Q421.3625 36.01875 420.1906 36.909374Q419.03436 37.784374 417.22186 37.784374Q414.95624 37.784374 413.6125 36.39375Q412.28436 34.9875 412.28436 32.45625Q412.28436 29.83125 413.6281 28.39375Q414.97186 26.940624 417.1281 26.940624Q419.20624 26.940624 420.51874 28.3625Q421.84686 29.76875 421.84686 32.346874Q421.84686 32.503124 421.83124 32.815624L414.09686 32.815624Q414.1906 34.51875 415.0656 35.425Q415.9406 36.33125 417.2375 36.33125Q418.20624 36.33125 418.8781 35.83125Q419.5656 35.315624 419.97186 34.20625ZM414.1906 31.3625L419.9875 31.3625Q419.8781 30.065624 419.33124 29.409374Q418.4875 28.39375 417.14374 28.39375Q415.9406 28.39375 415.1125 29.20625Q414.28436 30.003124 414.1906 31.3625ZM422.6906 37.55L426.4875 32.159374L422.9875 27.175L425.175 27.175L426.76874 29.6125Q427.22186 30.3 427.4875 30.76875Q427.925 30.128124 428.28436 29.628124L430.03436 27.175L432.1281 27.175L428.55 32.065624L432.40936 37.55L430.2531 37.55L428.1125 34.33125L427.55 33.45625L424.83124 37.55L422.6906 37.55ZM439.64374 33.753124L441.3625 33.971874Q441.08124 35.76875 439.90936 36.784374Q438.7531 37.784374 437.05 37.784374Q434.925 37.784374 433.6281 36.39375Q432.33124 35.003124 432.33124 32.409374Q432.33124 30.721874 432.8781 29.471874Q433.4406 28.20625 434.58124 27.58125Q435.72186 26.940624 437.0656 26.940624Q438.7531 26.940624 439.8156 27.8Q440.89374 28.659374 441.20624 30.221874L439.4875 30.4875Q439.2531 29.440624 438.6281 28.925Q438.0031 28.39375 437.1281 28.39375Q435.8 28.39375 434.97186 29.346874Q434.14374 30.3 434.14374 32.346874Q434.14374 34.440624 434.9406 35.39375Q435.7375 36.33125 437.03436 36.33125Q438.0656 36.33125 438.7531 35.70625Q439.45624 35.065624 439.64374 33.753124ZM442.83124 37.55L442.83124 23.2375L444.58124 23.2375L444.58124 37.55L442.83124 37.55ZM453.65936 37.55L453.65936 36.01875Q452.45624 37.784374 450.3781 37.784374Q449.45624 37.784374 448.65936 37.440624Q447.8625 37.08125 447.47186 36.55Q447.09686 36.01875 446.9406 35.2375Q446.83124 34.721874 446.83124 33.596874L446.83124 27.175L448.58124 27.175L448.58124 32.925Q448.58124 34.3 448.6906 34.784374Q448.8625 35.471874 449.39374 35.878124Q449.9406 36.26875 450.72186 36.26875Q451.51874 36.26875 452.20624 35.8625Q452.90936 35.45625 453.1906 34.76875Q453.4875 34.065624 453.4875 32.7375L453.4875 27.175L455.2375 27.175L455.2375 37.55L453.65936 37.55ZM456.15936 34.45625L457.90936 34.175Q458.05 35.221874 458.72186 35.784374Q459.39374 36.33125 460.59686 36.33125Q461.8 36.33125 462.3781 35.846874Q462.97186 35.346874 462.97186 34.690624Q462.97186 34.096874 462.45624 33.753124Q462.09686 33.51875 460.65936 33.159374Q458.72186 32.659374 457.97186 32.315624Q457.2375 31.95625 456.84686 31.33125Q456.45624 30.690624 456.45624 29.925Q456.45624 29.2375 456.76874 28.64375Q457.09686 28.05 457.64374 27.659374Q458.05 27.3625 458.7531 27.159374Q459.47186 26.940624 460.28436 26.940624Q461.5031 26.940624 462.425 27.3Q463.34686 27.64375 463.78436 28.253124Q464.22186 28.846874 464.39374 29.846874L462.675 30.08125Q462.55 29.284374 461.9875 28.846874Q461.425 28.39375 460.40936 28.39375Q459.1906 28.39375 458.675 28.8Q458.15936 29.190624 458.15936 29.721874Q458.15936 30.065624 458.3781 30.346874Q458.58124 30.628124 459.05 30.815624Q459.3156 30.909374 460.59686 31.253124Q462.47186 31.753124 463.20624 32.08125Q463.9406 32.39375 464.3625 33.003124Q464.78436 33.596874 464.78436 34.503124Q464.78436 35.378124 464.26874 36.159374Q463.7531 36.940624 462.78436 37.3625Q461.8156 37.784374 460.59686 37.784374Q458.58124 37.784374 457.51874 36.940624Q456.45624 36.096874 456.15936 34.45625ZM466.8781 25.253124L466.8781 23.2375L468.64374 23.2375L468.64374 25.253124L466.8781 25.253124ZM466.8781 37.55L466.8781 27.175L468.64374 27.175L468.64374 37.55L466.8781 37.55ZM471.28436 37.55L471.28436 28.55L469.7375 28.55L469.7375 27.175L471.28436 27.175L471.28436 26.08125Q471.28436 25.034374 471.47186 24.51875Q471.72186 23.83125 472.3625 23.409374Q473.0031 22.9875 474.15936 22.9875Q474.90936 22.9875 475.8 23.159374L475.53436 24.690624Q474.9875 24.596874 474.5031 24.596874Q473.70624 24.596874 473.3625 24.940624Q473.03436 25.284374 473.03436 26.221874L473.03436 27.175L475.0656 27.175L475.0656 28.55L473.03436 28.55L473.03436 37.55L471.28436 37.55ZM476.15936 34.45625L477.90936 34.175Q478.05 35.221874 478.72186 35.784374Q479.39374 36.33125 480.59686 36.33125Q481.8 36.33125 482.3781 35.846874Q482.97186 35.346874 482.97186 34.690624Q482.97186 34.096874 482.45624 33.753124Q482.09686 33.51875 480.65936 33.159374Q478.72186 32.659374 477.97186 32.315624Q477.2375 31.95625 476.84686 31.33125Q476.45624 30.690624 476.45624 29.925Q476.45624 29.2375 476.76874 28.64375Q477.09686 28.05 477.64374 27.659374Q478.05 27.3625 478.7531 27.159374Q479.47186 26.940624 480.28436 26.940624Q481.5031 26.940624 482.425 27.3Q483.34686 27.64375 483.78436 28.253124Q484.22186 28.846874 484.39374 29.846874L482.675 30.08125Q482.55 29.284374 481.9875 28.846874Q481.425 28.39375 480.40936 28.39375Q479.1906 28.39375 478.675 28.8Q478.15936 29.190624 478.15936 29.721874Q478.15936 30.065624 478.3781 30.346874Q478.58124 30.628124 479.05 30.815624Q479.3156 30.909374 480.59686 31.253124Q482.47186 31.753124 483.20624 32.08125Q483.9406 32.39375 484.3625 33.003124Q484.78436 33.596874 484.78436 34.503124Q484.78436 35.378124 484.26874 36.159374Q483.7531 36.940624 482.78436 37.3625Q481.8156 37.784374 480.59686 37.784374Q478.58124 37.784374 477.51874 36.940624Q476.45624 36.096874 476.15936 34.45625ZM499.97186 34.20625L501.78436 34.440624Q501.3625 36.01875 500.1906 36.909374Q499.03436 37.784374 497.22186 37.784374Q494.95624 37.784374 493.6125 36.39375Q492.28436 34.9875 492.28436 32.45625Q492.28436 29.83125 493.6281 28.39375Q494.97186 26.940624 497.1281 26.940624Q499.20624 26.940624 500.51874 28.3625Q501.84686 29.76875 501.84686 32.346874Q501.84686 32.503124 501.83124 32.815624L494.09686 32.815624Q494.1906 34.51875 495.0656 35.425Q495.9406 36.33125 497.2375 36.33125Q498.20624 36.33125 498.8781 35.83125Q499.5656 35.315624 499.97186 34.20625ZM494.1906 31.3625L499.9875 31.3625Q499.8781 30.065624 499.33124 29.409374Q498.4875 28.39375 497.14374 28.39375Q495.9406 28.39375 495.1125 29.20625Q494.28436 30.003124 494.1906 31.3625ZM503.8625 37.55L503.8625 27.175L505.45624 27.175L505.45624 28.659374Q506.59686 26.940624 508.7531 26.940624Q509.6906 26.940624 510.47186 27.284374Q511.26874 27.6125 511.65936 28.159374Q512.05 28.70625 512.20624 29.45625Q512.3 29.95625 512.3 31.175L512.3 37.55L510.53436 37.55L510.53436 31.2375Q510.53436 30.159374 510.33124 29.628124Q510.1281 29.096874 509.59686 28.784374Q509.08124 28.471874 508.3781 28.471874Q507.2531 28.471874 506.4406 29.190624Q505.6281 29.89375 505.6281 31.878124L505.6281 37.55L503.8625 37.55ZM520.1906 37.55L520.1906 23.2375L529.84686 23.2375L529.84686 24.925L522.08124 24.925L522.08124 29.3625L528.8 29.3625L528.8 31.05L522.08124 31.05L522.08124 37.55L520.1906 37.55ZM531.84686 37.55L531.84686 27.175L533.425 27.175L533.425 28.753124Q534.03436 27.64375 534.55 27.3Q535.0656 26.940624 535.675 26.940624Q536.5656 26.940624 537.4875 27.503124L536.8781 29.14375Q536.2375 28.753124 535.59686 28.753124Q535.01874 28.753124 534.55 29.1125Q534.09686 29.45625 533.89374 30.065624Q533.6125 31.003124 533.6125 32.1125L533.6125 37.55L531.84686 37.55ZM545.64374 36.26875Q544.65936 37.096874 543.7531 37.440624Q542.84686 37.784374 541.8156 37.784374Q540.1125 37.784374 539.1906 36.95625Q538.26874 36.1125 538.26874 34.815624Q538.26874 34.05 538.6125 33.425Q538.97186 32.8 539.53436 32.425Q540.09686 32.034374 540.8 31.83125Q541.3156 31.70625 542.3625 31.565624Q544.4875 31.315624 545.4875 30.971874Q545.5031 30.6125 545.5031 30.503124Q545.5031 29.440624 545.0031 28.9875Q544.33124 28.39375 543.0031 28.39375Q541.7531 28.39375 541.15936 28.83125Q540.58124 29.26875 540.3 30.378124L538.58124 30.14375Q538.8156 29.034374 539.34686 28.3625Q539.8781 27.675 540.89374 27.315624Q541.90936 26.940624 543.2531 26.940624Q544.58124 26.940624 545.40936 27.253124Q546.2375 27.565624 546.6281 28.05Q547.01874 28.51875 547.175 29.2375Q547.26874 29.690624 547.26874 30.8625L547.26874 33.20625Q547.26874 35.659374 547.3781 36.315624Q547.4875 36.95625 547.83124 37.55L545.9875 37.55Q545.72186 37.003124 545.64374 36.26875ZM545.4875 32.346874Q544.53436 32.7375 542.6125 33.003124Q541.53436 33.159374 541.08124 33.3625Q540.64374 33.55 540.39374 33.925Q540.14374 34.3 540.14374 34.76875Q540.14374 35.471874 540.675 35.940624Q541.20624 36.409374 542.2375 36.409374Q543.2531 36.409374 544.03436 35.971874Q544.83124 35.51875 545.20624 34.753124Q545.4875 34.14375 545.4875 32.9875L545.4875 32.346874ZM549.8625 37.55L549.8625 27.175L551.45624 27.175L551.45624 28.659374Q552.59686 26.940624 554.7531 26.940624Q555.6906 26.940624 556.47186 27.284374Q557.26874 27.6125 557.65936 28.159374Q558.05 28.70625 558.20624 29.45625Q558.3 29.95625 558.3 31.175L558.3 37.55L556.53436 37.55L556.53436 31.2375Q556.53436 30.159374 556.33124 29.628124Q556.1281 29.096874 555.59686 28.784374Q555.08124 28.471874 554.3781 28.471874Q553.2531 28.471874 552.4406 29.190624Q551.6281 29.89375 551.6281 31.878124L551.6281 37.55L549.8625 37.55ZM566.64374 33.753124L568.3625 33.971874Q568.08124 35.76875 566.90936 36.784374Q565.7531 37.784374 564.05 37.784374Q561.925 37.784374 560.6281 36.39375Q559.33124 35.003124 559.33124 32.409374Q559.33124 30.721874 559.8781 29.471874Q560.4406 28.20625 561.58124 27.58125Q562.72186 26.940624 564.0656 26.940624Q565.7531 26.940624 566.8156 27.8Q567.89374 28.659374 568.20624 30.221874L566.4875 30.4875Q566.2531 29.440624 565.6281 28.925Q565.0031 28.39375 564.1281 28.39375Q562.8 28.39375 561.97186 29.346874Q561.14374 30.3 561.14374 32.346874Q561.14374 34.440624 561.9406 35.39375Q562.7375 36.33125 564.03436 36.33125Q565.0656 36.33125 565.7531 35.70625Q566.45624 35.065624 566.64374 33.753124ZM576.97186 34.20625L578.78436 34.440624Q578.3625 36.01875 577.1906 36.909374Q576.03436 37.784374 574.22186 37.784374Q571.95624 37.784374 570.6125 36.39375Q569.28436 34.9875 569.28436 32.45625Q569.28436 29.83125 570.6281 28.39375Q571.97186 26.940624 574.1281 26.940624Q576.20624 26.940624 577.51874 28.3625Q578.84686 29.76875 578.84686 32.346874Q578.84686 32.503124 578.83124 32.815624L571.09686 32.815624Q571.1906 34.51875 572.0656 35.425Q572.9406 36.33125 574.2375 36.33125Q575.20624 36.33125 575.8781 35.83125Q576.5656 35.315624 576.97186 34.20625ZM571.1906 31.3625L576.9875 31.3625Q576.8781 30.065624 576.33124 29.409374Q575.4875 28.39375 574.14374 28.39375Q572.9406 28.39375 572.1125 29.20625Q571.28436 30.003124 571.1906 31.3625Z" fill-rule="nonzero"/><path fill="#757575" d="M26.971874 58.20625L28.784374 58.440624Q28.3625 60.01875 27.190624 60.909374Q26.034374 61.784374 24.221874 61.784374Q21.95625 61.784374 20.6125 60.39375Q19.284374 58.9875 19.284374 56.45625Q19.284374 53.83125 20.628124 52.39375Q21.971874 50.940624 24.128124 50.940624Q26.20625 50.940624 27.51875 52.3625Q28.846874 53.76875 28.846874 56.346874Q28.846874 56.503124 28.83125 56.815624L21.096874 56.815624Q21.190624 58.51875 22.065624 59.425Q22.940624 60.33125 24.2375 60.33125Q25.20625 60.33125 25.878124 59.83125Q26.565624 59.315624 26.971874 58.20625ZM21.190624 55.3625L26.9875 55.3625Q26.878124 54.065624 26.33125 53.409374Q25.4875 52.39375 24.14375 52.39375Q22.940624 52.39375 22.1125 53.20625Q21.284374 54.003124 21.190624 55.3625ZM30.8625 61.55L30.8625 51.175L32.45625 51.175L32.45625 52.659374Q33.596874 50.940624 35.753124 50.940624Q36.690624 50.940624 37.471874 51.284374Q38.26875 51.6125 38.659374 52.159374Q39.05 52.70625 39.20625 53.45625Q39.3 53.95625 39.3 55.175L39.3 61.55L37.534374 61.55L37.534374 55.2375Q37.534374 54.159374 37.33125 53.628124Q37.128124 53.096874 36.596874 52.784374Q36.08125 52.471874 35.378124 52.471874Q34.253124 52.471874 33.440624 53.190624Q32.628124 53.89375 32.628124 55.878124L32.628124 61.55L30.8625 61.55ZM55.6125 59.8625L55.6125 61.55L46.159374 61.55Q46.14375 60.909374 46.3625 60.33125Q46.721874 59.3625 47.51875 58.425Q48.315624 57.4875 49.815624 56.253124Q52.159374 54.346874 52.971874 53.2375Q53.8 52.1125 53.8 51.1125Q53.8 50.065624 53.05 49.346874Q52.3 48.628124 51.096874 48.628124Q49.83125 48.628124 49.065624 49.39375Q48.3 50.159374 48.3 51.503124L46.4875 51.315624Q46.675 49.3 47.878124 48.2375Q49.096874 47.175 51.14375 47.175Q53.190624 47.175 54.39375 48.315624Q55.596874 49.45625 55.596874 51.14375Q55.596874 52.003124 55.2375 52.846874Q54.89375 53.675 54.08125 54.596874Q53.26875 55.503124 51.378124 57.1125Q49.784374 58.440624 49.33125 58.909374Q48.89375 59.378124 48.596874 59.8625L55.6125 59.8625ZM57.378124 54.4875Q57.378124 51.95625 57.89375 50.409374Q58.425 48.846874 59.45625 48.01875Q60.4875 47.175 62.05 47.175Q63.20625 47.175 64.06563 47.64375Q64.94063 48.096874 65.50313 48.971874Q66.06563 49.846874 66.39375 51.1125Q66.72188 52.3625 66.72188 54.4875Q66.72188 57.003124 66.19063 58.55Q65.675 60.096874 64.64375 60.95625Q63.628124 61.8 62.05 61.8Q59.971874 61.8 58.8 60.315624Q57.378124 58.51875 57.378124 54.4875ZM59.190624 54.4875Q59.190624 58.01875 60.003124 59.190624Q60.83125 60.346874 62.05 60.346874Q63.253124 60.346874 64.08125 59.175Q64.90938 58.003124 64.90938 54.4875Q64.90938 50.95625 64.08125 49.8Q63.253124 48.628124 62.034374 48.628124Q60.815624 48.628124 60.096874 49.659374Q59.190624 50.95625 59.190624 54.4875ZM77.6125 59.8625L77.6125 61.55L68.15938 61.55Q68.14375 60.909374 68.3625 60.33125Q68.72188 59.3625 69.51875 58.425Q70.31563 57.4875 71.81563 56.253124Q74.15938 54.346874 74.97188 53.2375Q75.8 52.1125 75.8 51.1125Q75.8 50.065624 75.05 49.346874Q74.3 48.628124 73.09688 48.628124Q71.83125 48.628124 71.06563 49.39375Q70.3 50.159374 70.3 51.503124L68.4875 51.315624Q68.675 49.3 69.87813 48.2375Q71.09688 47.175 73.14375 47.175Q75.19063 47.175 76.39375 48.315624Q77.59688 49.45625 77.59688 51.14375Q77.59688 52.003124 77.2375 52.846874Q76.89375 53.675 76.08125 54.596874Q75.26875 55.503124 73.37813 57.1125Q71.78438 58.440624 71.33125 58.909374Q70.89375 59.378124 70.59688 59.8625L77.6125 59.8625ZM85.01875 61.55L85.01875 58.128124L78.8 58.128124L78.8 56.503124L85.33125 47.2375L86.76875 47.2375L86.76875 56.503124L88.70625 56.503124L88.70625 58.128124L86.76875 58.128124L86.76875 61.55L85.01875 61.55ZM85.01875 56.503124L85.01875 50.05L80.53438 56.503124L85.01875 56.503124Z" fill-rule="nonzero"/></svg>