<svg height="512" viewBox="0 0 512 512" width="512" xmlns="http://www.w3.org/2000/svg"><path d="m434.235 1266.67c-.9 0-1.81-.1-2.73-.31-1.6-.37-39.71-9.36-73.83-37.17-34.77-28.34-47.25-67.94-47.77-69.61-1.97-6.4 1.62-13.19 8.03-15.16 6.4-1.97 13.17 1.61 15.16 8.01.17.53 11.09 34.46 39.91 57.96 29.58 24.11 63.62 32.26 63.96 32.34 6.52 1.52 10.58 8.04 9.07 14.55-1.3 5.6-6.28 9.39-11.8 9.39z" fill="#002756"/><path d="m123.595 421.34 69.8-24.05 141.95-5.15 48.1 20.29 10.47 715.96-212.53-11.47c-38.53-2.08-77.1-3.12-115.69-3.12h-109.62l92.43-385.14z" fill="#9952bd"/><path d="m-176.865 792.36s133.62-286.15 184.4-322.8 140.25-56.56 140.25-56.56-110.85 466.21-133.12 477.79-191.53-98.43-191.53-98.43z" fill="#b1ccfc"/><path d="m42.275 1138.44c2.67-50.78 84.18-502.42 74.83-549.19-7.4-37.01 30.2-144.16 46.21-187.25-41.83 14-78.28 30.91-78.28 30.91-36.52 44.54-52.56 179.05-62.36 295.75-6.15 73.24-65.03 175.49-77.5 241.41-33.49 176.99-51.67 342.96-51.67 342.96l141.99 3.84c2.18-63.57 5.19-148.21 6.78-178.43z" fill="#e1efff"/><path d="m139.965 427.24-56.72 47.55 32.96 21.68-40.25 25.83s8.77 27.94 11.74 69.95-.93 154.86-.93 154.86z" fill="#3838ba"/><path d="m198.955 387.49s-20.95-8.91-67.6 34.74c-31.6 29.56-48.1 52.56-48.1 52.56l32.51 12.92-39.8 34.59s11.5 33.27 17.96 73.63c7.13 44.54-31.5 403.78-31.5 403.78s77.11-380.67 82.45-430.56 1.34-86.77 5.98-110.39c6.71-34.16 36.55-66 48.1-71.27z" fill="#fff"/><path d="m506.385 1097.47c-17.82-75.72-32.34-272.68-24.32-343.94 8.02-71.27 18.98-291.21 18.98-291.21s-16.03-14.25-85.52-45.43c-17.12-7.68-32.58-13.71-47.03-18.4-3.44 14.49-8.95 32.2-17.74 50.47-21.2 44.1-93.36 208.27-100.04 263.82-6.68 55.54-30.29 142.4-23.16 257.31 5.38 86.78 20.41 268.8 27.45 352.73l1.05.03 305.55-16.93c.01 0-37.4-132.73-55.22-208.45z" fill="#e1efff"/><path d="m480.315 753.52c6.67-59.3 15.38-221.51 18.12-274.32l-.28-17.8c-3.89-2.99-18.75-13.47-58.21-32.39-24.99 9.51-46.91 29.82-58.51 68.33-32.87 109.05 43.47 310.61 43.47 310.61s-139.21 39.53-197.78 57.42l-1.3 104.71 254.55-84.98c-2.85-53.51-3.29-102.8-.06-131.58z" fill="#b1ccfc"/><path d="m367.625 402.01s13.45 1.22 22.36 38.04 9.61 62.36 9.61 62.36l-69.6 7.72 49.29 50.48s-90.86 111.74-108.09 179.69 21.97-227.2 21.97-227.2z" fill="#3838ba"/><path d="m329.115 367.73s19.87 14.69 18.2 34.28c-2.16 25.23-32.67 42.49-61.63 91.48-14.48 24.5-44.76 89.08-58.12 186.18s2.98 303.51 3.87 347.16c0 0 14.2-234.92 56.71-340.04 23.53-58.19 85.74-131.84 85.74-131.84l-38.16-51.67 58.04-7.28s-7.07-79.63-19.66-95.67c-8.37-10.65-44.99-32.6-44.99-32.6z" fill="#fff"/><path d="m506.385 1097.47c-10.93-46.46-20.62-138.55-24.63-219.26l-21.01 13.44s18.15 204.03 37.68 318.95c6.32 37.2 12.56 70.19 18.1 97.81l45.08-2.5c.01.01-37.4-132.72-55.22-208.44z" fill="#b1ccfc"/><path d="m596.475 661.88c-1.45-8.99-3.07-17.9-4.87-26.69-28.19-137.66-61.82-186.38-104.89-192.03-68.24-8.96-100.66 81.93-94.55 151.25 6.14 69.64 45.7 194.74 57.87 227.9l-223.44 53.11 17.71 129.68s231.22-12.45 319.29-49.12c87.79-36.55 34.59-285.93 32.88-294.1z" fill="#e1efff"/><path d="m591.605 635.19c-28.19-137.66-61.82-186.38-104.89-192.03-13.87-1.82-25.91.47-36.32 5.86 21.13 6.81 58.97 43.19 73.31 78.13 37.33 90.94 75.63 321.65 36.3 375.73-28.51 39.2-251.44 58.44-320.72 65.52l5.01 36.7s231.22-12.45 319.29-49.12c87.79-36.55 34.59-285.93 32.88-294.1-1.44-8.98-3.06-17.89-4.86-26.69z" fill="#b1ccfc"/><path d="m255.025 965.51c-10.99 1.09-20.96 2.05-29.6 2.88-1.82 21.84-8.32 38.2-17.18 41.46 8.49-1.21 30.87-4.35 39.75-5.12 3.95-10.01 6.43-23.63 7.03-39.22z" fill="#cae0ff"/><path d="m125.465 249.52s-37.21-44.71-13.47-98.76 45.37 15.23 37.04 21.98-24.49 63.32-23.57 76.78z" fill="#002756"/><path d="m136.615 261.61s-37.21-44.71-13.47-98.76 45.37 15.23 37.04 21.98-24.49 63.31-23.57 76.78z"/><path d="m341.525 409.03c6.12-6.85 7.92-16.56 4.6-25.12-2.4-6.18-4.89-14.85-6.02-27.01-2.48-26.74 10.66-59.01 10.66-59.01l-157.04 27c2.31 2.22 6.48 25.27-.31 50.42-6.12 22.67-23.16 36.23-23.16 51.93 0 52 55.23 41.98 73.49 40.77 35.6-2.38 78.76-37.71 97.78-58.98z" fill="#f6ad83"/><path d="m340.105 356.9c-2.48-26.74 10.66-59.01 10.66-59.01l-157.04 27c2.31 2.22 6.48 25.27-.31 50.42 0 .01-.01.03-.01.04 16.12 11.96 35.76 14.87 56.52 16.59 23.48 1.95 62.48-10.8 91.16-27.17-.39-2.45-.72-5.06-.98-7.87z" fill="#f4a076"/><path d="m371.075 188.16c-4.16-.35-8.2.16-11.95 1.35-8.85-62.06-50.75-110.53-104.9-115.02-65.19-5.4-123.4 54.95-130.02 134.81-6.62 79.85 40.86 148.97 106.05 154.37 59.8 4.96 113.69-45.44 127.31-115.44 2.63.99 5.43 1.66 8.37 1.9 17.11 1.42 32.13-11.3 33.55-28.42 1.43-17.11-11.3-32.13-28.41-33.55z" fill="#f6ad83"/><path d="m323.965 157.75c7.68-7.62-3.61-40.26-3.61-40.26l-113.48-35.24c-34.5 14.59-62.71 47.79-75.65 90.26 1.85 1.03 4.28 1.05 7.48-.49 17.86-8.54 61.74-30.82 99.69-26.01 37.96 4.81 77.89 19.37 85.57 11.74z" fill="#f4a076"/><path d="m314.635 137.65s3.17 32.91 10.91 38.73 14.92 33.32 16.44 37.23 14.81-36.84 14.81-36.84l-29.56-42.74z" fill="#f4a076" opacity=".41"/><path d="m351.865 153.84c16.92-8.79 27.73-39.18 25.1-55.1-3.43-20.75-17.78-68.01-68.26-69.67-50.47-1.66-110.29 19.43-138.27 24.7s-58.09 4.83-62.94-1.17-9.82 1.81-11.99 9.7c-5.51 19.97 8.09 43.79 6.55 41.82-1.01-1.28-22.55 5.84-14 28.68s22.2 29.72 41.14 29c15.32-.58 49.75-34.14 133.11-23.18 31.82 4.19 68.77 26.03 89.56 15.22z" fill="#002756"/><path d="m176.155 230.71c-5.59-.26-9.91-5-9.65-10.59l.67-14.46c.26-5.59 5-9.91 10.59-9.65 5.59.26 9.91 5 9.65 10.59l-.67 14.46c-.26 5.59-5 9.91-10.59 9.65z"/><path d="m266.495 232.04c-5.59-.26-9.91-5-9.65-10.59l.67-14.46c.26-5.59 5-9.91 10.59-9.65 5.59.26 9.91 5 9.65 10.59l-.67 14.46c-.26 5.59-5 9.91-10.59 9.65z"/><path d="m152.315 189.18c-1.28.06-2.56-.45-3.47-1.48-1.58-1.81-1.39-4.55.42-6.13 11.31-9.87 24.7-14.21 40.95-13.3 2.39.14 4.22 2.19 4.09 4.58-.14 2.39-2.18 4.21-4.58 4.09-14.06-.79-25.1 2.76-34.75 11.18-.77.67-1.71 1.02-2.66 1.06z"/><path d="m296.455 188.33c1.27.07 2.57-.43 3.48-1.46 1.59-1.79 1.42-4.54-.37-6.13-11.24-9.95-24.59-14.4-40.85-13.61-2.4.12-4.24 2.15-4.13 4.55.12 2.39 2.15 4.23 4.55 4.13 14.07-.68 25.08 2.95 34.67 11.44.77.67 1.71 1.03 2.65 1.08z"/><path d="m226.745 264.13c.13-.21.27-.41.42-.61-.22.3-.44.59-.67.89.38-.49.81-.93 1.29-1.32-.29.23-.58.46-.87.69.54-.42 1.12-.76 1.74-1.04-.34.15-.69.3-1.03.45.57-.24 1.16-.41 1.77-.51-.38.06-.77.12-1.15.17.62-.09 1.24-.1 1.87-.04-.39-.05-.77-.09-1.16-.14.7.09 1.36.26 2.01.52-.35-.14-.7-.28-1.04-.42.59.25 1.13.56 1.65.93-.3-.22-.59-.44-.89-.67.51.39.96.82 1.36 1.31-.23-.29-.46-.58-.69-.87.12.15.23.3.34.46.65.93 1.5 1.66 2.63 1.96 1.04.27 2.43.12 3.34-.49 1.86-1.24 2.85-3.97 1.47-5.96-2.29-3.31-6.08-5.51-10.18-5.35-4.03.15-7.65 2.37-9.76 5.78-1.2 1.93-.38 4.88 1.65 5.92 2.16 1.09 4.62.4 5.9-1.66z"/><path d="m217.855 309.22c-1.28.02-2.56 0-3.84-.06l-.78-.03c-2.39-.11-4.25-2.14-4.14-4.53.1-2.39 1.99-4.24 4.53-4.15l.78.03c12.09.57 24.25-2.98 34.17-9.95 1.96-1.38 4.67-.91 6.05 1.05s.91 4.67-1.06 6.05c-10.42 7.34-22.98 11.39-35.71 11.59z"/><path d="m186.515 262.28c0 7.992-6.479 14.47-14.47 14.47-7.992 0-14.47-6.478-14.47-14.47s6.478-14.47 14.47-14.47c7.991 0 14.47 6.478 14.47 14.47z" fill="#f28d77"/><path d="m298.735 260.2c0 7.992-6.479 14.47-14.47 14.47-7.992 0-14.47-6.478-14.47-14.47s6.478-14.47 14.47-14.47c7.991 0 14.47 6.478 14.47 14.47z" fill="#f28d77"/><path d="m355.695 121.17c-1.35-.05-2.52-1.05-2.75-2.43-2.53-15.29-14.68-65.21-64.94-67.23-.18-.01-.36-.01-.54-.02-36.42-1.2-78.14 9.69-108.6 17.64-11.47 2.99-21.37 5.58-29.03 7.02-26.7 5.03-59.43 5.62-65.74-2.2-1.01-1.25-.81-3.08.43-4.09 1.24-1 3.08-.82 4.09.43 3.24 4 29.92 5.83 60.14.14 7.46-1.4 17.27-3.97 28.64-6.93 30.81-8.04 73-19.05 110.26-17.82.2.01.4.01.6.02 54.65 2.19 67.72 55.69 70.43 72.09.26 1.58-.81 3.08-2.4 3.34-.19.03-.39.05-.59.04z" fill="#064172"/><path d="m343.935 139.02c-1.08-.04-2.02-.84-2.2-1.95-2.02-12.24-11.74-52.18-51.96-53.79-.15-.01-.29-.01-.43-.02-29.14-.96-62.52 7.75-86.89 14.11-9.17 2.39-17.1 4.46-23.22 5.61-21.36 4.03-47.55 4.5-52.6-1.76-.81-1-.65-2.46.35-3.27 1-.8 2.46-.65 3.27.35 2.59 3.2 23.94 4.67 48.12.11 5.97-1.12 13.82-3.17 22.91-5.54 24.65-6.43 58.41-15.24 88.22-14.26.16.01.32.01.48.02 43.72 1.75 54.18 44.56 56.35 57.68.21 1.27-.65 2.46-1.92 2.67-.17.03-.33.04-.48.04z" fill="#064172"/><path d="m385.085 98.41c-10.81-3-29.62 10.72-42.02 30.47-13.67.53-29.98 5.58-19.09 28.87 16.79 35.92 19.47 51.09 18.01 55.85-1.3 4.26 6.62 5.64 9.9 2.63 5.78-5.29 13.59-13.11 18.8-20.92 2.94-4.42 8.88-5.71 13.47-3.04 10.11 5.89 16.46 17.28 15.31 29.73-1.37 14.82-13.6 26.79-28.43 28.1-4.84.43-9.35-.34-13.47-1.89-4.17 21.41-12.11 40.97-22.83 57.69 1.36 11.55 5.04 19.69 12.63 20.08 27.33 1.4 72.04-59.44 79.38-132.73 7.34-73.26-25.68-90.41-41.66-94.84z" fill="#002756"/><path d="m400.875 105.82c-9.25 28.43-38.47 50.18-74.99 56.11 3.88 8.49 6.93 15.74 9.28 21.89 37.33-7.64 67.98-29.46 82.67-58.45-4.88-9.2-10.97-15.37-16.96-19.55z" fill="#064172"/></svg>