<?xml version="1.0" encoding="utf-8"?>
<!-- Generator: Adobe Illustrator 25.2.0, SVG Export Plug-In . SVG Version: 6.00 Build 0)  -->
<svg version="1.1" xmlns="http://www.w3.org/2000/svg" xmlns:xlink="http://www.w3.org/1999/xlink" x="0px" y="0px"
	 viewBox="0 0 2100 2100" style="enable-background:new 0 0 2100 2100;" xml:space="preserve">
<style type="text/css">
	.st0{fill:#FFFFFF;}
	.st1{fill:#CAE0FF;}
	.st2{clip-path:url(#SVGID_2_);}
	.st3{clip-path:url(#SVGID_4_);}
	.st4{clip-path:url(#SVGID_6_);}
	.st5{clip-path:url(#SVGID_8_);}
	.st6{fill:#8CB6F4;}
	.st7{fill:#6E92F9;}
	.st8{clip-path:url(#SVGID_10_);}
	.st9{fill:#E1EFFF;}
	.st10{fill:#B1CCFC;}
	.st11{clip-path:url(#SVGID_12_);}
	.st12{clip-path:url(#SVGID_20_);}
	.st13{clip-path:url(#SVGID_22_);}
	.st14{fill:#C4DAFF;}
	.st15{fill:#A9CA5A;}
	.st16{fill:#14966A;}
	.st17{fill:#3838BA;}
	.st18{clip-path:url(#SVGID_24_);}
	.st19{fill:#003177;}
	.st20{fill:#002756;}
	.st21{fill:#9952BD;}
	.st22{fill:#2C49A2;}
	.st23{fill:#1A317A;}
	.st24{fill:#543E8B;}
	.st25{fill:#59699B;}
	.st26{fill:#F8FBFF;}
	.st27{fill:#F6AD83;}
	.st28{fill:#F4A076;}
	.st29{opacity:0.41;fill:#F4A076;}
	.st30{fill:#F28D77;}
	.st31{fill:#064172;}
	.st32{fill:#6E8CF3;}
</style>
<g id="Layer_1_1_">
	<rect x="0" y="0" class="st0" width="2100" height="2100"/>
	<g>
		<path class="st1" d="M1290.11,386.7c-57.74,43.57,15.53,94.89,199.06,92.24c179.7-2.59,330.99-168.18,197.71-138.03
			C1434.71,397.95,1377.65,320.64,1290.11,386.7z"/>
		<g>
			<path class="st1" d="M189.09,1064.96c-1.58-259.42,150.93-466.66,378.42-548.72c249.93-90.17,724.23-9.76,847.33-7.71
				c305.01,5.06,304.92-113.83,478.92-67.96c125.82,33.17,92.85,235.99,39.83,356.76c-117.49,267.64,9.25,275-39.83,455.75
				c-94.08,346.51-500.8,555.85-692.58,585.06C906.43,1883.02,193.28,1751.5,189.09,1064.96z"/>
		</g>
		<g>
			<defs>
				<path id="SVGID_1_" d="M189.09,1064.96c-1.58-259.42,150.93-466.66,378.42-548.72c249.93-90.17,724.23-9.76,847.33-7.71
					c305.01,5.06,304.92-113.83,478.92-67.96c125.82,33.17,92.85,235.99,39.83,356.76c-117.49,267.64,9.25,275-39.83,455.75
					c-94.08,346.51-500.8,555.85-692.58,585.06C906.43,1883.02,193.28,1751.5,189.09,1064.96z"/>
			</defs>
			<clipPath id="SVGID_2_">
				<use xlink:href="#SVGID_1_"  style="overflow:visible;"/>
			</clipPath>
			<g class="st2">
				<rect x="26.43" y="1315.94" class="st1" width="1842.84" height="1094.81"/>
				<rect x="26.43" y="1315.94" class="st1" width="1842.84" height="46.52"/>
			</g>
		</g>
		<g>
			<defs>
				<path id="SVGID_3_" d="M189.09,1064.96c-1.58-259.42,150.93-466.66,378.42-548.72c249.93-90.17,724.23-9.76,847.33-7.71
					c305.01,5.06,304.92-113.83,478.92-67.96c125.82,33.17,92.85,235.99,39.83,356.76c-117.49,267.64,9.25,275-39.83,455.75
					c-94.08,346.51-500.8,555.85-692.58,585.06C906.43,1883.02,193.28,1751.5,189.09,1064.96z"/>
			</defs>
			<clipPath id="SVGID_4_">
				<use xlink:href="#SVGID_3_"  style="overflow:visible;"/>
			</clipPath>
			<g class="st3">
				<circle class="st1" cx="1657.1" cy="615.39" r="184"/>
				<path class="st1" d="M1657.1,804.88c-104.48,0-189.49-85-189.49-189.49s85-189.49,189.49-189.49s189.49,85,189.49,189.49
					S1761.58,804.88,1657.1,804.88z M1657.1,436.89c-98.43,0-178.5,80.08-178.5,178.5s80.08,178.5,178.5,178.5
					s178.5-80.08,178.5-178.5S1755.52,436.89,1657.1,436.89z"/>
				<g>
					<path class="st1" d="M1643.71,635.27c-0.84,0-1.69-0.24-2.45-0.75c-2.02-1.35-2.55-4.09-1.2-6.1l71.86-107.05
						c1.35-2.02,4.08-2.56,6.1-1.2c2.02,1.35,2.55,4.09,1.2,6.1l-71.86,107.05C1646.52,634.58,1645.13,635.27,1643.71,635.27z"/>
					<path class="st1" d="M1751.6,733.74c-0.92,0-1.83-0.37-2.49-1.11l-117.09-130.47c-1.23-1.38-1.12-3.49,0.25-4.72
						c1.37-1.23,3.49-1.12,4.72,0.25l117.09,130.47c1.23,1.38,1.12,3.49-0.25,4.72C1753.2,733.45,1752.4,733.74,1751.6,733.74z"/>
				</g>
				<g>
					<path class="st1" d="M1660.44,475.58L1660.44,475.58c-1.85,0-3.35-1.5-3.35-3.35v-16.73c0-1.85,1.5-3.35,3.35-3.35l0,0
						c1.85,0,3.35,1.5,3.35,3.35v16.73C1663.79,474.09,1662.29,475.58,1660.44,475.58z"/>
					<path class="st1" d="M1588.37,492.65L1588.37,492.65c-1.6,0.92-3.65,0.38-4.57-1.22l-8.36-14.49c-0.92-1.6-0.38-3.65,1.22-4.57
						l0,0c1.6-0.92,3.65-0.38,4.57,1.22l8.36,14.49C1590.52,489.68,1589.97,491.73,1588.37,492.65z"/>
					<path class="st1" d="M1534.5,543.47L1534.5,543.47c-0.92,1.6-2.97,2.15-4.57,1.22l-14.49-8.36c-1.6-0.92-2.15-2.97-1.22-4.57
						l0,0c0.92-1.6,2.97-2.15,4.57-1.22l14.49,8.36C1534.87,539.82,1535.42,541.87,1534.5,543.47z"/>
					<path class="st1" d="M1513.24,614.42L1513.24,614.42c0,1.85-1.5,3.35-3.35,3.35h-16.73c-1.85,0-3.35-1.5-3.35-3.35l0,0
						c0-1.85,1.5-3.35,3.35-3.35h16.73C1511.75,611.07,1513.24,612.57,1513.24,614.42z"/>
					<path class="st1" d="M1530.31,686.49L1530.31,686.49c0.92,1.6,0.38,3.65-1.22,4.57l-14.49,8.36c-1.6,0.92-3.65,0.38-4.57-1.22
						v0c-0.92-1.6-0.38-3.65,1.22-4.57l14.49-8.36C1527.34,684.34,1529.39,684.89,1530.31,686.49z"/>
					<path class="st1" d="M1581.13,740.36L1581.13,740.36c1.6,0.92,2.15,2.97,1.22,4.57l-8.36,14.49c-0.92,1.6-2.97,2.15-4.57,1.22
						l0,0c-1.6-0.92-2.15-2.97-1.22-4.57l8.36-14.49C1577.48,739.99,1579.53,739.44,1581.13,740.36z"/>
					<path class="st1" d="M1652.08,761.61L1652.08,761.61c1.85,0,3.35,1.5,3.35,3.35v16.73c0,1.85-1.5,3.35-3.35,3.35l0,0
						c-1.85,0-3.35-1.5-3.35-3.35v-16.73C1648.73,763.11,1650.23,761.61,1652.08,761.61z"/>
					<path class="st1" d="M1724.15,744.55L1724.15,744.55c1.6-0.92,3.65-0.38,4.57,1.22l8.36,14.49c0.92,1.6,0.38,3.65-1.22,4.57
						l0,0c-1.6,0.92-3.65,0.38-4.57-1.22l-8.36-14.49C1722,747.52,1722.55,745.47,1724.15,744.55z"/>
					<path class="st1" d="M1778.02,693.73L1778.02,693.73c0.92-1.6,2.97-2.15,4.57-1.22l14.49,8.36c1.6,0.92,2.15,2.97,1.22,4.57
						l0,0c-0.92,1.6-2.97,2.15-4.57,1.22l-14.49-8.36C1777.65,697.38,1777.1,695.33,1778.02,693.73z"/>
					<path class="st1" d="M1799.28,622.78L1799.28,622.78c0-1.85,1.5-3.35,3.35-3.35h16.73c1.85,0,3.35,1.5,3.35,3.35v0
						c0,1.85-1.5,3.35-3.35,3.35h-16.73C1800.77,626.13,1799.28,624.63,1799.28,622.78z"/>
					<path class="st1" d="M1782.21,550.71L1782.21,550.71c-0.92-1.6-0.38-3.65,1.22-4.57l14.49-8.36c1.6-0.92,3.65-0.38,4.57,1.22
						l0,0c0.92,1.6,0.38,3.65-1.22,4.57l-14.49,8.36C1785.18,552.86,1783.13,552.31,1782.21,550.71z"/>
					<path class="st1" d="M1731.39,496.84L1731.39,496.84c-1.6-0.92-2.15-2.97-1.22-4.57l8.36-14.49c0.92-1.6,2.97-2.15,4.57-1.22
						l0,0c1.6,0.92,2.15,2.97,1.22,4.57l-8.36,14.49C1735.04,497.21,1732.99,497.76,1731.39,496.84z"/>
				</g>
			</g>
		</g>
		<g>
			<defs>
				<path id="SVGID_5_" d="M189.09,1064.96c-1.58-259.42,150.93-466.66,378.42-548.72c249.93-90.17,724.23-9.76,847.33-7.71
					c305.01,5.06,304.92-113.83,478.92-67.96c125.82,33.17,92.85,235.99,39.83,356.76c-117.49,267.64,9.25,275-39.83,455.75
					c-94.08,346.51-500.8,555.85-692.58,585.06C906.43,1883.02,193.28,1751.5,189.09,1064.96z"/>
			</defs>
			<clipPath id="SVGID_6_">
				<use xlink:href="#SVGID_5_"  style="overflow:visible;"/>
			</clipPath>
			<g class="st4">
				<g>
					<rect x="279.86" y="367.82" class="st1" width="964.08" height="1653.95"/>
					<rect x="352.75" y="455.07" class="st1" width="818.31" height="1479.46"/>
				</g>
				<g>
					<g>
						<path class="st1" d="M942.21,663.88H612.85c-5.35,0-9.69-4.34-9.69-9.69l0,0c0-5.35,4.34-9.69,9.69-9.69h329.37
							c5.35,0,9.69,4.34,9.69,9.69l0,0C951.91,659.54,947.57,663.88,942.21,663.88z"/>
					</g>
					<g>
						<path class="st1" d="M942.21,623.37H612.85c-5.35,0-9.69-4.34-9.69-9.69v0c0-5.35,4.34-9.69,9.69-9.69h329.37
							c5.35,0,9.69,4.34,9.69,9.69v0C951.91,619.03,947.57,623.37,942.21,623.37z"/>
					</g>
				</g>
				<g>
					<rect x="622.33" y="801.6" class="st1" width="317.37" height="388.74"/>
					<g>
						<g>
							<g>
								<path class="st1" d="M858.38,935.05h-89.59c-3.17,0-5.73-2.57-5.73-5.73l0,0c0-3.17,2.57-5.73,5.73-5.73h89.59
									c3.17,0,5.73,2.57,5.73,5.73l0,0C864.11,932.49,861.54,935.05,858.38,935.05z"/>
								<path class="st1" d="M858.38,963.84h-89.59c-3.17,0-5.73-2.57-5.73-5.73l0,0c0-3.17,2.57-5.73,5.73-5.73h89.59
									c3.17,0,5.73,2.57,5.73,5.73l0,0C864.11,961.27,861.54,963.84,858.38,963.84z"/>
								<path class="st1" d="M858.38,992.62h-89.59c-3.17,0-5.73-2.57-5.73-5.73v0c0-3.17,2.57-5.73,5.73-5.73h89.59
									c3.17,0,5.73,2.57,5.73,5.73v0C864.11,990.06,861.54,992.62,858.38,992.62z"/>
								<path class="st1" d="M858.38,1021.41h-89.59c-3.17,0-5.73-2.57-5.73-5.73l0,0c0-3.17,2.57-5.73,5.73-5.73h89.59
									c3.17,0,5.73,2.57,5.73,5.73l0,0C864.11,1018.84,861.54,1021.41,858.38,1021.41z"/>
								<path class="st1" d="M858.38,1050.19h-89.59c-3.17,0-5.73-2.57-5.73-5.73l0,0c0-3.17,2.57-5.73,5.73-5.73h89.59
									c3.17,0,5.73,2.57,5.73,5.73l0,0C864.11,1047.63,861.54,1050.19,858.38,1050.19z"/>
								<path class="st1" d="M858.38,1078.98h-89.59c-3.17,0-5.73-2.57-5.73-5.73v0c0-3.17,2.57-5.73,5.73-5.73h89.59
									c3.17,0,5.73,2.57,5.73,5.73v0C864.11,1076.41,861.54,1078.98,858.38,1078.98z"/>
								<path class="st1" d="M858.38,1107.76h-89.59c-3.17,0-5.73-2.57-5.73-5.73l0,0c0-3.17,2.57-5.73,5.73-5.73h89.59
									c3.17,0,5.73,2.57,5.73,5.73l0,0C864.11,1105.2,861.54,1107.76,858.38,1107.76z"/>
							</g>
							<g>
								<path class="st1" d="M734.82,935.05h-31.17c-3.17,0-5.73-2.57-5.73-5.73l0,0c0-3.17,2.57-5.73,5.73-5.73h31.17
									c3.17,0,5.73,2.57,5.73,5.73l0,0C740.55,932.49,737.99,935.05,734.82,935.05z"/>
								<path class="st1" d="M734.82,963.84h-31.17c-3.17,0-5.73-2.57-5.73-5.73l0,0c0-3.17,2.57-5.73,5.73-5.73h31.17
									c3.17,0,5.73,2.57,5.73,5.73l0,0C740.55,961.27,737.99,963.84,734.82,963.84z"/>
								<path class="st1" d="M734.82,992.62h-31.17c-3.17,0-5.73-2.57-5.73-5.73v0c0-3.17,2.57-5.73,5.73-5.73h31.17
									c3.17,0,5.73,2.57,5.73,5.73v0C740.55,990.06,737.99,992.62,734.82,992.62z"/>
								<path class="st1" d="M734.82,1021.41h-31.17c-3.17,0-5.73-2.57-5.73-5.73l0,0c0-3.17,2.57-5.73,5.73-5.73h31.17
									c3.17,0,5.73,2.57,5.73,5.73l0,0C740.55,1018.84,737.99,1021.41,734.82,1021.41z"/>
								<path class="st1" d="M734.82,1050.19h-31.17c-3.17,0-5.73-2.57-5.73-5.73l0,0c0-3.17,2.57-5.73,5.73-5.73h31.17
									c3.17,0,5.73,2.57,5.73,5.73l0,0C740.55,1047.63,737.99,1050.19,734.82,1050.19z"/>
								<path class="st1" d="M734.82,1078.98h-31.17c-3.17,0-5.73-2.57-5.73-5.73v0c0-3.17,2.57-5.73,5.73-5.73h31.17
									c3.17,0,5.73,2.57,5.73,5.73v0C740.55,1076.41,737.99,1078.98,734.82,1078.98z"/>
								<path class="st1" d="M734.82,1107.76h-31.17c-3.17,0-5.73-2.57-5.73-5.73l0,0c0-3.17,2.57-5.73,5.73-5.73h31.17
									c3.17,0,5.73,2.57,5.73,5.73l0,0C740.55,1105.2,737.99,1107.76,734.82,1107.76z"/>
							</g>
						</g>
						<path class="st1" d="M847.83,845.95H714.2c-3.08,0-5.57-2.49-5.57-5.57l0,0c0-3.08,2.49-5.57,5.57-5.57h133.63
							c3.08,0,5.57,2.49,5.57,5.57l0,0C853.4,843.46,850.91,845.95,847.83,845.95z"/>
					</g>
				</g>
				<g>
					<path class="st1" d="M530.48,1474.04h-61.77c-15.64,0-28.32-12.68-28.32-28.32v-227.05c0-15.64,12.68-28.32,28.32-28.32h61.77
						c15.64,0,28.32,12.68,28.32,28.32v227.05C558.81,1461.36,546.13,1474.04,530.48,1474.04z"/>
					<ellipse class="st1" cx="499.6" cy="1270.64" rx="42.96" ry="41.58"/>
					<path class="st1" d="M649.33,1284.62H504.76c-9.13,0-16.53-7.4-16.53-16.53v0c0-9.13,7.4-16.53,16.53-16.53h144.57
						c9.13,0,16.53,7.4,16.53,16.53v0C665.87,1277.21,658.46,1284.62,649.33,1284.62z"/>
					<path class="st1" d="M499.79,1449.96h-0.39c-6.52,0-11.8-5.28-11.8-11.8v-53.93c0-6.52,5.28-11.8,11.8-11.8h0.39
						c6.52,0,11.8,5.28,11.8,11.8v53.93C511.59,1444.68,506.31,1449.96,499.79,1449.96z"/>
					<path class="st1" d="M648.78,1274.68H505.31c-7.65,0-14.11-4.86-16.29-11.57c-0.51,1.57-0.79,3.24-0.79,4.97
						c0,9.13,7.65,16.53,17.08,16.53h143.47c9.43,0,17.08-7.4,17.08-16.53c0-1.73-0.28-3.4-0.79-4.97
						C662.9,1269.82,656.43,1274.68,648.78,1274.68z"/>
				</g>
			</g>
		</g>
	</g>
	<g>
		<path class="st1" d="M1290.11,386.7c-57.74,43.57,15.53,94.89,199.06,92.24c179.7-2.59,330.99-168.18,197.71-138.03
			C1434.71,397.95,1377.65,320.64,1290.11,386.7z"/>
		<g>
			<path class="st1" d="M189.09,1064.96c-1.58-259.42,150.93-466.66,378.42-548.72c249.93-90.17,724.23-9.76,847.33-7.71
				c305.01,5.06,304.92-113.83,478.92-67.96c125.82,33.17,92.85,235.99,39.83,356.76c-117.49,267.64,9.25,275-39.83,455.75
				c-94.08,346.51-500.8,555.85-692.58,585.06C906.43,1883.02,193.28,1751.5,189.09,1064.96z"/>
		</g>
		<g>
			<defs>
				<path id="SVGID_7_" d="M189.09,1064.96c-1.58-259.42,150.93-466.66,378.42-548.72c249.93-90.17,724.23-9.76,847.33-7.71
					c305.01,5.06,304.92-113.83,478.92-67.96c125.82,33.17,92.85,235.99,39.83,356.76c-117.49,267.64,9.25,275-39.83,455.75
					c-94.08,346.51-500.8,555.85-692.58,585.06C906.43,1883.02,193.28,1751.5,189.09,1064.96z"/>
			</defs>
			<clipPath id="SVGID_8_">
				<use xlink:href="#SVGID_7_"  style="overflow:visible;"/>
			</clipPath>
			<g class="st5">
				<rect x="26.43" y="1315.94" class="st6" width="1842.84" height="1094.81"/>
				<rect x="26.43" y="1315.94" class="st7" width="1842.84" height="46.52"/>
			</g>
		</g>
		<g>
			<defs>
				<path id="SVGID_9_" d="M189.09,1064.96c-1.58-259.42,150.93-466.66,378.42-548.72c249.93-90.17,724.23-9.76,847.33-7.71
					c305.01,5.06,304.92-113.83,478.92-67.96c125.82,33.17,92.85,235.99,39.83,356.76c-117.49,267.64,9.25,275-39.83,455.75
					c-94.08,346.51-500.8,555.85-692.58,585.06C906.43,1883.02,193.28,1751.5,189.09,1064.96z"/>
			</defs>
			<clipPath id="SVGID_10_">
				<use xlink:href="#SVGID_9_"  style="overflow:visible;"/>
			</clipPath>
			<g class="st8">
				<circle class="st9" cx="1657.1" cy="615.39" r="184"/>
				<path class="st10" d="M1657.1,804.88c-104.48,0-189.49-85-189.49-189.49s85-189.49,189.49-189.49s189.49,85,189.49,189.49
					S1761.58,804.88,1657.1,804.88z M1657.1,436.89c-98.43,0-178.5,80.08-178.5,178.5s80.08,178.5,178.5,178.5
					s178.5-80.08,178.5-178.5S1755.52,436.89,1657.1,436.89z"/>
				<g>
					<path class="st6" d="M1643.71,635.27c-0.84,0-1.69-0.24-2.45-0.75c-2.02-1.35-2.55-4.09-1.2-6.1l71.86-107.05
						c1.35-2.02,4.08-2.56,6.1-1.2c2.02,1.35,2.55,4.09,1.2,6.1l-71.86,107.05C1646.52,634.58,1645.13,635.27,1643.71,635.27z"/>
					<path class="st6" d="M1751.6,733.74c-0.92,0-1.83-0.37-2.49-1.11l-117.09-130.47c-1.23-1.38-1.12-3.49,0.25-4.72
						c1.37-1.23,3.49-1.12,4.72,0.25l117.09,130.47c1.23,1.38,1.12,3.49-0.25,4.72C1753.2,733.45,1752.4,733.74,1751.6,733.74z"/>
				</g>
				<g>
					<path class="st10" d="M1660.44,475.58L1660.44,475.58c-1.85,0-3.35-1.5-3.35-3.35v-16.73c0-1.85,1.5-3.35,3.35-3.35l0,0
						c1.85,0,3.35,1.5,3.35,3.35v16.73C1663.79,474.09,1662.29,475.58,1660.44,475.58z"/>
					<path class="st10" d="M1588.37,492.65L1588.37,492.65c-1.6,0.92-3.65,0.38-4.57-1.22l-8.36-14.49
						c-0.92-1.6-0.38-3.65,1.22-4.57l0,0c1.6-0.92,3.65-0.38,4.57,1.22l8.36,14.49C1590.52,489.68,1589.97,491.73,1588.37,492.65z"
						/>
					<path class="st10" d="M1534.5,543.47L1534.5,543.47c-0.92,1.6-2.97,2.15-4.57,1.22l-14.49-8.36c-1.6-0.92-2.15-2.97-1.22-4.57
						l0,0c0.92-1.6,2.97-2.15,4.57-1.22l14.49,8.36C1534.87,539.82,1535.42,541.87,1534.5,543.47z"/>
					<path class="st10" d="M1513.24,614.42L1513.24,614.42c0,1.85-1.5,3.35-3.35,3.35h-16.73c-1.85,0-3.35-1.5-3.35-3.35l0,0
						c0-1.85,1.5-3.35,3.35-3.35h16.73C1511.75,611.07,1513.24,612.57,1513.24,614.42z"/>
					<path class="st10" d="M1530.31,686.49L1530.31,686.49c0.92,1.6,0.38,3.65-1.22,4.57l-14.49,8.36c-1.6,0.92-3.65,0.38-4.57-1.22
						v0c-0.92-1.6-0.38-3.65,1.22-4.57l14.49-8.36C1527.34,684.34,1529.39,684.89,1530.31,686.49z"/>
					<path class="st10" d="M1581.13,740.36L1581.13,740.36c1.6,0.92,2.15,2.97,1.22,4.57l-8.36,14.49c-0.92,1.6-2.97,2.15-4.57,1.22
						l0,0c-1.6-0.92-2.15-2.97-1.22-4.57l8.36-14.49C1577.48,739.99,1579.53,739.44,1581.13,740.36z"/>
					<path class="st10" d="M1652.08,761.61L1652.08,761.61c1.85,0,3.35,1.5,3.35,3.35v16.73c0,1.85-1.5,3.35-3.35,3.35l0,0
						c-1.85,0-3.35-1.5-3.35-3.35v-16.73C1648.73,763.11,1650.23,761.61,1652.08,761.61z"/>
					<path class="st10" d="M1724.15,744.55L1724.15,744.55c1.6-0.92,3.65-0.38,4.57,1.22l8.36,14.49c0.92,1.6,0.38,3.65-1.22,4.57
						l0,0c-1.6,0.92-3.65,0.38-4.57-1.22l-8.36-14.49C1722,747.52,1722.55,745.47,1724.15,744.55z"/>
					<path class="st10" d="M1778.02,693.73L1778.02,693.73c0.92-1.6,2.97-2.15,4.57-1.22l14.49,8.36c1.6,0.92,2.15,2.97,1.22,4.57
						l0,0c-0.92,1.6-2.97,2.15-4.57,1.22l-14.49-8.36C1777.65,697.38,1777.1,695.33,1778.02,693.73z"/>
					<path class="st10" d="M1799.28,622.78L1799.28,622.78c0-1.85,1.5-3.35,3.35-3.35h16.73c1.85,0,3.35,1.5,3.35,3.35v0
						c0,1.85-1.5,3.35-3.35,3.35h-16.73C1800.77,626.13,1799.28,624.63,1799.28,622.78z"/>
					<path class="st10" d="M1782.21,550.71L1782.21,550.71c-0.92-1.6-0.38-3.65,1.22-4.57l14.49-8.36c1.6-0.92,3.65-0.38,4.57,1.22
						l0,0c0.92,1.6,0.38,3.65-1.22,4.57l-14.49,8.36C1785.18,552.86,1783.13,552.31,1782.21,550.71z"/>
					<path class="st10" d="M1731.39,496.84L1731.39,496.84c-1.6-0.92-2.15-2.97-1.22-4.57l8.36-14.49c0.92-1.6,2.97-2.15,4.57-1.22
						l0,0c1.6,0.92,2.15,2.97,1.22,4.57l-8.36,14.49C1735.04,497.21,1732.99,497.76,1731.39,496.84z"/>
				</g>
			</g>
		</g>
		<g>
			<defs>
				<path id="SVGID_11_" d="M189.09,1064.96c-1.58-259.42,150.93-466.66,378.42-548.72c249.93-90.17,724.23-9.76,847.33-7.71
					c305.01,5.06,304.92-113.83,478.92-67.96c125.82,33.17,92.85,235.99,39.83,356.76c-117.49,267.64,9.25,275-39.83,455.75
					c-94.08,346.51-500.8,555.85-692.58,585.06C906.43,1883.02,193.28,1751.5,189.09,1064.96z"/>
			</defs>
			<clipPath id="SVGID_12_">
				<use xlink:href="#SVGID_11_"  style="overflow:visible;"/>
			</clipPath>
			<g class="st11">
				<g>
					<rect x="279.86" y="367.82" class="st6" width="964.08" height="1653.95"/>
					<rect x="352.75" y="455.07" class="st1" width="818.31" height="1479.46"/>
				</g>
				<g>
					<g>
						<path class="st9" d="M942.21,663.88H612.85c-5.35,0-9.69-4.34-9.69-9.69l0,0c0-5.35,4.34-9.69,9.69-9.69h329.37
							c5.35,0,9.69,4.34,9.69,9.69l0,0C951.91,659.54,947.57,663.88,942.21,663.88z"/>
					</g>
					<g>
						<path class="st9" d="M942.21,623.37H612.85c-5.35,0-9.69-4.34-9.69-9.69v0c0-5.35,4.34-9.69,9.69-9.69h329.37
							c5.35,0,9.69,4.34,9.69,9.69v0C951.91,619.03,947.57,623.37,942.21,623.37z"/>
					</g>
				</g>
				<g>
					<rect x="622.33" y="801.6" class="st10" width="317.37" height="388.74"/>
					<g>
						<g>
							<g>
								<path class="st6" d="M858.38,935.05h-89.59c-3.17,0-5.73-2.57-5.73-5.73l0,0c0-3.17,2.57-5.73,5.73-5.73h89.59
									c3.17,0,5.73,2.57,5.73,5.73l0,0C864.11,932.49,861.54,935.05,858.38,935.05z"/>
								<path class="st6" d="M858.38,963.84h-89.59c-3.17,0-5.73-2.57-5.73-5.73l0,0c0-3.17,2.57-5.73,5.73-5.73h89.59
									c3.17,0,5.73,2.57,5.73,5.73l0,0C864.11,961.27,861.54,963.84,858.38,963.84z"/>
								<path class="st6" d="M858.38,992.62h-89.59c-3.17,0-5.73-2.57-5.73-5.73v0c0-3.17,2.57-5.73,5.73-5.73h89.59
									c3.17,0,5.73,2.57,5.73,5.73v0C864.11,990.06,861.54,992.62,858.38,992.62z"/>
								<path class="st6" d="M858.38,1021.41h-89.59c-3.17,0-5.73-2.57-5.73-5.73l0,0c0-3.17,2.57-5.73,5.73-5.73h89.59
									c3.17,0,5.73,2.57,5.73,5.73l0,0C864.11,1018.84,861.54,1021.41,858.38,1021.41z"/>
								<path class="st6" d="M858.38,1050.19h-89.59c-3.17,0-5.73-2.57-5.73-5.73l0,0c0-3.17,2.57-5.73,5.73-5.73h89.59
									c3.17,0,5.73,2.57,5.73,5.73l0,0C864.11,1047.63,861.54,1050.19,858.38,1050.19z"/>
								<path class="st6" d="M858.38,1078.98h-89.59c-3.17,0-5.73-2.57-5.73-5.73v0c0-3.17,2.57-5.73,5.73-5.73h89.59
									c3.17,0,5.73,2.57,5.73,5.73v0C864.11,1076.41,861.54,1078.98,858.38,1078.98z"/>
								<path class="st6" d="M858.38,1107.76h-89.59c-3.17,0-5.73-2.57-5.73-5.73l0,0c0-3.17,2.57-5.73,5.73-5.73h89.59
									c3.17,0,5.73,2.57,5.73,5.73l0,0C864.11,1105.2,861.54,1107.76,858.38,1107.76z"/>
							</g>
							<g>
								<path class="st6" d="M734.82,935.05h-31.17c-3.17,0-5.73-2.57-5.73-5.73l0,0c0-3.17,2.57-5.73,5.73-5.73h31.17
									c3.17,0,5.73,2.57,5.73,5.73l0,0C740.55,932.49,737.99,935.05,734.82,935.05z"/>
								<path class="st6" d="M734.82,963.84h-31.17c-3.17,0-5.73-2.57-5.73-5.73l0,0c0-3.17,2.57-5.73,5.73-5.73h31.17
									c3.17,0,5.73,2.57,5.73,5.73l0,0C740.55,961.27,737.99,963.84,734.82,963.84z"/>
								<path class="st6" d="M734.82,992.62h-31.17c-3.17,0-5.73-2.57-5.73-5.73v0c0-3.17,2.57-5.73,5.73-5.73h31.17
									c3.17,0,5.73,2.57,5.73,5.73v0C740.55,990.06,737.99,992.62,734.82,992.62z"/>
								<path class="st6" d="M734.82,1021.41h-31.17c-3.17,0-5.73-2.57-5.73-5.73l0,0c0-3.17,2.57-5.73,5.73-5.73h31.17
									c3.17,0,5.73,2.57,5.73,5.73l0,0C740.55,1018.84,737.99,1021.41,734.82,1021.41z"/>
								<path class="st6" d="M734.82,1050.19h-31.17c-3.17,0-5.73-2.57-5.73-5.73l0,0c0-3.17,2.57-5.73,5.73-5.73h31.17
									c3.17,0,5.73,2.57,5.73,5.73l0,0C740.55,1047.63,737.99,1050.19,734.82,1050.19z"/>
								<path class="st6" d="M734.82,1078.98h-31.17c-3.17,0-5.73-2.57-5.73-5.73v0c0-3.17,2.57-5.73,5.73-5.73h31.17
									c3.17,0,5.73,2.57,5.73,5.73v0C740.55,1076.41,737.99,1078.98,734.82,1078.98z"/>
								<path class="st6" d="M734.82,1107.76h-31.17c-3.17,0-5.73-2.57-5.73-5.73l0,0c0-3.17,2.57-5.73,5.73-5.73h31.17
									c3.17,0,5.73,2.57,5.73,5.73l0,0C740.55,1105.2,737.99,1107.76,734.82,1107.76z"/>
							</g>
						</g>
						<path class="st6" d="M847.83,845.95H714.2c-3.08,0-5.57-2.49-5.57-5.57l0,0c0-3.08,2.49-5.57,5.57-5.57h133.63
							c3.08,0,5.57,2.49,5.57,5.57l0,0C853.4,843.46,850.91,845.95,847.83,845.95z"/>
					</g>
				</g>
				<g>
					<path class="st6" d="M530.48,1474.04h-61.77c-15.64,0-28.32-12.68-28.32-28.32v-227.05c0-15.64,12.68-28.32,28.32-28.32h61.77
						c15.64,0,28.32,12.68,28.32,28.32v227.05C558.81,1461.36,546.13,1474.04,530.48,1474.04z"/>
					<ellipse class="st7" cx="499.6" cy="1270.64" rx="42.96" ry="41.58"/>
					<path class="st10" d="M649.33,1284.62H504.76c-9.13,0-16.53-7.4-16.53-16.53v0c0-9.13,7.4-16.53,16.53-16.53h144.57
						c9.13,0,16.53,7.4,16.53,16.53v0C665.87,1277.21,658.46,1284.62,649.33,1284.62z"/>
					<path class="st7" d="M499.79,1449.96h-0.39c-6.52,0-11.8-5.28-11.8-11.8v-53.93c0-6.52,5.28-11.8,11.8-11.8h0.39
						c6.52,0,11.8,5.28,11.8,11.8v53.93C511.59,1444.68,506.31,1449.96,499.79,1449.96z"/>
					<path class="st7" d="M648.78,1274.68H505.31c-7.65,0-14.11-4.86-16.29-11.57c-0.51,1.57-0.79,3.24-0.79,4.97
						c0,9.13,7.65,16.53,17.08,16.53h143.47c9.43,0,17.08-7.4,17.08-16.53c0-1.73-0.28-3.4-0.79-4.97
						C662.9,1269.82,656.43,1274.68,648.78,1274.68z"/>
				</g>
			</g>
		</g>
	</g>
	<g>
		<g>
			<defs>
				<path id="SVGID_13_" d="M189.09,1064.96c-1.58-259.42,150.93-466.66,378.42-548.72c249.93-90.17,724.23-9.76,847.33-7.71
					c305.01,5.06,304.92-113.83,478.92-67.96c125.82,33.17,92.85,235.99,39.83,356.76c-117.49,267.64,9.25,275-39.83,455.75
					c-94.08,346.51-500.8,555.85-692.58,585.06C906.43,1883.02,193.28,1751.5,189.09,1064.96z"/>
			</defs>
			<clipPath id="SVGID_14_">
				<use xlink:href="#SVGID_13_"  style="overflow:visible;"/>
			</clipPath>
		</g>
		<g>
			<defs>
				<path id="SVGID_15_" d="M189.09,1064.96c-1.58-259.42,150.93-466.66,378.42-548.72c249.93-90.17,724.23-9.76,847.33-7.71
					c305.01,5.06,304.92-113.83,478.92-67.96c125.82,33.17,92.85,235.99,39.83,356.76c-117.49,267.64,9.25,275-39.83,455.75
					c-94.08,346.51-500.8,555.85-692.58,585.06C906.43,1883.02,193.28,1751.5,189.09,1064.96z"/>
			</defs>
			<clipPath id="SVGID_16_">
				<use xlink:href="#SVGID_15_"  style="overflow:visible;"/>
			</clipPath>
		</g>
		<g>
			<defs>
				<path id="SVGID_17_" d="M189.09,1064.96c-1.58-259.42,150.93-466.66,378.42-548.72c249.93-90.17,724.23-9.76,847.33-7.71
					c305.01,5.06,304.92-113.83,478.92-67.96c125.82,33.17,92.85,235.99,39.83,356.76c-117.49,267.64,9.25,275-39.83,455.75
					c-94.08,346.51-500.8,555.85-692.58,585.06C906.43,1883.02,193.28,1751.5,189.09,1064.96z"/>
			</defs>
			<clipPath id="SVGID_18_">
				<use xlink:href="#SVGID_17_"  style="overflow:visible;"/>
			</clipPath>
		</g>
	</g>
</g>
<g id="Layer_2">
	<g>
		<defs>
			<path id="SVGID_19_" d="M189.09,1064.96c-1.58-259.42,150.93-466.66,378.42-548.72c249.93-90.17,724.23-9.76,847.33-7.71
				c305.01,5.06,304.92-113.83,478.92-67.96c125.82,33.17,92.85,235.99,39.83,356.76c-117.49,267.64,9.25,275-39.83,455.75
				c-94.08,346.51-500.8,555.85-692.58,585.06C906.43,1883.02,193.28,1751.5,189.09,1064.96z"/>
		</defs>
		<clipPath id="SVGID_20_">
			<use xlink:href="#SVGID_19_"  style="overflow:visible;"/>
		</clipPath>
		<g class="st12">
			<defs>
				<path id="SVGID_21_" d="M189.09,1064.96c-1.58-259.42,150.93-466.66,378.42-548.72c249.93-90.17,724.23-9.76,847.33-7.71
					c305.01,5.06,304.92-113.83,478.92-67.96c125.82,33.17,92.85,235.99,39.83,356.76c-117.49,267.64,9.25,275-39.83,455.75
					c-94.08,346.51-500.8,555.85-692.58,585.06C906.43,1883.02,193.28,1751.5,189.09,1064.96z"/>
			</defs>
			<clipPath id="SVGID_22_">
				<use xlink:href="#SVGID_21_"  style="overflow:visible;"/>
			</clipPath>
			<g class="st13">
				<path class="st7" d="M1983.72,1167.72h-370.1c-15.81,0-28.62-12.81-28.62-28.62V903.59c0-15.81,12.81-28.62,28.62-28.62h370.1
					c15.81,0,28.62,12.81,28.62,28.62v235.51C2012.34,1154.91,1999.53,1167.72,1983.72,1167.72z"/>
				<g>
					<path class="st14" d="M1926.65,931.37h-72.76c-2.48,0-4.48-2.01-4.48-4.48l0,0c0-2.48,2.01-4.48,4.48-4.48h72.76
						c2.48,0,4.48,2.01,4.48,4.48l0,0C1931.13,929.36,1929.12,931.37,1926.65,931.37z"/>
					<path class="st14" d="M1908.72,949.29h-54.84c-2.48,0-4.48-2.01-4.48-4.48l0,0c0-2.48,2.01-4.48,4.48-4.48h54.84
						c2.48,0,4.48,2.01,4.48,4.48l0,0C1913.2,947.29,1911.19,949.29,1908.72,949.29z"/>
				</g>
				<g>
					<path class="st14" d="M1725.57,1028.08h-72.76c-2.48,0-4.48-2.01-4.48-4.48l0,0c0-2.48,2.01-4.48,4.48-4.48h72.76
						c2.48,0,4.48,2.01,4.48,4.48l0,0C1730.05,1026.07,1728.04,1028.08,1725.57,1028.08z"/>
					<path class="st14" d="M1761.95,1065.49H1652.8c-2.48,0-4.48-2.01-4.48-4.48l0,0c0-2.48,2.01-4.48,4.48-4.48h109.15
						c2.48,0,4.48,2.01,4.48,4.48l0,0C1766.44,1063.48,1764.43,1065.49,1761.95,1065.49z"/>
					<path class="st14" d="M1707.64,1046.78h-54.84c-2.48,0-4.48-2.01-4.48-4.48l0,0c0-2.48,2.01-4.48,4.48-4.48h54.84
						c2.48,0,4.48,2.01,4.48,4.48l0,0C1712.12,1044.78,1710.11,1046.78,1707.64,1046.78z"/>
				</g>
				<g>
					<path class="st15" d="M1683.95,978.4c0,0-11.05,17.96-22.1,7.6c-11.05-10.36-19.34-54.56,15.2-77.43
						c24.04-15.92,62.84,1.94,73.2,1.94c10.36,0,41.74-5.93,42.14,3.66c0.44,10.36-12.26,23.79-25.56,34.72
						C1717.8,989.22,1700.33,967.74,1683.95,978.4z"/>
					<path class="st16" d="M1783.6,908.98c8.04,10.37-10.13,25.83-19.59,33.17c-23.17,17.97-40.17,22.49-40.17,22.49
						c6.91-6.91,0.75-18.99-3.44-24.85l-1.5-2.09c-0.76-1.06-2.45-0.42-2.28,0.87c1.25,9.5,1.62,28.37-14.77,30.17
						c-18.2,2-26.25,6.56-30.39,10.02c-2.58,2.15-9.61,7.24-16.18-4.26c1.75,5.12,4.09,9.17,6.57,11.5
						c11.05,10.36,22.1-7.6,22.1-7.6c16.38-10.67,33.84,10.82,82.88-29.51c13.3-10.94,25.99-24.36,25.56-34.72
						C1792.26,910.98,1788.67,909.53,1783.6,908.98z"/>
				</g>
				<g>
					<path class="st15" d="M1838.45,997.92c0,2.82,0,20.43,12.68,42.26c12.68,21.84,11.27,40.85-6.34,38.04
						c-17.61-2.82-44.38-3.52-47.19,30.99c-2.82,34.52,9.86,19.72,9.86,19.72s-2.82-30.29,14.09-23.24
						c16.91,7.04,57.86,56.24,94.39,9.16c24.63-31.74-5.64-57.76-21.13-66.92s-36.63-31.7-38.04-44.38
						C1855.36,990.88,1838.45,997.92,1838.45,997.92z"/>
					<path class="st16" d="M1915.93,1114.85c3.36-4.33,5.62-8.54,7.12-12.63c-11.1,8.96-35.31,9.51-51.26,7.31
						c-27.52-3.8-46.24-29.56-53.46-30.72c-10.46,3.22-19.19,11.52-20.73,30.41c-2.82,34.52,9.86,19.72,9.86,19.72
						s-2.82-30.29,14.09-23.24C1838.45,1112.74,1879.4,1161.93,1915.93,1114.85z"/>
				</g>
				<path class="st17" d="M1928.53,1008.73H1852c-0.85,0-1.55-0.69-1.55-1.55s0.69-1.55,1.55-1.55h76.54c0.85,0,1.55,0.69,1.55,1.55
					S1929.39,1008.73,1928.53,1008.73z"/>
				<path class="st17" d="M1682.75,916.08h-69.29c-0.77,0-1.4-0.63-1.4-1.4c0-0.77,0.63-1.4,1.4-1.4h69.29c0.77,0,1.4,0.63,1.4,1.4
					C1684.15,915.45,1683.53,916.08,1682.75,916.08z"/>
				<path class="st17" d="M1789.72,1106.91h-34.96c-0.85,0-1.55-0.69-1.55-1.55s0.69-1.55,1.55-1.55h34.96
					c0.85,0,1.55,0.69,1.55,1.55S1790.57,1106.91,1789.72,1106.91z"/>
			</g>
		</g>
		<g class="st12">
			<g>
				<defs>
					<path id="SVGID_23_" d="M243.52,1081.63C241.94,822.2,394.45,614.97,621.94,532.9c249.93-90.17,724.23-9.76,847.33-7.71
						c305.01,5.06,304.92-113.83,478.92-67.96c125.82,33.17,92.85,235.99,39.83,356.76c-117.49,267.64,9.25,275-39.83,455.75
						c-94.08,346.51-500.8,555.85-692.58,585.06C960.86,1899.69,247.7,1768.17,243.52,1081.63z"/>
				</defs>
				<clipPath id="SVGID_24_">
					<use xlink:href="#SVGID_23_"  style="overflow:visible;"/>
				</clipPath>
				<g class="st18">
					<path class="st19" d="M1071.33,1580.72c0,0-121.31,443.66-135.18,544.18c-13.86,100.52,45.06,748.67,45.06,748.67h209.07
						c0,0-25.37-526.84-21.9-596.17c3.47-69.32,114.38-374.34,128.25-388.2c13.86-13.86-13.42-315.49-13.42-315.49L1071.33,1580.72z
						"/>
					<path class="st20" d="M1203.33,2858.4c0,0-25.37-526.84-21.9-596.17c3.47-69.32,114.38-374.34,128.25-388.2
						c13.86-13.86-13.42-315.49-13.42-315.49l-66.63,2.2c7.03,75.73,21.86,272.21-3.07,365.79
						c-31.26,117.33-107.46,265.78-109.22,293.81c-1.65,26.27,53.08,524.48,48.51,638.05H1203.33z"/>
					<path class="st19" d="M1257.69,1607.14c0,0,4.25,277.88,24.66,364.23c20.4,86.36,69.86,314.16,72.86,337.17
						c3,23.01,79.26,626.11,79.26,626.11l232.23-13.86c0,0-16.61-501.92-51.63-614.9c-35.02-112.98,28.09-428.98,0-570.8
						C1586.96,1593.28,1257.69,1607.14,1257.69,1607.14z"/>
					<path class="st20" d="M1024.45,1790.5c0.36,0.03,0.72,0.09,1.09,0.09c0.9,0,1.81-0.1,2.73-0.31
						c1.6-0.37,39.71-9.36,73.83-37.17c34.77-28.34,47.25-67.94,47.77-69.61c1.97-6.4-1.62-13.19-8.03-15.16
						c-6.4-1.97-13.17,1.61-15.16,8.01c-0.17,0.53-11.09,34.46-39.91,57.96c-20.63,16.82-43.41,25.86-55.44,29.82
						C1029.06,1772.81,1026.76,1781.61,1024.45,1790.5z"/>
					<rect x="1049.72" y="1607.14" class="st20" width="492.18" height="65.86"/>
					<path class="st20" d="M1519.56,1818.32c-0.9,0-1.81-0.1-2.73-0.31c-1.6-0.37-39.71-9.36-73.83-37.17
						c-34.77-28.34-47.25-67.94-47.77-69.61c-1.97-6.4,1.62-13.19,8.03-15.16c6.4-1.97,13.17,1.61,15.16,8.01
						c0.17,0.53,11.09,34.46,39.91,57.96c29.58,24.11,63.62,32.26,63.96,32.34c6.52,1.52,10.58,8.04,9.07,14.55
						C1530.06,1814.53,1525.08,1818.32,1519.56,1818.32z"/>
					<path class="st20" d="M1615.05,2305.89c-35.02-112.98,28.09-428.98,0-570.8c-10.14-51.19-45.38-109.35-104.34-127.95
						c83.19,145.58,10.4,457.52,34.66,644.69c30.93,238.64,91.71,651.8,93.58,668.95h27.73
						C1666.68,2920.79,1650.08,2418.87,1615.05,2305.89z"/>
					<path class="st20" d="M1266.94,1860.17h-15.04c-8.29,0-15.01-6.72-15.01-15.01v-164.09c0-8.29,6.72-15.01,15.01-15.01h15.04
						c8.29,0,15.01,6.72,15.01,15.01v164.09C1281.95,1853.45,1275.23,1860.17,1266.94,1860.17z"/>
					<path class="st19" d="M1253.08,1848.62c-1.92,0-3.47-1.55-3.47-3.47c0-1.92,1.55-3.47,3.47-3.47c6.36,0,11.54-5.18,11.54-11.54
						v-134.63c0-1.92,1.55-3.47,3.47-3.47c1.92,0,3.47,1.55,3.47,3.47v134.63C1271.55,1840.34,1263.26,1848.62,1253.08,1848.62z"/>
				</g>
			</g>
			<g>
				<path class="st21" d="M1208.92,972.99l69.8-24.05l141.95-5.15l48.1,20.29l10.47,715.96l-212.53-11.47
					c-38.53-2.08-77.1-3.12-115.69-3.12H1041.4l92.43-385.14L1208.92,972.99z"/>
				<g>
					<path class="st10" d="M908.46,1344.01c0,0,133.62-286.15,184.4-322.8c50.78-36.65,140.25-56.56,140.25-56.56
						s-110.85,466.21-133.12,477.79S908.46,1344.01,908.46,1344.01z"/>
					<path class="st9" d="M1127.6,1690.09c2.67-50.78,84.18-502.42,74.83-549.19c-7.4-37.01,30.2-144.16,46.21-187.25
						c-41.83,14-78.28,30.91-78.28,30.91c-36.52,44.54-52.56,179.05-62.36,295.75c-6.15,73.24-65.03,175.49-77.5,241.41
						c-33.49,176.99-51.67,342.96-51.67,342.96l141.99,3.84C1123,1804.95,1126.01,1720.31,1127.6,1690.09z"/>
					<path class="st17" d="M1225.29,978.89l-56.72,47.55l32.96,21.68l-40.25,25.83c0,0,8.77,27.94,11.74,69.95
						c2.97,42.01-0.93,154.86-0.93,154.86L1225.29,978.89z"/>
					<path class="st0" d="M1284.28,939.14c0,0-20.95-8.91-67.6,34.74c-31.6,29.56-48.1,52.56-48.1,52.56l32.51,12.92l-39.8,34.59
						c0,0,11.5,33.27,17.96,73.63c7.13,44.54-31.5,403.78-31.5,403.78s77.11-380.67,82.45-430.56c5.34-49.89,1.34-86.77,5.98-110.39
						C1242.89,976.25,1272.73,944.41,1284.28,939.14z"/>
				</g>
				<g>
					<path class="st9" d="M1591.71,1649.12c-17.82-75.72-32.34-272.68-24.32-343.94c8.02-71.27,18.98-291.21,18.98-291.21
						s-16.03-14.25-85.52-45.43c-17.12-7.68-32.58-13.71-47.03-18.4c-3.44,14.49-8.95,32.2-17.74,50.47
						c-21.2,44.1-93.36,208.27-100.04,263.82c-6.68,55.54-30.29,142.4-23.16,257.31c5.38,86.78,20.41,268.8,27.45,352.73l1.05,0.03
						l305.55-16.93C1646.94,1857.57,1609.53,1724.84,1591.71,1649.12z"/>
					<path class="st10" d="M1565.64,1305.17c6.67-59.3,15.38-221.51,18.12-274.32l-0.28-17.8c-3.89-2.99-18.75-13.47-58.21-32.39
						c-24.99,9.51-46.91,29.82-58.51,68.33c-32.87,109.05,43.47,310.61,43.47,310.61s-139.21,39.53-197.78,57.42l-1.3,104.71
						l254.55-84.98C1562.85,1383.24,1562.41,1333.95,1565.64,1305.17z"/>
					<path class="st6" d="M1464.13,1282.54l-110.83,3.88c-4.67,0.16-8.6-3.49-8.76-8.17l-0.87-24.91c-0.16-4.67,3.49-8.6,8.17-8.76
						l110.83-3.88c4.67-0.16,8.6,3.49,8.76,8.17l0.87,24.91C1472.46,1278.46,1468.8,1282.38,1464.13,1282.54z"/>
					<path class="st17" d="M1452.95,953.66c0,0,13.45,1.22,22.36,38.04c8.91,36.82,9.61,62.36,9.61,62.36l-69.6,7.72l49.29,50.48
						c0,0-90.86,111.74-108.09,179.69s21.97-227.2,21.97-227.2L1452.95,953.66z"/>
					<path class="st0" d="M1414.44,919.38c0,0,19.87,14.69,18.2,34.28c-2.16,25.23-32.67,42.49-61.63,91.48
						c-14.48,24.5-44.76,89.08-58.12,186.18c-13.36,97.1,2.98,303.51,3.87,347.16c0,0,14.2-234.92,56.71-340.04
						c23.53-58.19,85.74-131.84,85.74-131.84l-38.16-51.67l58.04-7.28c0,0-7.07-79.63-19.66-95.67
						C1451.06,941.33,1414.44,919.38,1414.44,919.38z"/>
					<path class="st10" d="M1591.71,1649.12c-10.93-46.46-20.62-138.55-24.63-219.26l-21.01,13.44c0,0,18.15,204.03,37.68,318.95
						c6.32,37.2,12.56,70.19,18.1,97.81l45.08-2.5C1646.94,1857.57,1609.53,1724.84,1591.71,1649.12z"/>
					<g>
						<path class="st22" d="M1468.86,1563.73c3.49,3.12,5.33,7.29,5.18,11.74l-0.01,0.22l2.83,44.23l3.79-0.85
							c1.84-0.2,3.65-0.1,5.38,0.24l-2.8-43.77c0.17-7.12-2.75-13.74-8.24-18.66c-6.33-5.67-15.09-8.18-24.01-6.89l1.32,9.1
							C1458.52,1558.19,1464.56,1559.88,1468.86,1563.73z"/>
						<path class="st22" d="M1374.09,1630.74l9.56-0.22l-11.94-38.46l-0.16-0.44c-1.8-4.22-1.54-8.86,0.75-13.09
							c2.78-5.14,8.2-8.87,14.49-9.99l-1.6-9.05c-9.03,1.6-16.87,7.08-20.97,14.67c-3.55,6.57-3.99,14.15-1.21,20.84
							L1374.09,1630.74z"/>
						<path class="st6" d="M1368.21,1598.45c-2.29,0.4-4.63-0.8-5.58-3.02c-2.95-6.89-2.53-14.73,1.13-21.51
							c4.18-7.72,12.15-13.3,21.33-14.93c2.78-0.49,5.43,1.36,5.92,4.14c0.49,2.78-1.36,5.43-4.14,5.92
							c-6.14,1.09-11.43,4.72-14.13,9.73c-2.21,4.08-2.46,8.57-0.73,12.64c1.11,2.59-0.1,5.59-2.69,6.7
							C1368.96,1598.28,1368.58,1598.39,1368.21,1598.45z"/>
						<path class="st6" d="M1479.37,1580.67c-0.3,0.04-0.6,0.06-0.91,0.05c-2.82-0.09-5.03-2.46-4.93-5.27
							c0.14-4.29-1.64-8.32-5.01-11.34c-4.19-3.75-10.08-5.4-16.15-4.52c-2.79,0.4-5.38-1.53-5.78-4.32s1.53-5.38,4.32-5.78
							c9.08-1.31,17.98,1.24,24.43,7.02c5.67,5.07,8.65,11.92,8.4,19.29C1483.65,1578.3,1481.77,1580.33,1479.37,1580.67z"/>
						<path class="st6" d="M1505.73,1646.94l-27.79,7.06c-26.1,6.63-52.87,10.24-79.8,10.76l-27.87,0.54
							c-9.63,1.3-18.49-5.44-19.8-15.07v0c-1.3-9.63,5.44-18.49,15.07-19.8l26.74-0.46c26.94-0.47,53.73-4.03,79.85-10.61
							l28.87-7.27c9.63-1.3,18.49,5.44,19.8,15.07v0C1522.11,1636.77,1515.36,1645.64,1505.73,1646.94z"/>
						<path class="st23" d="M1390.62,1574.97L1390.62,1574.97c-3.52,0.62-6.9-1.74-7.52-5.26l-1.78-10.04
							c-0.62-3.52,1.74-6.9,5.26-7.52l0,0c3.52-0.62,6.9,1.74,7.52,5.26l1.78,10.04C1396.5,1570.96,1394.13,1574.35,1390.62,1574.97
							z"/>
						<path class="st23" d="M1449.61,1568.6L1449.61,1568.6c-3.53,0.51-6.84-1.96-7.35-5.5l-1.46-10.09
							c-0.51-3.53,1.96-6.84,5.5-7.35l0,0c3.53-0.51,6.84,1.96,7.35,5.5l1.46,10.09C1455.62,1564.78,1453.15,1568.09,1449.61,1568.6
							z"/>
					</g>
					<g>
						<g>
							<path class="st6" d="M1140.73,1316.71H821.81l-32.22-120.26c-7.78-29.03,9.45-52.56,38.48-52.56h213.8
								c29.03,0,58.86,23.53,66.64,52.56L1140.73,1316.71z"/>
							<polygon class="st24" points="1222.9,1609.36 875.48,1609.36 762.82,1188.9 1110.24,1188.9 							"/>
							<path class="st25" d="M1028.54,1173.4l-43.24,0.11c-4.62-16.32-21.46-29.46-37.82-29.41c-16.36,0.05-26.05,13.27-21.82,29.59
								l-43.21,0.11c-3,0.01-4.77,2.45-3.95,5.45l5.78,21.17c0.82,2.99,3.89,5.4,6.88,5.39l146.09-0.4c3-0.01,4.76-2.45,3.95-5.45
								l-5.78-21.17C1034.6,1175.8,1031.53,1173.39,1028.54,1173.4z M958.89,1186.19c-6.95,0.02-14.11-5.6-16-12.55
								c-1.89-6.95,2.22-12.61,9.17-12.63c6.95-0.02,14.11,5.6,16,12.55C969.95,1180.52,965.84,1186.17,958.89,1186.19z"/>
							<path class="st26" d="M1019.45,1143.89H757.03c-29.03,0-46.25,23.53-38.48,52.56l15.21,35.5
								c11.47,26.77,17.26,55.63,17.01,84.76v0h262.42l-0.02-3.4c-0.15-28.44-6.06-56.56-17.38-82.65l-14.83-34.2
								C973.2,1167.42,990.42,1143.89,1019.45,1143.89z"/>
						</g>
						<g>
							
								<ellipse transform="matrix(0.9979 -0.0649 0.0649 0.9979 -94.5123 87.0467)" class="st19" cx="1291.66" cy="1497.27" rx="24.24" ry="64.25"/>
							<g>
								<path class="st27" d="M1377.36,1432.79l-104.96,32.59c-10.9-7.02-30.65-18.9-45.91-23.47
									c-22.26-6.67-51.44-17.65-52.94-11.38c-1.5,6.27-0.8,22.03,5.99,25.81c6.79,3.77,11.32,10.15-12,11.85
									c-23.32,1.7-63.08-3.87-66.54-6.03c-3.46-2.16-25.29,4.69-15.75,20.82c9.54,16.13,37.28,64.78,54.01,70.34
									c16.73,5.56,49.25,11.61,75.01,4.75c25.76-6.86,40.78-19.67,46.92-17.69c19.14,6.18,118.97,6.35,201.8,4.16
									C1518.58,1543.06,1377.36,1432.79,1377.36,1432.79z"/>
								<path class="st28" d="M1434.99,1519.8c-32.36,1.29-176.13,1.02-176.13,1.02s-11.65,0.52-37.73,20.23
									c-19.47,14.71-75.67,0.87-102.95-7.1c7.54,9.69,15.03,17.34,21.08,19.35c16.73,5.56,49.25,11.61,75.01,4.75
									c25.76-6.86,40.78-19.67,46.92-17.69c16.33,5.27,91.38,6.17,164.5,4.96C1495.81,1544.17,1467.35,1518.51,1434.99,1519.8z"/>
								<path class="st28" d="M1145.44,1533.61c-8.02-1.17-22.1-5.27-34.22-9.1c0.93,1.32,1.86,2.62,2.79,3.91
									c11.27,3.5,23.54,6.96,31.01,8.05c16.23,2.36,36.37,4.07,36.57,4.08c0.44,0.04,0.84-0.13,1.13-0.41
									c0.24-0.23,0.39-0.55,0.42-0.91c0.07-0.79-0.52-1.49-1.32-1.56C1181.64,1537.65,1161.58,1535.96,1145.44,1533.61z"/>
								<path class="st28" d="M1175.17,1516.8c0.37-0.02,0.71-0.17,0.95-0.42c0.28-0.28,0.45-0.66,0.43-1.08
									c-0.03-0.79-0.7-1.41-1.5-1.38c-0.43,0.02-43.31,1.69-70.77-5.11c-1.52-0.38-2.91-0.77-4.21-1.18
									c0.76,1.2,1.53,2.42,2.31,3.64c0.41,0.11,0.78,0.23,1.2,0.33C1131.45,1518.51,1174.74,1516.82,1175.17,1516.8z"/>
								<path class="st28" d="M1102.47,1491.38c28.39,4.22,71.32-1.57,71.75-1.63c0.32-0.04,0.6-0.19,0.82-0.4
									c0.31-0.31,0.48-0.75,0.41-1.22c-0.11-0.79-0.84-1.34-1.63-1.23c-0.42,0.06-42.96,5.8-70.93,1.64
									c-9.96-1.48-15.36-4.13-18.28-6.72c0.2,0.38,0.39,0.76,0.63,1.16c0.74,1.25,1.6,2.71,2.54,4.31
									C1091.58,1489.12,1096.48,1490.49,1102.47,1491.38z"/>
							</g>
							<path class="st9" d="M1681.8,1213.53c-1.45-8.99-3.07-17.9-4.87-26.69c-28.19-137.66-61.82-186.38-104.89-192.03
								c-68.24-8.96-100.66,81.93-94.55,151.25c6.14,69.64,45.7,194.74,57.87,227.9l0,0l-223.44,53.11l17.71,129.68
								c0,0,231.22-12.45,319.29-49.12C1736.71,1471.08,1683.51,1221.7,1681.8,1213.53z"/>
							<path class="st10" d="M1676.93,1186.84c-28.19-137.66-61.82-186.38-104.89-192.03c-13.87-1.82-25.91,0.47-36.32,5.86
								c21.13,6.81,58.97,43.19,73.31,78.13c37.33,90.94,75.63,321.65,36.3,375.73c-28.51,39.2-251.44,58.44-320.72,65.52l5.01,36.7
								c0,0,231.22-12.45,319.29-49.12c87.79-36.55,34.59-285.93,32.88-294.1C1680.35,1204.55,1678.73,1195.64,1676.93,1186.84z"/>
							<path class="st26" d="M1339.4,1488.42c-2.63-26.25-9.6-49.15-18.31-63.57c-18.56,4.48-33.03,8.14-37.74,9.03
								c13.06,0.28,25.3,27.84,27.56,62.53c2.15,32.97-5.48,60.73-17.33,65.1c8.49-1.21,30.87-4.35,39.75-5.12
								C1339.55,1540.57,1342.15,1515.8,1339.4,1488.42z"/>
							<path class="st1" d="M1340.35,1517.16c-10.99,1.09-20.96,2.05-29.6,2.88c-1.82,21.84-8.32,38.2-17.18,41.46
								c8.49-1.21,30.87-4.35,39.75-5.12C1337.27,1546.37,1339.75,1532.75,1340.35,1517.16z"/>
						</g>
					</g>
				</g>
				<g>
					<path class="st20" d="M1210.79,801.17c0,0-37.21-44.71-13.47-98.76c23.74-54.05,45.37,15.23,37.04,21.98
						S1209.87,787.71,1210.79,801.17z"/>
					<path d="M1221.94,813.26c0,0-37.21-44.71-13.47-98.76c23.74-54.05,45.37,15.23,37.04,21.98S1221.02,799.79,1221.94,813.26z"/>
					<path class="st27" d="M1426.85,960.68c6.12-6.85,7.92-16.56,4.6-25.12c-2.4-6.18-4.89-14.85-6.02-27.01
						c-2.48-26.74,10.66-59.01,10.66-59.01l-157.04,27c2.31,2.22,6.48,25.27-0.31,50.42c-6.12,22.67-23.16,36.23-23.16,51.93
						c0,52,55.23,41.98,73.49,40.77C1364.67,1017.28,1407.83,981.95,1426.85,960.68z"/>
					<path class="st28" d="M1425.43,908.55c-2.48-26.74,10.66-59.01,10.66-59.01l-157.04,27c2.31,2.22,6.48,25.27-0.31,50.42
						c0,0.01-0.01,0.03-0.01,0.04c16.12,11.96,35.76,14.87,56.52,16.59c23.48,1.95,62.48-10.8,91.16-27.17
						C1426.02,913.97,1425.69,911.36,1425.43,908.55z"/>
					<path class="st27" d="M1456.4,739.81c-4.16-0.35-8.2,0.16-11.95,1.35c-8.85-62.06-50.75-110.53-104.9-115.02
						c-65.19-5.4-123.4,54.95-130.02,134.81c-6.62,79.85,40.86,148.97,106.05,154.37c59.8,4.96,113.69-45.44,127.31-115.44
						c2.63,0.99,5.43,1.66,8.37,1.9c17.11,1.42,32.13-11.3,33.55-28.42C1486.24,756.25,1473.51,741.23,1456.4,739.81z"/>
					<path class="st28" d="M1409.29,709.4c7.68-7.62-3.61-40.26-3.61-40.26L1292.2,633.9c-34.5,14.59-62.71,47.79-75.65,90.26
						c1.85,1.03,4.28,1.05,7.48-0.49c17.86-8.54,61.74-30.82,99.69-26.01C1361.68,702.47,1401.61,717.03,1409.29,709.4z"/>
					<path class="st29" d="M1399.96,689.3c0,0,3.17,32.91,10.91,38.73c7.74,5.82,14.92,33.32,16.44,37.23s14.81-36.84,14.81-36.84
						l-29.56-42.74L1399.96,689.3z"/>
					<path class="st20" d="M1437.19,705.49c16.92-8.79,27.73-39.18,25.1-55.1c-3.43-20.75-17.78-68.01-68.26-69.67
						c-50.47-1.66-110.29,19.43-138.27,24.7c-27.98,5.27-58.09,4.83-62.94-1.17c-4.85-6-9.82,1.81-11.99,9.7
						c-5.51,19.97,8.09,43.79,6.55,41.82c-1.01-1.28-22.55,5.84-14,28.68s22.2,29.72,41.14,29c15.32-0.58,49.75-34.14,133.11-23.18
						C1379.45,694.46,1416.4,716.3,1437.19,705.49z"/>
					<g>
						<path d="M1261.48,782.36L1261.48,782.36c-5.59-0.26-9.91-5-9.65-10.59l0.67-14.46c0.26-5.59,5-9.91,10.59-9.65v0
							c5.59,0.26,9.91,5,9.65,10.59l-0.67,14.46C1271.81,778.3,1267.07,782.62,1261.48,782.36z"/>
						<path d="M1351.82,783.69L1351.82,783.69c-5.59-0.26-9.91-5-9.65-10.59l0.67-14.46c0.26-5.59,5-9.91,10.59-9.65l0,0
							c5.59,0.26,9.91,5,9.65,10.59l-0.67,14.46C1362.15,779.63,1357.41,783.95,1351.82,783.69z"/>
						<path d="M1237.64,740.83c-1.28,0.06-2.56-0.45-3.47-1.48c-1.58-1.81-1.39-4.55,0.42-6.13c11.31-9.87,24.7-14.21,40.95-13.3
							c2.39,0.14,4.22,2.19,4.09,4.58c-0.14,2.39-2.18,4.21-4.58,4.09c-14.06-0.79-25.1,2.76-34.75,11.18
							C1239.53,740.44,1238.59,740.79,1237.64,740.83z"/>
						<path d="M1381.78,739.98c1.27,0.07,2.57-0.43,3.48-1.46c1.59-1.79,1.42-4.54-0.37-6.13c-11.24-9.95-24.59-14.4-40.85-13.61
							c-2.4,0.12-4.24,2.15-4.13,4.55c0.12,2.39,2.15,4.23,4.55,4.13c14.07-0.68,25.08,2.95,34.67,11.44
							C1379.9,739.57,1380.84,739.93,1381.78,739.98z"/>
						<path d="M1312.07,815.78c0.13-0.21,0.27-0.41,0.42-0.61c-0.22,0.3-0.44,0.59-0.67,0.89c0.38-0.49,0.81-0.93,1.29-1.32
							c-0.29,0.23-0.58,0.46-0.87,0.69c0.54-0.42,1.12-0.76,1.74-1.04c-0.34,0.15-0.69,0.3-1.03,0.45c0.57-0.24,1.16-0.41,1.77-0.51
							c-0.38,0.06-0.77,0.12-1.15,0.17c0.62-0.09,1.24-0.1,1.87-0.04c-0.39-0.05-0.77-0.09-1.16-0.14c0.7,0.09,1.36,0.26,2.01,0.52
							c-0.35-0.14-0.7-0.28-1.04-0.42c0.59,0.25,1.13,0.56,1.65,0.93c-0.3-0.22-0.59-0.44-0.89-0.67c0.51,0.39,0.96,0.82,1.36,1.31
							c-0.23-0.29-0.46-0.58-0.69-0.87c0.12,0.15,0.23,0.3,0.34,0.46c0.65,0.93,1.5,1.66,2.63,1.96c1.04,0.27,2.43,0.12,3.34-0.49
							c1.86-1.24,2.85-3.97,1.47-5.96c-2.29-3.31-6.08-5.51-10.18-5.35c-4.03,0.15-7.65,2.37-9.76,5.78
							c-1.2,1.93-0.38,4.88,1.65,5.92C1308.33,818.53,1310.79,817.84,1312.07,815.78L1312.07,815.78z"/>
						<g>
							<path d="M1303.18,860.87c-1.28,0.02-2.56,0-3.84-0.06l-0.78-0.03c-2.39-0.11-4.25-2.14-4.14-4.53
								c0.1-2.39,1.99-4.24,4.53-4.15l0.78,0.03c12.09,0.57,24.25-2.98,34.17-9.95c1.96-1.38,4.67-0.91,6.05,1.05
								c1.38,1.96,0.91,4.67-1.06,6.05C1328.47,856.62,1315.91,860.67,1303.18,860.87z"/>
						</g>
						<circle class="st30" cx="1257.37" cy="813.93" r="14.47"/>
						<circle class="st30" cx="1369.59" cy="811.85" r="14.47"/>
					</g>
					<path class="st31" d="M1441.02,672.82c-1.35-0.05-2.52-1.05-2.75-2.43c-2.53-15.29-14.68-65.21-64.94-67.23
						c-0.18-0.01-0.36-0.01-0.54-0.02c-36.42-1.2-78.14,9.69-108.6,17.64c-11.47,2.99-21.37,5.58-29.03,7.02
						c-26.7,5.03-59.43,5.62-65.74-2.2c-1.01-1.25-0.81-3.08,0.43-4.09c1.24-1,3.08-0.82,4.09,0.43c3.24,4,29.92,5.83,60.14,0.14
						c7.46-1.4,17.27-3.97,28.64-6.93c30.81-8.04,73-19.05,110.26-17.82c0.2,0.01,0.4,0.01,0.6,0.02
						c54.65,2.19,67.72,55.69,70.43,72.09c0.26,1.58-0.81,3.08-2.4,3.34C1441.42,672.81,1441.22,672.83,1441.02,672.82z"/>
					<path class="st31" d="M1429.26,690.67c-1.08-0.04-2.02-0.84-2.2-1.95c-2.02-12.24-11.74-52.18-51.96-53.79
						c-0.15-0.01-0.29-0.01-0.43-0.02c-29.14-0.96-62.52,7.75-86.89,14.11c-9.17,2.39-17.1,4.46-23.22,5.61
						c-21.36,4.03-47.55,4.5-52.6-1.76c-0.81-1-0.65-2.46,0.35-3.27c1-0.8,2.46-0.65,3.27,0.35c2.59,3.2,23.94,4.67,48.12,0.11
						c5.97-1.12,13.82-3.17,22.91-5.54c24.65-6.43,58.41-15.24,88.22-14.26c0.16,0.01,0.32,0.01,0.48,0.02
						c43.72,1.75,54.18,44.56,56.35,57.68c0.21,1.27-0.65,2.46-1.92,2.67C1429.57,690.66,1429.41,690.67,1429.26,690.67z"/>
					<path class="st20" d="M1470.41,650.06c-10.81-3-29.62,10.72-42.02,30.47c-13.67,0.53-29.98,5.58-19.09,28.87
						c16.79,35.92,19.47,51.09,18.01,55.85c-1.3,4.26,6.62,5.64,9.9,2.63c5.78-5.29,13.59-13.11,18.8-20.92
						c2.94-4.42,8.88-5.71,13.47-3.04c10.11,5.89,16.46,17.28,15.31,29.73c-1.37,14.82-13.6,26.79-28.43,28.1
						c-4.84,0.43-9.35-0.34-13.47-1.89c-4.17,21.41-12.11,40.97-22.83,57.69c1.36,11.55,5.04,19.69,12.63,20.08
						c27.33,1.4,72.04-59.44,79.38-132.73C1519.41,671.64,1486.39,654.49,1470.41,650.06z"/>
					<path class="st31" d="M1486.2,657.47c-9.25,28.43-38.47,50.18-74.99,56.11c3.88,8.49,6.93,15.74,9.28,21.89
						c37.33-7.64,67.98-29.46,82.67-58.45C1498.28,667.82,1492.19,661.65,1486.2,657.47z"/>
				</g>
			</g>
		</g>
	</g>
	<g>
		<g>
			<path class="st32" d="M505.01,922.04H153.84c-15,0-27.16-12.16-27.16-27.16V671.42c0-15,12.16-27.16,27.16-27.16h351.17
				c15,0,27.16,12.16,27.16,27.16v223.47C532.17,909.89,520.01,922.04,505.01,922.04z"/>
			<path class="st14" d="M249.7,678.9h-99.57c-3.39,0-6.13-2.75-6.13-6.13l0,0c0-3.39,2.75-6.13,6.13-6.13h99.57
				c3.39,0,6.13,2.75,6.13,6.13l0,0C255.83,676.15,253.09,678.9,249.7,678.9z"/>
			<path class="st14" d="M225.17,703.43h-75.04c-3.39,0-6.13-2.75-6.13-6.13l0,0c0-3.39,2.75-6.13,6.13-6.13h75.04
				c3.39,0,6.13,2.75,6.13,6.13l0,0C231.3,700.68,228.55,703.43,225.17,703.43z"/>
			<g>
				<rect x="328.7" y="642.82" class="st16" width="17.32" height="89.47"/>
				<path class="st15" d="M306.34,732.29c1.58-25.42,0.55-66.47-34.63-41.13c-35.18,25.34-49.03,59.02-58.43,98.77
					c-9.39,39.76-19.47,103.94,0,106.84s27.4-23.07,47.61-33.9c16.69-8.94,34.74-3.52,43.29-20.92
					C318.22,813.36,300.86,820.3,306.34,732.29z"/>
				<path class="st16" d="M306.34,732.29c1.1-17.59,0.94-42.67-10.93-48.04c3.54,8.12,6.2,20.41,4.82,38.65
					c-3.27,43.3-10.41,47.22-7.92,70.52c2.49,23.29,6.19,51.51-8.29,53.99c-7.15,1.23-15.15,8.04-21.41,14.61
					c16.2-7.73,33.32-3.25,41.57-20.06C318.22,813.36,300.86,820.3,306.34,732.29z"/>
				<g>
					<path class="st16" d="M243.87,851.34c-0.46,1.71-2.97,1.4-2.98-0.38c-0.05-9.5,0.84-24.46,5.56-40.73
						c7.95-27.44,12.13-42.62,31.68-53.79c19.56-11.17,51.29-21.3,55.26-33.55c3.98-12.25,3.98,16.78,3.98,16.78
						s-5.74,10.63-20.19,16.78c-14.45,6.14-38.49,12.66-46.91,27.79C262.78,797.66,250.97,824.74,243.87,851.34z"/>
					<path class="st16" d="M225.26,830.21c-1.52-10.09-2.82-31.89,12.34-39.77l-14.94-2.05c-2-0.27-1.97-3.17,0.03-3.41
						c8.59-0.99,18.87-2.48,24.48-4.35c10.82-3.61,18.67-14.71,18.67-14.71v14.44l-9.09,18.59c0,0-4.4,0-13.19,4.05
						c-8.19,3.78-12.21,15.67-15.78,27.39C227.38,831.71,225.46,831.58,225.26,830.21z"/>
					<path class="st16" d="M261.4,728.88L261.4,728.88c0.98-0.98,2.66-0.48,2.94,0.88c0.97,4.8,3.25,13.46,7.37,15.51
						c5.18,2.59,11.53-24.48,12.77-30.04c0.13-0.58,0.64-0.99,1.24-0.99l0,0c0.82,0,1.43,0.77,1.23,1.56
						c-1.53,6.24-6.91,29.13-4.42,31.62c2.89,2.89,14.43,4.33,14.43,4.33l-19.84,10.16c0,0-15.94-5.02-16.23-31.79
						C260.88,729.67,261.07,729.22,261.4,728.88z"/>
				</g>
				<path class="st15" d="M368.29,732.29c-1.58-25.42-0.55-66.47,34.63-41.13c35.18,25.34,49.03,59.02,58.43,98.77
					s19.47,103.94,0,106.84s-27.4-23.07-47.61-33.9c-16.69-8.94-34.74-3.52-43.29-20.92C356.41,813.36,373.77,820.3,368.29,732.29z"
					/>
				<path class="st16" d="M368.29,732.29c-1.1-17.59-0.94-42.67,10.93-48.04c-3.54,8.12-6.2,20.41-4.82,38.65
					c3.27,43.3,10.41,47.22,7.92,70.52s-6.19,51.51,8.29,53.99c7.15,1.23,15.15,8.04,21.41,14.61c-16.2-7.73-33.32-3.25-41.57-20.06
					C356.41,813.36,373.77,820.3,368.29,732.29z"/>
				<g>
					<path class="st16" d="M430.76,851.34c0.46,1.71,2.97,1.4,2.98-0.38c0.05-9.5-0.84-24.46-5.56-40.73
						c-7.95-27.44-12.13-42.62-31.68-53.79c-19.56-11.17-51.29-21.3-55.26-33.55c-3.98-12.25-3.98,16.78-3.98,16.78
						s5.74,10.63,20.19,16.78c14.45,6.14,38.49,12.66,46.91,27.79C411.85,797.66,423.66,824.74,430.76,851.34z"/>
					<path class="st16" d="M449.37,830.21c1.52-10.09,2.82-31.89-12.34-39.77l14.94-2.05c2-0.27,1.97-3.17-0.03-3.41
						c-8.59-0.99-18.87-2.48-24.48-4.35c-10.82-3.61-18.67-14.71-18.67-14.71v14.44l9.09,18.59c0,0,4.4,0,13.19,4.05
						c8.19,3.78,12.21,15.67,15.78,27.39C447.25,831.71,449.17,831.58,449.37,830.21z"/>
					<path class="st16" d="M413.23,728.88L413.23,728.88c-0.98-0.98-2.66-0.48-2.94,0.88c-0.97,4.8-3.25,13.46-7.37,15.51
						c-5.18,2.59-11.53-24.48-12.77-30.04c-0.13-0.58-0.64-0.99-1.24-0.99l0,0c-0.82,0-1.43,0.77-1.23,1.56
						c1.53,6.24,6.91,29.13,4.42,31.62c-2.89,2.89-14.43,4.33-14.43,4.33l19.84,10.16c0,0,15.94-5.02,16.23-31.79
						C413.75,729.67,413.56,729.22,413.23,728.88z"/>
				</g>
			</g>
		</g>
		<path class="st17" d="M416.92,768.6c-0.86,0-1.65-0.59-1.86-1.47c-0.25-1.03,0.38-2.06,1.41-2.31l72.78-17.62
			c1.03-0.25,2.06,0.38,2.31,1.41c0.25,1.03-0.38,2.06-1.41,2.31l-72.78,17.62C417.22,768.58,417.07,768.6,416.92,768.6z"/>
		<path class="st17" d="M192.06,895.39H97.25c-1.06,0-1.92-0.86-1.92-1.92s0.86-1.92,1.92-1.92h94.81c1.06,0,1.92,0.86,1.92,1.92
			S193.12,895.39,192.06,895.39z"/>
		<path class="st17" d="M328.06,798.86h-43.3c-1.06,0-1.92-0.86-1.92-1.92s0.86-1.92,1.92-1.92h43.3c1.06,0,1.92,0.86,1.92,1.92
			S329.12,798.86,328.06,798.86z"/>
	</g>
</g>
</svg>
