<?xml version="1.0" encoding="UTF-8"?>
<!DOCTYPE svg PUBLIC "-//W3C//DTD SVG 1.1//EN" "http://www.w3.org/Graphics/SVG/1.1/DTD/svg11.dtd">
<svg version="1.1" xmlns="http://www.w3.org/2000/svg" xmlns:xlink="http://www.w3.org/1999/xlink" x="0" y="0" width="1159" height="771" viewBox="0, 0, 1159, 771">
  <g id="Layer_1">
    <path d="M0,0 L1159,0 L1159,771 L0,771 L0,0 z" fill="#FDFDFD"/>
    <g>
      <path d="M726.13,550.608 L461.55,643.132 L455.638,645.203 L163.936,748.65 L163.936,587.451 C163.936,587.451 722.456,428.756 726.097,428.723 C726.431,428.723 726.13,550.608 726.13,550.608 z" fill="#F8E8DF"/>
      <path d="M726.13,550.608 L892.374,613.471 L892.374,480.429 C892.374,480.429 726.064,424.581 726.13,428.723 C726.197,432.865 726.13,550.608 726.13,550.608 z" fill="#E5D1CA"/>
    </g>
    <path d="M219.832,577.487 L219.922,574.148 L410.273,579.309 L410.182,582.647 z" fill="#401C1C"/>
    <g>
      <path d="M701.212,8.054 L687.15,3.11 L437.534,44.462 L436.265,652.084 L449.091,648.143 L448.022,53.347 z" fill="#B69C8F"/>
      <path d="M692.528,560.695 L449.091,647.642 L448.023,52.846 L701.212,7.553 z" fill="#E5D1CA"/>
      <path d="M622.45,581.872 L619.209,582.941 L619.209,579.534 L619.477,521.548 L621.681,14.767 L621.681,13.264 L624.921,13.298 L624.921,14.099 L622.683,520.546 L622.45,578.465 z" fill="#B69C8F"/>
      <path d="M598.3,462.392 C597.932,495.628 597.431,530.633 597.03,563.868 C596.797,563.534 511.888,595.233 464.356,610.899 C465.592,492.354 467.93,371.638 465.692,253.16 C465.058,219.925 463.187,69.28 463.521,69.18 C511.22,54.717 602.174,41.289 602.174,41.289 C602.174,41.289 599.602,343.78 598.3,462.392 z M603.711,38.75 C576.388,41.99 549.866,47.101 522.71,52.412 C502.134,56.42 481.859,61.597 460.448,67.142 C460.181,67.209 460.248,153.22 460.114,153.554 C459.513,152.151 462.987,393.283 462.786,512.529 C462.72,546.332 462.152,613.972 462.152,613.972 C462.152,613.972 599.235,567.276 599.268,564.737 C600.738,445.825 601.907,326.912 602.776,208 C603.009,173.863 603.243,139.759 603.444,105.622 C603.444,105.522 603.41,105.455 603.41,105.355 C604.112,104.052 604.947,38.617 603.711,38.75 z" fill="#B69C8F"/>
      <path d="M607.485,405.475 C607.485,414.593 595.494,417.733 595.494,410.986 L595.494,372.139 L607.485,367.763 L607.485,405.475 z" fill="#B69C8F"/>
      <path d="M612.629,376.214 L574.617,384.331 L574.617,373.742 L613.063,365.893 z" fill="#401C1C"/>
      <path d="M684.043,143.634 C684.144,105.455 684.511,67.276 684.344,29.097 C684.344,28.128 682.874,28.128 682.874,29.097 C682.407,96.603 682.908,164.109 682.607,231.582 C682.474,265.218 682.908,299.456 682.474,333.058 C682.273,349.492 680.369,503.477 678.866,538.316 C678.833,538.349 638.583,553.681 637.848,553.915 C639.451,486.542 640.787,419.17 641.622,351.797 C642.458,284.391 643.894,216.985 644.061,149.546 C644.161,112.302 643.593,75.025 640.253,37.915 C643.326,38.015 646.566,37.414 649.572,37.013 C653.28,36.512 656.954,35.911 660.628,35.143 C664.303,34.408 667.943,33.506 671.518,32.504 C672.486,32.237 678.799,30.533 680.937,29.464 C680.97,29.498 680.97,29.531 681.004,29.565 C682.474,30.567 683.309,27.56 681.004,27.46 C680.169,27.427 679.267,27.961 678.499,28.229 C677.33,28.629 676.127,29.03 674.958,29.398 C672.586,30.132 670.181,30.834 667.776,31.469 C663.067,32.704 658.324,33.773 653.547,34.608 C650.942,35.076 648.303,35.477 645.664,35.811 C643.693,36.045 641.622,36.145 639.652,36.579 C639.451,36.546 639.217,36.546 639.084,36.713 C638.984,36.746 638.883,36.746 638.817,36.78 C638.149,36.947 638.349,37.815 638.95,37.915 C638.95,37.915 638.95,37.915 638.984,37.915 C643.961,104.486 642.257,171.358 641.355,238.062 C640.453,305.635 639.251,373.175 637.948,440.747 C637.213,478.659 635.543,556.821 635.643,556.988 C635.577,557.054 681.204,539.251 681.037,539.184 C680.436,538.884 683.142,363.087 683.609,345.484 C684.043,328.683 684.077,311.848 684.11,295.013 C684.144,278.312 684.144,261.611 684.144,244.91 C684.043,211.106 683.943,177.37 684.043,143.634 z" fill="#B69C8F"/>
      <path d="M595.494,369.467 C595.494,369.467 593.991,364.757 596.663,363.421 C599.335,362.085 613.03,365.893 613.03,365.893 L595.494,369.467 z" fill="#401C1C"/>
      <path d="M548.363,183.683 C548.363,187.557 545.253,190.698 541.415,190.698 C537.578,190.698 534.468,187.557 534.468,183.683 C534.468,179.809 537.578,176.669 541.415,176.669 C545.253,176.669 548.363,179.809 548.363,183.683 z" fill="#B69C8F"/>
    </g>
    <g>
      <path d="M781.645,606.256 C773.161,619.951 613.698,690.764 584.204,689.094 C580.63,688.893 576.02,688.259 570.776,687.323 C561.29,685.587 549.766,682.714 538.443,679.207 C533.199,677.57 528.021,675.766 523.111,673.896 C512.89,669.954 503.838,665.645 498.026,661.27 C488.439,654.021 487.437,646.74 504.005,641.061 C556.179,623.358 674.323,571.785 697.438,574.925 C697.972,574.991 698.507,575.092 699.108,575.158 C706.557,576.261 717.947,578.332 729.905,581.071 C737.32,582.741 744.969,584.678 752.017,586.816 C760.167,589.288 767.616,591.993 773.061,594.799 C780.276,598.473 784.05,602.381 781.645,606.256 z" fill="#D7935A"/>
      <path d="M729.905,581.037 C723.091,588.419 712.168,597.404 695.701,604.185 C664.203,617.179 626.825,614.807 610.792,630.473 C594.792,646.138 578.759,651.884 558.484,656.126 C543.82,659.199 531.729,666.781 523.111,673.862 C512.89,669.921 503.838,665.612 498.026,661.236 C497.992,661.203 497.992,661.169 497.992,661.169 C497.992,661.169 517.934,640.928 548.363,637.12 C578.793,633.345 604.412,604.152 627.894,600.912 C651.376,597.672 671.284,595.601 684.344,585.213 C688.519,581.906 693.797,578.398 699.075,575.092 C706.557,576.261 717.947,578.332 729.905,581.037 z" fill="#A66A45"/>
      <path d="M773.061,594.766 C767.583,602.448 755.424,615.809 732.945,625.095 C701.446,638.088 664.069,635.717 648.069,651.383 C632.036,667.048 616.003,672.794 595.761,677.036 C586.275,679.006 577.891,682.914 570.81,687.323 C561.323,685.587 549.799,682.714 538.476,679.207 C545.29,673.428 562.392,660.969 585.607,658.063 C616.036,654.289 641.656,625.095 665.138,621.855 C688.62,618.615 708.561,616.544 721.588,606.156 C730.206,599.342 743.8,591.392 752.017,586.782 C760.167,589.288 767.616,591.96 773.061,594.766 z" fill="#A66A45"/>
    </g>
    <g>
      <path d="M907.572,280.784 C907.572,338.728 882.149,385.7 850.788,385.7 C819.427,385.7 794.004,338.728 794.004,280.784 C794.004,222.84 819.427,175.867 850.788,175.867 C882.149,175.867 907.572,222.84 907.572,280.784 z" fill="#401C1C"/>
      <path d="M903.263,280.75 C903.263,284.425 903.129,288.099 902.929,291.673 C900.09,342.545 877.443,382.16 849.986,382.16 C841.936,382.16 834.321,378.753 827.54,372.674 C827.473,372.607 827.373,372.54 827.306,372.473 C822.396,368.064 817.853,362.252 813.912,355.338 C803.39,336.799 796.776,310.245 796.776,280.75 C796.776,264.884 798.68,249.853 802.121,236.492 C802.121,236.359 802.154,236.225 802.188,236.125 C802.221,236.058 802.221,235.924 802.254,235.824 C802.321,235.523 802.455,235.123 802.622,234.655 C802.689,234.488 802.755,234.321 802.789,234.154 C803.49,231.248 804.325,228.409 805.327,225.636 C805.327,225.603 805.327,225.57 805.361,225.536 C806.329,222.63 807.365,219.891 808.501,217.219 C818.254,194.138 833.185,179.341 849.986,179.341 C867.021,179.341 882.153,194.539 891.906,218.255 C891.906,218.255 891.94,218.255 891.94,218.288 C891.973,218.455 892.107,218.722 892.24,219.156 C894.645,224.968 896.683,231.315 898.253,238.029 C898.319,238.296 898.42,238.496 898.42,238.63 C898.453,238.797 898.487,238.864 898.487,238.864 C901.359,250.955 903.029,264.316 903.196,278.412 C903.263,279.147 903.263,279.949 903.263,280.75 z" fill="#E5D1CA"/>
      <path d="M903.263,280.75 C903.263,284.425 903.129,288.099 902.929,291.673 L827.807,372.874 C827.674,372.807 827.607,372.74 827.507,372.674 C827.44,372.607 827.34,372.54 827.273,372.473 C822.363,368.064 817.82,362.252 813.878,355.338 C813.812,355.171 813.745,355.004 813.678,354.837 L903.196,278.345 C903.263,279.147 903.263,279.949 903.263,280.75 z" fill="#F8E8DF"/>
      <path d="M898.486,238.83 C898.486,238.83 837.627,283.289 838.329,280.784 C839.03,278.279 860.842,258.003 858.771,258.571 C856.7,259.106 801.987,288.566 804.058,285.861 C806.129,283.155 891.338,216.751 891.94,218.288 C892.541,219.824 898.486,238.83 898.486,238.83 z" fill="#F8E8DF"/>
      <path d="M848.383,206.664 C848.383,206.664 805.327,235.824 802.121,236.526 C802.087,236.526 802.087,236.526 802.087,236.526 C802.087,236.526 802.121,236.392 802.221,236.158 C802.254,236.091 802.254,235.958 802.288,235.858 C802.421,235.524 802.522,235.156 802.655,234.688 C802.722,234.521 802.789,234.354 802.822,234.187 C803.524,232.016 804.492,228.709 805.361,225.67 C805.361,225.636 805.361,225.603 805.394,225.57 C806.363,222.664 807.398,219.925 808.534,217.252 C816.317,214.213 848.383,206.664 848.383,206.664 z" fill="#F8E8DF"/>
    </g>
    <g>
      <path d="M801.52,140.026 C800.083,140.193 798.279,140.06 796.81,140.026 C795.34,139.993 793.87,139.792 792.434,139.492 C789.628,138.924 786.889,138.022 784.117,137.387 C779.14,136.319 773.662,135.751 769.086,138.423 C764.242,141.296 762.005,147.041 760.201,152.151 C759.165,155.091 758.364,158.13 757.796,161.237 C757.261,164.176 756.593,167.149 758.43,169.754 C758.865,170.356 759.767,170.623 760.334,169.988 C762.305,167.884 762.372,165.379 762.873,162.64 C763.341,160.034 763.975,157.462 764.777,154.924 C766.213,150.381 768.117,144.168 772.961,142.264 C777.47,140.494 782.347,141.496 786.923,142.298 C789.528,142.765 792.133,143.199 794.772,143.233 C796.042,143.233 797.344,143.166 798.58,142.865 C799.916,142.565 800.684,141.93 801.854,141.195 C802.321,140.895 802.188,139.926 801.52,140.026 z" fill="#401C1C"/>
      <path d="M741.429,181.779 C749.111,166.414 757.395,150.615 765.245,157.997 C773.094,165.379 777.336,179.641 778.739,187.491 C780.142,195.307 734.949,194.706 741.429,181.779 z" fill="#DFAB9C"/>
      <path d="M803.256,143.6 C803.256,151.293 800.266,157.529 796.576,157.529 C792.886,157.529 789.896,151.293 789.896,143.6 C789.896,135.908 792.886,129.671 796.576,129.671 C800.266,129.671 803.256,135.908 803.256,143.6 z" fill="#401C1C"/>
    </g>
    <g>
      <g>
        <path d="M904.699,636.552 C895.915,642.364 852.993,639.892 844.876,635.182 L832.417,527.594 L918.461,527.594 L904.699,636.552 z" fill="#9B4A51"/>
        <path d="M831.315,559.326 L919.563,559.326 L919.563,562.265 L831.315,562.265 z" fill="#3A362D"/>
        <path d="M831.314,559.326 L834.02,559.326 L834.02,636.752 L831.314,636.752 z" fill="#3A362D"/>
        <path d="M916.824,559.326 L919.53,559.326 L919.53,636.752 L916.824,636.752 z" fill="#3A362D"/>
      </g>
      <path d="M781.244,413.424 C815.148,397.759 842.103,399.629 858.137,413.424 C874.136,427.219 872.566,453.106 861.343,455.979 C850.12,458.851 827.74,445.591 802.488,434.368 C777.236,423.144 744.402,430.459 781.244,413.424 z" fill="#88A163"/>
      <path d="M782.814,516.638 C784.351,493.256 796.91,478.559 817.319,470.843 C837.728,463.127 860.942,473.515 867.356,489.415 C873.769,505.314 809.703,507.619 796.877,526.725 C784.05,545.831 780.743,548.27 782.814,516.638 z" fill="#6C7B4A"/>
      <path d="M952.365,414.827 C947.922,415.328 943.713,418.034 939.906,420.272 C935.964,422.61 932.19,425.215 928.582,428.055 C921.267,433.833 914.854,440.614 909.376,448.196 C903.798,455.912 899.221,464.396 895.948,473.348 C893.009,481.398 891.305,489.782 890.336,498.266 C889.167,499.168 888.065,500.103 886.996,501.105 C886.161,501.907 885.393,502.776 884.625,503.677 C884.625,503.51 884.625,503.343 884.625,503.21 C884.424,494.959 883.322,486.742 881.017,478.826 C876.808,464.396 869.126,451.169 859.205,439.979 C853.56,433.633 847.314,428.088 840.066,423.679 C839.899,423.579 839.665,423.846 839.832,423.979 C851.055,433.633 861.443,444.221 868.992,457.115 C876.808,470.442 881.251,485.373 881.785,500.872 C881.852,503.043 881.819,505.214 881.785,507.385 C881.351,508.053 880.95,508.755 880.55,509.456 C878.879,505.047 876.775,500.805 874.37,496.797 C871.164,491.486 867.088,486.676 861.51,483.87 C856.233,481.231 850.22,480.129 844.341,480.596 C840.634,480.897 837.026,481.732 833.519,483.001 C830.446,484.104 826.471,485.406 824.233,487.912 C823.799,488.413 824.233,489.114 824.868,488.98 C827.74,488.479 830.446,486.709 833.218,485.774 C836.058,484.805 838.964,484.104 841.936,483.77 C847.581,483.135 853.494,483.803 858.638,486.342 C863.782,488.847 867.589,493.055 870.562,497.932 C873.669,503.009 876.207,508.521 878.044,514.166 C878.078,514.233 878.078,514.333 878.111,514.4 C878.078,514.5 878.011,514.567 877.978,514.667 C876.875,517.406 876.107,520.245 875.706,523.151 C875.305,525.79 874.905,528.729 876.04,531.234 C876.808,532.904 879.08,531.635 878.779,530.065 C878.111,526.491 878.445,522.75 879.447,519.109 C879.848,520.746 880.182,522.416 880.416,524.086 C880.516,524.654 880.516,525.189 880.583,525.756 C880.349,527.594 880.149,529.431 880.884,531.168 C880.95,531.301 881.051,531.401 881.151,531.468 C881.318,532.069 881.652,532.57 882.286,533.005 C882.62,533.239 883.155,533.239 883.489,533.005 C885.861,531.468 884.725,526.992 884.424,524.621 C884.324,523.752 884.124,522.884 883.99,522.015 C884.124,520.546 884.224,519.043 884.324,517.539 C884.491,514.4 884.591,511.293 884.625,508.153 C886.228,505.849 888.032,503.744 889.969,501.974 C889.902,502.742 889.802,503.51 889.735,504.279 C889.234,511.16 889,518.107 889.067,525.022 C889.067,526.157 889.101,527.393 890.036,528.195 C890.704,528.763 891.706,528.93 892.407,528.328 C893.209,527.627 893.009,526.525 892.307,525.957 C892.307,525.656 892.274,525.356 892.307,525.055 C892.307,524.554 892.307,524.019 892.307,523.518 C892.307,522.249 892.341,520.946 892.341,519.677 C892.374,516.871 892.441,514.032 892.541,511.226 C892.708,507.218 893.009,503.21 893.409,499.202 C896.482,496.997 899.89,495.193 903.33,493.69 C905.835,492.588 908.407,491.653 911.012,490.751 C913.618,489.882 916.09,488.78 918.662,487.811 C919.029,487.678 918.895,487.143 918.495,487.21 C915.455,487.778 912.516,488.246 909.543,489.147 C906.637,490.016 903.764,491.018 900.958,492.187 C898.487,493.223 896.048,494.458 893.777,495.895 C893.81,495.527 893.844,495.16 893.91,494.826 C895.146,486.208 897.485,477.757 900.858,469.741 C907.305,454.509 917.493,441.048 930.018,430.393 C933.492,427.453 937.167,424.748 941.041,422.309 C944.782,419.938 949.191,418.268 952.565,415.362 C952.765,415.195 952.632,414.794 952.365,414.827 z" fill="#6C7B4A"/>
      <path d="M901.159,433.432 C910.211,406.844 918.762,405.04 951.596,398.861 C984.431,392.682 1006.844,391.145 988.439,401.633 C970.034,412.155 956.406,445.491 944.381,457.616 C932.357,469.741 886.762,475.787 901.159,433.432 z" fill="#6C7B4A"/>
      <path d="M944.548,477.858 C923.839,466.167 895.881,480.43 898.553,496.797 C901.393,514.132 908.574,511.694 932.022,512.062 C955.438,512.396 963.087,531.368 964.924,526.324 C966.761,521.281 964.289,489.014 944.548,477.858 z" fill="#6C7B4A"/>
      <path d="M892.875,413.992 C872.6,440.313 867.021,449.566 879.982,462.96 C884.357,467.503 884.157,471.511 889.468,472.613 C886.161,486.108 884.157,499.97 883.522,513.865 C883.422,515.803 883.355,517.74 883.322,519.677 C883.288,521.281 882.954,523.385 883.422,524.921 C883.789,526.057 884.792,527.159 886.061,526.792 C886.996,526.525 887.364,525.79 887.196,524.855 C887.163,524.654 887.029,524.487 886.862,524.387 C886.762,524.253 886.662,524.12 886.629,524.053 C886.395,523.385 886.495,522.55 886.495,521.848 C886.495,520.145 886.528,518.441 886.562,516.771 C886.629,513.732 886.796,510.725 886.996,507.686 C887.43,501.406 888.132,495.16 889.134,488.947 C890.002,483.569 891.105,478.191 892.34,472.881 C895.514,472.914 900.223,473.148 906.77,470.91 C931.588,462.526 930.486,387.304 933.559,377.918 C938.703,362.285 913.15,387.705 892.875,413.992 z" fill="#88A163"/>
      <path d="M856.366,547.802 C854.062,520.512 845.31,510.625 856.366,491.118 C867.422,471.578 874.103,472.647 891.706,475.753 C909.309,478.893 912.649,498.968 897.752,519.343 C882.888,539.719 876.742,601.981 867.389,579.768 C858.036,557.555 857.869,565.639 856.366,547.802 z" fill="#88A163"/>
      <path d="M894.111,476.421 C891.505,476.121 889,477.59 886.829,478.926 C884.591,480.296 882.453,481.966 880.65,483.87 C876.742,488.012 874.003,493.122 872.834,498.734 C871.364,505.715 870.896,512.93 870.328,520.045 C869.727,527.493 869.293,534.942 869.092,542.391 C868.859,550.908 868.692,559.459 869.594,567.91 C869.627,568.378 870.295,568.411 870.328,567.91 C870.596,560.829 870.429,553.781 870.562,546.7 C870.662,539.618 870.963,532.57 871.464,525.523 C871.932,518.542 872.5,511.527 873.568,504.613 C874.504,498.534 876.508,492.588 880.449,487.811 C882.387,485.473 884.625,483.402 887.163,481.732 C889.535,480.162 892.474,479.361 894.612,477.49 C894.979,477.089 894.578,476.488 894.111,476.421 z" fill="#6C7B4A"/>
      <path d="M926.21,390.744 C921.768,395.487 918.161,400.798 914.353,406.109 C910.745,411.153 907.104,416.13 903.731,421.341 C897.251,431.328 892.474,442.217 890.103,453.908 C888.766,460.455 888.165,467.202 888.499,473.883 C888.566,474.885 890.069,474.918 890.069,473.883 C890.303,458.718 893.443,443.887 900.658,430.493 C904.232,423.846 908.607,417.7 912.95,411.587 C917.726,404.907 922.837,398.393 926.678,391.112 C926.845,390.811 926.444,390.477 926.21,390.744 z" fill="#6C7B4A"/>
      <path d="M859.205,479.06 C857.969,476.555 854.696,475.853 852.191,475.553 C849.151,475.185 846.078,475.486 843.072,475.92 C837.093,476.789 831.214,478.726 825.736,481.298 C814.78,486.442 805.194,494.659 798.346,504.713 C793.837,511.36 790.63,518.909 788.225,526.558 C788.159,526.825 788.526,526.992 788.66,526.725 C791.733,520.646 793.937,514.166 797.478,508.32 C800.484,503.377 804.125,498.834 808.367,494.893 C816.885,486.976 827.44,481.365 838.73,478.86 C842.037,478.125 845.444,477.557 848.817,477.49 C850.554,477.457 852.324,477.59 854.028,478.025 C855.631,478.459 857.068,479.361 858.704,479.728 C859.072,479.862 859.372,479.461 859.205,479.06 z" fill="#88A163"/>
      <path d="M930.987,485.707 C926.812,483.937 922.403,482.834 917.993,481.832 C914.119,480.964 909.008,480.329 905.902,483.469 C905.534,483.836 905.768,484.638 906.369,484.605 C908.34,484.404 910.111,483.369 912.148,483.202 C914.386,483.035 916.624,483.77 918.795,484.304 C922.87,485.273 926.979,486.275 930.787,488.012 C934.394,489.648 937.634,491.886 940.64,494.425 C943.713,496.997 946.252,500.07 949.124,502.876 C949.292,503.043 949.625,502.809 949.458,502.609 C944.649,495.694 938.77,489.047 930.987,485.707 z" fill="#88A163"/>
    </g>
    <g>
      <g>
        <path d="M410.278,207.666 L181.94,249.82 C181.94,249.82 181.94,337.067 181.94,335.53 C181.94,333.994 410.278,291.84 410.278,288.6 C410.278,285.36 410.278,207.666 410.278,207.666 z" fill="#D7935A"/>
        <path d="M406.938,205.361 L413.618,205.361 L413.618,674.664 L406.938,674.664 z" fill="#401C1C"/>
        <path d="M262.539,649.145 L181.94,632.109 L410.278,581.037 L486.235,597.772 z" fill="#A66A45"/>
        <path d="M181.94,632.109 L181.94,646.439 L262.005,663.207 C262.005,663.207 486.369,610.231 486.903,608.06 C487.437,605.889 486.235,597.805 486.235,597.805 L262.539,649.178 L181.94,632.109 z" fill="#401C1C"/>
        <path d="M266.281,767.89 L260.936,767.89 C260.936,744.442 260.936,697.578 260.936,656.126 L266.281,656.126 L266.281,767.89 z" fill="#401C1C"/>
        <path d="M477.684,604.219 L483.028,604.219 L483.028,690.898 L477.684,690.898 z" fill="#401C1C"/>
        <path d="M259.633,747.615 C248.945,747.615 188.319,730.68 182.507,724.233 C181.606,723.231 181.606,722.329 181.773,721.728 C182.14,720.425 183.042,717.386 296.543,681.411 C343.072,666.648 410.846,645.871 415.823,645.871 C422.236,645.871 481.559,660.869 483.095,667.95 C483.296,668.819 482.928,669.654 482.026,670.489 C471.204,680.443 277.771,747.581 260.669,747.581 C260.569,747.581 260.435,747.581 260.335,747.581 C260.134,747.615 259.901,747.615 259.633,747.615 z M260.402,744.174 L260.803,744.308 C271.458,746.279 467.83,677.871 479.521,668.284 C474.344,663.641 424.34,649.211 415.856,649.211 C405,649.345 202.549,714.079 185.714,722.63 C193.497,728.108 252.786,745.51 260.034,744.275 L260.402,744.174 z" fill="#401C1C"/>
        <path d="M435.564,652.084 C420.833,657.796 405.936,662.739 390.771,667.182 C375.439,671.691 360.074,676.034 344.809,680.743 C313.879,690.296 283.215,700.685 252.652,711.407 C235.45,717.452 218.048,723.164 201.146,730.045 C200.277,730.379 200.611,731.749 201.547,731.481 C217.012,726.772 232.177,720.96 247.442,715.649 C262.74,710.304 278.038,705.06 293.37,699.883 C323.933,689.595 354.663,680.142 385.627,671.157 C402.629,666.213 419.864,661.337 436.198,654.422 C437.635,653.854 437.033,651.483 435.564,652.084 z" fill="#401C1C"/>
        <path d="M463.421,658.531 C461.718,658.598 460.415,658.831 458.812,659.433 C456.941,660.134 455.071,660.836 453.2,661.504 C449.593,662.806 445.985,664.142 442.411,665.478 C435.163,668.151 427.914,670.823 420.7,673.462 C406.103,678.839 391.472,684.15 376.842,689.428 C347.582,700.016 318.321,710.638 289.094,721.227 C280.978,724.166 272.861,727.106 264.777,730.045 C256.627,732.985 248.076,735.49 240.293,739.331 C239.225,739.865 239.993,741.435 241.062,741.202 C248.611,739.364 255.959,736.191 263.274,733.552 C270.523,730.947 277.771,728.308 285.019,725.703 C299.649,720.425 314.28,715.148 328.91,709.837 C358.17,699.282 387.397,688.626 416.691,678.138 C424.808,675.232 432.925,672.359 441.075,669.453 C445.183,667.984 449.325,666.547 453.4,665.044 C455.271,664.343 457.141,663.641 458.979,662.94 C460.983,662.172 462.386,661.437 464.022,660.034 C464.59,659.566 464.156,658.497 463.421,658.531 z" fill="#401C1C"/>
        <path d="M178.599,246.446 L185.28,246.446 L185.28,752.491 L178.599,752.491 z" fill="#401C1C"/>
        <path d="M178.733,246.446 C179.334,245.978 405.568,205.027 405.568,205.027 L413.384,205.361 L413.384,208.468 L185.079,249.252 L178.733,246.446 z" fill="#401C1C"/>
        <g>
          <path d="M181.94,632.109 L410.278,294.011 L181.94,632.109 z" fill="#401C1C"/>
          <path d="M180.434,631.134 L408.941,293.166 L411.708,295.037 L183.201,633.005 z" fill="#401C1C"/>
        </g>
        <path d="M323.757,421.628 L326.076,419.223 L411.477,501.587 L409.158,503.991 z" fill="#401C1C"/>
        <path d="M180.426,336.326 L183.357,334.724 L272.937,498.658 L270.005,500.26 z" fill="#401C1C"/>
      </g>
      <path d="M181.615,333.954 L409.974,287.051 L410.646,290.323 L182.287,337.226 z" fill="#401C1C"/>
      <g>
        <path d="M244.569,285.46 C243.901,284.525 243.3,284.358 242.197,284.291 C241.63,284.258 241.062,284.224 240.494,284.191 C239.225,284.124 237.955,284.057 236.686,284.057 C234.181,284.024 231.642,284.191 229.171,284.558 C228.068,284.725 228.102,286.562 229.171,286.763 C231.609,287.197 234.081,287.531 236.552,287.765 C237.788,287.865 238.991,287.999 240.227,288.099 C241.596,288.232 243.2,288.733 244.302,287.631 C244.803,287.13 245.037,286.095 244.569,285.46 z" fill="#401C1C"/>
        <path d="M344.242,267.122 C343.574,266.187 342.972,266.02 341.87,265.953 C341.302,265.92 340.734,265.886 340.167,265.853 C338.897,265.786 337.628,265.719 336.359,265.719 C333.853,265.686 331.315,265.853 328.843,266.22 C327.741,266.387 327.774,268.224 328.843,268.425 C331.281,268.859 333.753,269.193 336.225,269.427 C337.461,269.527 338.663,269.661 339.899,269.761 C341.269,269.895 342.872,270.396 343.974,269.293 C344.475,268.759 344.709,267.723 344.242,267.122 z" fill="#401C1C"/>
        <path d="M394.445,257.97 C393.777,257.035 393.176,256.868 392.074,256.801 C391.506,256.767 390.938,256.734 390.37,256.701 C389.101,256.634 387.832,256.567 386.562,256.567 C384.057,256.533 381.519,256.701 379.047,257.068 C377.945,257.235 377.978,259.072 379.047,259.272 C381.485,259.707 383.957,260.041 386.429,260.275 C387.665,260.375 388.867,260.508 390.103,260.609 C391.473,260.742 393.076,261.243 394.178,260.141 C394.679,259.64 394.913,258.604 394.445,257.97 z" fill="#401C1C"/>
        <path d="M293.069,280.049 C292.401,279.114 291.8,278.947 290.698,278.88 C290.13,278.846 289.562,278.813 288.994,278.78 C287.725,278.713 286.456,278.646 285.186,278.646 C282.681,278.613 280.142,278.78 277.671,279.147 C276.568,279.314 276.602,281.151 277.671,281.352 C280.109,281.786 282.581,282.12 285.053,282.354 C286.289,282.454 287.491,282.587 288.727,282.688 C290.096,282.821 291.7,283.322 292.802,282.22 C293.303,281.719 293.503,280.683 293.069,280.049 z" fill="#401C1C"/>
      </g>
    </g>
    <g>
      <g>
        <path d="M404.9,528.829 C403.397,526.859 401.527,525.189 399.422,523.886 C395.414,521.414 390.571,520.312 385.928,520.913 C376.575,522.149 369.26,530.566 368.759,540.019 C368.692,541.155 370.396,541.122 370.496,540.019 C371.297,531.735 378.345,524.354 386.696,524.02 C390.604,523.886 394.479,525.189 397.585,527.56 C399.088,528.696 400.491,530.132 401.527,531.735 C402.762,533.606 403.163,536.211 404.767,537.748 C406.103,539.051 407.973,538.015 408.14,536.345 C408.441,533.806 406.37,530.733 404.9,528.829 z" fill="#9B4A51"/>
        <path d="M431.789,538.048 C430.086,537.247 422.904,536.579 413.518,536.345 C413.351,535.51 413.117,534.708 412.883,533.973 C412.115,531.435 410.979,528.963 409.409,526.792 C405.969,521.982 401.126,519.477 395.28,519.443 C392.608,519.443 389.736,519.577 387.164,520.312 C384.491,521.08 382.521,522.683 380.917,524.955 C378.479,528.429 376.274,533.172 376.074,537.681 C362.613,539.218 352.058,542.057 352.058,546.967 C352.058,546.967 358.337,586.682 378.278,593.196 C398.22,599.709 424.14,594.498 431.822,564.336 C437.033,543.727 437.033,540.487 431.789,538.048 z M380.116,534.074 C380.951,531.936 382.086,529.865 383.389,527.994 C384.625,526.224 386.061,524.821 388.232,524.354 C390.437,523.886 393.009,523.986 395.247,524.253 C399.456,524.754 402.863,526.925 405.134,530.5 C406.236,532.27 407.004,534.207 407.539,536.211 C398.487,536.145 388.232,536.445 378.98,537.347 C379.347,536.245 379.715,535.142 380.116,534.074 z" fill="#DFAB9C"/>
        <path d="M396.249,546.165 C396.115,545.631 395.848,545.197 395.481,544.796 C395.28,544.629 395.08,544.462 394.879,544.328 C394.412,544.061 393.877,543.894 393.343,543.894 C392.909,543.894 392.541,543.961 392.174,544.161 C391.806,544.295 391.472,544.495 391.205,544.796 C390.905,545.063 390.704,545.397 390.571,545.798 C390.37,546.165 390.303,546.566 390.303,547 C390.337,547.268 390.37,547.535 390.404,547.835 C390.537,548.37 390.804,548.804 391.172,549.205 C391.372,549.372 391.573,549.539 391.773,549.673 C392.241,549.94 392.775,550.107 393.31,550.107 C393.744,550.107 394.111,550.04 394.479,549.84 C394.846,549.706 395.18,549.506 395.447,549.205 C395.748,548.938 395.948,548.604 396.082,548.203 C396.282,547.835 396.349,547.435 396.349,547 C396.316,546.733 396.282,546.466 396.249,546.165 z" fill="#9B4A51"/>
      </g>
      <g>
        <g>
          <path d="M282.848,455.611 C283.449,464.53 300.284,542.057 289.061,547.735 C277.838,553.38 214.373,571.184 213.739,561.464 C213.705,561.029 213.705,560.395 213.739,559.593 L213.739,559.56 C213.739,559.192 213.739,558.758 213.772,558.29 C213.805,557.889 213.805,557.355 213.839,556.787 C215.108,534.174 224.494,448.196 217.179,450.768 C209.129,453.607 196.737,455.845 193.597,450.167 C190.491,444.489 211.835,346.352 217.713,331.422 C224.594,314.019 228.001,318.027 232.745,299.489 C237.488,280.951 247.475,275.272 252.485,286.596 C257.462,297.952 278.038,333.626 284.284,356.34 C290.531,379.053 307.132,441.683 300.518,446.96 C293.904,452.238 282.213,446.693 282.848,455.611 z" fill="#DFAB9C"/>
          <path d="M244.803,299.689 C245.17,290.37 247.174,287.932 249.98,293.61 C252.786,299.288 266.848,345.918 266.214,356.039 C265.579,366.16 252.085,287.531 247.609,309.81 C243.199,332.123 244.803,299.689 244.803,299.689 z" fill="#9B4A51"/>
          <path d="M213.739,559.56 C213.739,559.426 213.772,558.992 213.772,558.29 C213.805,557.889 213.805,557.355 213.839,556.787 C215.108,534.174 224.494,448.196 217.179,450.768 C217.179,450.768 225.162,421.541 226.732,419.671 C233.88,411.153 213.805,557.923 213.739,559.56 z" fill="#9B4A51"/>
        </g>
        <g>
          <g>
            <path d="M292.468,493.156 C292.334,492.154 292.234,491.185 292.1,490.183 C292,489.314 291.967,488.012 290.998,487.611 C290.531,487.411 289.996,487.444 289.696,487.878 C289.462,488.179 289.462,488.646 289.662,488.98 C289.662,489.081 289.629,489.181 289.629,489.314 C289.629,489.515 289.629,489.715 289.629,489.916 C289.662,490.383 289.662,490.851 289.696,491.285 C289.729,492.187 289.762,493.056 289.829,493.957 C289.896,494.893 289.996,495.828 290.163,496.763 C290.297,497.531 290.531,498.734 291.265,499.135 C291.533,499.302 291.8,499.235 292.034,499.035 C292.401,498.734 292.501,498.166 292.568,497.698 C292.668,497.197 292.668,496.696 292.668,496.195 C292.702,495.227 292.568,494.191 292.468,493.156 z" fill="#C0541D"/>
            <path d="M297.111,493.49 C296.944,492.521 296.877,491.519 296.71,490.55 C296.61,489.849 296.276,487.978 295.174,488.546 C294.672,488.78 294.572,489.314 294.472,489.816 C294.372,490.283 294.305,490.784 294.305,491.252 C294.272,492.254 294.205,493.256 294.305,494.258 C294.372,495.293 294.439,496.362 294.773,497.331 C295.073,498.166 295.441,499.369 296.343,499.703 C296.543,499.769 296.743,499.669 296.91,499.569 C297.244,499.268 297.345,498.767 297.411,498.333 C297.512,497.799 297.545,497.231 297.545,496.696 C297.478,495.594 297.278,494.525 297.111,493.49 z" fill="#C0541D"/>
            <path d="M300.885,493.857 C300.785,493.056 300.551,492.254 300.317,491.486 C300.184,491.051 300.017,490.651 299.85,490.25 C299.683,489.849 299.516,489.415 299.182,489.147 C298.714,488.78 298.146,488.914 297.912,489.482 C297.745,489.882 297.846,490.283 297.846,490.717 C297.879,491.185 297.912,491.619 297.946,492.087 C298.046,492.889 298.079,493.69 298.213,494.458 C298.313,495.227 298.447,495.995 298.614,496.763 C298.781,497.531 299.082,498.3 299.382,499.035 C299.583,499.536 300.251,499.569 300.451,499.035 C300.718,498.266 300.952,497.431 301.019,496.596 C301.086,495.661 301.019,494.792 300.885,493.857 z" fill="#C0541D"/>
            <path d="M304.626,488.847 C304.393,488.112 303.123,487.945 302.99,488.847 C302.722,490.651 302.722,492.521 302.856,494.358 C302.923,495.293 303.056,496.262 303.29,497.164 C303.39,497.598 303.557,497.999 303.691,498.433 C303.858,498.868 304.125,499.202 304.359,499.602 C304.493,499.803 304.827,499.836 304.927,499.602 C305.094,499.202 305.294,498.834 305.395,498.433 C305.495,498.032 305.562,497.565 305.595,497.164 C305.695,496.229 305.695,495.327 305.595,494.358 C305.461,492.521 305.194,490.584 304.626,488.847 z" fill="#C0541D"/>
            <path d="M309.102,493.089 C308.969,492.354 308.768,491.686 308.468,491.018 C308.234,490.417 307.8,489.415 307.098,489.248 C306.831,489.047 306.463,489.114 306.33,489.448 C305.862,489.882 305.929,490.751 305.929,491.352 C305.929,492.087 305.962,492.788 306.029,493.523 C306.063,494.225 306.096,494.926 306.129,495.628 C306.196,496.73 306.397,497.665 307.165,498.266 C307.466,498.5 308.067,498.5 308.367,498.266 C309.169,497.698 309.403,496.496 309.369,495.561 C309.369,494.726 309.269,493.924 309.102,493.089 z" fill="#C0541D"/>
            <path d="M314.313,493.056 C314.213,492.454 314.113,491.82 313.946,491.218 C313.812,490.617 313.678,490.016 313.511,489.415 C313.411,489.081 313.311,488.78 313.211,488.479 C313.077,488.079 312.843,487.845 312.609,487.511 C312.209,487.01 311.507,487.377 311.34,487.845 C311.207,488.212 311.106,488.513 311.106,488.914 C311.106,489.248 311.073,489.582 311.106,489.916 C311.14,490.517 311.207,491.152 311.273,491.753 C311.34,492.454 311.44,493.156 311.607,493.824 C311.674,494.191 311.841,494.625 312.008,494.959 C312.175,495.26 312.409,495.527 312.643,495.794 C313.111,496.362 313.946,495.995 314.146,495.394 C314.38,494.592 314.447,493.857 314.313,493.056 z" fill="#C0541D"/>
            <path d="M318.822,492.053 C318.722,491.185 318.555,490.25 318.288,489.415 C318.154,489.047 317.987,488.68 317.854,488.312 C317.62,487.745 317.453,487.31 316.952,486.909 C316.351,486.442 315.649,486.976 315.415,487.544 C315.248,487.945 315.349,488.379 315.382,488.813 C315.415,489.214 315.415,489.582 315.449,489.982 C315.482,490.283 315.549,490.584 315.582,490.884 C315.549,490.651 315.616,491.185 315.616,491.152 C315.683,491.619 315.716,492.087 315.783,492.588 C315.883,493.356 316.083,494.124 316.284,494.893 C316.484,495.594 316.651,496.429 317.052,497.03 C317.286,497.398 317.754,497.364 317.954,497.03 C318.422,496.362 318.589,495.36 318.689,494.559 C318.856,493.69 318.923,492.855 318.822,492.053 z" fill="#C0541D"/>
          </g>
          <path d="M286.957,282.521 C286.957,282.521 291.132,295.648 291.266,318.628 C291.366,341.609 291.266,395.387 291.266,395.387 C291.266,395.387 303.324,351.864 302.021,350.528 C300.719,349.192 294.539,282.521 294.539,282.521 L290.698,278.88 L287.859,280.316 L286.957,282.521 z" fill="#C0541D"/>
          <g>
            <path d="M266.18,434.201 C266.147,433.366 266.113,432.497 266.047,431.662 C266.013,430.86 266.047,429.892 265.612,429.19 C265.078,428.255 263.675,428.89 263.909,429.925 C263.942,430.126 263.809,430.627 263.809,430.894 C263.809,431.295 263.809,431.662 263.809,432.063 C263.809,432.865 263.775,433.7 263.809,434.501 C263.809,435.269 263.809,436.071 263.842,436.839 C263.876,437.274 263.909,437.708 263.976,438.109 C264.043,438.543 264.243,438.944 264.377,439.378 C264.61,440.046 265.512,440.079 265.746,439.378 C265.88,438.944 266.08,438.476 266.113,438.008 C266.147,437.608 266.18,437.24 266.18,436.839 C266.247,435.971 266.18,435.102 266.18,434.201 z" fill="#C0541D"/>
            <path d="M269.053,435.537 C268.986,434.468 268.919,433.399 268.786,432.297 C268.652,431.194 268.552,430.092 268.118,429.057 C267.85,428.455 267.049,428.723 266.848,429.224 C266.481,430.259 266.481,431.428 266.414,432.531 C266.347,433.566 266.381,434.601 266.381,435.637 C266.381,436.773 266.347,437.975 266.548,439.111 C266.648,439.745 267.082,441.315 267.951,441.215 C268.318,441.182 268.619,440.714 268.752,440.413 C268.986,439.912 269.086,439.311 269.12,438.777 C269.22,437.708 269.12,436.606 269.053,435.537 z" fill="#C0541D"/>
            <path d="M272.026,435.57 C271.992,434.735 271.992,433.9 271.926,433.098 C271.859,432.297 271.959,431.161 271.491,430.526 C271.224,430.159 270.656,429.958 270.289,430.359 C269.688,431.027 269.721,432.13 269.621,432.998 C269.521,433.833 269.521,434.668 269.521,435.47 C269.521,436.305 269.521,437.107 269.587,437.942 C269.688,438.81 269.855,439.912 270.556,440.514 C270.823,440.714 271.224,440.781 271.458,440.514 C271.992,439.879 272.126,438.977 272.159,438.142 C272.159,437.274 272.093,436.405 272.026,435.57 z" fill="#C0541D"/>
            <path d="M276.335,437.374 C276.201,436.405 276.101,435.403 275.934,434.434 C275.767,433.466 275.6,432.564 275.165,431.695 C274.831,431.027 273.863,431.228 273.662,431.896 C273.362,432.831 273.395,433.8 273.395,434.802 C273.395,435.704 273.429,436.572 273.495,437.474 C273.562,438.476 273.662,439.545 273.896,440.514 C274.063,441.115 274.564,442.451 275.366,442.351 C276.201,442.25 276.401,440.781 276.468,440.18 C276.535,439.211 276.435,438.276 276.335,437.374 z" fill="#C0541D"/>
            <path d="M279.441,436.605 C279.341,435.704 279.207,434.768 279.074,433.867 C279.007,433.432 278.907,432.998 278.806,432.564 C278.706,432.096 278.639,431.762 278.272,431.428 C278.105,431.295 277.804,431.361 277.637,431.495 C277.303,431.829 277.337,432.23 277.27,432.631 C277.203,433.098 277.17,433.532 277.136,434 C277.103,434.935 277.069,435.904 277.103,436.839 C277.136,438.576 277.103,440.747 278.272,442.184 C278.472,442.418 278.84,442.317 279.007,442.083 C279.508,441.282 279.541,440.413 279.608,439.478 C279.675,438.543 279.541,437.541 279.441,436.605 z" fill="#C0541D"/>
            <path d="M282.648,435.27 C282.581,434.802 282.547,434.334 282.447,433.867 C282.347,433.399 282.113,433.032 281.913,432.631 C281.712,432.263 281.078,432.23 280.911,432.631 C280.71,433.065 280.51,433.399 280.41,433.867 C280.309,434.368 280.276,434.869 280.209,435.403 C280.076,436.338 280.042,437.274 279.975,438.209 C279.942,439.144 279.975,440.213 280.142,441.115 C280.243,441.549 280.376,442.017 280.443,442.451 C280.543,442.885 280.577,443.319 280.844,443.687 C280.978,443.921 281.378,444.021 281.579,443.787 C282.113,443.119 282.28,442.117 282.514,441.315 C282.648,440.814 282.681,440.246 282.748,439.745 C282.815,439.278 282.848,438.777 282.848,438.309 C282.881,437.307 282.815,436.272 282.648,435.27 z" fill="#C0541D"/>
          </g>
          <path d="M283.65,279.08 C285.521,276.107 293.337,276.742 294.506,280.049 C304.126,307.305 314.48,411.821 315.75,467.068 C316.084,481.665 321.361,487.344 315.75,488.947 C310.138,490.584 292.836,493.824 289.061,488.947 C285.654,484.538 296.877,306.938 293.303,280.784 C293.136,279.681 291.834,279.047 290.698,278.913 C289.128,278.713 288.193,279.915 287.859,280.349 C281.446,288.466 287.725,430.593 282.915,433.833 C278.105,437.073 264.243,428.956 264.243,428.956 C264.243,428.956 277.537,288.8 283.65,279.08 z" fill="#985846"/>
        </g>
      </g>
    </g>
  </g>
</svg>
