<svg version="1.1" viewBox="0.0 0.0 600.0 371.0" fill="none" stroke="none" stroke-linecap="square" stroke-miterlimit="10" width="600" height="371" xmlns:xlink="http://www.w3.org/1999/xlink" xmlns="http://www.w3.org/2000/svg"><path fill="#ffffff" d="M0 0L600.0 0L600.0 371.0L0 371.0L0 0Z" fill-rule="nonzero"/><path fill="#fbbc04" d="M206.82466 115.56602C232.13417 92.01142 265.4256 78.916664 300.0 78.916664L300.0 215.68333Z" fill-rule="nonzero"/><path fill="#ea4335" d="M167.1504 183.18552C173.49307 157.25699 187.28456 133.75124 206.82466 115.56602L300.0 215.68333Z" fill-rule="nonzero"/><path fill="#4285f4" d="M300.0 78.916664C358.31674 78.916664 410.21875 115.8946 429.26596 171.01308C448.31317 226.13153 430.31528 287.26468 384.44083 323.2699C338.56635 359.27512 274.90753 362.23138 225.89359 330.63272C176.87965 299.03406 153.29347 239.83203 167.1504 183.18552L300.0 215.68333Z" fill-rule="nonzero"/><path fill="#000000" d="M352.6765 293.5488L352.6765 292.3613L359.1765 292.3613L359.1765 293.31442Q358.20776 294.33005 357.27026 296.01755Q356.33276 297.70505 355.81714 299.50192Q355.45776 300.75192 355.3484 302.25192L354.08276 302.25192Q354.0984 301.06442 354.5359 299.39255Q354.989 297.72067 355.81714 296.1738Q356.6609 294.6113 357.5984 293.5488L352.6765 293.5488ZM360.5984 297.31442Q360.5984 295.53317 360.95776 294.45505Q361.33276 293.3613 362.0515 292.78317Q362.77026 292.18942 363.864 292.18942Q364.6765 292.18942 365.2859 292.51755Q365.89526 292.84567 366.2859 293.45505Q366.69214 294.06442 366.9109 294.93942Q367.12964 295.81442 367.12964 297.31442Q367.12964 299.08005 366.77026 300.15817Q366.4109 301.2363 365.69214 301.83005Q364.9734 302.4238 363.864 302.4238Q362.4265 302.4238 361.5984 301.37692Q360.5984 300.12692 360.5984 297.31442ZM361.864 297.31442Q361.864 299.78317 362.44214 300.59567Q363.02026 301.40817 363.864 301.40817Q364.7234 301.40817 365.3015 300.59567Q365.87964 299.76755 365.87964 297.31442Q365.87964 294.83005 365.3015 294.01755Q364.7234 293.20505 363.8484 293.20505Q363.00464 293.20505 362.50464 293.9238Q361.864 294.84567 361.864 297.31442ZM368.6765 293.5488L368.6765 292.3613L375.1765 292.3613L375.1765 293.31442Q374.20776 294.33005 373.27026 296.01755Q372.33276 297.70505 371.81714 299.50192Q371.45776 300.75192 371.3484 302.25192L370.08276 302.25192Q370.0984 301.06442 370.5359 299.39255Q370.989 297.72067 371.81714 296.1738Q372.6609 294.6113 373.5984 293.5488L368.6765 293.5488Z" fill-rule="nonzero"/><path fill="#000000" d="M202.2824 161.15752Q201.51677 160.87627 201.14177 160.36064Q200.7824 159.84502 200.7824 159.11064Q200.7824 158.01689 201.56364 157.28252Q202.36052 156.53252 203.6574 156.53252Q204.9699 156.53252 205.76677 157.29814Q206.57927 158.06377 206.57927 159.15752Q206.57927 159.84502 206.20427 160.36064Q205.8449 160.87627 205.0949 161.15752Q206.01677 161.45439 206.50114 162.12627Q206.98552 162.79814 206.98552 163.73564Q206.98552 165.01689 206.07927 165.89189Q205.17302 166.76689 203.68864 166.76689Q202.20427 166.76689 201.2824 165.89189Q200.37614 165.00127 200.37614 163.68877Q200.37614 162.72002 200.87614 162.06377Q201.37614 161.39189 202.2824 161.15752ZM202.04802 159.07939Q202.04802 159.78252 202.50114 160.23564Q202.95427 160.68877 203.68864 160.68877Q204.4074 160.68877 204.86052 160.25127Q205.31364 159.79814 205.31364 159.14189Q205.31364 158.47002 204.8449 158.01689Q204.37614 157.54814 203.67302 157.54814Q202.9699 157.54814 202.50114 158.00127Q202.04802 158.43877 202.04802 159.07939ZM201.64177 163.70439Q201.64177 164.23564 201.89177 164.73564Q202.14177 165.22002 202.62614 165.48564Q203.12614 165.75127 203.70427 165.75127Q204.57927 165.75127 205.14177 165.18877Q205.7199 164.62627 205.7199 163.75127Q205.7199 162.86064 205.12614 162.28252Q204.54802 161.68877 203.6574 161.68877Q202.7824 161.68877 202.20427 162.26689Q201.64177 162.84502 201.64177 163.70439ZM208.4074 163.95439L209.62614 163.78252Q209.8449 164.82939 210.3449 165.29814Q210.86052 165.75127 211.5949 165.75127Q212.4699 165.75127 213.06364 165.15752Q213.6574 164.54814 213.6574 163.65752Q213.6574 162.81377 213.0949 162.26689Q212.54802 161.72002 211.70427 161.72002Q211.3449 161.72002 210.82927 161.84502L210.9699 160.76689Q211.0949 160.78252 211.1574 160.78252Q211.95427 160.78252 212.57927 160.37627Q213.20427 159.97002 213.20427 159.11064Q213.20427 158.43877 212.75114 158.00127Q212.29802 157.54814 211.56364 157.54814Q210.8449 157.54814 210.36052 158.00127Q209.89177 158.43877 209.75114 159.34502L208.5324 159.12627Q208.75114 157.89189 209.54802 157.22002Q210.3449 156.53252 211.5324 156.53252Q212.36052 156.53252 213.04802 156.89189Q213.73552 157.23564 214.0949 157.84502Q214.4699 158.45439 214.4699 159.14189Q214.4699 159.78252 214.12614 160.31377Q213.7824 160.84502 213.0949 161.17314Q213.98552 161.37627 214.4699 162.01689Q214.9699 162.65752 214.9699 163.64189Q214.9699 164.95439 214.00114 165.86064Q213.04802 166.76689 211.5949 166.76689Q210.26677 166.76689 209.39177 165.98564Q208.5324 165.20439 208.4074 163.95439Z" fill-rule="nonzero"/><path fill="#000000" d="M254.32292 121.79668L253.08855 121.79668L253.08855 113.95293Q252.65105 114.3748 251.91667 114.8123Q251.19792 115.23418 250.63542 115.4373L250.63542 114.2498Q251.66667 113.76543 252.4323 113.07793Q253.21355 112.39043 253.52605 111.73418L254.32292 111.73418L254.32292 121.79668ZM257.6823 116.85918Q257.6823 115.07793 258.0417 113.9998Q258.4167 112.90605 259.13544 112.32793Q259.8542 111.73418 260.94794 111.73418Q261.76044 111.73418 262.3698 112.0623Q262.9792 112.39043 263.3698 112.9998Q263.77606 113.60918 263.9948 114.48418Q264.21356 115.35918 264.21356 116.85918Q264.21356 118.6248 263.8542 119.70293Q263.4948 120.78105 262.77606 121.3748Q262.0573 121.96855 260.94794 121.96855Q259.51044 121.96855 258.6823 120.92168Q257.6823 119.67168 257.6823 116.85918ZM258.94794 116.85918Q258.94794 119.32793 259.52606 120.14043Q260.1042 120.95293 260.94794 120.95293Q261.8073 120.95293 262.38544 120.14043Q262.96356 119.3123 262.96356 116.85918Q262.96356 114.3748 262.38544 113.5623Q261.8073 112.7498 260.9323 112.7498Q260.08856 112.7498 259.58856 113.46855Q258.94794 114.39043 258.94794 116.85918ZM265.76044 113.09355L265.76044 111.90605L272.26044 111.90605L272.26044 112.85918Q271.2917 113.8748 270.3542 115.5623Q269.4167 117.2498 268.90106 119.04668Q268.5417 120.29668 268.4323 121.79668L267.1667 121.79668Q267.1823 120.60918 267.6198 118.9373Q268.07294 117.26543 268.90106 115.71855Q269.7448 114.15605 270.6823 113.09355L265.76044 113.09355Z" fill-rule="nonzero"/><path fill="#1a1a1a" d="M19.471874 90.27212L19.471874 81.67837L20.628124 81.67837L25.14375 88.42837L25.14375 81.67837L26.2375 81.67837L26.2375 90.27212L25.065624 90.27212L20.55 83.52212L20.55 90.27212L19.471874 90.27212ZM27.95625 87.16274Q27.95625 85.42837 28.909374 84.60024Q29.70625 83.91274 30.8625 83.91274Q32.14375 83.91274 32.95625 84.75649Q33.784374 85.58462 33.784374 87.06899Q33.784374 88.27212 33.425 88.95962Q33.065624 89.64712 32.3625 90.03774Q31.675 90.41274 30.8625 90.41274Q29.565624 90.41274 28.753124 89.58462Q27.95625 88.74087 27.95625 87.16274ZM29.034374 87.16274Q29.034374 88.35024 29.55 88.94399Q30.08125 89.53774 30.8625 89.53774Q31.659374 89.53774 32.175 88.94399Q32.690624 88.35024 32.690624 87.13149Q32.690624 85.97524 32.159374 85.38149Q31.64375 84.78774 30.8625 84.78774Q30.08125 84.78774 29.55 85.38149Q29.034374 85.95962 29.034374 87.16274ZM35.346874 90.27212L35.346874 84.05337L36.284374 84.05337L36.284374 84.92837Q36.971874 83.91274 38.26875 83.91274Q38.83125 83.91274 39.3 84.11587Q39.784374 84.31899 40.01875 84.64712Q40.253124 84.97524 40.346874 85.41274Q40.39375 85.70962 40.39375 86.44399L40.39375 90.27212L39.346874 90.27212L39.346874 86.49087Q39.346874 85.83462 39.221874 85.52212Q39.096874 85.20962 38.784374 85.02212Q38.471874 84.81899 38.05 84.81899Q37.378124 84.81899 36.878124 85.25649Q36.39375 85.67837 36.39375 86.86587L36.39375 90.27212L35.346874 90.27212Z" fill-rule="nonzero"/><path fill="#9e9e9e" d="M23.01875 107.27212L21.971874 107.27212L21.971874 100.55337Q21.58125 100.91274 20.95625 101.28774Q20.346874 101.64712 19.8625 101.81899L19.8625 100.80337Q20.7375 100.38149 21.39375 99.80337Q22.065624 99.20962 22.346874 98.64712L23.01875 98.64712L23.01875 107.27212ZM30.01875 107.27212L28.971874 107.27212L28.971874 100.55337Q28.58125 100.91274 27.95625 101.28774Q27.346874 101.64712 26.8625 101.81899L26.8625 100.80337Q27.7375 100.38149 28.39375 99.80337Q29.065624 99.20962 29.346874 98.64712L30.01875 98.64712L30.01875 107.27212ZM33.6125 107.27212L33.6125 106.06899L34.815624 106.06899L34.815624 107.27212Q34.815624 107.92837 34.58125 108.33462Q34.346874 108.75649 33.846874 108.97524L33.55 108.52212Q33.878124 108.38149 34.034374 108.08462Q34.190624 107.80337 34.221874 107.27212L33.6125 107.27212ZM36.20625 105.28774L37.221874 105.19399Q37.346874 105.91274 37.70625 106.24087Q38.08125 106.55337 38.64375 106.55337Q39.128124 106.55337 39.4875 106.33462Q39.8625 106.10024 40.096874 105.74087Q40.33125 105.36587 40.4875 104.74087Q40.64375 104.10024 40.64375 103.44399Q40.64375 103.36587 40.64375 103.22524Q40.33125 103.72524 39.784374 104.05337Q39.2375 104.36587 38.596874 104.36587Q37.51875 104.36587 36.784374 103.60024Q36.05 102.81899 36.05 101.55337Q36.05 100.24087 36.815624 99.44399Q37.596874 98.64712 38.753124 98.64712Q39.58125 98.64712 40.26875 99.10024Q40.971874 99.55337 41.33125 100.39712Q41.690624 101.22524 41.690624 102.80337Q41.690624 104.44399 41.33125 105.42837Q40.9875 106.39712 40.26875 106.91274Q39.565624 107.41274 38.628124 107.41274Q37.6125 107.41274 36.971874 106.86587Q36.33125 106.30337 36.20625 105.28774ZM40.51875 101.49087Q40.51875 100.58462 40.034374 100.05337Q39.565624 99.52212 38.878124 99.52212Q38.175 99.52212 37.64375 100.10024Q37.128124 100.66274 37.128124 101.58462Q37.128124 102.39712 37.628124 102.91274Q38.128124 103.42837 38.846874 103.42837Q39.58125 103.42837 40.05 102.91274Q40.51875 102.39712 40.51875 101.49087ZM43.253124 100.74087Q43.253124 99.81899 43.70625 99.17837Q44.175 98.53774 45.05 98.53774Q45.8625 98.53774 46.39375 99.11587Q46.925 99.69399 46.925 100.80337Q46.925 101.89712 46.378124 102.49087Q45.846874 103.06899 45.065624 103.06899Q44.284374 103.06899 43.76875 102.49087Q43.253124 101.91274 43.253124 100.74087ZM45.08125 99.25649Q44.690624 99.25649 44.425 99.60024Q44.175 99.94399 44.175 100.85024Q44.175 101.67837 44.425 102.02212Q44.690624 102.35024 45.08125 102.35024Q45.4875 102.35024 45.7375 102.00649Q46.003124 101.66274 46.003124 100.77212Q46.003124 99.92837 45.7375 99.60024Q45.471874 99.25649 45.08125 99.25649ZM45.08125 107.58462L49.784374 98.53774L50.64375 98.53774L45.95625 107.58462L45.08125 107.58462ZM48.8 105.25649Q48.8 104.33462 49.253124 103.69399Q49.721874 103.05337 50.6125 103.05337Q51.425 103.05337 51.95625 103.63149Q52.4875 104.19399 52.4875 105.31899Q52.4875 106.41274 51.940624 107.00649Q51.409374 107.58462 50.6125 107.58462Q49.846874 107.58462 49.315624 107.00649Q48.8 106.42837 48.8 105.25649ZM50.64375 103.77212Q50.2375 103.77212 49.971874 104.11587Q49.721874 104.45962 49.721874 105.36587Q49.721874 106.17837 49.9875 106.52212Q50.253124 106.86587 50.64375 106.86587Q51.034374 106.86587 51.3 106.52212Q51.565624 106.17837 51.565624 105.27212Q51.565624 104.44399 51.3 104.11587Q51.034374 103.77212 50.64375 103.77212Z" fill-rule="nonzero"/><path stroke="#757575" stroke-width="1.0" stroke-linecap="butt" d="M18.55 94.77212L157.23334 94.77212L252.44109 94.77212" fill-rule="nonzero"/><path fill="#9e9e9e" d="M254.44109 94.77212C254.44109 93.66755 253.54565 92.77212 252.44109 92.77212C251.33652 92.77212 250.44109 93.66755 250.44109 94.77212C250.44109 95.876686 251.33652 96.77212 252.44109 96.77212C253.54565 96.77212 254.44109 95.876686 254.44109 94.77212" fill-rule="nonzero"/><path fill="#1a1a1a" d="M19.471874 145.43259L19.471874 136.83884L20.628124 136.83884L25.14375 143.58884L25.14375 136.83884L26.2375 136.83884L26.2375 145.43259L25.065624 145.43259L20.55 138.68259L20.55 145.43259L19.471874 145.43259ZM32.596874 143.43259L33.690624 143.55759Q33.440624 144.51071 32.7375 145.04196Q32.034374 145.57321 30.95625 145.57321Q29.596874 145.57321 28.784374 144.72946Q27.9875 143.88571 27.9875 142.37009Q27.9875 140.80759 28.8 139.94821Q29.6125 139.07321 30.89375 139.07321Q32.14375 139.07321 32.925 139.91696Q33.721874 140.76071 33.721874 142.30759Q33.721874 142.40134 33.721874 142.58884L29.08125 142.58884Q29.14375 143.62009 29.659374 144.16696Q30.175 144.69821 30.95625 144.69821Q31.534374 144.69821 31.940624 144.40134Q32.3625 144.08884 32.596874 143.43259ZM29.14375 141.72946L32.6125 141.72946Q32.55 140.93259 32.221874 140.54196Q31.70625 139.93259 30.909374 139.93259Q30.175 139.93259 29.675 140.41696Q29.190624 140.90134 29.14375 141.72946ZM37.925 143.57321L38.95625 143.41696Q39.05 144.04196 39.440624 144.37009Q39.846874 144.69821 40.58125 144.69821Q41.3 144.69821 41.64375 144.41696Q42.003124 144.12009 42.003124 143.71384Q42.003124 143.35446 41.690624 143.15134Q41.471874 143.01071 40.6125 142.79196Q39.45625 142.49509 39.003124 142.29196Q38.565624 142.07321 38.33125 141.69821Q38.096874 141.32321 38.096874 140.85446Q38.096874 140.44821 38.284374 140.08884Q38.471874 139.72946 38.8 139.49509Q39.05 139.32321 39.471874 139.19821Q39.89375 139.07321 40.39375 139.07321Q41.1125 139.07321 41.659374 139.29196Q42.221874 139.49509 42.4875 139.85446Q42.753124 140.21384 42.846874 140.80759L41.815624 140.94821Q41.753124 140.47946 41.409374 140.21384Q41.08125 139.93259 40.45625 139.93259Q39.7375 139.93259 39.425 140.18259Q39.1125 140.41696 39.1125 140.74509Q39.1125 140.94821 39.2375 141.10446Q39.378124 141.27634 39.64375 141.38571Q39.8 141.44821 40.58125 141.65134Q41.70625 141.96384 42.14375 142.15134Q42.58125 142.33884 42.83125 142.69821Q43.08125 143.05759 43.08125 143.60446Q43.08125 144.13571 42.76875 144.60446Q42.471874 145.05759 41.89375 145.32321Q41.315624 145.57321 40.58125 145.57321Q39.3625 145.57321 38.721874 145.07321Q38.096874 144.55759 37.925 143.57321ZM49.596874 143.43259L50.690624 143.55759Q50.440624 144.51071 49.7375 145.04196Q49.034374 145.57321 47.95625 145.57321Q46.596874 145.57321 45.784374 144.72946Q44.9875 143.88571 44.9875 142.37009Q44.9875 140.80759 45.8 139.94821Q46.6125 139.07321 47.89375 139.07321Q49.14375 139.07321 49.925 139.91696Q50.721874 140.76071 50.721874 142.30759Q50.721874 142.40134 50.721874 142.58884L46.08125 142.58884Q46.14375 143.62009 46.659374 144.16696Q47.175 144.69821 47.95625 144.69821Q48.534374 144.69821 48.940624 144.40134Q49.3625 144.08884 49.596874 143.43259ZM46.14375 141.72946L49.6125 141.72946Q49.55 140.93259 49.221874 140.54196Q48.70625 139.93259 47.909374 139.93259Q47.175 139.93259 46.675 140.41696Q46.190624 140.90134 46.14375 141.72946ZM55.346874 147.82321L55.346874 139.21384L56.3 139.21384L56.3 140.01071Q56.64375 139.54196 57.065624 139.30759Q57.503124 139.07321 58.1125 139.07321Q58.909374 139.07321 59.51875 139.47946Q60.128124 139.88571 60.425 140.63571Q60.7375 141.38571 60.7375 142.27634Q60.7375 143.22946 60.39375 143.99509Q60.065624 144.76071 59.409374 145.16696Q58.753124 145.57321 58.034374 145.57321Q57.503124 145.57321 57.08125 145.35446Q56.659374 145.12009 56.39375 144.79196L56.39375 147.82321L55.346874 147.82321ZM56.3 142.35446Q56.3 143.55759 56.784374 144.13571Q57.26875 144.69821 57.95625 144.69821Q58.659374 144.69821 59.159374 144.10446Q59.659374 143.51071 59.659374 142.26071Q59.659374 141.07321 59.175 140.49509Q58.690624 139.90134 58.003124 139.90134Q57.33125 139.90134 56.815624 140.52634Q56.3 141.15134 56.3 142.35446ZM62.33125 145.43259L62.33125 139.21384L63.284374 139.21384L63.284374 140.15134Q63.64375 139.49509 63.940624 139.29196Q64.25313 139.07321 64.62813 139.07321Q65.15938 139.07321 65.70625 139.40134L65.34688 140.38571Q64.95625 140.15134 64.58125 140.15134Q64.22188 140.15134 63.940624 140.37009Q63.675 140.57321 63.565624 140.94821Q63.378124 141.51071 63.378124 142.16696L63.378124 145.43259L62.33125 145.43259ZM65.95625 142.32321Q65.95625 140.58884 66.90938 139.76071Q67.70625 139.07321 68.8625 139.07321Q70.14375 139.07321 70.95625 139.91696Q71.78438 140.74509 71.78438 142.22946Q71.78438 143.43259 71.425 144.12009Q71.06563 144.80759 70.3625 145.19821Q69.675 145.57321 68.8625 145.57321Q67.56563 145.57321 66.75313 144.74509Q65.95625 143.90134 65.95625 142.32321ZM67.03438 142.32321Q67.03438 143.51071 67.55 144.10446Q68.08125 144.69821 68.8625 144.69821Q69.65938 144.69821 70.175 144.10446Q70.69063 143.51071 70.69063 142.29196Q70.69063 141.13571 70.15938 140.54196Q69.64375 139.94821 68.8625 139.94821Q68.08125 139.94821 67.55 140.54196Q67.03438 141.12009 67.03438 142.32321ZM73.34688 145.43259L73.34688 139.21384L74.28438 139.21384L74.28438 140.08884Q74.97188 139.07321 76.26875 139.07321Q76.83125 139.07321 77.3 139.27634Q77.78438 139.47946 78.01875 139.80759Q78.25313 140.13571 78.34688 140.57321Q78.39375 140.87009 78.39375 141.60446L78.39375 145.43259L77.34688 145.43259L77.34688 141.65134Q77.34688 140.99509 77.22188 140.68259Q77.09688 140.37009 76.78438 140.18259Q76.47188 139.97946 76.05 139.97946Q75.37813 139.97946 74.87813 140.41696Q74.39375 140.83884 74.39375 142.02634L74.39375 145.43259L73.34688 145.43259ZM79.95625 142.32321Q79.95625 140.58884 80.90938 139.76071Q81.70625 139.07321 82.8625 139.07321Q84.14375 139.07321 84.95625 139.91696Q85.78438 140.74509 85.78438 142.22946Q85.78438 143.43259 85.425 144.12009Q85.06563 144.80759 84.3625 145.19821Q83.675 145.57321 82.8625 145.57321Q81.56563 145.57321 80.75313 144.74509Q79.95625 143.90134 79.95625 142.32321ZM81.03438 142.32321Q81.03438 143.51071 81.55 144.10446Q82.08125 144.69821 82.8625 144.69821Q83.65938 144.69821 84.175 144.10446Q84.69063 143.51071 84.69063 142.29196Q84.69063 141.13571 84.15938 140.54196Q83.64375 139.94821 82.8625 139.94821Q82.08125 139.94821 81.55 140.54196Q81.03438 141.12009 81.03438 142.32321ZM87.34688 145.43259L87.34688 139.21384L88.28438 139.21384L88.28438 140.08884Q88.97188 139.07321 90.26875 139.07321Q90.83125 139.07321 91.3 139.27634Q91.78438 139.47946 92.01875 139.80759Q92.25313 140.13571 92.34688 140.57321Q92.39375 140.87009 92.39375 141.60446L92.39375 145.43259L91.34688 145.43259L91.34688 141.65134Q91.34688 140.99509 91.22188 140.68259Q91.09688 140.37009 90.78438 140.18259Q90.47188 139.97946 90.05 139.97946Q89.37813 139.97946 88.87813 140.41696Q88.39375 140.83884 88.39375 142.02634L88.39375 145.43259L87.34688 145.43259ZM98.40938 143.15134L99.44063 143.29196Q99.26875 144.35446 98.56563 144.96384Q97.8625 145.57321 96.84688 145.57321Q95.56563 145.57321 94.78438 144.74509Q94.01875 143.90134 94.01875 142.33884Q94.01875 141.33884 94.34688 140.58884Q94.69063 139.82321 95.3625 139.44821Q96.05 139.07321 96.8625 139.07321Q97.8625 139.07321 98.50313 139.58884Q99.15938 140.08884 99.34688 141.04196L98.31563 141.19821Q98.175 140.57321 97.8 140.26071Q97.425 139.93259 96.89375 139.93259Q96.09688 139.93259 95.59688 140.51071Q95.09688 141.07321 95.09688 142.30759Q95.09688 143.57321 95.58125 144.13571Q96.06563 144.69821 96.83125 144.69821Q97.45625 144.69821 97.8625 144.32321Q98.28438 143.94821 98.40938 143.15134ZM104.59688 143.43259L105.69063 143.55759Q105.44063 144.51071 104.7375 145.04196Q104.03438 145.57321 102.95625 145.57321Q101.59688 145.57321 100.78438 144.72946Q99.9875 143.88571 99.9875 142.37009Q99.9875 140.80759 100.8 139.94821Q101.6125 139.07321 102.89375 139.07321Q104.14375 139.07321 104.925 139.91696Q105.72188 140.76071 105.72188 142.30759Q105.72188 142.40134 105.72188 142.58884L101.08125 142.58884Q101.14375 143.62009 101.65938 144.16696Q102.175 144.69821 102.95625 144.69821Q103.53438 144.69821 103.94063 144.40134Q104.3625 144.08884 104.59688 143.43259ZM101.14375 141.72946L104.6125 141.72946Q104.55 140.93259 104.22188 140.54196Q103.70625 139.93259 102.90938 139.93259Q102.175 139.93259 101.675 140.41696Q101.19063 140.90134 101.14375 141.72946ZM110.34688 147.82321L110.34688 139.21384L111.3 139.21384L111.3 140.01071Q111.64375 139.54196 112.06563 139.30759Q112.50313 139.07321 113.1125 139.07321Q113.90938 139.07321 114.51875 139.47946Q115.12813 139.88571 115.425 140.63571Q115.7375 141.38571 115.7375 142.27634Q115.7375 143.22946 115.39375 143.99509Q115.06563 144.76071 114.40938 145.16696Q113.75313 145.57321 113.03438 145.57321Q112.50313 145.57321 112.08125 145.35446Q111.65938 145.12009 111.39375 144.79196L111.39375 147.82321L110.34688 147.82321ZM111.3 142.35446Q111.3 143.55759 111.78438 144.13571Q112.26875 144.69821 112.95625 144.69821Q113.65938 144.69821 114.15938 144.10446Q114.65938 143.51071 114.65938 142.26071Q114.65938 141.07321 114.175 140.49509Q113.69063 139.90134 113.00313 139.90134Q112.33125 139.90134 111.81563 140.52634Q111.3 141.15134 111.3 142.35446ZM121.40938 144.66696Q120.81563 145.16696 120.26875 145.37009Q119.7375 145.57321 119.1125 145.57321Q118.08125 145.57321 117.53438 145.07321Q116.9875 144.57321 116.9875 143.79196Q116.9875 143.33884 117.19063 142.96384Q117.39375 142.57321 117.7375 142.35446Q118.08125 142.12009 118.50313 142.01071Q118.8 141.91696 119.44063 141.83884Q120.70625 141.69821 121.31563 141.47946Q121.31563 141.26071 121.31563 141.21384Q121.31563 140.55759 121.01875 140.29196Q120.6125 139.94821 119.81563 139.94821Q119.08125 139.94821 118.72188 140.21384Q118.3625 140.46384 118.19063 141.12009L117.15938 140.97946Q117.3 140.32321 117.62813 139.91696Q117.95625 139.51071 118.56563 139.29196Q119.175 139.07321 119.97188 139.07321Q120.76875 139.07321 121.26875 139.26071Q121.76875 139.44821 122.00313 139.72946Q122.2375 140.01071 122.33125 140.44821Q122.37813 140.71384 122.37813 141.41696L122.37813 142.82321Q122.37813 144.29196 122.44063 144.68259Q122.51875 145.07321 122.72188 145.43259L121.6125 145.43259Q121.45625 145.10446 121.40938 144.66696ZM121.31563 142.30759Q120.7375 142.54196 119.59688 142.71384Q118.94063 142.80759 118.675 142.93259Q118.40938 143.04196 118.25313 143.26071Q118.1125 143.47946 118.1125 143.76071Q118.1125 144.18259 118.425 144.46384Q118.75313 144.74509 119.3625 144.74509Q119.97188 144.74509 120.44063 144.47946Q120.925 144.21384 121.14375 143.74509Q121.31563 143.38571 121.31563 142.69821L121.31563 142.30759ZM123.925 143.57321L124.95625 143.41696Q125.05 144.04196 125.44063 144.37009Q125.84688 144.69821 126.58125 144.69821Q127.3 144.69821 127.64375 144.41696Q128.00313 144.12009 128.00313 143.71384Q128.00313 143.35446 127.69063 143.15134Q127.47188 143.01071 126.6125 142.79196Q125.45625 142.49509 125.00313 142.29196Q124.56563 142.07321 124.33125 141.69821Q124.09688 141.32321 124.09688 140.85446Q124.09688 140.44821 124.28438 140.08884Q124.47188 139.72946 124.8 139.49509Q125.05 139.32321 125.47188 139.19821Q125.89375 139.07321 126.39375 139.07321Q127.1125 139.07321 127.65938 139.29196Q128.22188 139.49509 128.4875 139.85446Q128.75313 140.21384 128.84688 140.80759L127.81563 140.94821Q127.75313 140.47946 127.40938 140.21384Q127.08125 139.93259 126.45625 139.93259Q125.7375 139.93259 125.425 140.18259Q125.1125 140.41696 125.1125 140.74509Q125.1125 140.94821 125.2375 141.10446Q125.37813 141.27634 125.64375 141.38571Q125.8 141.44821 126.58125 141.65134Q127.70625 141.96384 128.14375 142.15134Q128.58125 142.33884 128.83125 142.69821Q129.08125 143.05759 129.08125 143.60446Q129.08125 144.13571 128.76875 144.60446Q128.47188 145.05759 127.89375 145.32321Q127.31563 145.57321 126.58125 145.57321Q125.3625 145.57321 124.72188 145.07321Q124.09688 144.55759 123.925 143.57321Z" fill-rule="nonzero"/><path fill="#9e9e9e" d="M19.20625 160.44821L20.221874 160.35446Q20.346874 161.07321 20.70625 161.40134Q21.08125 161.71384 21.64375 161.71384Q22.128124 161.71384 22.4875 161.49509Q22.8625 161.26071 23.096874 160.90134Q23.33125 160.52634 23.4875 159.90134Q23.64375 159.26071 23.64375 158.60446Q23.64375 158.52634 23.64375 158.38571Q23.33125 158.88571 22.784374 159.21384Q22.2375 159.52634 21.596874 159.52634Q20.51875 159.52634 19.784374 158.76071Q19.05 157.97946 19.05 156.71384Q19.05 155.40134 19.815624 154.60446Q20.596874 153.80759 21.753124 153.80759Q22.58125 153.80759 23.26875 154.26071Q23.971874 154.71384 24.33125 155.55759Q24.690624 156.38571 24.690624 157.96384Q24.690624 159.60446 24.33125 160.58884Q23.9875 161.55759 23.26875 162.07321Q22.565624 162.57321 21.628124 162.57321Q20.6125 162.57321 19.971874 162.02634Q19.33125 161.46384 19.20625 160.44821ZM23.51875 156.65134Q23.51875 155.74509 23.034374 155.21384Q22.565624 154.68259 21.878124 154.68259Q21.175 154.68259 20.64375 155.26071Q20.128124 155.82321 20.128124 156.74509Q20.128124 157.55759 20.628124 158.07321Q21.128124 158.58884 21.846874 158.58884Q22.58125 158.58884 23.05 158.07321Q23.51875 157.55759 23.51875 156.65134ZM26.6125 162.43259L26.6125 161.22946L27.815624 161.22946L27.815624 162.43259Q27.815624 163.08884 27.58125 163.49509Q27.346874 163.91696 26.846874 164.13571L26.55 163.68259Q26.878124 163.54196 27.034374 163.24509Q27.190624 162.96384 27.221874 162.43259L26.6125 162.43259ZM29.05 160.16696L30.1125 160.02634Q30.284374 160.91696 30.721874 161.32321Q31.159374 161.71384 31.784374 161.71384Q32.534374 161.71384 33.05 161.19821Q33.565624 160.68259 33.565624 159.91696Q33.565624 159.19821 33.08125 158.72946Q32.6125 158.24509 31.878124 158.24509Q31.58125 158.24509 31.128124 158.37009L31.253124 157.43259Q31.3625 157.44821 31.425 157.44821Q32.096874 157.44821 32.628124 157.10446Q33.175 156.74509 33.175 156.01071Q33.175 155.43259 32.784374 155.05759Q32.39375 154.66696 31.76875 154.66696Q31.159374 154.66696 30.7375 155.05759Q30.33125 155.44821 30.221874 156.21384L29.159374 156.02634Q29.346874 154.97946 30.034374 154.40134Q30.721874 153.80759 31.7375 153.80759Q32.440624 153.80759 33.034374 154.12009Q33.628124 154.41696 33.940624 154.93259Q34.253124 155.44821 34.253124 156.04196Q34.253124 156.58884 33.95625 157.05759Q33.659374 157.51071 33.08125 157.77634Q33.83125 157.94821 34.253124 158.51071Q34.675 159.05759 34.675 159.90134Q34.675 161.02634 33.846874 161.80759Q33.034374 162.58884 31.784374 162.58884Q30.659374 162.58884 29.909374 161.91696Q29.159374 161.22946 29.05 160.16696ZM36.253124 155.90134Q36.253124 154.97946 36.70625 154.33884Q37.175 153.69821 38.05 153.69821Q38.8625 153.69821 39.39375 154.27634Q39.925 154.85446 39.925 155.96384Q39.925 157.05759 39.378124 157.65134Q38.846874 158.22946 38.065624 158.22946Q37.284374 158.22946 36.76875 157.65134Q36.253124 157.07321 36.253124 155.90134ZM38.08125 154.41696Q37.690624 154.41696 37.425 154.76071Q37.175 155.10446 37.175 156.01071Q37.175 156.83884 37.425 157.18259Q37.690624 157.51071 38.08125 157.51071Q38.4875 157.51071 38.7375 157.16696Q39.003124 156.82321 39.003124 155.93259Q39.003124 155.08884 38.7375 154.76071Q38.471874 154.41696 38.08125 154.41696ZM38.08125 162.74509L42.784374 153.69821L43.64375 153.69821L38.95625 162.74509L38.08125 162.74509ZM41.8 160.41696Q41.8 159.49509 42.253124 158.85446Q42.721874 158.21384 43.6125 158.21384Q44.425 158.21384 44.95625 158.79196Q45.4875 159.35446 45.4875 160.47946Q45.4875 161.57321 44.940624 162.16696Q44.409374 162.74509 43.6125 162.74509Q42.846874 162.74509 42.315624 162.16696Q41.8 161.58884 41.8 160.41696ZM43.64375 158.93259Q43.2375 158.93259 42.971874 159.27634Q42.721874 159.62009 42.721874 160.52634Q42.721874 161.33884 42.9875 161.68259Q43.253124 162.02634 43.64375 162.02634Q44.034374 162.02634 44.3 161.68259Q44.565624 161.33884 44.565624 160.43259Q44.565624 159.60446 44.3 159.27634Q44.034374 158.93259 43.64375 158.93259Z" fill-rule="nonzero"/><path stroke="#757575" stroke-width="1.0" stroke-linecap="butt" d="M18.55 149.93259L157.23334 149.93259L187.93657 149.93259" fill-rule="nonzero"/><path fill="#9e9e9e" d="M189.93657 149.93259C189.93657 148.82802 189.04114 147.93259 187.93657 147.93259C186.832 147.93259 185.93657 148.82802 185.93657 149.93259C185.93657 151.03716 186.832 151.93259 187.93657 151.93259C189.04114 151.93259 189.93657 151.03716 189.93657 149.93259" fill-rule="nonzero"/><path fill="#1a1a1a" d="M563.02814 309.20306Q563.02814 307.06244 564.16876 305.8593Q565.325 304.64056 567.1375 304.64056Q568.34064 304.64056 569.29376 305.2187Q570.2469 305.7812 570.7469 306.7968Q571.2469 307.81244 571.2469 309.1093Q571.2469 310.4062 570.71564 311.43744Q570.1844 312.4687 569.21564 312.99994Q568.2625 313.5312 567.1375 313.5312Q565.91876 313.5312 564.96564 312.95306Q564.0125 312.3593 563.5125 311.3593Q563.02814 310.3437 563.02814 309.20306ZM564.2 309.2187Q564.2 310.7812 565.02814 311.6718Q565.8719 312.56244 567.1375 312.56244Q568.41876 312.56244 569.2469 311.6718Q570.075 310.76556 570.075 309.0937Q570.075 308.0468 569.71564 307.26556Q569.3719 306.4843 568.6844 306.06244Q567.9969 305.62494 567.15314 305.62494Q565.95 305.62494 565.075 306.45306Q564.2 307.2812 564.2 309.2187ZM576.325 313.39056L576.325 312.4687Q575.59064 313.5312 574.34064 313.5312Q573.79376 313.5312 573.3094 313.32806Q572.84064 313.1093 572.60626 312.7968Q572.3719 312.4687 572.27814 311.99994Q572.21564 311.70306 572.21564 311.01556L572.21564 307.1718L573.27814 307.1718L573.27814 310.62494Q573.27814 311.43744 573.34064 311.7343Q573.4344 312.14056 573.7469 312.39056Q574.075 312.62494 574.5594 312.62494Q575.02814 312.62494 575.4344 312.39056Q575.85626 312.14056 576.02814 311.7187Q576.21564 311.2968 576.21564 310.49994L576.21564 307.1718L577.2625 307.1718L577.2625 313.39056L576.325 313.39056ZM579.2469 306.01556L579.2469 304.7968L580.3094 304.7968L580.3094 306.01556L579.2469 306.01556ZM579.2469 313.39056L579.2469 307.1718L580.3094 307.1718L580.3094 313.39056L579.2469 313.39056Z" fill-rule="nonzero"/><path fill="#9e9e9e" d="M547.0125 322.9218L547.0125 321.9062L552.575 321.9062L552.575 322.7343Q551.7625 323.6093 550.95 325.06244Q550.15314 326.49994 549.71564 328.0312Q549.3875 329.1093 549.3094 330.39056L548.21564 330.39056Q548.23126 329.37494 548.60626 327.93744Q548.9969 326.49994 549.7 325.1718Q550.41876 323.8437 551.23126 322.9218L547.0125 322.9218ZM555.575 325.7343Q554.91876 325.4843 554.59064 325.0468Q554.27814 324.5937 554.27814 323.9843Q554.27814 323.0468 554.95 322.4062Q555.6375 321.76556 556.7469 321.76556Q557.8719 321.76556 558.5594 322.4218Q559.2469 323.07806 559.2469 324.01556Q559.2469 324.6093 558.9344 325.0468Q558.6219 325.4843 557.98126 325.7343Q558.77814 325.9843 559.1844 326.56244Q559.59064 327.14056 559.59064 327.93744Q559.59064 329.0312 558.8094 329.7812Q558.04376 330.5312 556.7625 330.5312Q555.4969 330.5312 554.71564 329.7812Q553.9344 329.0312 553.9344 327.9062Q553.9344 327.06244 554.35626 326.49994Q554.79376 325.93744 555.575 325.7343ZM555.35626 323.93744Q555.35626 324.5468 555.7469 324.93744Q556.15314 325.32806 556.77814 325.32806Q557.3875 325.32806 557.77814 324.95306Q558.16876 324.56244 558.16876 323.99994Q558.16876 323.4218 557.7625 323.0312Q557.35626 322.62494 556.7625 322.62494Q556.15314 322.62494 555.7469 323.01556Q555.35626 323.4062 555.35626 323.93744ZM555.02814 327.9062Q555.02814 328.3593 555.23126 328.7812Q555.45 329.20306 555.8719 329.43744Q556.29376 329.6718 556.77814 329.6718Q557.52814 329.6718 558.0125 329.18744Q558.5125 328.70306 558.5125 327.95306Q558.5125 327.18744 558.0125 326.68744Q557.5125 326.18744 556.7469 326.18744Q555.9969 326.18744 555.5125 326.68744Q555.02814 327.1718 555.02814 327.9062ZM561.5125 330.39056L561.5125 329.18744L562.71564 329.18744L562.71564 330.39056Q562.71564 331.0468 562.48126 331.45306Q562.2469 331.87494 561.7469 332.0937L561.45 331.64056Q561.77814 331.49994 561.9344 331.20306Q562.09064 330.9218 562.1219 330.39056L561.5125 330.39056ZM565.575 325.7343Q564.91876 325.4843 564.59064 325.0468Q564.27814 324.5937 564.27814 323.9843Q564.27814 323.0468 564.95 322.4062Q565.6375 321.76556 566.7469 321.76556Q567.8719 321.76556 568.5594 322.4218Q569.2469 323.07806 569.2469 324.01556Q569.2469 324.6093 568.9344 325.0468Q568.6219 325.4843 567.98126 325.7343Q568.77814 325.9843 569.1844 326.56244Q569.59064 327.14056 569.59064 327.93744Q569.59064 329.0312 568.8094 329.7812Q568.04376 330.5312 566.7625 330.5312Q565.4969 330.5312 564.71564 329.7812Q563.9344 329.0312 563.9344 327.9062Q563.9344 327.06244 564.35626 326.49994Q564.79376 325.93744 565.575 325.7343ZM565.35626 323.93744Q565.35626 324.5468 565.7469 324.93744Q566.15314 325.32806 566.77814 325.32806Q567.3875 325.32806 567.77814 324.95306Q568.16876 324.56244 568.16876 323.99994Q568.16876 323.4218 567.7625 323.0312Q567.35626 322.62494 566.7625 322.62494Q566.15314 322.62494 565.7469 323.01556Q565.35626 323.4062 565.35626 323.93744ZM565.02814 327.9062Q565.02814 328.3593 565.23126 328.7812Q565.45 329.20306 565.8719 329.43744Q566.29376 329.6718 566.77814 329.6718Q567.52814 329.6718 568.0125 329.18744Q568.5125 328.70306 568.5125 327.95306Q568.5125 327.18744 568.0125 326.68744Q567.5125 326.18744 566.7469 326.18744Q565.9969 326.18744 565.5125 326.68744Q565.02814 327.1718 565.02814 327.9062ZM571.15314 323.8593Q571.15314 322.93744 571.60626 322.2968Q572.075 321.6562 572.95 321.6562Q573.7625 321.6562 574.29376 322.2343Q574.825 322.81244 574.825 323.9218Q574.825 325.01556 574.27814 325.6093Q573.7469 326.18744 572.96564 326.18744Q572.1844 326.18744 571.66876 325.6093Q571.15314 325.0312 571.15314 323.8593ZM572.98126 322.37494Q572.59064 322.37494 572.325 322.7187Q572.075 323.06244 572.075 323.9687Q572.075 324.7968 572.325 325.14056Q572.59064 325.4687 572.98126 325.4687Q573.3875 325.4687 573.6375 325.12494Q573.90314 324.7812 573.90314 323.89056Q573.90314 323.0468 573.6375 322.7187Q573.3719 322.37494 572.98126 322.37494ZM572.98126 330.70306L577.6844 321.6562L578.54376 321.6562L573.85626 330.70306L572.98126 330.70306ZM576.7 328.37494Q576.7 327.45306 577.15314 326.81244Q577.6219 326.1718 578.5125 326.1718Q579.325 326.1718 579.85626 326.74994Q580.3875 327.31244 580.3875 328.43744Q580.3875 329.5312 579.84064 330.12494Q579.3094 330.70306 578.5125 330.70306Q577.7469 330.70306 577.21564 330.12494Q576.7 329.5468 576.7 328.37494ZM578.54376 326.89056Q578.1375 326.89056 577.8719 327.2343Q577.6219 327.57806 577.6219 328.4843Q577.6219 329.2968 577.8875 329.64056Q578.15314 329.9843 578.54376 329.9843Q578.9344 329.9843 579.2 329.64056Q579.46564 329.2968 579.46564 328.39056Q579.46564 327.56244 579.2 327.2343Q578.9344 326.89056 578.54376 326.89056Z" fill-rule="nonzero"/><path stroke="#757575" stroke-width="1.0" stroke-linecap="butt" d="M581.45 317.89056L442.76666 317.89056L380.21878 317.89056" fill-rule="nonzero"/><path fill="#9e9e9e" d="M382.21878 317.89056C382.21878 316.786 381.32333 315.89056 380.21878 315.89056C379.1142 315.89056 378.21878 316.786 378.21878 317.89056C378.21878 318.99515 379.1142 319.89056 380.21878 319.89056C381.32333 319.89056 382.21878 318.99515 382.21878 317.89056" fill-rule="nonzero"/><path fill="#757575" d="M20.128124 37.55L20.128124 23.2375L30.4875 23.2375L30.4875 24.925L22.034374 24.925L22.034374 29.3L29.940624 29.3L29.940624 30.9875L22.034374 30.9875L22.034374 35.8625L30.815624 35.8625L30.815624 37.55L20.128124 37.55ZM32.8625 37.55L32.8625 27.175L34.45625 27.175L34.45625 28.659374Q35.596874 26.940624 37.753124 26.940624Q38.690624 26.940624 39.471874 27.284374Q40.26875 27.6125 40.659374 28.159374Q41.05 28.70625 41.20625 29.45625Q41.3 29.95625 41.3 31.175L41.3 37.55L39.534374 37.55L39.534374 31.2375Q39.534374 30.159374 39.33125 29.628124Q39.128124 29.096874 38.596874 28.784374Q38.08125 28.471874 37.378124 28.471874Q36.253124 28.471874 35.440624 29.190624Q34.628124 29.89375 34.628124 31.878124L34.628124 37.55L32.8625 37.55ZM52.70625 35.971874L52.95625 37.534374Q52.221874 37.690624 51.628124 37.690624Q50.675 37.690624 50.14375 37.39375Q49.628124 37.08125 49.409374 36.596874Q49.190624 36.096874 49.190624 34.51875L49.190624 28.55L47.909374 28.55L47.909374 27.175L49.190624 27.175L49.190624 24.6125L50.940624 23.55L50.940624 27.175L52.70625 27.175L52.70625 28.55L50.940624 28.55L50.940624 34.6125Q50.940624 35.3625 51.034374 35.58125Q51.128124 35.784374 51.33125 35.925Q51.55 36.05 51.940624 36.05Q52.221874 36.05 52.70625 35.971874ZM61.64375 36.26875Q60.659374 37.096874 59.753124 37.440624Q58.846874 37.784374 57.815624 37.784374Q56.1125 37.784374 55.190624 36.95625Q54.26875 36.1125 54.26875 34.815624Q54.26875 34.05 54.6125 33.425Q54.971874 32.8 55.534374 32.425Q56.096874 32.034374 56.8 31.83125Q57.315624 31.70625 58.3625 31.565624Q60.4875 31.315624 61.4875 30.971874Q61.503124 30.6125 61.503124 30.503124Q61.503124 29.440624 61.003124 28.9875Q60.33125 28.39375 59.003124 28.39375Q57.753124 28.39375 57.159374 28.83125Q56.58125 29.26875 56.3 30.378124L54.58125 30.14375Q54.815624 29.034374 55.346874 28.3625Q55.878124 27.675 56.89375 27.315624Q57.909374 26.940624 59.253124 26.940624Q60.58125 26.940624 61.409374 27.253124Q62.2375 27.565624 62.628124 28.05Q63.01875 28.51875 63.175 29.2375Q63.26875 29.690624 63.26875 30.8625L63.26875 33.20625Q63.26875 35.659374 63.378124 36.315624Q63.4875 36.95625 63.83125 37.55L61.9875 37.55Q61.721874 37.003124 61.64375 36.26875ZM61.4875 32.346874Q60.534374 32.7375 58.6125 33.003124Q57.534374 33.159374 57.08125 33.3625Q56.64375 33.55 56.39375 33.925Q56.14375 34.3 56.14375 34.76875Q56.14375 35.471874 56.675 35.940624Q57.20625 36.409374 58.2375 36.409374Q59.253124 36.409374 60.034374 35.971874Q60.83125 35.51875 61.20625 34.753124Q61.4875 34.14375 61.4875 32.9875L61.4875 32.346874ZM65.8625 37.55L65.8625 27.175L67.45625 27.175L67.45625 28.659374Q68.59688 26.940624 70.75313 26.940624Q71.69063 26.940624 72.47188 27.284374Q73.26875 27.6125 73.65938 28.159374Q74.05 28.70625 74.20625 29.45625Q74.3 29.95625 74.3 31.175L74.3 37.55L72.53438 37.55L72.53438 31.2375Q72.53438 30.159374 72.33125 29.628124Q72.12813 29.096874 71.59688 28.784374Q71.08125 28.471874 70.37813 28.471874Q69.25313 28.471874 68.44063 29.190624Q67.62813 29.89375 67.62813 31.878124L67.62813 37.55L65.8625 37.55ZM79.70625 35.971874L79.95625 37.534374Q79.22188 37.690624 78.62813 37.690624Q77.675 37.690624 77.14375 37.39375Q76.62813 37.08125 76.40938 36.596874Q76.19063 36.096874 76.19063 34.51875L76.19063 28.55L74.90938 28.55L74.90938 27.175L76.19063 27.175L76.19063 24.6125L77.94063 23.55L77.94063 27.175L79.70625 27.175L79.70625 28.55L77.94063 28.55L77.94063 34.6125Q77.94063 35.3625 78.03438 35.58125Q78.12813 35.784374 78.33125 35.925Q78.55 36.05 78.94063 36.05Q79.22188 36.05 79.70625 35.971874ZM94.4875 41.51875L94.4875 36.440624Q94.06563 37.01875 93.33125 37.409374Q92.59688 37.784374 91.76875 37.784374Q89.925 37.784374 88.58125 36.315624Q87.25313 34.83125 87.25313 32.26875Q87.25313 30.70625 87.78438 29.471874Q88.33125 28.221874 89.3625 27.58125Q90.39375 26.940624 91.62813 26.940624Q93.55 26.940624 94.65938 28.565624L94.65938 27.175L96.2375 27.175L96.2375 41.51875L94.4875 41.51875ZM89.06563 32.33125Q89.06563 34.33125 89.89375 35.33125Q90.7375 36.33125 91.90938 36.33125Q93.03438 36.33125 93.84688 35.39375Q94.65938 34.440624 94.65938 32.4875Q94.65938 30.425 93.8 29.378124Q92.94063 28.33125 91.8 28.33125Q90.65938 28.33125 89.8625 29.3Q89.06563 30.26875 89.06563 32.33125ZM105.65938 37.55L105.65938 36.01875Q104.45625 37.784374 102.37813 37.784374Q101.45625 37.784374 100.65938 37.440624Q99.8625 37.08125 99.47188 36.55Q99.09688 36.01875 98.94063 35.2375Q98.83125 34.721874 98.83125 33.596874L98.83125 27.175L100.58125 27.175L100.58125 32.925Q100.58125 34.3 100.69063 34.784374Q100.8625 35.471874 101.39375 35.878124Q101.94063 36.26875 102.72188 36.26875Q103.51875 36.26875 104.20625 35.8625Q104.90938 35.45625 105.19063 34.76875Q105.4875 34.065624 105.4875 32.7375L105.4875 27.175L107.2375 27.175L107.2375 37.55L105.65938 37.55ZM108.76875 25.128124L108.76875 23.08125L110.64375 23.08125L110.64375 24.690624Q110.64375 26.003124 110.34688 26.58125Q109.925 27.378124 109.03438 27.76875L108.6125 27.08125Q109.12813 26.8625 109.37813 26.409374Q109.64375 25.940624 109.675 25.128124L108.76875 25.128124ZM112.22188 32.3625Q112.22188 29.4875 113.81563 28.096874Q115.15938 26.940624 117.08125 26.940624Q119.22188 26.940624 120.56563 28.346874Q121.925 29.753124 121.925 32.221874Q121.925 34.221874 121.33125 35.378124Q120.7375 36.51875 119.58125 37.159374Q118.44063 37.784374 117.08125 37.784374Q114.89375 37.784374 113.55 36.39375Q112.22188 34.9875 112.22188 32.3625ZM114.01875 32.3625Q114.01875 34.3625 114.87813 35.346874Q115.75313 36.33125 117.08125 36.33125Q118.39375 36.33125 119.25313 35.346874Q120.12813 34.346874 120.12813 32.3Q120.12813 30.378124 119.25313 29.39375Q118.37813 28.39375 117.08125 28.39375Q115.75313 28.39375 114.87813 29.39375Q114.01875 30.378124 114.01875 32.3625ZM123.15938 34.45625L124.90938 34.175Q125.05 35.221874 125.72188 35.784374Q126.39375 36.33125 127.59688 36.33125Q128.8 36.33125 129.37813 35.846874Q129.97188 35.346874 129.97188 34.690624Q129.97188 34.096874 129.45625 33.753124Q129.09688 33.51875 127.65938 33.159374Q125.72188 32.659374 124.97188 32.315624Q124.2375 31.95625 123.84688 31.33125Q123.45625 30.690624 123.45625 29.925Q123.45625 29.2375 123.76875 28.64375Q124.09688 28.05 124.64375 27.659374Q125.05 27.3625 125.75313 27.159374Q126.47188 26.940624 127.28438 26.940624Q128.50313 26.940624 129.425 27.3Q130.34688 27.64375 130.78438 28.253124Q131.22188 28.846874 131.39375 29.846874L129.675 30.08125Q129.55 29.284374 128.9875 28.846874Q128.425 28.39375 127.40938 28.39375Q126.19063 28.39375 125.675 28.8Q125.15938 29.190624 125.15938 29.721874Q125.15938 30.065624 125.37813 30.346874Q125.58125 30.628124 126.05 30.815624Q126.31563 30.909374 127.59688 31.253124Q129.47188 31.753124 130.20625 32.08125Q130.94063 32.39375 131.3625 33.003124Q131.78438 33.596874 131.78438 34.503124Q131.78438 35.378124 131.26875 36.159374Q130.75313 36.940624 129.78438 37.3625Q128.81563 37.784374 127.59688 37.784374Q125.58125 37.784374 124.51875 36.940624Q123.45625 36.096874 123.15938 34.45625ZM137.70625 35.971874L137.95625 37.534374Q137.22188 37.690624 136.62813 37.690624Q135.675 37.690624 135.14375 37.39375Q134.62813 37.08125 134.40938 36.596874Q134.19063 36.096874 134.19063 34.51875L134.19063 28.55L132.90938 28.55L132.90938 27.175L134.19063 27.175L134.19063 24.6125L135.94063 23.55L135.94063 27.175L137.70625 27.175L137.70625 28.55L135.94063 28.55L135.94063 34.6125Q135.94063 35.3625 136.03438 35.58125Q136.12813 35.784374 136.33125 35.925Q136.55 36.05 136.94063 36.05Q137.22188 36.05 137.70625 35.971874ZM146.97188 34.20625L148.78438 34.440624Q148.3625 36.01875 147.19063 36.909374Q146.03438 37.784374 144.22188 37.784374Q141.95625 37.784374 140.6125 36.39375Q139.28438 34.9875 139.28438 32.45625Q139.28438 29.83125 140.62813 28.39375Q141.97188 26.940624 144.12813 26.940624Q146.20625 26.940624 147.51875 28.3625Q148.84688 29.76875 148.84688 32.346874Q148.84688 32.503124 148.83125 32.815624L141.09688 32.815624Q141.19063 34.51875 142.06563 35.425Q142.94063 36.33125 144.2375 36.33125Q145.20625 36.33125 145.87813 35.83125Q146.56563 35.315624 146.97188 34.20625ZM141.19063 31.3625L146.9875 31.3625Q146.87813 30.065624 146.33125 29.409374Q145.4875 28.39375 144.14375 28.39375Q142.94063 28.39375 142.1125 29.20625Q141.28438 30.003124 141.19063 31.3625ZM143.09688 25.89375L144.39375 23.159374L146.69063 23.159374L144.55 25.89375L143.09688 25.89375ZM150.22188 32.3625Q150.22188 29.4875 151.81563 28.096874Q153.15938 26.940624 155.08125 26.940624Q157.22188 26.940624 158.56563 28.346874Q159.925 29.753124 159.925 32.221874Q159.925 34.221874 159.33125 35.378124Q158.7375 36.51875 157.58125 37.159374Q156.44063 37.784374 155.08125 37.784374Q152.89375 37.784374 151.55 36.39375Q150.22188 34.9875 150.22188 32.3625ZM152.01875 32.3625Q152.01875 34.3625 152.87813 35.346874Q153.75313 36.33125 155.08125 36.33125Q156.39375 36.33125 157.25313 35.346874Q158.12813 34.346874 158.12813 32.3Q158.12813 30.378124 157.25313 29.39375Q156.37813 28.39375 155.08125 28.39375Q153.75313 28.39375 152.87813 29.39375Q152.01875 30.378124 152.01875 32.3625ZM161.8625 41.51875L161.8625 27.175L163.47188 27.175L163.47188 28.51875Q164.03438 27.7375 164.7375 27.346874Q165.45625 26.940624 166.47188 26.940624Q167.8 26.940624 168.81563 27.628124Q169.83125 28.315624 170.34688 29.565624Q170.87813 30.8 170.87813 32.284374Q170.87813 33.878124 170.3 35.159374Q169.7375 36.425 168.64375 37.1125Q167.55 37.784374 166.34688 37.784374Q165.47188 37.784374 164.76875 37.409374Q164.08125 37.034374 163.62813 36.471874L163.62813 41.51875L161.8625 41.51875ZM163.45625 32.425Q163.45625 34.425 164.26875 35.378124Q165.08125 36.33125 166.2375 36.33125Q167.40938 36.33125 168.2375 35.346874Q169.08125 34.3625 169.08125 32.26875Q169.08125 30.3 168.25313 29.315624Q167.44063 28.315624 166.31563 28.315624Q165.19063 28.315624 164.31563 29.378124Q163.45625 30.425 163.45625 32.425ZM179.64375 36.26875Q178.65938 37.096874 177.75313 37.440624Q176.84688 37.784374 175.81563 37.784374Q174.1125 37.784374 173.19063 36.95625Q172.26875 36.1125 172.26875 34.815624Q172.26875 34.05 172.6125 33.425Q172.97188 32.8 173.53438 32.425Q174.09688 32.034374 174.8 31.83125Q175.31563 31.70625 176.3625 31.565624Q178.4875 31.315624 179.4875 30.971874Q179.50313 30.6125 179.50313 30.503124Q179.50313 29.440624 179.00313 28.9875Q178.33125 28.39375 177.00313 28.39375Q175.75313 28.39375 175.15938 28.83125Q174.58125 29.26875 174.3 30.378124L172.58125 30.14375Q172.81563 29.034374 173.34688 28.3625Q173.87813 27.675 174.89375 27.315624Q175.90938 26.940624 177.25313 26.940624Q178.58125 26.940624 179.40938 27.253124Q180.2375 27.565624 180.62813 28.05Q181.01875 28.51875 181.175 29.2375Q181.26875 29.690624 181.26875 30.8625L181.26875 33.20625Q181.26875 35.659374 181.37813 36.315624Q181.4875 36.95625 181.83125 37.55L179.9875 37.55Q179.72188 37.003124 179.64375 36.26875ZM179.4875 32.346874Q178.53438 32.7375 176.6125 33.003124Q175.53438 33.159374 175.08125 33.3625Q174.64375 33.55 174.39375 33.925Q174.14375 34.3 174.14375 34.76875Q174.14375 35.471874 174.675 35.940624Q175.20625 36.409374 176.2375 36.409374Q177.25313 36.409374 178.03438 35.971874Q178.83125 35.51875 179.20625 34.753124Q179.4875 34.14375 179.4875 32.9875L179.4875 32.346874ZM187.70625 35.971874L187.95625 37.534374Q187.22188 37.690624 186.62813 37.690624Q185.675 37.690624 185.14375 37.39375Q184.62813 37.08125 184.40938 36.596874Q184.19063 36.096874 184.19063 34.51875L184.19063 28.55L182.90938 28.55L182.90938 27.175L184.19063 27.175L184.19063 24.6125L185.94063 23.55L185.94063 27.175L187.70625 27.175L187.70625 28.55L185.94063 28.55L185.94063 34.6125Q185.94063 35.3625 186.03438 35.58125Q186.12813 35.784374 186.33125 35.925Q186.55 36.05 186.94063 36.05Q187.22188 36.05 187.70625 35.971874ZM189.8625 37.55L189.8625 23.2375L191.62813 23.2375L191.62813 28.3625Q192.8625 26.940624 194.7375 26.940624Q195.87813 26.940624 196.72188 27.39375Q197.58125 27.846874 197.94063 28.659374Q198.31563 29.45625 198.31563 30.971874L198.31563 37.55L196.56563 37.55L196.56563 30.971874Q196.56563 29.659374 195.9875 29.065624Q195.40938 28.45625 194.37813 28.45625Q193.59688 28.45625 192.89375 28.8625Q192.20625 29.26875 191.90938 29.971874Q191.62813 30.659374 191.62813 31.878124L191.62813 37.55L189.8625 37.55ZM206.97188 34.20625L208.78438 34.440624Q208.3625 36.01875 207.19063 36.909374Q206.03438 37.784374 204.22188 37.784374Q201.95625 37.784374 200.6125 36.39375Q199.28438 34.9875 199.28438 32.45625Q199.28438 29.83125 200.62813 28.39375Q201.97188 26.940624 204.12813 26.940624Q206.20625 26.940624 207.51875 28.3625Q208.84688 29.76875 208.84688 32.346874Q208.84688 32.503124 208.83125 32.815624L201.09688 32.815624Q201.19063 34.51875 202.06563 35.425Q202.94063 36.33125 204.2375 36.33125Q205.20625 36.33125 205.87813 35.83125Q206.56563 35.315624 206.97188 34.20625ZM201.19063 31.3625L206.9875 31.3625Q206.87813 30.065624 206.33125 29.409374Q205.4875 28.39375 204.14375 28.39375Q202.94063 28.39375 202.1125 29.20625Q201.28438 30.003124 201.19063 31.3625ZM211.33125 37.55L211.33125 35.55L213.33125 35.55L213.33125 37.55Q213.33125 38.659374 212.94063 39.33125Q212.55 40.01875 211.70625 40.378124L211.20625 39.628124Q211.76875 39.39375 212.03438 38.909374Q212.3 38.440624 212.33125 37.55L211.33125 37.55ZM222.8625 41.51875L222.8625 27.175L224.47188 27.175L224.47188 28.51875Q225.03438 27.7375 225.7375 27.346874Q226.45625 26.940624 227.47188 26.940624Q228.8 26.940624 229.81563 27.628124Q230.83125 28.315624 231.34688 29.565624Q231.87813 30.8 231.87813 32.284374Q231.87813 33.878124 231.3 35.159374Q230.7375 36.425 229.64375 37.1125Q228.55 37.784374 227.34688 37.784374Q226.47188 37.784374 225.76875 37.409374Q225.08125 37.034374 224.62813 36.471874L224.62813 41.51875L222.8625 41.51875ZM224.45625 32.425Q224.45625 34.425 225.26875 35.378124Q226.08125 36.33125 227.2375 36.33125Q228.40938 36.33125 229.2375 35.346874Q230.08125 34.3625 230.08125 32.26875Q230.08125 30.3 229.25313 29.315624Q228.44063 28.315624 227.31563 28.315624Q226.19063 28.315624 225.31563 29.378124Q224.45625 30.425 224.45625 32.425ZM240.97188 34.20625L242.78438 34.440624Q242.3625 36.01875 241.19063 36.909374Q240.03438 37.784374 238.22188 37.784374Q235.95625 37.784374 234.6125 36.39375Q233.28438 34.9875 233.28438 32.45625Q233.28438 29.83125 234.62813 28.39375Q235.97188 26.940624 238.12813 26.940624Q240.20625 26.940624 241.51875 28.3625Q242.84688 29.76875 242.84688 32.346874Q242.84688 32.503124 242.83125 32.815624L235.09688 32.815624Q235.19063 34.51875 236.06563 35.425Q236.94063 36.33125 238.2375 36.33125Q239.20625 36.33125 239.87813 35.83125Q240.56563 35.315624 240.97188 34.20625ZM235.19063 31.3625L240.9875 31.3625Q240.87813 30.065624 240.33125 29.409374Q239.4875 28.39375 238.14375 28.39375Q236.94063 28.39375 236.1125 29.20625Q235.28438 30.003124 235.19063 31.3625ZM244.8625 37.55L244.8625 27.175L246.45625 27.175L246.45625 28.659374Q247.59688 26.940624 249.75313 26.940624Q250.69063 26.940624 251.47188 27.284374Q252.26875 27.6125 252.65938 28.159374Q253.05 28.70625 253.20625 29.45625Q253.3 29.95625 253.3 31.175L253.3 37.55L251.53438 37.55L251.53438 31.2375Q251.53438 30.159374 251.33125 29.628124Q251.12813 29.096874 250.59688 28.784374Q250.08125 28.471874 249.37813 28.471874Q248.25313 28.471874 247.44063 29.190624Q246.62813 29.89375 246.62813 31.878124L246.62813 37.55L244.8625 37.55ZM254.15938 34.45625L255.90938 34.175Q256.05 35.221874 256.72186 35.784374Q257.39374 36.33125 258.59686 36.33125Q259.8 36.33125 260.3781 35.846874Q260.97186 35.346874 260.97186 34.690624Q260.97186 34.096874 260.45624 33.753124Q260.09686 33.51875 258.65936 33.159374Q256.72186 32.659374 255.97188 32.315624Q255.2375 31.95625 254.84688 31.33125Q254.45625 30.690624 254.45625 29.925Q254.45625 29.2375 254.76875 28.64375Q255.09688 28.05 255.64375 27.659374Q256.05 27.3625 256.7531 27.159374Q257.47186 26.940624 258.28436 26.940624Q259.5031 26.940624 260.425 27.3Q261.34686 27.64375 261.78436 28.253124Q262.22186 28.846874 262.39374 29.846874L260.675 30.08125Q260.55 29.284374 259.9875 28.846874Q259.425 28.39375 258.40936 28.39375Q257.1906 28.39375 256.675 28.8Q256.15936 29.190624 256.15936 29.721874Q256.15936 30.065624 256.3781 30.346874Q256.58124 30.628124 257.05 30.815624Q257.3156 30.909374 258.59686 31.253124Q260.47186 31.753124 261.20624 32.08125Q261.9406 32.39375 262.3625 33.003124Q262.78436 33.596874 262.78436 34.503124Q262.78436 35.378124 262.26874 36.159374Q261.7531 36.940624 260.78436 37.3625Q259.8156 37.784374 258.59686 37.784374Q256.58124 37.784374 255.51875 36.940624Q254.45625 36.096874 254.15938 34.45625ZM271.97186 34.20625L273.78436 34.440624Q273.3625 36.01875 272.1906 36.909374Q271.03436 37.784374 269.22186 37.784374Q266.95624 37.784374 265.6125 36.39375Q264.28436 34.9875 264.28436 32.45625Q264.28436 29.83125 265.6281 28.39375Q266.97186 26.940624 269.1281 26.940624Q271.20624 26.940624 272.51874 28.3625Q273.84686 29.76875 273.84686 32.346874Q273.84686 32.503124 273.83124 32.815624L266.09686 32.815624Q266.1906 34.51875 267.0656 35.425Q267.9406 36.33125 269.2375 36.33125Q270.20624 36.33125 270.8781 35.83125Q271.5656 35.315624 271.97186 34.20625ZM266.1906 31.3625L271.9875 31.3625Q271.8781 30.065624 271.33124 29.409374Q270.4875 28.39375 269.14374 28.39375Q267.9406 28.39375 267.1125 29.20625Q266.28436 30.003124 266.1906 31.3625ZM274.9406 37.55L274.9406 36.128124L281.55 28.55Q280.425 28.596874 279.5656 28.596874L275.33124 28.596874L275.33124 27.175L283.8156 27.175L283.8156 28.346874L278.1906 34.925L277.1125 36.128124Q278.28436 36.034374 279.33124 36.034374L284.1281 36.034374L284.1281 37.55L274.9406 37.55ZM284.1906 33.253124L284.1906 31.4875L289.58124 31.4875L289.58124 33.253124L284.1906 33.253124ZM294.7531 37.55L290.8 27.175L292.65936 27.175L294.89374 33.39375Q295.2531 34.39375 295.55 35.471874Q295.78436 34.659374 296.20624 33.503124L298.5031 27.175L300.3156 27.175L296.39374 37.55L294.7531 37.55ZM300.22186 32.3625Q300.22186 29.4875 301.8156 28.096874Q303.15936 26.940624 305.08124 26.940624Q307.22186 26.940624 308.5656 28.346874Q309.925 29.753124 309.925 32.221874Q309.925 34.221874 309.33124 35.378124Q308.7375 36.51875 307.58124 37.159374Q306.4406 37.784374 305.08124 37.784374Q302.89374 37.784374 301.55 36.39375Q300.22186 34.9875 300.22186 32.3625ZM302.01874 32.3625Q302.01874 34.3625 302.8781 35.346874Q303.7531 36.33125 305.08124 36.33125Q306.39374 36.33125 307.2531 35.346874Q308.1281 34.346874 308.1281 32.3Q308.1281 30.378124 307.2531 29.39375Q306.3781 28.39375 305.08124 28.39375Q303.7531 28.39375 302.8781 29.39375Q302.01874 30.378124 302.01874 32.3625ZM318.65936 37.55L318.65936 36.01875Q317.45624 37.784374 315.3781 37.784374Q314.45624 37.784374 313.65936 37.440624Q312.8625 37.08125 312.47186 36.55Q312.09686 36.01875 311.9406 35.2375Q311.83124 34.721874 311.83124 33.596874L311.83124 27.175L313.58124 27.175L313.58124 32.925Q313.58124 34.3 313.6906 34.784374Q313.8625 35.471874 314.39374 35.878124Q314.9406 36.26875 315.72186 36.26875Q316.51874 36.26875 317.20624 35.8625Q317.90936 35.45625 318.1906 34.76875Q318.4875 34.065624 318.4875 32.7375L318.4875 27.175L320.2375 27.175L320.2375 37.55L318.65936 37.55ZM321.15936 34.45625L322.90936 34.175Q323.05 35.221874 323.72186 35.784374Q324.39374 36.33125 325.59686 36.33125Q326.8 36.33125 327.3781 35.846874Q327.97186 35.346874 327.97186 34.690624Q327.97186 34.096874 327.45624 33.753124Q327.09686 33.51875 325.65936 33.159374Q323.72186 32.659374 322.97186 32.315624Q322.2375 31.95625 321.84686 31.33125Q321.45624 30.690624 321.45624 29.925Q321.45624 29.2375 321.76874 28.64375Q322.09686 28.05 322.64374 27.659374Q323.05 27.3625 323.7531 27.159374Q324.47186 26.940624 325.28436 26.940624Q326.5031 26.940624 327.425 27.3Q328.34686 27.64375 328.78436 28.253124Q329.22186 28.846874 329.39374 29.846874L327.675 30.08125Q327.55 29.284374 326.9875 28.846874Q326.425 28.39375 325.40936 28.39375Q324.1906 28.39375 323.675 28.8Q323.15936 29.190624 323.15936 29.721874Q323.15936 30.065624 323.3781 30.346874Q323.58124 30.628124 324.05 30.815624Q324.3156 30.909374 325.59686 31.253124Q327.47186 31.753124 328.20624 32.08125Q328.9406 32.39375 329.3625 33.003124Q329.78436 33.596874 329.78436 34.503124Q329.78436 35.378124 329.26874 36.159374Q328.7531 36.940624 327.78436 37.3625Q326.8156 37.784374 325.59686 37.784374Q323.58124 37.784374 322.51874 36.940624Q321.45624 36.096874 321.15936 34.45625ZM344.4875 41.51875L344.4875 36.440624Q344.0656 37.01875 343.33124 37.409374Q342.59686 37.784374 341.76874 37.784374Q339.925 37.784374 338.58124 36.315624Q337.2531 34.83125 337.2531 32.26875Q337.2531 30.70625 337.78436 29.471874Q338.33124 28.221874 339.3625 27.58125Q340.39374 26.940624 341.6281 26.940624Q343.55 26.940624 344.65936 28.565624L344.65936 27.175L346.2375 27.175L346.2375 41.51875L344.4875 41.51875ZM339.0656 32.33125Q339.0656 34.33125 339.89374 35.33125Q340.7375 36.33125 341.90936 36.33125Q343.03436 36.33125 343.84686 35.39375Q344.65936 34.440624 344.65936 32.4875Q344.65936 30.425 343.8 29.378124Q342.9406 28.33125 341.8 28.33125Q340.65936 28.33125 339.8625 29.3Q339.0656 30.26875 339.0656 32.33125ZM355.65936 37.55L355.65936 36.01875Q354.45624 37.784374 352.3781 37.784374Q351.45624 37.784374 350.65936 37.440624Q349.8625 37.08125 349.47186 36.55Q349.09686 36.01875 348.9406 35.2375Q348.83124 34.721874 348.83124 33.596874L348.83124 27.175L350.58124 27.175L350.58124 32.925Q350.58124 34.3 350.6906 34.784374Q350.8625 35.471874 351.39374 35.878124Q351.9406 36.26875 352.72186 36.26875Q353.51874 36.26875 354.20624 35.8625Q354.90936 35.45625 355.1906 34.76875Q355.4875 34.065624 355.4875 32.7375L355.4875 27.175L357.2375 27.175L357.2375 37.55L355.65936 37.55ZM365.97186 34.20625L367.78436 34.440624Q367.3625 36.01875 366.1906 36.909374Q365.03436 37.784374 363.22186 37.784374Q360.95624 37.784374 359.6125 36.39375Q358.28436 34.9875 358.28436 32.45625Q358.28436 29.83125 359.6281 28.39375Q360.97186 26.940624 363.1281 26.940624Q365.20624 26.940624 366.51874 28.3625Q367.84686 29.76875 367.84686 32.346874Q367.84686 32.503124 367.83124 32.815624L360.09686 32.815624Q360.1906 34.51875 361.0656 35.425Q361.9406 36.33125 363.2375 36.33125Q364.20624 36.33125 364.8781 35.83125Q365.5656 35.315624 365.97186 34.20625ZM360.1906 31.3625L365.9875 31.3625Q365.8781 30.065624 365.33124 29.409374Q364.4875 28.39375 363.14374 28.39375Q361.9406 28.39375 361.1125 29.20625Q360.28436 30.003124 360.1906 31.3625ZM375.83124 37.55L375.83124 23.2375L377.58124 23.2375L377.58124 37.55L375.83124 37.55ZM379.76874 25.128124L379.76874 23.08125L381.64374 23.08125L381.64374 24.690624Q381.64374 26.003124 381.34686 26.58125Q380.925 27.378124 380.03436 27.76875L379.6125 27.08125Q380.1281 26.8625 380.3781 26.409374Q380.64374 25.940624 380.675 25.128124L379.76874 25.128124ZM390.64374 36.26875Q389.65936 37.096874 388.7531 37.440624Q387.84686 37.784374 386.8156 37.784374Q385.1125 37.784374 384.1906 36.95625Q383.26874 36.1125 383.26874 34.815624Q383.26874 34.05 383.6125 33.425Q383.97186 32.8 384.53436 32.425Q385.09686 32.034374 385.8 31.83125Q386.3156 31.70625 387.3625 31.565624Q389.4875 31.315624 390.4875 30.971874Q390.5031 30.6125 390.5031 30.503124Q390.5031 29.440624 390.0031 28.9875Q389.33124 28.39375 388.0031 28.39375Q386.7531 28.39375 386.15936 28.83125Q385.58124 29.26875 385.3 30.378124L383.58124 30.14375Q383.8156 29.034374 384.34686 28.3625Q384.8781 27.675 385.89374 27.315624Q386.90936 26.940624 388.2531 26.940624Q389.58124 26.940624 390.40936 27.253124Q391.2375 27.565624 391.6281 28.05Q392.01874 28.51875 392.175 29.2375Q392.26874 29.690624 392.26874 30.8625L392.26874 33.20625Q392.26874 35.659374 392.3781 36.315624Q392.4875 36.95625 392.83124 37.55L390.9875 37.55Q390.72186 37.003124 390.64374 36.26875ZM390.4875 32.346874Q389.53436 32.7375 387.6125 33.003124Q386.53436 33.159374 386.08124 33.3625Q385.64374 33.55 385.39374 33.925Q385.14374 34.3 385.14374 34.76875Q385.14374 35.471874 385.675 35.940624Q386.20624 36.409374 387.2375 36.409374Q388.2531 36.409374 389.03436 35.971874Q389.83124 35.51875 390.20624 34.753124Q390.4875 34.14375 390.4875 32.9875L390.4875 32.346874ZM401.64374 33.753124L403.3625 33.971874Q403.08124 35.76875 401.90936 36.784374Q400.7531 37.784374 399.05 37.784374Q396.925 37.784374 395.6281 36.39375Q394.33124 35.003124 394.33124 32.409374Q394.33124 30.721874 394.8781 29.471874Q395.4406 28.20625 396.58124 27.58125Q397.72186 26.940624 399.0656 26.940624Q400.7531 26.940624 401.8156 27.8Q402.89374 28.659374 403.20624 30.221874L401.4875 30.4875Q401.2531 29.440624 400.6281 28.925Q400.0031 28.39375 399.1281 28.39375Q397.8 28.39375 396.97186 29.346874Q396.14374 30.3 396.14374 32.346874Q396.14374 34.440624 396.9406 35.39375Q397.7375 36.33125 399.03436 36.33125Q400.0656 36.33125 400.7531 35.70625Q401.45624 35.065624 401.64374 33.753124ZM411.64374 33.753124L413.3625 33.971874Q413.08124 35.76875 411.90936 36.784374Q410.7531 37.784374 409.05 37.784374Q406.925 37.784374 405.6281 36.39375Q404.33124 35.003124 404.33124 32.409374Q404.33124 30.721874 404.8781 29.471874Q405.4406 28.20625 406.58124 27.58125Q407.72186 26.940624 409.0656 26.940624Q410.7531 26.940624 411.8156 27.8Q412.89374 28.659374 413.20624 30.221874L411.4875 30.4875Q411.2531 29.440624 410.6281 28.925Q410.0031 28.39375 409.1281 28.39375Q407.8 28.39375 406.97186 29.346874Q406.14374 30.3 406.14374 32.346874Q406.14374 34.440624 406.9406 35.39375Q407.7375 36.33125 409.03436 36.33125Q410.0656 36.33125 410.7531 35.70625Q411.45624 35.065624 411.64374 33.753124ZM421.97186 34.20625L423.78436 34.440624Q423.3625 36.01875 422.1906 36.909374Q421.03436 37.784374 419.22186 37.784374Q416.95624 37.784374 415.6125 36.39375Q414.28436 34.9875 414.28436 32.45625Q414.28436 29.83125 415.6281 28.39375Q416.97186 26.940624 419.1281 26.940624Q421.20624 26.940624 422.51874 28.3625Q423.84686 29.76875 423.84686 32.346874Q423.84686 32.503124 423.83124 32.815624L416.09686 32.815624Q416.1906 34.51875 417.0656 35.425Q417.9406 36.33125 419.2375 36.33125Q420.20624 36.33125 420.8781 35.83125Q421.5656 35.315624 421.97186 34.20625ZM416.1906 31.3625L421.9875 31.3625Q421.8781 30.065624 421.33124 29.409374Q420.4875 28.39375 419.14374 28.39375Q417.9406 28.39375 417.1125 29.20625Q416.28436 30.003124 416.1906 31.3625ZM420.2531 25.89375L418.83124 25.89375L416.58124 23.159374L418.925 23.159374L420.2531 25.89375ZM425.15936 34.45625L426.90936 34.175Q427.05 35.221874 427.72186 35.784374Q428.39374 36.33125 429.59686 36.33125Q430.8 36.33125 431.3781 35.846874Q431.97186 35.346874 431.97186 34.690624Q431.97186 34.096874 431.45624 33.753124Q431.09686 33.51875 429.65936 33.159374Q427.72186 32.659374 426.97186 32.315624Q426.2375 31.95625 425.84686 31.33125Q425.45624 30.690624 425.45624 29.925Q425.45624 29.2375 425.76874 28.64375Q426.09686 28.05 426.64374 27.659374Q427.05 27.3625 427.7531 27.159374Q428.47186 26.940624 429.28436 26.940624Q430.5031 26.940624 431.425 27.3Q432.34686 27.64375 432.78436 28.253124Q433.22186 28.846874 433.39374 29.846874L431.675 30.08125Q431.55 29.284374 430.9875 28.846874Q430.425 28.39375 429.40936 28.39375Q428.1906 28.39375 427.675 28.8Q427.15936 29.190624 427.15936 29.721874Q427.15936 30.065624 427.3781 30.346874Q427.58124 30.628124 428.05 30.815624Q428.3156 30.909374 429.59686 31.253124Q431.47186 31.753124 432.20624 32.08125Q432.9406 32.39375 433.3625 33.003124Q433.78436 33.596874 433.78436 34.503124Q433.78436 35.378124 433.26874 36.159374Q432.7531 36.940624 431.78436 37.3625Q430.8156 37.784374 429.59686 37.784374Q427.58124 37.784374 426.51874 36.940624Q425.45624 36.096874 425.15936 34.45625ZM448.64374 36.26875Q447.65936 37.096874 446.7531 37.440624Q445.84686 37.784374 444.8156 37.784374Q443.1125 37.784374 442.1906 36.95625Q441.26874 36.1125 441.26874 34.815624Q441.26874 34.05 441.6125 33.425Q441.97186 32.8 442.53436 32.425Q443.09686 32.034374 443.8 31.83125Q444.3156 31.70625 445.3625 31.565624Q447.4875 31.315624 448.4875 30.971874Q448.5031 30.6125 448.5031 30.503124Q448.5031 29.440624 448.0031 28.9875Q447.33124 28.39375 446.0031 28.39375Q444.7531 28.39375 444.15936 28.83125Q443.58124 29.26875 443.3 30.378124L441.58124 30.14375Q441.8156 29.034374 442.34686 28.3625Q442.8781 27.675 443.89374 27.315624Q444.90936 26.940624 446.2531 26.940624Q447.58124 26.940624 448.40936 27.253124Q449.2375 27.565624 449.6281 28.05Q450.01874 28.51875 450.175 29.2375Q450.26874 29.690624 450.26874 30.8625L450.26874 33.20625Q450.26874 35.659374 450.3781 36.315624Q450.4875 36.95625 450.83124 37.55L448.9875 37.55Q448.72186 37.003124 448.64374 36.26875ZM448.4875 32.346874Q447.53436 32.7375 445.6125 33.003124Q444.53436 33.159374 444.08124 33.3625Q443.64374 33.55 443.39374 33.925Q443.14374 34.3 443.14374 34.76875Q443.14374 35.471874 443.675 35.940624Q444.20624 36.409374 445.2375 36.409374Q446.2531 36.409374 447.03436 35.971874Q447.83124 35.51875 448.20624 34.753124Q448.4875 34.14375 448.4875 32.9875L448.4875 32.346874ZM459.65936 37.55L459.65936 36.01875Q458.45624 37.784374 456.3781 37.784374Q455.45624 37.784374 454.65936 37.440624Q453.8625 37.08125 453.47186 36.55Q453.09686 36.01875 452.9406 35.2375Q452.83124 34.721874 452.83124 33.596874L452.83124 27.175L454.58124 27.175L454.58124 32.925Q454.58124 34.3 454.6906 34.784374Q454.8625 35.471874 455.39374 35.878124Q455.9406 36.26875 456.72186 36.26875Q457.51874 36.26875 458.20624 35.8625Q458.90936 35.45625 459.1906 34.76875Q459.4875 34.065624 459.4875 32.7375L459.4875 27.175L461.2375 27.175L461.2375 37.55L459.65936 37.55ZM461.6906 37.55L465.4875 32.159374L461.9875 27.175L464.175 27.175L465.76874 29.6125Q466.22186 30.3 466.4875 30.76875Q466.925 30.128124 467.28436 29.628124L469.03436 27.175L471.1281 27.175L467.55 32.065624L471.40936 37.55L469.2531 37.55L467.1125 34.33125L466.55 33.45625L463.83124 37.55L461.6906 37.55ZM477.15936 34.45625L478.90936 34.175Q479.05 35.221874 479.72186 35.784374Q480.39374 36.33125 481.59686 36.33125Q482.8 36.33125 483.3781 35.846874Q483.97186 35.346874 483.97186 34.690624Q483.97186 34.096874 483.45624 33.753124Q483.09686 33.51875 481.65936 33.159374Q479.72186 32.659374 478.97186 32.315624Q478.2375 31.95625 477.84686 31.33125Q477.45624 30.690624 477.45624 29.925Q477.45624 29.2375 477.76874 28.64375Q478.09686 28.05 478.64374 27.659374Q479.05 27.3625 479.7531 27.159374Q480.47186 26.940624 481.28436 26.940624Q482.5031 26.940624 483.425 27.3Q484.34686 27.64375 484.78436 28.253124Q485.22186 28.846874 485.39374 29.846874L483.675 30.08125Q483.55 29.284374 482.9875 28.846874Q482.425 28.39375 481.40936 28.39375Q480.1906 28.39375 479.675 28.8Q479.15936 29.190624 479.15936 29.721874Q479.15936 30.065624 479.3781 30.346874Q479.58124 30.628124 480.05 30.815624Q480.3156 30.909374 481.59686 31.253124Q483.47186 31.753124 484.20624 32.08125Q484.9406 32.39375 485.3625 33.003124Q485.78436 33.596874 485.78436 34.503124Q485.78436 35.378124 485.26874 36.159374Q484.7531 36.940624 483.78436 37.3625Q482.8156 37.784374 481.59686 37.784374Q479.58124 37.784374 478.51874 36.940624Q477.45624 36.096874 477.15936 34.45625ZM487.22186 32.3625Q487.22186 29.4875 488.8156 28.096874Q490.15936 26.940624 492.08124 26.940624Q494.22186 26.940624 495.5656 28.346874Q496.925 29.753124 496.925 32.221874Q496.925 34.221874 496.33124 35.378124Q495.7375 36.51875 494.58124 37.159374Q493.4406 37.784374 492.08124 37.784374Q489.89374 37.784374 488.55 36.39375Q487.22186 34.9875 487.22186 32.3625ZM489.01874 32.3625Q489.01874 34.3625 489.8781 35.346874Q490.7531 36.33125 492.08124 36.33125Q493.39374 36.33125 494.2531 35.346874Q495.1281 34.346874 495.1281 32.3Q495.1281 30.378124 494.2531 29.39375Q493.3781 28.39375 492.08124 28.39375Q490.7531 28.39375 489.8781 29.39375Q489.01874 30.378124 489.01874 32.3625ZM498.8781 25.253124L498.8781 23.2375L500.64374 23.2375L500.64374 25.253124L498.8781 25.253124ZM498.8781 37.55L498.8781 27.175L500.64374 27.175L500.64374 37.55L498.8781 37.55ZM502.8625 37.55L502.8625 27.175L504.45624 27.175L504.45624 28.659374Q505.59686 26.940624 507.7531 26.940624Q508.6906 26.940624 509.47186 27.284374Q510.26874 27.6125 510.65936 28.159374Q511.05 28.70625 511.20624 29.45625Q511.3 29.95625 511.3 31.175L511.3 37.55L509.53436 37.55L509.53436 31.2375Q509.53436 30.159374 509.33124 29.628124Q509.1281 29.096874 508.59686 28.784374Q508.08124 28.471874 507.3781 28.471874Q506.2531 28.471874 505.4406 29.190624Q504.6281 29.89375 504.6281 31.878124L504.6281 37.55L502.8625 37.55ZM512.15936 34.45625L513.90936 34.175Q514.05 35.221874 514.72186 35.784374Q515.39374 36.33125 516.59686 36.33125Q517.8 36.33125 518.3781 35.846874Q518.97186 35.346874 518.97186 34.690624Q518.97186 34.096874 518.45624 33.753124Q518.09686 33.51875 516.65936 33.159374Q514.72186 32.659374 513.97186 32.315624Q513.2375 31.95625 512.84686 31.33125Q512.45624 30.690624 512.45624 29.925Q512.45624 29.2375 512.76874 28.64375Q513.09686 28.05 513.64374 27.659374Q514.05 27.3625 514.7531 27.159374Q515.47186 26.940624 516.28436 26.940624Q517.5031 26.940624 518.425 27.3Q519.34686 27.64375 519.78436 28.253124Q520.22186 28.846874 520.39374 29.846874L518.675 30.08125Q518.55 29.284374 517.9875 28.846874Q517.425 28.39375 516.40936 28.39375Q515.1906 28.39375 514.675 28.8Q514.15936 29.190624 514.15936 29.721874Q514.15936 30.065624 514.3781 30.346874Q514.58124 30.628124 515.05 30.815624Q515.3156 30.909374 516.59686 31.253124Q518.47186 31.753124 519.20624 32.08125Q519.9406 32.39375 520.3625 33.003124Q520.78436 33.596874 520.78436 34.503124Q520.78436 35.378124 520.26874 36.159374Q519.7531 36.940624 518.78436 37.3625Q517.8156 37.784374 516.59686 37.784374Q514.58124 37.784374 513.51874 36.940624Q512.45624 36.096874 512.15936 34.45625ZM535.97186 34.20625L537.78436 34.440624Q537.3625 36.01875 536.1906 36.909374Q535.03436 37.784374 533.22186 37.784374Q530.95624 37.784374 529.6125 36.39375Q528.28436 34.9875 528.28436 32.45625Q528.28436 29.83125 529.6281 28.39375Q530.97186 26.940624 533.1281 26.940624Q535.20624 26.940624 536.51874 28.3625Q537.84686 29.76875 537.84686 32.346874Q537.84686 32.503124 537.83124 32.815624L530.09686 32.815624Q530.1906 34.51875 531.0656 35.425Q531.9406 36.33125 533.2375 36.33125Q534.20624 36.33125 534.8781 35.83125Q535.5656 35.315624 535.97186 34.20625ZM530.1906 31.3625L535.9875 31.3625Q535.8781 30.065624 535.33124 29.409374Q534.4875 28.39375 533.14374 28.39375Q531.9406 28.39375 531.1125 29.20625Q530.28436 30.003124 530.1906 31.3625ZM539.8625 37.55L539.8625 27.175L541.45624 27.175L541.45624 28.659374Q542.59686 26.940624 544.7531 26.940624Q545.6906 26.940624 546.47186 27.284374Q547.26874 27.6125 547.65936 28.159374Q548.05 28.70625 548.20624 29.45625Q548.3 29.95625 548.3 31.175L548.3 37.55L546.53436 37.55L546.53436 31.2375Q546.53436 30.159374 546.33124 29.628124Q546.1281 29.096874 545.59686 28.784374Q545.08124 28.471874 544.3781 28.471874Q543.2531 28.471874 542.4406 29.190624Q541.6281 29.89375 541.6281 31.878124L541.6281 37.55L539.8625 37.55Z" fill-rule="nonzero"/><path fill="#757575" d="M19.221874 56.3625Q19.221874 53.4875 20.815624 52.096874Q22.159374 50.940624 24.08125 50.940624Q26.221874 50.940624 27.565624 52.346874Q28.925 53.753124 28.925 56.221874Q28.925 58.221874 28.33125 59.378124Q27.7375 60.51875 26.58125 61.159374Q25.440624 61.784374 24.08125 61.784374Q21.89375 61.784374 20.55 60.39375Q19.221874 58.9875 19.221874 56.3625ZM21.01875 56.3625Q21.01875 58.3625 21.878124 59.346874Q22.753124 60.33125 24.08125 60.33125Q25.39375 60.33125 26.253124 59.346874Q27.128124 58.346874 27.128124 56.3Q27.128124 54.378124 26.253124 53.39375Q25.378124 52.39375 24.08125 52.39375Q22.753124 52.39375 21.878124 53.39375Q21.01875 54.378124 21.01875 56.3625ZM30.159374 58.45625L31.909374 58.175Q32.05 59.221874 32.721874 59.784374Q33.39375 60.33125 34.596874 60.33125Q35.8 60.33125 36.378124 59.846874Q36.971874 59.346874 36.971874 58.690624Q36.971874 58.096874 36.45625 57.753124Q36.096874 57.51875 34.659374 57.159374Q32.721874 56.659374 31.971874 56.315624Q31.2375 55.95625 30.846874 55.33125Q30.45625 54.690624 30.45625 53.925Q30.45625 53.2375 30.76875 52.64375Q31.096874 52.05 31.64375 51.659374Q32.05 51.3625 32.753124 51.159374Q33.471874 50.940624 34.284374 50.940624Q35.503124 50.940624 36.425 51.3Q37.346874 51.64375 37.784374 52.253124Q38.221874 52.846874 38.39375 53.846874L36.675 54.08125Q36.55 53.284374 35.9875 52.846874Q35.425 52.39375 34.409374 52.39375Q33.190624 52.39375 32.675 52.8Q32.159374 53.190624 32.159374 53.721874Q32.159374 54.065624 32.378124 54.346874Q32.58125 54.628124 33.05 54.815624Q33.315624 54.909374 34.596874 55.253124Q36.471874 55.753124 37.20625 56.08125Q37.940624 56.39375 38.3625 57.003124Q38.784374 57.596874 38.784374 58.503124Q38.784374 59.378124 38.26875 60.159374Q37.753124 60.940624 36.784374 61.3625Q35.815624 61.784374 34.596874 61.784374Q32.58125 61.784374 31.51875 60.940624Q30.45625 60.096874 30.159374 58.45625ZM44.70625 59.971874L44.95625 61.534374Q44.221874 61.690624 43.628124 61.690624Q42.675 61.690624 42.14375 61.39375Q41.628124 61.08125 41.409374 60.596874Q41.190624 60.096874 41.190624 58.51875L41.190624 52.55L39.909374 52.55L39.909374 51.175L41.190624 51.175L41.190624 48.6125L42.940624 47.55L42.940624 51.175L44.70625 51.175L44.70625 52.55L42.940624 52.55L42.940624 58.6125Q42.940624 59.3625 43.034374 59.58125Q43.128124 59.784374 43.33125 59.925Q43.55 60.05 43.940624 60.05Q44.221874 60.05 44.70625 59.971874ZM53.971874 58.20625L55.784374 58.440624Q55.3625 60.01875 54.190624 60.909374Q53.034374 61.784374 51.221874 61.784374Q48.95625 61.784374 47.6125 60.39375Q46.284374 58.9875 46.284374 56.45625Q46.284374 53.83125 47.628124 52.39375Q48.971874 50.940624 51.128124 50.940624Q53.20625 50.940624 54.51875 52.3625Q55.846874 53.76875 55.846874 56.346874Q55.846874 56.503124 55.83125 56.815624L48.096874 56.815624Q48.190624 58.51875 49.065624 59.425Q49.940624 60.33125 51.2375 60.33125Q52.20625 60.33125 52.878124 59.83125Q53.565624 59.315624 53.971874 58.20625ZM48.190624 55.3625L53.9875 55.3625Q53.878124 54.065624 53.33125 53.409374Q52.4875 52.39375 51.14375 52.39375Q49.940624 52.39375 49.1125 53.20625Q48.284374 54.003124 48.190624 55.3625ZM50.096874 49.89375L51.39375 47.159374L53.690624 47.159374L51.55 49.89375L50.096874 49.89375ZM57.221874 56.3625Q57.221874 53.4875 58.815624 52.096874Q60.159374 50.940624 62.08125 50.940624Q64.22188 50.940624 65.56563 52.346874Q66.925 53.753124 66.925 56.221874Q66.925 58.221874 66.33125 59.378124Q65.7375 60.51875 64.58125 61.159374Q63.440624 61.784374 62.08125 61.784374Q59.89375 61.784374 58.55 60.39375Q57.221874 58.9875 57.221874 56.3625ZM59.01875 56.3625Q59.01875 58.3625 59.878124 59.346874Q60.753124 60.33125 62.08125 60.33125Q63.39375 60.33125 64.25313 59.346874Q65.12813 58.346874 65.12813 56.3Q65.12813 54.378124 64.25313 53.39375Q63.378124 52.39375 62.08125 52.39375Q60.753124 52.39375 59.878124 53.39375Q59.01875 54.378124 59.01875 56.3625ZM68.8625 65.51875L68.8625 51.175L70.47188 51.175L70.47188 52.51875Q71.03438 51.7375 71.7375 51.346874Q72.45625 50.940624 73.47188 50.940624Q74.8 50.940624 75.81563 51.628124Q76.83125 52.315624 77.34688 53.565624Q77.87813 54.8 77.87813 56.284374Q77.87813 57.878124 77.3 59.159374Q76.7375 60.425 75.64375 61.1125Q74.55 61.784374 73.34688 61.784374Q72.47188 61.784374 71.76875 61.409374Q71.08125 61.034374 70.62813 60.471874L70.62813 65.51875L68.8625 65.51875ZM70.45625 56.425Q70.45625 58.425 71.26875 59.378124Q72.08125 60.33125 73.2375 60.33125Q74.40938 60.33125 75.2375 59.346874Q76.08125 58.3625 76.08125 56.26875Q76.08125 54.3 75.25313 53.315624Q74.44063 52.315624 73.31563 52.315624Q72.19063 52.315624 71.31563 53.378124Q70.45625 54.425 70.45625 56.425ZM86.64375 60.26875Q85.65938 61.096874 84.75313 61.440624Q83.84688 61.784374 82.81563 61.784374Q81.1125 61.784374 80.19063 60.95625Q79.26875 60.1125 79.26875 58.815624Q79.26875 58.05 79.6125 57.425Q79.97188 56.8 80.53438 56.425Q81.09688 56.034374 81.8 55.83125Q82.31563 55.70625 83.3625 55.565624Q85.4875 55.315624 86.4875 54.971874Q86.50313 54.6125 86.50313 54.503124Q86.50313 53.440624 86.00313 52.9875Q85.33125 52.39375 84.00313 52.39375Q82.75313 52.39375 82.15938 52.83125Q81.58125 53.26875 81.3 54.378124L79.58125 54.14375Q79.81563 53.034374 80.34688 52.3625Q80.87813 51.675 81.89375 51.315624Q82.90938 50.940624 84.25313 50.940624Q85.58125 50.940624 86.40938 51.253124Q87.2375 51.565624 87.62813 52.05Q88.01875 52.51875 88.175 53.2375Q88.26875 53.690624 88.26875 54.8625L88.26875 57.20625Q88.26875 59.659374 88.37813 60.315624Q88.4875 60.95625 88.83125 61.55L86.9875 61.55Q86.72188 61.003124 86.64375 60.26875ZM86.4875 56.346874Q85.53438 56.7375 83.6125 57.003124Q82.53438 57.159374 82.08125 57.3625Q81.64375 57.55 81.39375 57.925Q81.14375 58.3 81.14375 58.76875Q81.14375 59.471874 81.675 59.940624Q82.20625 60.409374 83.2375 60.409374Q84.25313 60.409374 85.03438 59.971874Q85.83125 59.51875 86.20625 58.753124Q86.4875 58.14375 86.4875 56.9875L86.4875 56.346874ZM94.70625 59.971874L94.95625 61.534374Q94.22188 61.690624 93.62813 61.690624Q92.675 61.690624 92.14375 61.39375Q91.62813 61.08125 91.40938 60.596874Q91.19063 60.096874 91.19063 58.51875L91.19063 52.55L89.90938 52.55L89.90938 51.175L91.19063 51.175L91.19063 48.6125L92.94063 47.55L92.94063 51.175L94.70625 51.175L94.70625 52.55L92.94063 52.55L92.94063 58.6125Q92.94063 59.3625 93.03438 59.58125Q93.12813 59.784374 93.33125 59.925Q93.55 60.05 93.94063 60.05Q94.22188 60.05 94.70625 59.971874ZM96.8625 61.55L96.8625 47.2375L98.62813 47.2375L98.62813 52.3625Q99.8625 50.940624 101.7375 50.940624Q102.87813 50.940624 103.72188 51.39375Q104.58125 51.846874 104.94063 52.659374Q105.31563 53.45625 105.31563 54.971874L105.31563 61.55L103.56563 61.55L103.56563 54.971874Q103.56563 53.659374 102.9875 53.065624Q102.40938 52.45625 101.37813 52.45625Q100.59688 52.45625 99.89375 52.8625Q99.20625 53.26875 98.90938 53.971874Q98.62813 54.659374 98.62813 55.878124L98.62813 61.55L96.8625 61.55ZM106.87813 49.253124L106.87813 47.2375L108.64375 47.2375L108.64375 49.253124L106.87813 49.253124ZM106.87813 61.55L106.87813 51.175L108.64375 51.175L108.64375 61.55L106.87813 61.55ZM117.97188 58.20625L119.78438 58.440624Q119.3625 60.01875 118.19063 60.909374Q117.03438 61.784374 115.22188 61.784374Q112.95625 61.784374 111.6125 60.39375Q110.28438 58.9875 110.28438 56.45625Q110.28438 53.83125 111.62813 52.39375Q112.97188 50.940624 115.12813 50.940624Q117.20625 50.940624 118.51875 52.3625Q119.84688 53.76875 119.84688 56.346874Q119.84688 56.503124 119.83125 56.815624L112.09688 56.815624Q112.19063 58.51875 113.06563 59.425Q113.94063 60.33125 115.2375 60.33125Q116.20625 60.33125 116.87813 59.83125Q117.56563 59.315624 117.97188 58.20625ZM112.19063 55.3625L117.9875 55.3625Q117.87813 54.065624 117.33125 53.409374Q116.4875 52.39375 115.14375 52.39375Q113.94063 52.39375 113.1125 53.20625Q112.28438 54.003124 112.19063 55.3625ZM134.64375 57.753124L136.3625 57.971874Q136.08125 59.76875 134.90938 60.784374Q133.75313 61.784374 132.05 61.784374Q129.925 61.784374 128.62813 60.39375Q127.33125 59.003124 127.33125 56.409374Q127.33125 54.721874 127.87813 53.471874Q128.44063 52.20625 129.58125 51.58125Q130.72188 50.940624 132.06563 50.940624Q133.75313 50.940624 134.81563 51.8Q135.89375 52.659374 136.20625 54.221874L134.4875 54.4875Q134.25313 53.440624 133.62813 52.925Q133.00313 52.39375 132.12813 52.39375Q130.8 52.39375 129.97188 53.346874Q129.14375 54.3 129.14375 56.346874Q129.14375 58.440624 129.94063 59.39375Q130.7375 60.33125 132.03438 60.33125Q133.06563 60.33125 133.75313 59.70625Q134.45625 59.065624 134.64375 57.753124ZM137.22188 56.3625Q137.22188 53.4875 138.81563 52.096874Q140.15938 50.940624 142.08125 50.940624Q144.22188 50.940624 145.56563 52.346874Q146.925 53.753124 146.925 56.221874Q146.925 58.221874 146.33125 59.378124Q145.7375 60.51875 144.58125 61.159374Q143.44063 61.784374 142.08125 61.784374Q139.89375 61.784374 138.55 60.39375Q137.22188 58.9875 137.22188 56.3625ZM139.01875 56.3625Q139.01875 58.3625 139.87813 59.346874Q140.75313 60.33125 142.08125 60.33125Q143.39375 60.33125 144.25313 59.346874Q145.12813 58.346874 145.12813 56.3Q145.12813 54.378124 144.25313 53.39375Q143.37813 52.39375 142.08125 52.39375Q140.75313 52.39375 139.87813 53.39375Q139.01875 54.378124 139.01875 56.3625ZM148.8625 61.55L148.8625 51.175L150.45625 51.175L150.45625 52.659374Q151.59688 50.940624 153.75313 50.940624Q154.69063 50.940624 155.47188 51.284374Q156.26875 51.6125 156.65938 52.159374Q157.05 52.70625 157.20625 53.45625Q157.3 53.95625 157.3 55.175L157.3 61.55L155.53438 61.55L155.53438 55.2375Q155.53438 54.159374 155.33125 53.628124Q155.12813 53.096874 154.59688 52.784374Q154.08125 52.471874 153.37813 52.471874Q152.25313 52.471874 151.44063 53.190624Q150.62813 53.89375 150.62813 55.878124L150.62813 61.55L148.8625 61.55ZM158.15938 58.45625L159.90938 58.175Q160.05 59.221874 160.72188 59.784374Q161.39375 60.33125 162.59688 60.33125Q163.8 60.33125 164.37813 59.846874Q164.97188 59.346874 164.97188 58.690624Q164.97188 58.096874 164.45625 57.753124Q164.09688 57.51875 162.65938 57.159374Q160.72188 56.659374 159.97188 56.315624Q159.2375 55.95625 158.84688 55.33125Q158.45625 54.690624 158.45625 53.925Q158.45625 53.2375 158.76875 52.64375Q159.09688 52.05 159.64375 51.659374Q160.05 51.3625 160.75313 51.159374Q161.47188 50.940624 162.28438 50.940624Q163.50313 50.940624 164.425 51.3Q165.34688 51.64375 165.78438 52.253124Q166.22188 52.846874 166.39375 53.846874L164.675 54.08125Q164.55 53.284374 163.9875 52.846874Q163.425 52.39375 162.40938 52.39375Q161.19063 52.39375 160.675 52.8Q160.15938 53.190624 160.15938 53.721874Q160.15938 54.065624 160.37813 54.346874Q160.58125 54.628124 161.05 54.815624Q161.31563 54.909374 162.59688 55.253124Q164.47188 55.753124 165.20625 56.08125Q165.94063 56.39375 166.3625 57.003124Q166.78438 57.596874 166.78438 58.503124Q166.78438 59.378124 166.26875 60.159374Q165.75313 60.940624 164.78438 61.3625Q163.81563 61.784374 162.59688 61.784374Q160.58125 61.784374 159.51875 60.940624Q158.45625 60.096874 158.15938 58.45625ZM172.70625 59.971874L172.95625 61.534374Q172.22188 61.690624 171.62813 61.690624Q170.675 61.690624 170.14375 61.39375Q169.62813 61.08125 169.40938 60.596874Q169.19063 60.096874 169.19063 58.51875L169.19063 52.55L167.90938 52.55L167.90938 51.175L169.19063 51.175L169.19063 48.6125L170.94063 47.55L170.94063 51.175L172.70625 51.175L172.70625 52.55L170.94063 52.55L170.94063 58.6125Q170.94063 59.3625 171.03438 59.58125Q171.12813 59.784374 171.33125 59.925Q171.55 60.05 171.94063 60.05Q172.22188 60.05 172.70625 59.971874ZM174.87813 49.253124L174.87813 47.2375L176.64375 47.2375L176.64375 49.253124L174.87813 49.253124ZM174.87813 61.55L174.87813 51.175L176.64375 51.175L176.64375 61.55L174.87813 61.55ZM182.70625 59.971874L182.95625 61.534374Q182.22188 61.690624 181.62813 61.690624Q180.675 61.690624 180.14375 61.39375Q179.62813 61.08125 179.40938 60.596874Q179.19063 60.096874 179.19063 58.51875L179.19063 52.55L177.90938 52.55L177.90938 51.175L179.19063 51.175L179.19063 48.6125L180.94063 47.55L180.94063 51.175L182.70625 51.175L182.70625 52.55L180.94063 52.55L180.94063 58.6125Q180.94063 59.3625 181.03438 59.58125Q181.12813 59.784374 181.33125 59.925Q181.55 60.05 181.94063 60.05Q182.22188 60.05 182.70625 59.971874ZM191.65938 61.55L191.65938 60.01875Q190.45625 61.784374 188.37813 61.784374Q187.45625 61.784374 186.65938 61.440624Q185.8625 61.08125 185.47188 60.55Q185.09688 60.01875 184.94063 59.2375Q184.83125 58.721874 184.83125 57.596874L184.83125 51.175L186.58125 51.175L186.58125 56.925Q186.58125 58.3 186.69063 58.784374Q186.8625 59.471874 187.39375 59.878124Q187.94063 60.26875 188.72188 60.26875Q189.51875 60.26875 190.20625 59.8625Q190.90938 59.45625 191.19063 58.76875Q191.4875 58.065624 191.4875 56.7375L191.4875 51.175L193.2375 51.175L193.2375 61.55L191.65938 61.55ZM201.97188 58.20625L203.78438 58.440624Q203.3625 60.01875 202.19063 60.909374Q201.03438 61.784374 199.22188 61.784374Q196.95625 61.784374 195.6125 60.39375Q194.28438 58.9875 194.28438 56.45625Q194.28438 53.83125 195.62813 52.39375Q196.97188 50.940624 199.12813 50.940624Q201.20625 50.940624 202.51875 52.3625Q203.84688 53.76875 203.84688 56.346874Q203.84688 56.503124 203.83125 56.815624L196.09688 56.815624Q196.19063 58.51875 197.06563 59.425Q197.94063 60.33125 199.2375 60.33125Q200.20625 60.33125 200.87813 59.83125Q201.56563 59.315624 201.97188 58.20625ZM196.19063 55.3625L201.9875 55.3625Q201.87813 54.065624 201.33125 53.409374Q200.4875 52.39375 199.14375 52.39375Q197.94063 52.39375 197.1125 53.20625Q196.28438 54.003124 196.19063 55.3625ZM218.65938 61.55L218.65938 60.01875Q217.45625 61.784374 215.37813 61.784374Q214.45625 61.784374 213.65938 61.440624Q212.8625 61.08125 212.47188 60.55Q212.09688 60.01875 211.94063 59.2375Q211.83125 58.721874 211.83125 57.596874L211.83125 51.175L213.58125 51.175L213.58125 56.925Q213.58125 58.3 213.69063 58.784374Q213.8625 59.471874 214.39375 59.878124Q214.94063 60.26875 215.72188 60.26875Q216.51875 60.26875 217.20625 59.8625Q217.90938 59.45625 218.19063 58.76875Q218.4875 58.065624 218.4875 56.7375L218.4875 51.175L220.2375 51.175L220.2375 61.55L218.65938 61.55ZM221.8625 61.55L221.8625 51.175L223.45625 51.175L223.45625 52.659374Q224.59688 50.940624 226.75313 50.940624Q227.69063 50.940624 228.47188 51.284374Q229.26875 51.6125 229.65938 52.159374Q230.05 52.70625 230.20625 53.45625Q230.3 53.95625 230.3 55.175L230.3 61.55L228.53438 61.55L228.53438 55.2375Q228.53438 54.159374 228.33125 53.628124Q228.12813 53.096874 227.59688 52.784374Q227.08125 52.471874 226.37813 52.471874Q225.25313 52.471874 224.44063 53.190624Q223.62813 53.89375 223.62813 55.878124L223.62813 61.55L221.8625 61.55ZM244.97188 58.20625L246.78438 58.440624Q246.3625 60.01875 245.19063 60.909374Q244.03438 61.784374 242.22188 61.784374Q239.95625 61.784374 238.6125 60.39375Q237.28438 58.9875 237.28438 56.45625Q237.28438 53.83125 238.62813 52.39375Q239.97188 50.940624 242.12813 50.940624Q244.20625 50.940624 245.51875 52.3625Q246.84688 53.76875 246.84688 56.346874Q246.84688 56.503124 246.83125 56.815624L239.09688 56.815624Q239.19063 58.51875 240.06563 59.425Q240.94063 60.33125 242.2375 60.33125Q243.20625 60.33125 243.87813 59.83125Q244.56563 59.315624 244.97188 58.20625ZM239.19063 55.3625L244.9875 55.3625Q244.87813 54.065624 244.33125 53.409374Q243.4875 52.39375 242.14375 52.39375Q240.94063 52.39375 240.1125 53.20625Q239.28438 54.003124 239.19063 55.3625ZM248.8625 61.55L248.8625 51.175L250.45625 51.175L250.45625 52.659374Q251.59688 50.940624 253.75313 50.940624Q254.69063 50.940624 255.47188 51.284374Q256.26874 51.6125 256.65936 52.159374Q257.05 52.70625 257.20624 53.45625Q257.3 53.95625 257.3 55.175L257.3 61.55L255.53438 61.55L255.53438 55.2375Q255.53438 54.159374 255.33125 53.628124Q255.12813 53.096874 254.59688 52.784374Q254.08125 52.471874 253.37813 52.471874Q252.25313 52.471874 251.44063 53.190624Q250.62813 53.89375 250.62813 55.878124L250.62813 61.55L248.8625 61.55ZM258.8625 49.26875L258.8625 47.2375L260.6125 47.2375L260.6125 49.26875L258.8625 49.26875ZM256.6281 65.58125L256.95624 64.08125Q257.4875 64.22188 257.8 64.22188Q258.33124 64.22188 258.59686 63.8625Q258.8625 63.503124 258.8625 62.08125L258.8625 51.175L260.6125 51.175L260.6125 62.1125Q260.6125 64.03438 260.1125 64.78438Q259.4875 65.75313 258.0031 65.75313Q257.3 65.75313 256.6281 65.58125ZM269.97186 58.20625L271.78436 58.440624Q271.3625 60.01875 270.1906 60.909374Q269.03436 61.784374 267.22186 61.784374Q264.95624 61.784374 263.6125 60.39375Q262.28436 58.9875 262.28436 56.45625Q262.28436 53.83125 263.6281 52.39375Q264.97186 50.940624 267.1281 50.940624Q269.20624 50.940624 270.51874 52.3625Q271.84686 53.76875 271.84686 56.346874Q271.84686 56.503124 271.83124 56.815624L264.09686 56.815624Q264.1906 58.51875 265.0656 59.425Q265.9406 60.33125 267.2375 60.33125Q268.20624 60.33125 268.8781 59.83125Q269.5656 59.315624 269.97186 58.20625ZM264.1906 55.3625L269.9875 55.3625Q269.8781 54.065624 269.33124 53.409374Q268.4875 52.39375 267.14374 52.39375Q265.9406 52.39375 265.1125 53.20625Q264.28436 54.003124 264.1906 55.3625ZM280.65936 61.55L280.65936 60.01875Q279.45624 61.784374 277.3781 61.784374Q276.45624 61.784374 275.65936 61.440624Q274.8625 61.08125 274.47186 60.55Q274.09686 60.01875 273.9406 59.2375Q273.83124 58.721874 273.83124 57.596874L273.83124 51.175L275.58124 51.175L275.58124 56.925Q275.58124 58.3 275.6906 58.784374Q275.8625 59.471874 276.39374 59.878124Q276.9406 60.26875 277.72186 60.26875Q278.51874 60.26875 279.20624 59.8625Q279.90936 59.45625 280.1906 58.76875Q280.4875 58.065624 280.4875 56.7375L280.4875 51.175L282.2375 51.175L282.2375 61.55L280.65936 61.55ZM296.59686 61.55L296.59686 60.2375Q295.6125 61.784374 293.6906 61.784374Q292.45624 61.784374 291.40936 61.096874Q290.3781 60.409374 289.8 59.190624Q289.2375 57.971874 289.2375 56.378124Q289.2375 54.815624 289.7531 53.55Q290.26874 52.284374 291.3 51.6125Q292.34686 50.940624 293.6125 50.940624Q294.55 50.940624 295.28436 51.346874Q296.01874 51.7375 296.4875 52.3625L296.4875 47.2375L298.22186 47.2375L298.22186 61.55L296.59686 61.55ZM291.03436 56.378124Q291.03436 58.3625 291.8781 59.346874Q292.72186 60.33125 293.8625 60.33125Q295.01874 60.33125 295.8156 59.39375Q296.6281 58.45625 296.6281 56.51875Q296.6281 54.39375 295.8 53.39375Q294.9875 52.39375 293.78436 52.39375Q292.6125 52.39375 291.8156 53.3625Q291.03436 54.315624 291.03436 56.378124ZM307.97186 58.20625L309.78436 58.440624Q309.3625 60.01875 308.1906 60.909374Q307.03436 61.784374 305.22186 61.784374Q302.95624 61.784374 301.6125 60.39375Q300.28436 58.9875 300.28436 56.45625Q300.28436 53.83125 301.6281 52.39375Q302.97186 50.940624 305.1281 50.940624Q307.20624 50.940624 308.51874 52.3625Q309.84686 53.76875 309.84686 56.346874Q309.84686 56.503124 309.83124 56.815624L302.09686 56.815624Q302.1906 58.51875 303.0656 59.425Q303.9406 60.33125 305.2375 60.33125Q306.20624 60.33125 306.8781 59.83125Q307.5656 59.315624 307.97186 58.20625ZM302.1906 55.3625L307.9875 55.3625Q307.8781 54.065624 307.33124 53.409374Q306.4875 52.39375 305.14374 52.39375Q303.9406 52.39375 303.1125 53.20625Q302.28436 54.003124 302.1906 55.3625ZM317.15936 58.45625L318.90936 58.175Q319.05 59.221874 319.72186 59.784374Q320.39374 60.33125 321.59686 60.33125Q322.8 60.33125 323.3781 59.846874Q323.97186 59.346874 323.97186 58.690624Q323.97186 58.096874 323.45624 57.753124Q323.09686 57.51875 321.65936 57.159374Q319.72186 56.659374 318.97186 56.315624Q318.2375 55.95625 317.84686 55.33125Q317.45624 54.690624 317.45624 53.925Q317.45624 53.2375 317.76874 52.64375Q318.09686 52.05 318.64374 51.659374Q319.05 51.3625 319.7531 51.159374Q320.47186 50.940624 321.28436 50.940624Q322.5031 50.940624 323.425 51.3Q324.34686 51.64375 324.78436 52.253124Q325.22186 52.846874 325.39374 53.846874L323.675 54.08125Q323.55 53.284374 322.9875 52.846874Q322.425 52.39375 321.40936 52.39375Q320.1906 52.39375 319.675 52.8Q319.15936 53.190624 319.15936 53.721874Q319.15936 54.065624 319.3781 54.346874Q319.58124 54.628124 320.05 54.815624Q320.3156 54.909374 321.59686 55.253124Q323.47186 55.753124 324.20624 56.08125Q324.9406 56.39375 325.3625 57.003124Q325.78436 57.596874 325.78436 58.503124Q325.78436 59.378124 325.26874 60.159374Q324.7531 60.940624 323.78436 61.3625Q322.8156 61.784374 321.59686 61.784374Q319.58124 61.784374 318.51874 60.940624Q317.45624 60.096874 317.15936 58.45625ZM334.64374 60.26875Q333.65936 61.096874 332.7531 61.440624Q331.84686 61.784374 330.8156 61.784374Q329.1125 61.784374 328.1906 60.95625Q327.26874 60.1125 327.26874 58.815624Q327.26874 58.05 327.6125 57.425Q327.97186 56.8 328.53436 56.425Q329.09686 56.034374 329.8 55.83125Q330.3156 55.70625 331.3625 55.565624Q333.4875 55.315624 334.4875 54.971874Q334.5031 54.6125 334.5031 54.503124Q334.5031 53.440624 334.0031 52.9875Q333.33124 52.39375 332.0031 52.39375Q330.7531 52.39375 330.15936 52.83125Q329.58124 53.26875 329.3 54.378124L327.58124 54.14375Q327.8156 53.034374 328.34686 52.3625Q328.8781 51.675 329.89374 51.315624Q330.90936 50.940624 332.2531 50.940624Q333.58124 50.940624 334.40936 51.253124Q335.2375 51.565624 335.6281 52.05Q336.01874 52.51875 336.175 53.2375Q336.26874 53.690624 336.26874 54.8625L336.26874 57.20625Q336.26874 59.659374 336.3781 60.315624Q336.4875 60.95625 336.83124 61.55L334.9875 61.55Q334.72186 61.003124 334.64374 60.26875ZM334.4875 56.346874Q333.53436 56.7375 331.6125 57.003124Q330.53436 57.159374 330.08124 57.3625Q329.64374 57.55 329.39374 57.925Q329.14374 58.3 329.14374 58.76875Q329.14374 59.471874 329.675 59.940624Q330.20624 60.409374 331.2375 60.409374Q332.2531 60.409374 333.03436 59.971874Q333.83124 59.51875 334.20624 58.753124Q334.4875 58.14375 334.4875 56.9875L334.4875 56.346874ZM338.8625 61.55L338.8625 51.175L340.45624 51.175L340.45624 52.659374Q341.59686 50.940624 343.7531 50.940624Q344.6906 50.940624 345.47186 51.284374Q346.26874 51.6125 346.65936 52.159374Q347.05 52.70625 347.20624 53.45625Q347.3 53.95625 347.3 55.175L347.3 61.55L345.53436 61.55L345.53436 55.2375Q345.53436 54.159374 345.33124 53.628124Q345.1281 53.096874 344.59686 52.784374Q344.08124 52.471874 343.3781 52.471874Q342.2531 52.471874 341.4406 53.190624Q340.6281 53.89375 340.6281 55.878124L340.6281 61.55L338.8625 61.55ZM352.70624 59.971874L352.95624 61.534374Q352.22186 61.690624 351.6281 61.690624Q350.675 61.690624 350.14374 61.39375Q349.6281 61.08125 349.40936 60.596874Q349.1906 60.096874 349.1906 58.51875L349.1906 52.55L347.90936 52.55L347.90936 51.175L349.1906 51.175L349.1906 48.6125L350.9406 47.55L350.9406 51.175L352.70624 51.175L352.70624 52.55L350.9406 52.55L350.9406 58.6125Q350.9406 59.3625 351.03436 59.58125Q351.1281 59.784374 351.33124 59.925Q351.55 60.05 351.9406 60.05Q352.22186 60.05 352.70624 59.971874ZM361.97186 58.20625L363.78436 58.440624Q363.3625 60.01875 362.1906 60.909374Q361.03436 61.784374 359.22186 61.784374Q356.95624 61.784374 355.6125 60.39375Q354.28436 58.9875 354.28436 56.45625Q354.28436 53.83125 355.6281 52.39375Q356.97186 50.940624 359.1281 50.940624Q361.20624 50.940624 362.51874 52.3625Q363.84686 53.76875 363.84686 56.346874Q363.84686 56.503124 363.83124 56.815624L356.09686 56.815624Q356.1906 58.51875 357.0656 59.425Q357.9406 60.33125 359.2375 60.33125Q360.20624 60.33125 360.8781 59.83125Q361.5656 59.315624 361.97186 58.20625ZM356.1906 55.3625L361.9875 55.3625Q361.8781 54.065624 361.33124 53.409374Q360.4875 52.39375 359.14374 52.39375Q357.9406 52.39375 357.1125 53.20625Q356.28436 54.003124 356.1906 55.3625ZM358.09686 49.89375L359.39374 47.159374L361.6906 47.159374L359.55 49.89375L358.09686 49.89375ZM371.8625 65.51875L371.8625 51.175L373.47186 51.175L373.47186 52.51875Q374.03436 51.7375 374.7375 51.346874Q375.45624 50.940624 376.47186 50.940624Q377.8 50.940624 378.8156 51.628124Q379.83124 52.315624 380.34686 53.565624Q380.8781 54.8 380.8781 56.284374Q380.8781 57.878124 380.3 59.159374Q379.7375 60.425 378.64374 61.1125Q377.55 61.784374 376.34686 61.784374Q375.47186 61.784374 374.76874 61.409374Q374.08124 61.034374 373.6281 60.471874L373.6281 65.51875L371.8625 65.51875ZM373.45624 56.425Q373.45624 58.425 374.26874 59.378124Q375.08124 60.33125 376.2375 60.33125Q377.40936 60.33125 378.2375 59.346874Q379.08124 58.3625 379.08124 56.26875Q379.08124 54.3 378.2531 53.315624Q377.4406 52.315624 376.3156 52.315624Q375.1906 52.315624 374.3156 53.378124Q373.45624 54.425 373.45624 56.425ZM389.65936 61.55L389.65936 60.01875Q388.45624 61.784374 386.3781 61.784374Q385.45624 61.784374 384.65936 61.440624Q383.8625 61.08125 383.47186 60.55Q383.09686 60.01875 382.9406 59.2375Q382.83124 58.721874 382.83124 57.596874L382.83124 51.175L384.58124 51.175L384.58124 56.925Q384.58124 58.3 384.6906 58.784374Q384.8625 59.471874 385.39374 59.878124Q385.9406 60.26875 386.72186 60.26875Q387.51874 60.26875 388.20624 59.8625Q388.90936 59.45625 389.1906 58.76875Q389.4875 58.065624 389.4875 56.7375L389.4875 51.175L391.2375 51.175L391.2375 61.55L389.65936 61.55ZM394.4875 61.55L392.8625 61.55L392.8625 47.2375L394.6125 47.2375L394.6125 52.346874Q395.7375 50.940624 397.45624 50.940624Q398.40936 50.940624 399.26874 51.33125Q400.1281 51.721874 400.675 52.425Q401.22186 53.1125 401.53436 54.096874Q401.84686 55.08125 401.84686 56.20625Q401.84686 58.878124 400.53436 60.33125Q399.22186 61.784374 397.3781 61.784374Q395.53436 61.784374 394.4875 60.253124L394.4875 61.55ZM394.47186 56.284374Q394.47186 58.14375 394.97186 58.9875Q395.8156 60.33125 397.22186 60.33125Q398.3781 60.33125 399.20624 59.33125Q400.05 58.33125 400.05 56.346874Q400.05 54.315624 399.2375 53.3625Q398.4406 52.39375 397.3 52.39375Q396.14374 52.39375 395.3 53.39375Q394.47186 54.39375 394.47186 56.284374ZM403.83124 61.55L403.83124 47.2375L405.58124 47.2375L405.58124 61.55L403.83124 61.55ZM407.8781 49.253124L407.8781 47.2375L409.64374 47.2375L409.64374 49.253124L407.8781 49.253124ZM407.8781 61.55L407.8781 51.175L409.64374 51.175L409.64374 61.55L407.8781 61.55ZM418.4875 65.51875L418.4875 60.440624Q418.0656 61.01875 417.33124 61.409374Q416.59686 61.784374 415.76874 61.784374Q413.925 61.784374 412.58124 60.315624Q411.2531 58.83125 411.2531 56.26875Q411.2531 54.70625 411.78436 53.471874Q412.33124 52.221874 413.3625 51.58125Q414.39374 50.940624 415.6281 50.940624Q417.55 50.940624 418.65936 52.565624L418.65936 51.175L420.2375 51.175L420.2375 65.51875L418.4875 65.51875ZM413.0656 56.33125Q413.0656 58.33125 413.89374 59.33125Q414.7375 60.33125 415.90936 60.33125Q417.03436 60.33125 417.84686 59.39375Q418.65936 58.440624 418.65936 56.4875Q418.65936 54.425 417.8 53.378124Q416.9406 52.33125 415.8 52.33125Q414.65936 52.33125 413.8625 53.3Q413.0656 54.26875 413.0656 56.33125ZM429.65936 61.55L429.65936 60.01875Q428.45624 61.784374 426.3781 61.784374Q425.45624 61.784374 424.65936 61.440624Q423.8625 61.08125 423.47186 60.55Q423.09686 60.01875 422.9406 59.2375Q422.83124 58.721874 422.83124 57.596874L422.83124 51.175L424.58124 51.175L424.58124 56.925Q424.58124 58.3 424.6906 58.784374Q424.8625 59.471874 425.39374 59.878124Q425.9406 60.26875 426.72186 60.26875Q427.51874 60.26875 428.20624 59.8625Q428.90936 59.45625 429.1906 58.76875Q429.4875 58.065624 429.4875 56.7375L429.4875 51.175L431.2375 51.175L431.2375 61.55L429.65936 61.55ZM439.97186 58.20625L441.78436 58.440624Q441.3625 60.01875 440.1906 60.909374Q439.03436 61.784374 437.22186 61.784374Q434.95624 61.784374 433.6125 60.39375Q432.28436 58.9875 432.28436 56.45625Q432.28436 53.83125 433.6281 52.39375Q434.97186 50.940624 437.1281 50.940624Q439.20624 50.940624 440.51874 52.3625Q441.84686 53.76875 441.84686 56.346874Q441.84686 56.503124 441.83124 56.815624L434.09686 56.815624Q434.1906 58.51875 435.0656 59.425Q435.9406 60.33125 437.2375 60.33125Q438.20624 60.33125 438.8781 59.83125Q439.5656 59.315624 439.97186 58.20625ZM434.1906 55.3625L439.9875 55.3625Q439.8781 54.065624 439.33124 53.409374Q438.4875 52.39375 437.14374 52.39375Q435.9406 52.39375 435.1125 53.20625Q434.28436 54.003124 434.1906 55.3625ZM453.15936 58.01875Q453.14374 57.675 453.14374 57.503124Q453.14374 56.45625 453.4406 55.70625Q453.65936 55.14375 454.14374 54.565624Q454.4875 54.14375 455.39374 53.346874Q456.3156 52.534374 456.58124 52.065624Q456.8625 51.58125 456.8625 51.01875Q456.8625 49.9875 456.05 49.221874Q455.2531 48.440624 454.09686 48.440624Q452.97186 48.440624 452.22186 49.14375Q451.47186 49.846874 451.2375 51.33125L449.425 51.1125Q449.675 49.1125 450.8781 48.05Q452.08124 46.9875 454.0656 46.9875Q456.175 46.9875 457.425 48.128124Q458.675 49.26875 458.675 50.89375Q458.675 51.83125 458.22186 52.628124Q457.78436 53.409374 456.5031 54.55Q455.64374 55.315624 455.3781 55.675Q455.1281 56.034374 454.9875 56.503124Q454.8625 56.971874 454.84686 58.01875L453.15936 58.01875ZM453.05 61.55L453.05 59.55L455.05 59.55L455.05 61.55L453.05 61.55Z" fill-rule="nonzero"/></svg>