<svg version="1.1" viewBox="0.0 0.0 601.0 371.0" fill="none" stroke="none" stroke-linecap="square" stroke-miterlimit="10" width="601" height="371" xmlns:xlink="http://www.w3.org/1999/xlink" xmlns="http://www.w3.org/2000/svg"><path fill="#ffffff" d="M0 0L601.0 0L601.0 371.0L0 371.0L0 0Z" fill-rule="nonzero"/><path fill="#fbbc04" d="M283.30157 80.00233C289.00586 79.279274 294.75006 78.916664 300.5 78.916664L300.5 215.68333Z" fill-rule="nonzero"/><path fill="#ea4335" d="M210.16602 112.995C230.69797 94.933235 256.1729 83.441055 283.30157 80.00233L300.5 215.68333Z" fill-rule="nonzero"/><path fill="#4285f4" d="M300.5 78.916664C366.5708 78.916664 423.19525 126.14931 435.04794 191.14825C446.90063 256.1472 410.59232 320.32632 348.7741 343.64713C286.95593 366.96793 217.30447 342.76196 183.2722 286.13022C149.23991 229.49849 160.55818 156.63457 210.16602 112.995L300.5 215.68333Z" fill-rule="nonzero"/><path fill="#000000" d="M326.72556 311.568L326.72556 310.3805L333.22556 310.3805L333.22556 311.33362Q332.2568 312.34924 331.3193 314.03674Q330.3818 315.72424 329.86618 317.52112Q329.5068 318.77112 329.39743 320.27112L328.1318 320.27112Q328.14743 319.08362 328.58493 317.41174Q329.03806 315.73987 329.86618 314.193Q330.70993 312.6305 331.64743 311.568L326.72556 311.568ZM334.83493 317.95862L336.02243 317.84924Q336.16306 318.67737 336.58493 319.05237Q337.02243 319.42737 337.67868 319.42737Q338.24118 319.42737 338.66306 319.17737Q339.10056 318.91174 339.36618 318.47424Q339.64743 318.03674 339.83493 317.30237Q340.02243 316.568 340.02243 315.80237Q340.02243 315.72424 340.0068 315.55237Q339.64743 316.14612 339.0068 316.52112Q338.36618 316.8805 337.61618 316.8805Q336.36618 316.8805 335.5068 315.97424Q334.64743 315.068 334.64743 313.59924Q334.64743 312.068 335.53806 311.14612Q336.4443 310.20862 337.80368 310.20862Q338.77243 310.20862 339.58493 310.73987Q340.39743 311.2555 340.8193 312.23987Q341.24118 313.20862 341.24118 315.05237Q341.24118 316.97424 340.8193 318.11487Q340.41306 319.2555 339.58493 319.84924Q338.7568 320.443 337.64743 320.443Q336.47556 320.443 335.72556 319.78674Q334.99118 319.1305 334.83493 317.95862ZM339.86618 313.53674Q339.86618 312.47424 339.30368 311.84924Q338.74118 311.22424 337.95993 311.22424Q337.1318 311.22424 336.52243 311.89612Q335.91306 312.568 335.91306 313.6305Q335.91306 314.58362 336.49118 315.193Q337.0693 315.78674 337.91306 315.78674Q338.77243 315.78674 339.3193 315.193Q339.86618 314.58362 339.86618 313.53674ZM346.60056 320.27112L346.60056 317.86487L342.24118 317.86487L342.24118 316.73987L346.8193 310.2555L347.8193 310.2555L347.8193 316.73987L349.17868 316.73987L349.17868 317.86487L347.8193 317.86487L347.8193 320.27112L346.60056 320.27112ZM346.60056 316.73987L346.60056 312.22424L343.45993 316.73987L346.60056 316.73987Z" fill-rule="nonzero"/><path fill="#000000" d="M250.69647 117.10657Q249.93085 116.82532 249.55585 116.30969Q249.19647 115.79407 249.19647 115.05969Q249.19647 113.96594 249.97772 113.23157Q250.7746 112.48157 252.07147 112.48157Q253.38397 112.48157 254.18085 113.24719Q254.99335 114.01282 254.99335 115.10657Q254.99335 115.79407 254.61835 116.30969Q254.25897 116.82532 253.50897 117.10657Q254.43085 117.40344 254.91522 118.07532Q255.3996 118.74719 255.3996 119.68469Q255.3996 120.96594 254.49335 121.84094Q253.5871 122.71594 252.10272 122.71594Q250.61835 122.71594 249.69647 121.84094Q248.79022 120.95032 248.79022 119.63782Q248.79022 118.66907 249.29022 118.01282Q249.79022 117.34094 250.69647 117.10657ZM250.4621 115.02844Q250.4621 115.73157 250.91522 116.18469Q251.36835 116.63782 252.10272 116.63782Q252.82147 116.63782 253.2746 116.20032Q253.72772 115.74719 253.72772 115.09094Q253.72772 114.41907 253.25897 113.96594Q252.79022 113.49719 252.0871 113.49719Q251.38397 113.49719 250.91522 113.95032Q250.4621 114.38782 250.4621 115.02844ZM250.05585 119.65344Q250.05585 120.18469 250.30585 120.68469Q250.55585 121.16907 251.04022 121.43469Q251.54022 121.70032 252.11835 121.70032Q252.99335 121.70032 253.55585 121.13782Q254.13397 120.57532 254.13397 119.70032Q254.13397 118.80969 253.54022 118.23157Q252.9621 117.63782 252.07147 117.63782Q251.19647 117.63782 250.61835 118.21594Q250.05585 118.79407 250.05585 119.65344ZM256.80585 119.91907L258.10272 119.80969Q258.24335 120.74719 258.75897 121.23157Q259.29022 121.70032 260.0246 121.70032Q260.91522 121.70032 261.5246 121.02844Q262.1496 120.35657 262.1496 119.26282Q262.1496 118.20032 261.55585 117.59094Q260.9621 116.98157 260.00897 116.98157Q259.41522 116.98157 258.93085 117.26282Q258.4621 117.52844 258.18085 117.95032L257.0246 117.80969L257.99335 112.65344L262.97772 112.65344L262.97772 113.84094L258.97772 113.84094L258.44647 116.52844Q259.35272 115.90344 260.3371 115.90344Q261.6496 115.90344 262.54022 116.80969Q263.44647 117.71594 263.44647 119.15344Q263.44647 120.51282 262.66522 121.49719Q261.69647 122.71594 260.0246 122.71594Q258.66522 122.71594 257.79022 121.95032Q256.93085 121.18469 256.80585 119.91907Z" fill-rule="nonzero"/><path fill="#1a1a1a" d="M19.471874 89.916664L19.471874 81.322914L20.628124 81.322914L25.14375 88.072914L25.14375 81.322914L26.2375 81.322914L26.2375 89.916664L25.065624 89.916664L20.55 83.166664L20.55 89.916664L19.471874 89.916664ZM27.95625 86.80729Q27.95625 85.072914 28.909374 84.24479Q29.70625 83.55729 30.8625 83.55729Q32.14375 83.55729 32.95625 84.40104Q33.784374 85.229164 33.784374 86.71354Q33.784374 87.916664 33.425 88.604164Q33.065624 89.291664 32.3625 89.68229Q31.675 90.05729 30.8625 90.05729Q29.565624 90.05729 28.753124 89.229164Q27.95625 88.385414 27.95625 86.80729ZM29.034374 86.80729Q29.034374 87.99479 29.55 88.58854Q30.08125 89.18229 30.8625 89.18229Q31.659374 89.18229 32.175 88.58854Q32.690624 87.99479 32.690624 86.77604Q32.690624 85.61979 32.159374 85.02604Q31.64375 84.43229 30.8625 84.43229Q30.08125 84.43229 29.55 85.02604Q29.034374 85.604164 29.034374 86.80729ZM35.346874 89.916664L35.346874 83.697914L36.284374 83.697914L36.284374 84.572914Q36.971874 83.55729 38.26875 83.55729Q38.83125 83.55729 39.3 83.760414Q39.784374 83.96354 40.01875 84.291664Q40.253124 84.61979 40.346874 85.05729Q40.39375 85.354164 40.39375 86.08854L40.39375 89.916664L39.346874 89.916664L39.346874 86.135414Q39.346874 85.479164 39.221874 85.166664Q39.096874 84.854164 38.784374 84.666664Q38.471874 84.46354 38.05 84.46354Q37.378124 84.46354 36.878124 84.90104Q36.39375 85.322914 36.39375 86.510414L36.39375 89.916664L35.346874 89.916664Z" fill-rule="nonzero"/><path fill="#9e9e9e" d="M24.596874 105.90104L24.596874 106.916664L18.909374 106.916664Q18.909374 106.541664 19.034374 106.18229Q19.253124 105.604164 19.721874 105.041664Q20.20625 104.479164 21.1125 103.74479Q22.51875 102.58854 23.003124 101.916664Q23.503124 101.24479 23.503124 100.65104Q23.503124 100.02604 23.05 99.604164Q22.596874 99.166664 21.878124 99.166664Q21.1125 99.166664 20.659374 99.61979Q20.20625 100.072914 20.190624 100.885414L19.1125 100.77604Q19.221874 99.55729 19.940624 98.93229Q20.675 98.291664 21.909374 98.291664Q23.14375 98.291664 23.8625 98.979164Q24.58125 99.666664 24.58125 100.68229Q24.58125 101.197914 24.3625 101.697914Q24.159374 102.18229 23.659374 102.74479Q23.175 103.291664 22.05 104.24479Q21.096874 105.041664 20.815624 105.33854Q20.55 105.61979 20.378124 105.90104L24.596874 105.90104ZM26.6125 106.916664L26.6125 105.71354L27.815624 105.71354L27.815624 106.916664Q27.815624 107.572914 27.58125 107.979164Q27.346874 108.40104 26.846874 108.61979L26.55 108.166664Q26.878124 108.02604 27.034374 107.729164Q27.190624 107.447914 27.221874 106.916664L26.6125 106.916664ZM29.05 102.68229Q29.05 101.15104 29.3625 100.229164Q29.675 99.291664 30.284374 98.791664Q30.909374 98.291664 31.846874 98.291664Q32.534374 98.291664 33.05 98.572914Q33.58125 98.854164 33.925 99.385414Q34.26875 99.90104 34.45625 100.65104Q34.64375 101.40104 34.64375 102.68229Q34.64375 104.197914 34.33125 105.11979Q34.034374 106.041664 33.409374 106.55729Q32.8 107.05729 31.846874 107.05729Q30.6125 107.05729 29.89375 106.166664Q29.05 105.104164 29.05 102.68229ZM30.128124 102.68229Q30.128124 104.791664 30.628124 105.49479Q31.128124 106.197914 31.846874 106.197914Q32.58125 106.197914 33.065624 105.49479Q33.565624 104.791664 33.565624 102.68229Q33.565624 100.55729 33.065624 99.86979Q32.58125 99.166664 31.83125 99.166664Q31.1125 99.166664 30.675 99.77604Q30.128124 100.55729 30.128124 102.68229ZM36.253124 100.385414Q36.253124 99.46354 36.70625 98.822914Q37.175 98.18229 38.05 98.18229Q38.8625 98.18229 39.39375 98.760414Q39.925 99.33854 39.925 100.447914Q39.925 101.541664 39.378124 102.135414Q38.846874 102.71354 38.065624 102.71354Q37.284374 102.71354 36.76875 102.135414Q36.253124 101.55729 36.253124 100.385414ZM38.08125 98.90104Q37.690624 98.90104 37.425 99.24479Q37.175 99.58854 37.175 100.49479Q37.175 101.322914 37.425 101.666664Q37.690624 101.99479 38.08125 101.99479Q38.4875 101.99479 38.7375 101.65104Q39.003124 101.30729 39.003124 100.416664Q39.003124 99.572914 38.7375 99.24479Q38.471874 98.90104 38.08125 98.90104ZM38.08125 107.229164L42.784374 98.18229L43.64375 98.18229L38.95625 107.229164L38.08125 107.229164ZM41.8 104.90104Q41.8 103.979164 42.253124 103.33854Q42.721874 102.697914 43.6125 102.697914Q44.425 102.697914 44.95625 103.27604Q45.4875 103.83854 45.4875 104.96354Q45.4875 106.05729 44.940624 106.65104Q44.409374 107.229164 43.6125 107.229164Q42.846874 107.229164 42.315624 106.65104Q41.8 106.072914 41.8 104.90104ZM43.64375 103.416664Q43.2375 103.416664 42.971874 103.760414Q42.721874 104.104164 42.721874 105.010414Q42.721874 105.822914 42.9875 106.166664Q43.253124 106.510414 43.64375 106.510414Q44.034374 106.510414 44.3 106.166664Q44.565624 105.822914 44.565624 104.916664Q44.565624 104.08854 44.3 103.760414Q44.034374 103.416664 43.64375 103.416664Z" fill-rule="nonzero"/><path stroke="#757575" stroke-width="1.0" stroke-linecap="butt" d="M18.55 94.416664L157.73334 94.416664L292.31448 86.0131" fill-rule="nonzero"/><path fill="#9e9e9e" d="M294.31448 86.0131C294.31448 84.90853 293.41907 84.0131 292.31448 84.0131C291.2099 84.0131 290.31448 84.90853 290.31448 86.0131C290.31448 87.11767 291.2099 88.0131 292.31448 88.0131C293.41907 88.0131 294.31448 87.11767 294.31448 86.0131" fill-rule="nonzero"/><path fill="#1a1a1a" d="M19.471874 120.916664L19.471874 112.322914L20.628124 112.322914L25.14375 119.072914L25.14375 112.322914L26.2375 112.322914L26.2375 120.916664L25.065624 120.916664L20.55 114.166664L20.55 120.916664L19.471874 120.916664ZM32.596874 118.916664L33.690624 119.041664Q33.440624 119.99479 32.7375 120.52604Q32.034374 121.05729 30.95625 121.05729Q29.596874 121.05729 28.784374 120.21354Q27.9875 119.36979 27.9875 117.854164Q27.9875 116.291664 28.8 115.43229Q29.6125 114.55729 30.89375 114.55729Q32.14375 114.55729 32.925 115.40104Q33.721874 116.24479 33.721874 117.791664Q33.721874 117.885414 33.721874 118.072914L29.08125 118.072914Q29.14375 119.104164 29.659374 119.65104Q30.175 120.18229 30.95625 120.18229Q31.534374 120.18229 31.940624 119.885414Q32.3625 119.572914 32.596874 118.916664ZM29.14375 117.21354L32.6125 117.21354Q32.55 116.416664 32.221874 116.02604Q31.70625 115.416664 30.909374 115.416664Q30.175 115.416664 29.675 115.90104Q29.190624 116.385414 29.14375 117.21354ZM37.925 119.05729L38.95625 118.90104Q39.05 119.52604 39.440624 119.854164Q39.846874 120.18229 40.58125 120.18229Q41.3 120.18229 41.64375 119.90104Q42.003124 119.604164 42.003124 119.197914Q42.003124 118.83854 41.690624 118.635414Q41.471874 118.49479 40.6125 118.27604Q39.45625 117.979164 39.003124 117.77604Q38.565624 117.55729 38.33125 117.18229Q38.096874 116.80729 38.096874 116.33854Q38.096874 115.93229 38.284374 115.572914Q38.471874 115.21354 38.8 114.979164Q39.05 114.80729 39.471874 114.68229Q39.89375 114.55729 40.39375 114.55729Q41.1125 114.55729 41.659374 114.77604Q42.221874 114.979164 42.4875 115.33854Q42.753124 115.697914 42.846874 116.291664L41.815624 116.43229Q41.753124 115.96354 41.409374 115.697914Q41.08125 115.416664 40.45625 115.416664Q39.7375 115.416664 39.425 115.666664Q39.1125 115.90104 39.1125 116.229164Q39.1125 116.43229 39.2375 116.58854Q39.378124 116.760414 39.64375 116.86979Q39.8 116.93229 40.58125 117.135414Q41.70625 117.447914 42.14375 117.635414Q42.58125 117.822914 42.83125 118.18229Q43.08125 118.541664 43.08125 119.08854Q43.08125 119.61979 42.76875 120.08854Q42.471874 120.541664 41.89375 120.80729Q41.315624 121.05729 40.58125 121.05729Q39.3625 121.05729 38.721874 120.55729Q38.096874 120.041664 37.925 119.05729ZM49.596874 118.916664L50.690624 119.041664Q50.440624 119.99479 49.7375 120.52604Q49.034374 121.05729 47.95625 121.05729Q46.596874 121.05729 45.784374 120.21354Q44.9875 119.36979 44.9875 117.854164Q44.9875 116.291664 45.8 115.43229Q46.6125 114.55729 47.89375 114.55729Q49.14375 114.55729 49.925 115.40104Q50.721874 116.24479 50.721874 117.791664Q50.721874 117.885414 50.721874 118.072914L46.08125 118.072914Q46.14375 119.104164 46.659374 119.65104Q47.175 120.18229 47.95625 120.18229Q48.534374 120.18229 48.940624 119.885414Q49.3625 119.572914 49.596874 118.916664ZM46.14375 117.21354L49.6125 117.21354Q49.55 116.416664 49.221874 116.02604Q48.70625 115.416664 47.909374 115.416664Q47.175 115.416664 46.675 115.90104Q46.190624 116.385414 46.14375 117.21354ZM55.346874 123.30729L55.346874 114.697914L56.3 114.697914L56.3 115.49479Q56.64375 115.02604 57.065624 114.791664Q57.503124 114.55729 58.1125 114.55729Q58.909374 114.55729 59.51875 114.96354Q60.128124 115.36979 60.425 116.11979Q60.7375 116.86979 60.7375 117.760414Q60.7375 118.71354 60.39375 119.479164Q60.065624 120.24479 59.409374 120.65104Q58.753124 121.05729 58.034374 121.05729Q57.503124 121.05729 57.08125 120.83854Q56.659374 120.604164 56.39375 120.27604L56.39375 123.30729L55.346874 123.30729ZM56.3 117.83854Q56.3 119.041664 56.784374 119.61979Q57.26875 120.18229 57.95625 120.18229Q58.659374 120.18229 59.159374 119.58854Q59.659374 118.99479 59.659374 117.74479Q59.659374 116.55729 59.175 115.979164Q58.690624 115.385414 58.003124 115.385414Q57.33125 115.385414 56.815624 116.010414Q56.3 116.635414 56.3 117.83854ZM62.33125 120.916664L62.33125 114.697914L63.284374 114.697914L63.284374 115.635414Q63.64375 114.979164 63.940624 114.77604Q64.25313 114.55729 64.62813 114.55729Q65.15938 114.55729 65.70625 114.885414L65.34688 115.86979Q64.95625 115.635414 64.58125 115.635414Q64.22188 115.635414 63.940624 115.854164Q63.675 116.05729 63.565624 116.43229Q63.378124 116.99479 63.378124 117.65104L63.378124 120.916664L62.33125 120.916664ZM65.95625 117.80729Q65.95625 116.072914 66.90938 115.24479Q67.70625 114.55729 68.8625 114.55729Q70.14375 114.55729 70.95625 115.40104Q71.78438 116.229164 71.78438 117.71354Q71.78438 118.916664 71.425 119.604164Q71.06563 120.291664 70.3625 120.68229Q69.675 121.05729 68.8625 121.05729Q67.56563 121.05729 66.75313 120.229164Q65.95625 119.385414 65.95625 117.80729ZM67.03438 117.80729Q67.03438 118.99479 67.55 119.58854Q68.08125 120.18229 68.8625 120.18229Q69.65938 120.18229 70.175 119.58854Q70.69063 118.99479 70.69063 117.77604Q70.69063 116.61979 70.15938 116.02604Q69.64375 115.43229 68.8625 115.43229Q68.08125 115.43229 67.55 116.02604Q67.03438 116.604164 67.03438 117.80729ZM73.34688 120.916664L73.34688 114.697914L74.28438 114.697914L74.28438 115.572914Q74.97188 114.55729 76.26875 114.55729Q76.83125 114.55729 77.3 114.760414Q77.78438 114.96354 78.01875 115.291664Q78.25313 115.61979 78.34688 116.05729Q78.39375 116.354164 78.39375 117.08854L78.39375 120.916664L77.34688 120.916664L77.34688 117.135414Q77.34688 116.479164 77.22188 116.166664Q77.09688 115.854164 76.78438 115.666664Q76.47188 115.46354 76.05 115.46354Q75.37813 115.46354 74.87813 115.90104Q74.39375 116.322914 74.39375 117.510414L74.39375 120.916664L73.34688 120.916664ZM79.95625 117.80729Q79.95625 116.072914 80.90938 115.24479Q81.70625 114.55729 82.8625 114.55729Q84.14375 114.55729 84.95625 115.40104Q85.78438 116.229164 85.78438 117.71354Q85.78438 118.916664 85.425 119.604164Q85.06563 120.291664 84.3625 120.68229Q83.675 121.05729 82.8625 121.05729Q81.56563 121.05729 80.75313 120.229164Q79.95625 119.385414 79.95625 117.80729ZM81.03438 117.80729Q81.03438 118.99479 81.55 119.58854Q82.08125 120.18229 82.8625 120.18229Q83.65938 120.18229 84.175 119.58854Q84.69063 118.99479 84.69063 117.77604Q84.69063 116.61979 84.15938 116.02604Q83.64375 115.43229 82.8625 115.43229Q82.08125 115.43229 81.55 116.02604Q81.03438 116.604164 81.03438 117.80729ZM87.34688 120.916664L87.34688 114.697914L88.28438 114.697914L88.28438 115.572914Q88.97188 114.55729 90.26875 114.55729Q90.83125 114.55729 91.3 114.760414Q91.78438 114.96354 92.01875 115.291664Q92.25313 115.61979 92.34688 116.05729Q92.39375 116.354164 92.39375 117.08854L92.39375 120.916664L91.34688 120.916664L91.34688 117.135414Q91.34688 116.479164 91.22188 116.166664Q91.09688 115.854164 90.78438 115.666664Q90.47188 115.46354 90.05 115.46354Q89.37813 115.46354 88.87813 115.90104Q88.39375 116.322914 88.39375 117.510414L88.39375 120.916664L87.34688 120.916664ZM98.40938 118.635414L99.44063 118.77604Q99.26875 119.83854 98.56563 120.447914Q97.8625 121.05729 96.84688 121.05729Q95.56563 121.05729 94.78438 120.229164Q94.01875 119.385414 94.01875 117.822914Q94.01875 116.822914 94.34688 116.072914Q94.69063 115.30729 95.3625 114.93229Q96.05 114.55729 96.8625 114.55729Q97.8625 114.55729 98.50313 115.072914Q99.15938 115.572914 99.34688 116.52604L98.31563 116.68229Q98.175 116.05729 97.8 115.74479Q97.425 115.416664 96.89375 115.416664Q96.09688 115.416664 95.59688 115.99479Q95.09688 116.55729 95.09688 117.791664Q95.09688 119.05729 95.58125 119.61979Q96.06563 120.18229 96.83125 120.18229Q97.45625 120.18229 97.8625 119.80729Q98.28438 119.43229 98.40938 118.635414ZM104.59688 118.916664L105.69063 119.041664Q105.44063 119.99479 104.7375 120.52604Q104.03438 121.05729 102.95625 121.05729Q101.59688 121.05729 100.78438 120.21354Q99.9875 119.36979 99.9875 117.854164Q99.9875 116.291664 100.8 115.43229Q101.6125 114.55729 102.89375 114.55729Q104.14375 114.55729 104.925 115.40104Q105.72188 116.24479 105.72188 117.791664Q105.72188 117.885414 105.72188 118.072914L101.08125 118.072914Q101.14375 119.104164 101.65938 119.65104Q102.175 120.18229 102.95625 120.18229Q103.53438 120.18229 103.94063 119.885414Q104.3625 119.572914 104.59688 118.916664ZM101.14375 117.21354L104.6125 117.21354Q104.55 116.416664 104.22188 116.02604Q103.70625 115.416664 102.90938 115.416664Q102.175 115.416664 101.675 115.90104Q101.19063 116.385414 101.14375 117.21354ZM110.34688 123.30729L110.34688 114.697914L111.3 114.697914L111.3 115.49479Q111.64375 115.02604 112.06563 114.791664Q112.50313 114.55729 113.1125 114.55729Q113.90938 114.55729 114.51875 114.96354Q115.12813 115.36979 115.425 116.11979Q115.7375 116.86979 115.7375 117.760414Q115.7375 118.71354 115.39375 119.479164Q115.06563 120.24479 114.40938 120.65104Q113.75313 121.05729 113.03438 121.05729Q112.50313 121.05729 112.08125 120.83854Q111.65938 120.604164 111.39375 120.27604L111.39375 123.30729L110.34688 123.30729ZM111.3 117.83854Q111.3 119.041664 111.78438 119.61979Q112.26875 120.18229 112.95625 120.18229Q113.65938 120.18229 114.15938 119.58854Q114.65938 118.99479 114.65938 117.74479Q114.65938 116.55729 114.175 115.979164Q113.69063 115.385414 113.00313 115.385414Q112.33125 115.385414 111.81563 116.010414Q111.3 116.635414 111.3 117.83854ZM121.40938 120.15104Q120.81563 120.65104 120.26875 120.854164Q119.7375 121.05729 119.1125 121.05729Q118.08125 121.05729 117.53438 120.55729Q116.9875 120.05729 116.9875 119.27604Q116.9875 118.822914 117.19063 118.447914Q117.39375 118.05729 117.7375 117.83854Q118.08125 117.604164 118.50313 117.49479Q118.8 117.40104 119.44063 117.322914Q120.70625 117.18229 121.31563 116.96354Q121.31563 116.74479 121.31563 116.697914Q121.31563 116.041664 121.01875 115.77604Q120.6125 115.43229 119.81563 115.43229Q119.08125 115.43229 118.72188 115.697914Q118.3625 115.947914 118.19063 116.604164L117.15938 116.46354Q117.3 115.80729 117.62813 115.40104Q117.95625 114.99479 118.56563 114.77604Q119.175 114.55729 119.97188 114.55729Q120.76875 114.55729 121.26875 114.74479Q121.76875 114.93229 122.00313 115.21354Q122.2375 115.49479 122.33125 115.93229Q122.37813 116.197914 122.37813 116.90104L122.37813 118.30729Q122.37813 119.77604 122.44063 120.166664Q122.51875 120.55729 122.72188 120.916664L121.6125 120.916664Q121.45625 120.58854 121.40938 120.15104ZM121.31563 117.791664Q120.7375 118.02604 119.59688 118.197914Q118.94063 118.291664 118.675 118.416664Q118.40938 118.52604 118.25313 118.74479Q118.1125 118.96354 118.1125 119.24479Q118.1125 119.666664 118.425 119.947914Q118.75313 120.229164 119.3625 120.229164Q119.97188 120.229164 120.44063 119.96354Q120.925 119.697914 121.14375 119.229164Q121.31563 118.86979 121.31563 118.18229L121.31563 117.791664ZM123.925 119.05729L124.95625 118.90104Q125.05 119.52604 125.44063 119.854164Q125.84688 120.18229 126.58125 120.18229Q127.3 120.18229 127.64375 119.90104Q128.00313 119.604164 128.00313 119.197914Q128.00313 118.83854 127.69063 118.635414Q127.47188 118.49479 126.6125 118.27604Q125.45625 117.979164 125.00313 117.77604Q124.56563 117.55729 124.33125 117.18229Q124.09688 116.80729 124.09688 116.33854Q124.09688 115.93229 124.28438 115.572914Q124.47188 115.21354 124.8 114.979164Q125.05 114.80729 125.47188 114.68229Q125.89375 114.55729 126.39375 114.55729Q127.1125 114.55729 127.65938 114.77604Q128.22188 114.979164 128.4875 115.33854Q128.75313 115.697914 128.84688 116.291664L127.81563 116.43229Q127.75313 115.96354 127.40938 115.697914Q127.08125 115.416664 126.45625 115.416664Q125.7375 115.416664 125.425 115.666664Q125.1125 115.90104 125.1125 116.229164Q125.1125 116.43229 125.2375 116.58854Q125.37813 116.760414 125.64375 116.86979Q125.8 116.93229 126.58125 117.135414Q127.70625 117.447914 128.14375 117.635414Q128.58125 117.822914 128.83125 118.18229Q129.08125 118.541664 129.08125 119.08854Q129.08125 119.61979 128.76875 120.08854Q128.47188 120.541664 127.89375 120.80729Q127.31563 121.05729 126.58125 121.05729Q125.3625 121.05729 124.72188 120.55729Q124.09688 120.041664 123.925 119.05729Z" fill-rule="nonzero"/><path fill="#9e9e9e" d="M19.20625 135.9323L20.221874 135.83855Q20.346874 136.5573 20.70625 136.88542Q21.08125 137.19792 21.64375 137.19792Q22.128124 137.19792 22.4875 136.97917Q22.8625 136.7448 23.096874 136.38542Q23.33125 136.01042 23.4875 135.38542Q23.64375 134.7448 23.64375 134.08855Q23.64375 134.01042 23.64375 133.8698Q23.33125 134.3698 22.784374 134.69792Q22.2375 135.01042 21.596874 135.01042Q20.51875 135.01042 19.784374 134.2448Q19.05 133.46355 19.05 132.19792Q19.05 130.88542 19.815624 130.08855Q20.596874 129.29167 21.753124 129.29167Q22.58125 129.29167 23.26875 129.7448Q23.971874 130.19792 24.33125 131.04167Q24.690624 131.8698 24.690624 133.44792Q24.690624 135.08855 24.33125 136.07292Q23.9875 137.04167 23.26875 137.5573Q22.565624 138.0573 21.628124 138.0573Q20.6125 138.0573 19.971874 137.51042Q19.33125 136.94792 19.20625 135.9323ZM23.51875 132.13542Q23.51875 131.22917 23.034374 130.69792Q22.565624 130.16667 21.878124 130.16667Q21.175 130.16667 20.64375 130.7448Q20.128124 131.3073 20.128124 132.22917Q20.128124 133.04167 20.628124 133.5573Q21.128124 134.07292 21.846874 134.07292Q22.58125 134.07292 23.05 133.5573Q23.51875 133.04167 23.51875 132.13542ZM26.6125 137.91667L26.6125 136.71355L27.815624 136.71355L27.815624 137.91667Q27.815624 138.57292 27.58125 138.97917Q27.346874 139.40105 26.846874 139.6198L26.55 139.16667Q26.878124 139.02605 27.034374 138.72917Q27.190624 138.44792 27.221874 137.91667L26.6125 137.91667ZM29.05 135.66667L30.159374 135.57292Q30.284374 136.38542 30.721874 136.79167Q31.175 137.19792 31.815624 137.19792Q32.565624 137.19792 33.096874 136.6198Q33.628124 136.04167 33.628124 135.10417Q33.628124 134.19792 33.1125 133.6823Q32.6125 133.15105 31.784374 133.15105Q31.284374 133.15105 30.8625 133.38542Q30.45625 133.6198 30.221874 133.97917L29.2375 133.85417L30.065624 129.44792L34.346874 129.44792L34.346874 130.44792L30.909374 130.44792L30.45625 132.76042Q31.221874 132.21355 32.065624 132.21355Q33.190624 132.21355 33.95625 132.9948Q34.7375 133.77605 34.7375 135.01042Q34.7375 136.16667 34.065624 137.02605Q33.2375 138.0573 31.815624 138.0573Q30.64375 138.0573 29.89375 137.40105Q29.159374 136.7448 29.05 135.66667ZM36.253124 131.38542Q36.253124 130.46355 36.70625 129.82292Q37.175 129.1823 38.05 129.1823Q38.8625 129.1823 39.39375 129.76042Q39.925 130.33855 39.925 131.44792Q39.925 132.54167 39.378124 133.13542Q38.846874 133.71355 38.065624 133.71355Q37.284374 133.71355 36.76875 133.13542Q36.253124 132.5573 36.253124 131.38542ZM38.08125 129.90105Q37.690624 129.90105 37.425 130.2448Q37.175 130.58855 37.175 131.4948Q37.175 132.32292 37.425 132.66667Q37.690624 132.9948 38.08125 132.9948Q38.4875 132.9948 38.7375 132.65105Q39.003124 132.3073 39.003124 131.41667Q39.003124 130.57292 38.7375 130.2448Q38.471874 129.90105 38.08125 129.90105ZM38.08125 138.22917L42.784374 129.1823L43.64375 129.1823L38.95625 138.22917L38.08125 138.22917ZM41.8 135.90105Q41.8 134.97917 42.253124 134.33855Q42.721874 133.69792 43.6125 133.69792Q44.425 133.69792 44.95625 134.27605Q45.4875 134.83855 45.4875 135.96355Q45.4875 137.0573 44.940624 137.65105Q44.409374 138.22917 43.6125 138.22917Q42.846874 138.22917 42.315624 137.65105Q41.8 137.07292 41.8 135.90105ZM43.64375 134.41667Q43.2375 134.41667 42.971874 134.76042Q42.721874 135.10417 42.721874 136.01042Q42.721874 136.82292 42.9875 137.16667Q43.253124 137.51042 43.64375 137.51042Q44.034374 137.51042 44.3 137.16667Q44.565624 136.82292 44.565624 135.91667Q44.565624 135.08855 44.3 134.76042Q44.034374 134.41667 43.64375 134.41667Z" fill-rule="nonzero"/><path stroke="#757575" stroke-width="1.0" stroke-linecap="butt" d="M18.55 125.416664L157.73334 125.416664L247.07202 97.24844" fill-rule="nonzero"/><path fill="#9e9e9e" d="M249.07202 97.24844C249.07202 96.143875 248.1766 95.24844 247.07202 95.24844C245.96745 95.24844 245.07202 96.143875 245.07202 97.24844C245.07202 98.35301 245.96745 99.24844 247.07202 99.24844C248.1766 99.24844 249.07202 98.35301 249.07202 97.24844" fill-rule="nonzero"/><path fill="#1a1a1a" d="M564.02814 328.2625Q564.02814 326.1219 565.16876 324.91876Q566.325 323.7 568.1375 323.7Q569.34064 323.7 570.29376 324.27814Q571.2469 324.84064 571.7469 325.85626Q572.2469 326.8719 572.2469 328.16876Q572.2469 329.46564 571.71564 330.4969Q571.1844 331.52814 570.21564 332.0594Q569.2625 332.59064 568.1375 332.59064Q566.91876 332.59064 565.96564 332.0125Q565.0125 331.41876 564.5125 330.41876Q564.02814 329.40314 564.02814 328.2625ZM565.2 328.27814Q565.2 329.84064 566.02814 330.73126Q566.8719 331.6219 568.1375 331.6219Q569.41876 331.6219 570.2469 330.73126Q571.075 329.825 571.075 328.15314Q571.075 327.10626 570.71564 326.325Q570.3719 325.54376 569.6844 325.1219Q568.9969 324.6844 568.15314 324.6844Q566.95 324.6844 566.075 325.5125Q565.2 326.34064 565.2 328.27814ZM577.325 332.45L577.325 331.52814Q576.59064 332.59064 575.34064 332.59064Q574.79376 332.59064 574.3094 332.3875Q573.84064 332.16876 573.60626 331.85626Q573.3719 331.52814 573.27814 331.0594Q573.21564 330.7625 573.21564 330.075L573.21564 326.23126L574.27814 326.23126L574.27814 329.6844Q574.27814 330.4969 574.34064 330.79376Q574.4344 331.2 574.7469 331.45Q575.075 331.6844 575.5594 331.6844Q576.02814 331.6844 576.4344 331.45Q576.85626 331.2 577.02814 330.77814Q577.21564 330.35626 577.21564 329.5594L577.21564 326.23126L578.2625 326.23126L578.2625 332.45L577.325 332.45ZM580.2469 325.075L580.2469 323.85626L581.3094 323.85626L581.3094 325.075L580.2469 325.075ZM580.2469 332.45L580.2469 326.23126L581.3094 326.23126L581.3094 332.45L580.2469 332.45Z" fill-rule="nonzero"/><path fill="#9e9e9e" d="M549.575 344.79376Q548.91876 344.54376 548.59064 344.10626Q548.27814 343.65314 548.27814 343.04376Q548.27814 342.10626 548.95 341.46564Q549.6375 340.825 550.7469 340.825Q551.8719 340.825 552.5594 341.48126Q553.2469 342.1375 553.2469 343.075Q553.2469 343.66876 552.9344 344.10626Q552.6219 344.54376 551.98126 344.79376Q552.77814 345.04376 553.1844 345.6219Q553.59064 346.2 553.59064 346.9969Q553.59064 348.09064 552.8094 348.84064Q552.04376 349.59064 550.7625 349.59064Q549.4969 349.59064 548.71564 348.84064Q547.9344 348.09064 547.9344 346.96564Q547.9344 346.1219 548.35626 345.5594Q548.79376 344.9969 549.575 344.79376ZM549.35626 342.9969Q549.35626 343.60626 549.7469 343.9969Q550.15314 344.3875 550.77814 344.3875Q551.3875 344.3875 551.77814 344.0125Q552.16876 343.6219 552.16876 343.0594Q552.16876 342.48126 551.7625 342.09064Q551.35626 341.6844 550.7625 341.6844Q550.15314 341.6844 549.7469 342.075Q549.35626 342.46564 549.35626 342.9969ZM549.02814 346.96564Q549.02814 347.41876 549.23126 347.84064Q549.45 348.2625 549.8719 348.4969Q550.29376 348.73126 550.77814 348.73126Q551.52814 348.73126 552.0125 348.2469Q552.5125 347.7625 552.5125 347.0125Q552.5125 346.2469 552.0125 345.7469Q551.5125 345.2469 550.7469 345.2469Q549.9969 345.2469 549.5125 345.7469Q549.02814 346.23126 549.02814 346.96564ZM556.575 344.79376Q555.91876 344.54376 555.59064 344.10626Q555.27814 343.65314 555.27814 343.04376Q555.27814 342.10626 555.95 341.46564Q556.6375 340.825 557.7469 340.825Q558.8719 340.825 559.5594 341.48126Q560.2469 342.1375 560.2469 343.075Q560.2469 343.66876 559.9344 344.10626Q559.6219 344.54376 558.98126 344.79376Q559.77814 345.04376 560.1844 345.6219Q560.59064 346.2 560.59064 346.9969Q560.59064 348.09064 559.8094 348.84064Q559.04376 349.59064 557.7625 349.59064Q556.4969 349.59064 555.71564 348.84064Q554.9344 348.09064 554.9344 346.96564Q554.9344 346.1219 555.35626 345.5594Q555.79376 344.9969 556.575 344.79376ZM556.35626 342.9969Q556.35626 343.60626 556.7469 343.9969Q557.15314 344.3875 557.77814 344.3875Q558.3875 344.3875 558.77814 344.0125Q559.16876 343.6219 559.16876 343.0594Q559.16876 342.48126 558.7625 342.09064Q558.35626 341.6844 557.7625 341.6844Q557.15314 341.6844 556.7469 342.075Q556.35626 342.46564 556.35626 342.9969ZM556.02814 346.96564Q556.02814 347.41876 556.23126 347.84064Q556.45 348.2625 556.8719 348.4969Q557.29376 348.73126 557.77814 348.73126Q558.52814 348.73126 559.0125 348.2469Q559.5125 347.7625 559.5125 347.0125Q559.5125 346.2469 559.0125 345.7469Q558.5125 345.2469 557.7469 345.2469Q556.9969 345.2469 556.5125 345.7469Q556.02814 346.23126 556.02814 346.96564ZM562.5125 349.45L562.5125 348.2469L563.71564 348.2469L563.71564 349.45Q563.71564 350.10626 563.48126 350.5125Q563.2469 350.9344 562.7469 351.15314L562.45 350.7Q562.77814 350.5594 562.9344 350.2625Q563.09064 349.98126 563.1219 349.45L562.5125 349.45ZM564.95 347.2L566.0594 347.10626Q566.1844 347.91876 566.6219 348.325Q567.075 348.73126 567.71564 348.73126Q568.46564 348.73126 568.9969 348.15314Q569.52814 347.575 569.52814 346.6375Q569.52814 345.73126 569.0125 345.21564Q568.5125 344.6844 567.6844 344.6844Q567.1844 344.6844 566.7625 344.91876Q566.35626 345.15314 566.1219 345.5125L565.1375 345.3875L565.96564 340.98126L570.2469 340.98126L570.2469 341.98126L566.8094 341.98126L566.35626 344.29376Q567.1219 343.7469 567.96564 343.7469Q569.09064 343.7469 569.85626 344.52814Q570.6375 345.3094 570.6375 346.54376Q570.6375 347.7 569.96564 348.5594Q569.1375 349.59064 567.71564 349.59064Q566.54376 349.59064 565.79376 348.9344Q565.0594 348.27814 564.95 347.2ZM572.15314 342.91876Q572.15314 341.9969 572.60626 341.35626Q573.075 340.71564 573.95 340.71564Q574.7625 340.71564 575.29376 341.29376Q575.825 341.8719 575.825 342.98126Q575.825 344.075 575.27814 344.66876Q574.7469 345.2469 573.96564 345.2469Q573.1844 345.2469 572.66876 344.66876Q572.15314 344.09064 572.15314 342.91876ZM573.98126 341.4344Q573.59064 341.4344 573.325 341.77814Q573.075 342.1219 573.075 343.02814Q573.075 343.85626 573.325 344.2Q573.59064 344.52814 573.98126 344.52814Q574.3875 344.52814 574.6375 344.1844Q574.90314 343.84064 574.90314 342.95Q574.90314 342.10626 574.6375 341.77814Q574.3719 341.4344 573.98126 341.4344ZM573.98126 349.7625L578.6844 340.71564L579.54376 340.71564L574.85626 349.7625L573.98126 349.7625ZM577.7 347.4344Q577.7 346.5125 578.15314 345.8719Q578.6219 345.23126 579.5125 345.23126Q580.325 345.23126 580.85626 345.8094Q581.3875 346.3719 581.3875 347.4969Q581.3875 348.59064 580.84064 349.1844Q580.3094 349.7625 579.5125 349.7625Q578.7469 349.7625 578.21564 349.1844Q577.7 348.60626 577.7 347.4344ZM579.54376 345.95Q579.1375 345.95 578.8719 346.29376Q578.6219 346.6375 578.6219 347.54376Q578.6219 348.35626 578.8875 348.7Q579.15314 349.04376 579.54376 349.04376Q579.9344 349.04376 580.2 348.7Q580.46564 348.35626 580.46564 347.45Q580.46564 346.6219 580.2 346.29376Q579.9344 345.95 579.54376 345.95Z" fill-rule="nonzero"/><path stroke="#757575" stroke-width="1.0" stroke-linecap="butt" d="M582.45 336.95L443.26666 336.95L346.3604 337.24893" fill-rule="nonzero"/><path fill="#9e9e9e" d="M348.3604 337.24893C348.3604 336.14435 347.46497 335.24893 346.3604 335.24893C345.25583 335.24893 344.3604 336.14435 344.3604 337.24893C344.3604 338.35352 345.25583 339.24893 346.3604 339.24893C347.46497 339.24893 348.3604 338.35352 348.3604 337.24893" fill-rule="nonzero"/><path fill="#757575" d="M20.096874 37.55L20.096874 23.2375L25.4875 23.2375Q26.925 23.2375 27.675 23.3625Q28.721874 23.55 29.440624 24.05Q30.159374 24.534374 30.58125 25.425Q31.01875 26.315624 31.01875 27.378124Q31.01875 29.20625 29.846874 30.471874Q28.690624 31.721874 25.659374 31.721874L21.9875 31.721874L21.9875 37.55L20.096874 37.55ZM21.9875 30.034374L25.690624 30.034374Q27.51875 30.034374 28.284374 29.3625Q29.065624 28.675 29.065624 27.425Q29.065624 26.534374 28.6125 25.89375Q28.159374 25.253124 27.425 25.05Q26.940624 24.925 25.64375 24.925L21.9875 24.925L21.9875 30.034374ZM39.971874 34.20625L41.784374 34.440624Q41.3625 36.01875 40.190624 36.909374Q39.034374 37.784374 37.221874 37.784374Q34.95625 37.784374 33.6125 36.39375Q32.284374 34.9875 32.284374 32.45625Q32.284374 29.83125 33.628124 28.39375Q34.971874 26.940624 37.128124 26.940624Q39.20625 26.940624 40.51875 28.3625Q41.846874 29.76875 41.846874 32.346874Q41.846874 32.503124 41.83125 32.815624L34.096874 32.815624Q34.190624 34.51875 35.065624 35.425Q35.940624 36.33125 37.2375 36.33125Q38.20625 36.33125 38.878124 35.83125Q39.565624 35.315624 39.971874 34.20625ZM34.190624 31.3625L39.9875 31.3625Q39.878124 30.065624 39.33125 29.409374Q38.4875 28.39375 37.14375 28.39375Q35.940624 28.39375 35.1125 29.20625Q34.284374 30.003124 34.190624 31.3625ZM43.8625 37.55L43.8625 27.175L45.45625 27.175L45.45625 28.659374Q46.596874 26.940624 48.753124 26.940624Q49.690624 26.940624 50.471874 27.284374Q51.26875 27.6125 51.659374 28.159374Q52.05 28.70625 52.20625 29.45625Q52.3 29.95625 52.3 31.175L52.3 37.55L50.534374 37.55L50.534374 31.2375Q50.534374 30.159374 50.33125 29.628124Q50.128124 29.096874 49.596874 28.784374Q49.08125 28.471874 48.378124 28.471874Q47.253124 28.471874 46.440624 29.190624Q45.628124 29.89375 45.628124 31.878124L45.628124 37.55L43.8625 37.55ZM53.159374 34.45625L54.909374 34.175Q55.05 35.221874 55.721874 35.784374Q56.39375 36.33125 57.596874 36.33125Q58.8 36.33125 59.378124 35.846874Q59.971874 35.346874 59.971874 34.690624Q59.971874 34.096874 59.45625 33.753124Q59.096874 33.51875 57.659374 33.159374Q55.721874 32.659374 54.971874 32.315624Q54.2375 31.95625 53.846874 31.33125Q53.45625 30.690624 53.45625 29.925Q53.45625 29.2375 53.76875 28.64375Q54.096874 28.05 54.64375 27.659374Q55.05 27.3625 55.753124 27.159374Q56.471874 26.940624 57.284374 26.940624Q58.503124 26.940624 59.425 27.3Q60.346874 27.64375 60.784374 28.253124Q61.221874 28.846874 61.39375 29.846874L59.675 30.08125Q59.55 29.284374 58.9875 28.846874Q58.425 28.39375 57.409374 28.39375Q56.190624 28.39375 55.675 28.8Q55.159374 29.190624 55.159374 29.721874Q55.159374 30.065624 55.378124 30.346874Q55.58125 30.628124 56.05 30.815624Q56.315624 30.909374 57.596874 31.253124Q59.471874 31.753124 60.20625 32.08125Q60.940624 32.39375 61.3625 33.003124Q61.784374 33.596874 61.784374 34.503124Q61.784374 35.378124 61.26875 36.159374Q60.753124 36.940624 59.784374 37.3625Q58.815624 37.784374 57.596874 37.784374Q55.58125 37.784374 54.51875 36.940624Q53.45625 36.096874 53.159374 34.45625ZM70.97188 34.20625L72.78438 34.440624Q72.3625 36.01875 71.19063 36.909374Q70.03438 37.784374 68.22188 37.784374Q65.95625 37.784374 64.6125 36.39375Q63.284374 34.9875 63.284374 32.45625Q63.284374 29.83125 64.62813 28.39375Q65.97188 26.940624 68.12813 26.940624Q70.20625 26.940624 71.51875 28.3625Q72.84688 29.76875 72.84688 32.346874Q72.84688 32.503124 72.83125 32.815624L65.09688 32.815624Q65.19063 34.51875 66.06563 35.425Q66.94063 36.33125 68.2375 36.33125Q69.20625 36.33125 69.87813 35.83125Q70.56563 35.315624 70.97188 34.20625ZM65.19063 31.3625L70.9875 31.3625Q70.87813 30.065624 70.33125 29.409374Q69.4875 28.39375 68.14375 28.39375Q66.94063 28.39375 66.1125 29.20625Q65.28438 30.003124 65.19063 31.3625ZM73.94063 37.55L73.94063 36.128124L80.55 28.55Q79.425 28.596874 78.56563 28.596874L74.33125 28.596874L74.33125 27.175L82.81563 27.175L82.81563 28.346874L77.19063 34.925L76.1125 36.128124Q77.28438 36.034374 78.33125 36.034374L83.12813 36.034374L83.12813 37.55L73.94063 37.55ZM83.19063 33.253124L83.19063 31.4875L88.58125 31.4875L88.58125 33.253124L83.19063 33.253124ZM93.75313 37.55L89.8 27.175L91.65938 27.175L93.89375 33.39375Q94.25313 34.39375 94.55 35.471874Q94.78438 34.659374 95.20625 33.503124L97.50313 27.175L99.31563 27.175L95.39375 37.55L93.75313 37.55ZM99.22188 32.3625Q99.22188 29.4875 100.81563 28.096874Q102.15938 26.940624 104.08125 26.940624Q106.22188 26.940624 107.56563 28.346874Q108.925 29.753124 108.925 32.221874Q108.925 34.221874 108.33125 35.378124Q107.7375 36.51875 106.58125 37.159374Q105.44063 37.784374 104.08125 37.784374Q101.89375 37.784374 100.55 36.39375Q99.22188 34.9875 99.22188 32.3625ZM101.01875 32.3625Q101.01875 34.3625 101.87813 35.346874Q102.75313 36.33125 104.08125 36.33125Q105.39375 36.33125 106.25313 35.346874Q107.12813 34.346874 107.12813 32.3Q107.12813 30.378124 106.25313 29.39375Q105.37813 28.39375 104.08125 28.39375Q102.75313 28.39375 101.87813 29.39375Q101.01875 30.378124 101.01875 32.3625ZM117.65938 37.55L117.65938 36.01875Q116.45625 37.784374 114.37813 37.784374Q113.45625 37.784374 112.65938 37.440624Q111.8625 37.08125 111.47188 36.55Q111.09688 36.01875 110.94063 35.2375Q110.83125 34.721874 110.83125 33.596874L110.83125 27.175L112.58125 27.175L112.58125 32.925Q112.58125 34.3 112.69063 34.784374Q112.8625 35.471874 113.39375 35.878124Q113.94063 36.26875 114.72188 36.26875Q115.51875 36.26875 116.20625 35.8625Q116.90938 35.45625 117.19063 34.76875Q117.4875 34.065624 117.4875 32.7375L117.4875 27.175L119.2375 27.175L119.2375 37.55L117.65938 37.55ZM120.15938 34.45625L121.90938 34.175Q122.05 35.221874 122.72188 35.784374Q123.39375 36.33125 124.59688 36.33125Q125.8 36.33125 126.37813 35.846874Q126.97188 35.346874 126.97188 34.690624Q126.97188 34.096874 126.45625 33.753124Q126.09688 33.51875 124.65938 33.159374Q122.72188 32.659374 121.97188 32.315624Q121.2375 31.95625 120.84688 31.33125Q120.45625 30.690624 120.45625 29.925Q120.45625 29.2375 120.76875 28.64375Q121.09688 28.05 121.64375 27.659374Q122.05 27.3625 122.75313 27.159374Q123.47188 26.940624 124.28438 26.940624Q125.50313 26.940624 126.425 27.3Q127.34688 27.64375 127.78438 28.253124Q128.22188 28.846874 128.39375 29.846874L126.675 30.08125Q126.55 29.284374 125.9875 28.846874Q125.425 28.39375 124.40938 28.39375Q123.19063 28.39375 122.675 28.8Q122.15938 29.190624 122.15938 29.721874Q122.15938 30.065624 122.37813 30.346874Q122.58125 30.628124 123.05 30.815624Q123.31563 30.909374 124.59688 31.253124Q126.47188 31.753124 127.20625 32.08125Q127.94063 32.39375 128.3625 33.003124Q128.78438 33.596874 128.78438 34.503124Q128.78438 35.378124 128.26875 36.159374Q127.75313 36.940624 126.78438 37.3625Q125.81563 37.784374 124.59688 37.784374Q122.58125 37.784374 121.51875 36.940624Q120.45625 36.096874 120.15938 34.45625ZM143.4875 41.51875L143.4875 36.440624Q143.06563 37.01875 142.33125 37.409374Q141.59688 37.784374 140.76875 37.784374Q138.925 37.784374 137.58125 36.315624Q136.25313 34.83125 136.25313 32.26875Q136.25313 30.70625 136.78438 29.471874Q137.33125 28.221874 138.3625 27.58125Q139.39375 26.940624 140.62813 26.940624Q142.55 26.940624 143.65938 28.565624L143.65938 27.175L145.2375 27.175L145.2375 41.51875L143.4875 41.51875ZM138.06563 32.33125Q138.06563 34.33125 138.89375 35.33125Q139.7375 36.33125 140.90938 36.33125Q142.03438 36.33125 142.84688 35.39375Q143.65938 34.440624 143.65938 32.4875Q143.65938 30.425 142.8 29.378124Q141.94063 28.33125 140.8 28.33125Q139.65938 28.33125 138.8625 29.3Q138.06563 30.26875 138.06563 32.33125ZM154.65938 37.55L154.65938 36.01875Q153.45625 37.784374 151.37813 37.784374Q150.45625 37.784374 149.65938 37.440624Q148.8625 37.08125 148.47188 36.55Q148.09688 36.01875 147.94063 35.2375Q147.83125 34.721874 147.83125 33.596874L147.83125 27.175L149.58125 27.175L149.58125 32.925Q149.58125 34.3 149.69063 34.784374Q149.8625 35.471874 150.39375 35.878124Q150.94063 36.26875 151.72188 36.26875Q152.51875 36.26875 153.20625 35.8625Q153.90938 35.45625 154.19063 34.76875Q154.4875 34.065624 154.4875 32.7375L154.4875 27.175L156.2375 27.175L156.2375 37.55L154.65938 37.55ZM164.97188 34.20625L166.78438 34.440624Q166.3625 36.01875 165.19063 36.909374Q164.03438 37.784374 162.22188 37.784374Q159.95625 37.784374 158.6125 36.39375Q157.28438 34.9875 157.28438 32.45625Q157.28438 29.83125 158.62813 28.39375Q159.97188 26.940624 162.12813 26.940624Q164.20625 26.940624 165.51875 28.3625Q166.84688 29.76875 166.84688 32.346874Q166.84688 32.503124 166.83125 32.815624L159.09688 32.815624Q159.19063 34.51875 160.06563 35.425Q160.94063 36.33125 162.2375 36.33125Q163.20625 36.33125 163.87813 35.83125Q164.56563 35.315624 164.97188 34.20625ZM159.19063 31.3625L164.9875 31.3625Q164.87813 30.065624 164.33125 29.409374Q163.4875 28.39375 162.14375 28.39375Q160.94063 28.39375 160.1125 29.20625Q159.28438 30.003124 159.19063 31.3625ZM174.83125 37.55L174.83125 23.2375L176.58125 23.2375L176.58125 37.55L174.83125 37.55ZM185.97188 34.20625L187.78438 34.440624Q187.3625 36.01875 186.19063 36.909374Q185.03438 37.784374 183.22188 37.784374Q180.95625 37.784374 179.6125 36.39375Q178.28438 34.9875 178.28438 32.45625Q178.28438 29.83125 179.62813 28.39375Q180.97188 26.940624 183.12813 26.940624Q185.20625 26.940624 186.51875 28.3625Q187.84688 29.76875 187.84688 32.346874Q187.84688 32.503124 187.83125 32.815624L180.09688 32.815624Q180.19063 34.51875 181.06563 35.425Q181.94063 36.33125 183.2375 36.33125Q184.20625 36.33125 184.87813 35.83125Q185.56563 35.315624 185.97188 34.20625ZM180.19063 31.3625L185.9875 31.3625Q185.87813 30.065624 185.33125 29.409374Q184.4875 28.39375 183.14375 28.39375Q181.94063 28.39375 181.1125 29.20625Q180.28438 30.003124 180.19063 31.3625ZM189.15938 34.45625L190.90938 34.175Q191.05 35.221874 191.72188 35.784374Q192.39375 36.33125 193.59688 36.33125Q194.8 36.33125 195.37813 35.846874Q195.97188 35.346874 195.97188 34.690624Q195.97188 34.096874 195.45625 33.753124Q195.09688 33.51875 193.65938 33.159374Q191.72188 32.659374 190.97188 32.315624Q190.2375 31.95625 189.84688 31.33125Q189.45625 30.690624 189.45625 29.925Q189.45625 29.2375 189.76875 28.64375Q190.09688 28.05 190.64375 27.659374Q191.05 27.3625 191.75313 27.159374Q192.47188 26.940624 193.28438 26.940624Q194.50313 26.940624 195.425 27.3Q196.34688 27.64375 196.78438 28.253124Q197.22188 28.846874 197.39375 29.846874L195.675 30.08125Q195.55 29.284374 194.9875 28.846874Q194.425 28.39375 193.40938 28.39375Q192.19063 28.39375 191.675 28.8Q191.15938 29.190624 191.15938 29.721874Q191.15938 30.065624 191.37813 30.346874Q191.58125 30.628124 192.05 30.815624Q192.31563 30.909374 193.59688 31.253124Q195.47188 31.753124 196.20625 32.08125Q196.94063 32.39375 197.3625 33.003124Q197.78438 33.596874 197.78438 34.503124Q197.78438 35.378124 197.26875 36.159374Q196.75313 36.940624 195.78438 37.3625Q194.81563 37.784374 193.59688 37.784374Q191.58125 37.784374 190.51875 36.940624Q189.45625 36.096874 189.15938 34.45625ZM205.22188 32.3625Q205.22188 29.4875 206.81563 28.096874Q208.15938 26.940624 210.08125 26.940624Q212.22188 26.940624 213.56563 28.346874Q214.925 29.753124 214.925 32.221874Q214.925 34.221874 214.33125 35.378124Q213.7375 36.51875 212.58125 37.159374Q211.44063 37.784374 210.08125 37.784374Q207.89375 37.784374 206.55 36.39375Q205.22188 34.9875 205.22188 32.3625ZM207.01875 32.3625Q207.01875 34.3625 207.87813 35.346874Q208.75313 36.33125 210.08125 36.33125Q211.39375 36.33125 212.25313 35.346874Q213.12813 34.346874 213.12813 32.3Q213.12813 30.378124 212.25313 29.39375Q211.37813 28.39375 210.08125 28.39375Q208.75313 28.39375 207.87813 29.39375Q207.01875 30.378124 207.01875 32.3625ZM216.15938 34.45625L217.90938 34.175Q218.05 35.221874 218.72188 35.784374Q219.39375 36.33125 220.59688 36.33125Q221.8 36.33125 222.37813 35.846874Q222.97188 35.346874 222.97188 34.690624Q222.97188 34.096874 222.45625 33.753124Q222.09688 33.51875 220.65938 33.159374Q218.72188 32.659374 217.97188 32.315624Q217.2375 31.95625 216.84688 31.33125Q216.45625 30.690624 216.45625 29.925Q216.45625 29.2375 216.76875 28.64375Q217.09688 28.05 217.64375 27.659374Q218.05 27.3625 218.75313 27.159374Q219.47188 26.940624 220.28438 26.940624Q221.50313 26.940624 222.425 27.3Q223.34688 27.64375 223.78438 28.253124Q224.22188 28.846874 224.39375 29.846874L222.675 30.08125Q222.55 29.284374 221.9875 28.846874Q221.425 28.39375 220.40938 28.39375Q219.19063 28.39375 218.675 28.8Q218.15938 29.190624 218.15938 29.721874Q218.15938 30.065624 218.37813 30.346874Q218.58125 30.628124 219.05 30.815624Q219.31563 30.909374 220.59688 31.253124Q222.47188 31.753124 223.20625 32.08125Q223.94063 32.39375 224.3625 33.003124Q224.78438 33.596874 224.78438 34.503124Q224.78438 35.378124 224.26875 36.159374Q223.75313 36.940624 222.78438 37.3625Q221.81563 37.784374 220.59688 37.784374Q218.58125 37.784374 217.51875 36.940624Q216.45625 36.096874 216.15938 34.45625ZM230.70625 35.971874L230.95625 37.534374Q230.22188 37.690624 229.62813 37.690624Q228.675 37.690624 228.14375 37.39375Q227.62813 37.08125 227.40938 36.596874Q227.19063 36.096874 227.19063 34.51875L227.19063 28.55L225.90938 28.55L225.90938 27.175L227.19063 27.175L227.19063 24.6125L228.94063 23.55L228.94063 27.175L230.70625 27.175L230.70625 28.55L228.94063 28.55L228.94063 34.6125Q228.94063 35.3625 229.03438 35.58125Q229.12813 35.784374 229.33125 35.925Q229.55 36.05 229.94063 36.05Q230.22188 36.05 230.70625 35.971874ZM239.97188 34.20625L241.78438 34.440624Q241.3625 36.01875 240.19063 36.909374Q239.03438 37.784374 237.22188 37.784374Q234.95625 37.784374 233.6125 36.39375Q232.28438 34.9875 232.28438 32.45625Q232.28438 29.83125 233.62813 28.39375Q234.97188 26.940624 237.12813 26.940624Q239.20625 26.940624 240.51875 28.3625Q241.84688 29.76875 241.84688 32.346874Q241.84688 32.503124 241.83125 32.815624L234.09688 32.815624Q234.19063 34.51875 235.06563 35.425Q235.94063 36.33125 237.2375 36.33125Q238.20625 36.33125 238.87813 35.83125Q239.56563 35.315624 239.97188 34.20625ZM234.19063 31.3625L239.9875 31.3625Q239.87813 30.065624 239.33125 29.409374Q238.4875 28.39375 237.14375 28.39375Q235.94063 28.39375 235.1125 29.20625Q234.28438 30.003124 234.19063 31.3625ZM236.09688 25.89375L237.39375 23.159374L239.69063 23.159374L237.55 25.89375L236.09688 25.89375ZM243.22188 32.3625Q243.22188 29.4875 244.81563 28.096874Q246.15938 26.940624 248.08125 26.940624Q250.22188 26.940624 251.56563 28.346874Q252.925 29.753124 252.925 32.221874Q252.925 34.221874 252.33125 35.378124Q251.7375 36.51875 250.58125 37.159374Q249.44063 37.784374 248.08125 37.784374Q245.89375 37.784374 244.55 36.39375Q243.22188 34.9875 243.22188 32.3625ZM245.01875 32.3625Q245.01875 34.3625 245.87813 35.346874Q246.75313 36.33125 248.08125 36.33125Q249.39375 36.33125 250.25313 35.346874Q251.12813 34.346874 251.12813 32.3Q251.12813 30.378124 250.25313 29.39375Q249.37813 28.39375 248.08125 28.39375Q246.75313 28.39375 245.87813 29.39375Q245.01875 30.378124 245.01875 32.3625ZM254.8625 41.51875L254.8625 27.175L256.47186 27.175L256.47186 28.51875Q257.03436 27.7375 257.7375 27.346874Q258.45624 26.940624 259.47186 26.940624Q260.8 26.940624 261.8156 27.628124Q262.83124 28.315624 263.34686 29.565624Q263.8781 30.8 263.8781 32.284374Q263.8781 33.878124 263.3 35.159374Q262.7375 36.425 261.64374 37.1125Q260.55 37.784374 259.34686 37.784374Q258.47186 37.784374 257.76874 37.409374Q257.08124 37.034374 256.6281 36.471874L256.6281 41.51875L254.8625 41.51875ZM256.45624 32.425Q256.45624 34.425 257.26874 35.378124Q258.08124 36.33125 259.2375 36.33125Q260.40936 36.33125 261.2375 35.346874Q262.08124 34.3625 262.08124 32.26875Q262.08124 30.3 261.2531 29.315624Q260.4406 28.315624 259.3156 28.315624Q258.1906 28.315624 257.3156 29.378124Q256.45624 30.425 256.45624 32.425ZM272.64374 36.26875Q271.65936 37.096874 270.7531 37.440624Q269.84686 37.784374 268.8156 37.784374Q267.1125 37.784374 266.1906 36.95625Q265.26874 36.1125 265.26874 34.815624Q265.26874 34.05 265.6125 33.425Q265.97186 32.8 266.53436 32.425Q267.09686 32.034374 267.8 31.83125Q268.3156 31.70625 269.3625 31.565624Q271.4875 31.315624 272.4875 30.971874Q272.5031 30.6125 272.5031 30.503124Q272.5031 29.440624 272.0031 28.9875Q271.33124 28.39375 270.0031 28.39375Q268.7531 28.39375 268.15936 28.83125Q267.58124 29.26875 267.3 30.378124L265.58124 30.14375Q265.8156 29.034374 266.34686 28.3625Q266.8781 27.675 267.89374 27.315624Q268.90936 26.940624 270.2531 26.940624Q271.58124 26.940624 272.40936 27.253124Q273.2375 27.565624 273.6281 28.05Q274.01874 28.51875 274.175 29.2375Q274.26874 29.690624 274.26874 30.8625L274.26874 33.20625Q274.26874 35.659374 274.3781 36.315624Q274.4875 36.95625 274.83124 37.55L272.9875 37.55Q272.72186 37.003124 272.64374 36.26875ZM272.4875 32.346874Q271.53436 32.7375 269.6125 33.003124Q268.53436 33.159374 268.08124 33.3625Q267.64374 33.55 267.39374 33.925Q267.14374 34.3 267.14374 34.76875Q267.14374 35.471874 267.675 35.940624Q268.20624 36.409374 269.2375 36.409374Q270.2531 36.409374 271.03436 35.971874Q271.83124 35.51875 272.20624 34.753124Q272.4875 34.14375 272.4875 32.9875L272.4875 32.346874ZM280.70624 35.971874L280.95624 37.534374Q280.22186 37.690624 279.6281 37.690624Q278.675 37.690624 278.14374 37.39375Q277.6281 37.08125 277.40936 36.596874Q277.1906 36.096874 277.1906 34.51875L277.1906 28.55L275.90936 28.55L275.90936 27.175L277.1906 27.175L277.1906 24.6125L278.9406 23.55L278.9406 27.175L280.70624 27.175L280.70624 28.55L278.9406 28.55L278.9406 34.6125Q278.9406 35.3625 279.03436 35.58125Q279.1281 35.784374 279.33124 35.925Q279.55 36.05 279.9406 36.05Q280.22186 36.05 280.70624 35.971874ZM282.8625 37.55L282.8625 23.2375L284.6281 23.2375L284.6281 28.3625Q285.8625 26.940624 287.7375 26.940624Q288.8781 26.940624 289.72186 27.39375Q290.58124 27.846874 290.9406 28.659374Q291.3156 29.45625 291.3156 30.971874L291.3156 37.55L289.5656 37.55L289.5656 30.971874Q289.5656 29.659374 288.9875 29.065624Q288.40936 28.45625 287.3781 28.45625Q286.59686 28.45625 285.89374 28.8625Q285.20624 29.26875 284.90936 29.971874Q284.6281 30.659374 284.6281 31.878124L284.6281 37.55L282.8625 37.55ZM299.97186 34.20625L301.78436 34.440624Q301.3625 36.01875 300.1906 36.909374Q299.03436 37.784374 297.22186 37.784374Q294.95624 37.784374 293.6125 36.39375Q292.28436 34.9875 292.28436 32.45625Q292.28436 29.83125 293.6281 28.39375Q294.97186 26.940624 297.1281 26.940624Q299.20624 26.940624 300.51874 28.3625Q301.84686 29.76875 301.84686 32.346874Q301.84686 32.503124 301.83124 32.815624L294.09686 32.815624Q294.1906 34.51875 295.0656 35.425Q295.9406 36.33125 297.2375 36.33125Q298.20624 36.33125 298.8781 35.83125Q299.5656 35.315624 299.97186 34.20625ZM294.1906 31.3625L299.9875 31.3625Q299.8781 30.065624 299.33124 29.409374Q298.4875 28.39375 297.14374 28.39375Q295.9406 28.39375 295.1125 29.20625Q294.28436 30.003124 294.1906 31.3625ZM303.15936 34.45625L304.90936 34.175Q305.05 35.221874 305.72186 35.784374Q306.39374 36.33125 307.59686 36.33125Q308.8 36.33125 309.3781 35.846874Q309.97186 35.346874 309.97186 34.690624Q309.97186 34.096874 309.45624 33.753124Q309.09686 33.51875 307.65936 33.159374Q305.72186 32.659374 304.97186 32.315624Q304.2375 31.95625 303.84686 31.33125Q303.45624 30.690624 303.45624 29.925Q303.45624 29.2375 303.76874 28.64375Q304.09686 28.05 304.64374 27.659374Q305.05 27.3625 305.7531 27.159374Q306.47186 26.940624 307.28436 26.940624Q308.5031 26.940624 309.425 27.3Q310.34686 27.64375 310.78436 28.253124Q311.22186 28.846874 311.39374 29.846874L309.675 30.08125Q309.55 29.284374 308.9875 28.846874Q308.425 28.39375 307.40936 28.39375Q306.1906 28.39375 305.675 28.8Q305.15936 29.190624 305.15936 29.721874Q305.15936 30.065624 305.3781 30.346874Q305.58124 30.628124 306.05 30.815624Q306.3156 30.909374 307.59686 31.253124Q309.47186 31.753124 310.20624 32.08125Q310.9406 32.39375 311.3625 33.003124Q311.78436 33.596874 311.78436 34.503124Q311.78436 35.378124 311.26874 36.159374Q310.7531 36.940624 309.78436 37.3625Q308.8156 37.784374 307.59686 37.784374Q305.58124 37.784374 304.51874 36.940624Q303.45624 36.096874 303.15936 34.45625ZM319.22186 32.3625Q319.22186 29.4875 320.8156 28.096874Q322.15936 26.940624 324.08124 26.940624Q326.22186 26.940624 327.5656 28.346874Q328.925 29.753124 328.925 32.221874Q328.925 34.221874 328.33124 35.378124Q327.7375 36.51875 326.58124 37.159374Q325.4406 37.784374 324.08124 37.784374Q321.89374 37.784374 320.55 36.39375Q319.22186 34.9875 319.22186 32.3625ZM321.01874 32.3625Q321.01874 34.3625 321.8781 35.346874Q322.7531 36.33125 324.08124 36.33125Q325.39374 36.33125 326.2531 35.346874Q327.1281 34.346874 327.1281 32.3Q327.1281 30.378124 326.2531 29.39375Q325.3781 28.39375 324.08124 28.39375Q322.7531 28.39375 321.8781 29.39375Q321.01874 30.378124 321.01874 32.3625ZM330.8625 37.55L330.8625 27.175L332.45624 27.175L332.45624 28.659374Q333.59686 26.940624 335.7531 26.940624Q336.6906 26.940624 337.47186 27.284374Q338.26874 27.6125 338.65936 28.159374Q339.05 28.70625 339.20624 29.45625Q339.3 29.95625 339.3 31.175L339.3 37.55L337.53436 37.55L337.53436 31.2375Q337.53436 30.159374 337.33124 29.628124Q337.1281 29.096874 336.59686 28.784374Q336.08124 28.471874 335.3781 28.471874Q334.2531 28.471874 333.4406 29.190624Q332.6281 29.89375 332.6281 31.878124L332.6281 37.55L330.8625 37.55ZM344.70624 35.971874L344.95624 37.534374Q344.22186 37.690624 343.6281 37.690624Q342.675 37.690624 342.14374 37.39375Q341.6281 37.08125 341.40936 36.596874Q341.1906 36.096874 341.1906 34.51875L341.1906 28.55L339.90936 28.55L339.90936 27.175L341.1906 27.175L341.1906 24.6125L342.9406 23.55L342.9406 27.175L344.70624 27.175L344.70624 28.55L342.9406 28.55L342.9406 34.6125Q342.9406 35.3625 343.03436 35.58125Q343.1281 35.784374 343.33124 35.925Q343.55 36.05 343.9406 36.05Q344.22186 36.05 344.70624 35.971874ZM359.65936 37.55L359.65936 36.01875Q358.45624 37.784374 356.3781 37.784374Q355.45624 37.784374 354.65936 37.440624Q353.8625 37.08125 353.47186 36.55Q353.09686 36.01875 352.9406 35.2375Q352.83124 34.721874 352.83124 33.596874L352.83124 27.175L354.58124 27.175L354.58124 32.925Q354.58124 34.3 354.6906 34.784374Q354.8625 35.471874 355.39374 35.878124Q355.9406 36.26875 356.72186 36.26875Q357.51874 36.26875 358.20624 35.8625Q358.90936 35.45625 359.1906 34.76875Q359.4875 34.065624 359.4875 32.7375L359.4875 27.175L361.2375 27.175L361.2375 37.55L359.65936 37.55ZM362.8625 37.55L362.8625 27.175L364.45624 27.175L364.45624 28.659374Q365.59686 26.940624 367.7531 26.940624Q368.6906 26.940624 369.47186 27.284374Q370.26874 27.6125 370.65936 28.159374Q371.05 28.70625 371.20624 29.45625Q371.3 29.95625 371.3 31.175L371.3 37.55L369.53436 37.55L369.53436 31.2375Q369.53436 30.159374 369.33124 29.628124Q369.1281 29.096874 368.59686 28.784374Q368.08124 28.471874 367.3781 28.471874Q366.2531 28.471874 365.4406 29.190624Q364.6281 29.89375 364.6281 31.878124L364.6281 37.55L362.8625 37.55ZM378.84686 37.55L378.84686 27.175L380.425 27.175L380.425 28.753124Q381.03436 27.64375 381.55 27.3Q382.0656 26.940624 382.675 26.940624Q383.5656 26.940624 384.4875 27.503124L383.8781 29.14375Q383.2375 28.753124 382.59686 28.753124Q382.01874 28.753124 381.55 29.1125Q381.09686 29.45625 380.89374 30.065624Q380.6125 31.003124 380.6125 32.1125L380.6125 37.55L378.84686 37.55ZM385.22186 32.3625Q385.22186 29.4875 386.8156 28.096874Q388.15936 26.940624 390.08124 26.940624Q392.22186 26.940624 393.5656 28.346874Q394.925 29.753124 394.925 32.221874Q394.925 34.221874 394.33124 35.378124Q393.7375 36.51875 392.58124 37.159374Q391.4406 37.784374 390.08124 37.784374Q387.89374 37.784374 386.55 36.39375Q385.22186 34.9875 385.22186 32.3625ZM387.01874 32.3625Q387.01874 34.3625 387.8781 35.346874Q388.7531 36.33125 390.08124 36.33125Q391.39374 36.33125 392.2531 35.346874Q393.1281 34.346874 393.1281 32.3Q393.1281 30.378124 392.2531 29.39375Q391.3781 28.39375 390.08124 28.39375Q388.7531 28.39375 387.8781 29.39375Q387.01874 30.378124 387.01874 32.3625ZM390.09686 24.221874L388.9875 25.89375L386.9875 25.89375L389.09686 23.159374L390.97186 23.159374L393.15936 25.89375L391.175 25.89375L390.09686 24.221874ZM396.83124 37.55L396.83124 23.2375L398.58124 23.2375L398.58124 37.55L396.83124 37.55ZM407.97186 34.20625L409.78436 34.440624Q409.3625 36.01875 408.1906 36.909374Q407.03436 37.784374 405.22186 37.784374Q402.95624 37.784374 401.6125 36.39375Q400.28436 34.9875 400.28436 32.45625Q400.28436 29.83125 401.6281 28.39375Q402.97186 26.940624 405.1281 26.940624Q407.20624 26.940624 408.51874 28.3625Q409.84686 29.76875 409.84686 32.346874Q409.84686 32.503124 409.83124 32.815624L402.09686 32.815624Q402.1906 34.51875 403.0656 35.425Q403.9406 36.33125 405.2375 36.33125Q406.20624 36.33125 406.8781 35.83125Q407.5656 35.315624 407.97186 34.20625ZM402.1906 31.3625L407.9875 31.3625Q407.8781 30.065624 407.33124 29.409374Q406.4875 28.39375 405.14374 28.39375Q403.9406 28.39375 403.1125 29.20625Q402.28436 30.003124 402.1906 31.3625ZM424.64374 36.26875Q423.65936 37.096874 422.7531 37.440624Q421.84686 37.784374 420.8156 37.784374Q419.1125 37.784374 418.1906 36.95625Q417.26874 36.1125 417.26874 34.815624Q417.26874 34.05 417.6125 33.425Q417.97186 32.8 418.53436 32.425Q419.09686 32.034374 419.8 31.83125Q420.3156 31.70625 421.3625 31.565624Q423.4875 31.315624 424.4875 30.971874Q424.5031 30.6125 424.5031 30.503124Q424.5031 29.440624 424.0031 28.9875Q423.33124 28.39375 422.0031 28.39375Q420.7531 28.39375 420.15936 28.83125Q419.58124 29.26875 419.3 30.378124L417.58124 30.14375Q417.8156 29.034374 418.34686 28.3625Q418.8781 27.675 419.89374 27.315624Q420.90936 26.940624 422.2531 26.940624Q423.58124 26.940624 424.40936 27.253124Q425.2375 27.565624 425.6281 28.05Q426.01874 28.51875 426.175 29.2375Q426.26874 29.690624 426.26874 30.8625L426.26874 33.20625Q426.26874 35.659374 426.3781 36.315624Q426.4875 36.95625 426.83124 37.55L424.9875 37.55Q424.72186 37.003124 424.64374 36.26875ZM424.4875 32.346874Q423.53436 32.7375 421.6125 33.003124Q420.53436 33.159374 420.08124 33.3625Q419.64374 33.55 419.39374 33.925Q419.14374 34.3 419.14374 34.76875Q419.14374 35.471874 419.675 35.940624Q420.20624 36.409374 421.2375 36.409374Q422.2531 36.409374 423.03436 35.971874Q423.83124 35.51875 424.20624 34.753124Q424.4875 34.14375 424.4875 32.9875L424.4875 32.346874ZM423.53436 25.89375L422.1125 25.89375L419.8625 23.159374L422.20624 23.159374L423.53436 25.89375ZM434.8625 25.26875L434.8625 23.2375L436.6125 23.2375L436.6125 25.26875L434.8625 25.26875ZM432.6281 41.58125L432.95624 40.08125Q433.4875 40.221874 433.8 40.221874Q434.33124 40.221874 434.59686 39.8625Q434.8625 39.503124 434.8625 38.08125L434.8625 27.175L436.6125 27.175L436.6125 38.1125Q436.6125 40.034374 436.1125 40.784374Q435.4875 41.753124 434.0031 41.753124Q433.3 41.753124 432.6281 41.58125ZM438.22186 32.3625Q438.22186 29.4875 439.8156 28.096874Q441.15936 26.940624 443.08124 26.940624Q445.22186 26.940624 446.5656 28.346874Q447.925 29.753124 447.925 32.221874Q447.925 34.221874 447.33124 35.378124Q446.7375 36.51875 445.58124 37.159374Q444.4406 37.784374 443.08124 37.784374Q440.89374 37.784374 439.55 36.39375Q438.22186 34.9875 438.22186 32.3625ZM440.01874 32.3625Q440.01874 34.3625 440.8781 35.346874Q441.7531 36.33125 443.08124 36.33125Q444.39374 36.33125 445.2531 35.346874Q446.1281 34.346874 446.1281 32.3Q446.1281 30.378124 445.2531 29.39375Q444.3781 28.39375 443.08124 28.39375Q441.7531 28.39375 440.8781 29.39375Q440.01874 30.378124 440.01874 32.3625ZM456.65936 37.55L456.65936 36.01875Q455.45624 37.784374 453.3781 37.784374Q452.45624 37.784374 451.65936 37.440624Q450.8625 37.08125 450.47186 36.55Q450.09686 36.01875 449.9406 35.2375Q449.83124 34.721874 449.83124 33.596874L449.83124 27.175L451.58124 27.175L451.58124 32.925Q451.58124 34.3 451.6906 34.784374Q451.8625 35.471874 452.39374 35.878124Q452.9406 36.26875 453.72186 36.26875Q454.51874 36.26875 455.20624 35.8625Q455.90936 35.45625 456.1906 34.76875Q456.4875 34.065624 456.4875 32.7375L456.4875 27.175L458.2375 27.175L458.2375 37.55L456.65936 37.55ZM466.97186 34.20625L468.78436 34.440624Q468.3625 36.01875 467.1906 36.909374Q466.03436 37.784374 464.22186 37.784374Q461.95624 37.784374 460.6125 36.39375Q459.28436 34.9875 459.28436 32.45625Q459.28436 29.83125 460.6281 28.39375Q461.97186 26.940624 464.1281 26.940624Q466.20624 26.940624 467.51874 28.3625Q468.84686 29.76875 468.84686 32.346874Q468.84686 32.503124 468.83124 32.815624L461.09686 32.815624Q461.1906 34.51875 462.0656 35.425Q462.9406 36.33125 464.2375 36.33125Q465.20624 36.33125 465.8781 35.83125Q466.5656 35.315624 466.97186 34.20625ZM461.1906 31.3625L466.9875 31.3625Q466.8781 30.065624 466.33124 29.409374Q465.4875 28.39375 464.14374 28.39375Q462.9406 28.39375 462.1125 29.20625Q461.28436 30.003124 461.1906 31.3625ZM470.84686 37.55L470.84686 27.175L472.425 27.175L472.425 28.753124Q473.03436 27.64375 473.55 27.3Q474.0656 26.940624 474.675 26.940624Q475.5656 26.940624 476.4875 27.503124L475.8781 29.14375Q475.2375 28.753124 474.59686 28.753124Q474.01874 28.753124 473.55 29.1125Q473.09686 29.45625 472.89374 30.065624Q472.6125 31.003124 472.6125 32.1125L472.6125 37.55L470.84686 37.55ZM490.64374 36.26875Q489.65936 37.096874 488.7531 37.440624Q487.84686 37.784374 486.8156 37.784374Q485.1125 37.784374 484.1906 36.95625Q483.26874 36.1125 483.26874 34.815624Q483.26874 34.05 483.6125 33.425Q483.97186 32.8 484.53436 32.425Q485.09686 32.034374 485.8 31.83125Q486.3156 31.70625 487.3625 31.565624Q489.4875 31.315624 490.4875 30.971874Q490.5031 30.6125 490.5031 30.503124Q490.5031 29.440624 490.0031 28.9875Q489.33124 28.39375 488.0031 28.39375Q486.7531 28.39375 486.15936 28.83125Q485.58124 29.26875 485.3 30.378124L483.58124 30.14375Q483.8156 29.034374 484.34686 28.3625Q484.8781 27.675 485.89374 27.315624Q486.90936 26.940624 488.2531 26.940624Q489.58124 26.940624 490.40936 27.253124Q491.2375 27.565624 491.6281 28.05Q492.01874 28.51875 492.175 29.2375Q492.26874 29.690624 492.26874 30.8625L492.26874 33.20625Q492.26874 35.659374 492.3781 36.315624Q492.4875 36.95625 492.83124 37.55L490.9875 37.55Q490.72186 37.003124 490.64374 36.26875ZM490.4875 32.346874Q489.53436 32.7375 487.6125 33.003124Q486.53436 33.159374 486.08124 33.3625Q485.64374 33.55 485.39374 33.925Q485.14374 34.3 485.14374 34.76875Q485.14374 35.471874 485.675 35.940624Q486.20624 36.409374 487.2375 36.409374Q488.2531 36.409374 489.03436 35.971874Q489.83124 35.51875 490.20624 34.753124Q490.4875 34.14375 490.4875 32.9875L490.4875 32.346874ZM501.65936 37.55L501.65936 36.01875Q500.45624 37.784374 498.3781 37.784374Q497.45624 37.784374 496.65936 37.440624Q495.8625 37.08125 495.47186 36.55Q495.09686 36.01875 494.9406 35.2375Q494.83124 34.721874 494.83124 33.596874L494.83124 27.175L496.58124 27.175L496.58124 32.925Q496.58124 34.3 496.6906 34.784374Q496.8625 35.471874 497.39374 35.878124Q497.9406 36.26875 498.72186 36.26875Q499.51874 36.26875 500.20624 35.8625Q500.90936 35.45625 501.1906 34.76875Q501.4875 34.065624 501.4875 32.7375L501.4875 27.175L503.2375 27.175L503.2375 37.55L501.65936 37.55ZM510.15936 34.45625L511.90936 34.175Q512.05 35.221874 512.72186 35.784374Q513.39374 36.33125 514.59686 36.33125Q515.8 36.33125 516.3781 35.846874Q516.97186 35.346874 516.97186 34.690624Q516.97186 34.096874 516.45624 33.753124Q516.09686 33.51875 514.65936 33.159374Q512.72186 32.659374 511.97186 32.315624Q511.2375 31.95625 510.84686 31.33125Q510.45624 30.690624 510.45624 29.925Q510.45624 29.2375 510.76874 28.64375Q511.09686 28.05 511.64374 27.659374Q512.05 27.3625 512.7531 27.159374Q513.47186 26.940624 514.28436 26.940624Q515.5031 26.940624 516.425 27.3Q517.34686 27.64375 517.78436 28.253124Q518.22186 28.846874 518.39374 29.846874L516.675 30.08125Q516.55 29.284374 515.9875 28.846874Q515.425 28.39375 514.40936 28.39375Q513.1906 28.39375 512.675 28.8Q512.15936 29.190624 512.15936 29.721874Q512.15936 30.065624 512.3781 30.346874Q512.58124 30.628124 513.05 30.815624Q513.3156 30.909374 514.59686 31.253124Q516.47186 31.753124 517.20624 32.08125Q517.9406 32.39375 518.3625 33.003124Q518.78436 33.596874 518.78436 34.503124Q518.78436 35.378124 518.26874 36.159374Q517.7531 36.940624 516.78436 37.3625Q515.8156 37.784374 514.59686 37.784374Q512.58124 37.784374 511.51874 36.940624Q510.45624 36.096874 510.15936 34.45625ZM527.97186 34.20625L529.78436 34.440624Q529.3625 36.01875 528.1906 36.909374Q527.03436 37.784374 525.22186 37.784374Q522.95624 37.784374 521.6125 36.39375Q520.28436 34.9875 520.28436 32.45625Q520.28436 29.83125 521.6281 28.39375Q522.97186 26.940624 525.1281 26.940624Q527.20624 26.940624 528.51874 28.3625Q529.84686 29.76875 529.84686 32.346874Q529.84686 32.503124 529.83124 32.815624L522.09686 32.815624Q522.1906 34.51875 523.0656 35.425Q523.9406 36.33125 525.2375 36.33125Q526.20624 36.33125 526.8781 35.83125Q527.5656 35.315624 527.97186 34.20625ZM522.1906 31.3625L527.9875 31.3625Q527.8781 30.065624 527.33124 29.409374Q526.4875 28.39375 525.14374 28.39375Q523.9406 28.39375 523.1125 29.20625Q522.28436 30.003124 522.1906 31.3625ZM531.8781 25.253124L531.8781 23.2375L533.64374 23.2375L533.64374 25.253124L531.8781 25.253124ZM531.8781 37.55L531.8781 27.175L533.64374 27.175L533.64374 37.55L531.8781 37.55ZM535.8625 37.55L535.8625 27.175L537.45624 27.175L537.45624 28.659374Q538.59686 26.940624 540.7531 26.940624Q541.6906 26.940624 542.47186 27.284374Q543.26874 27.6125 543.65936 28.159374Q544.05 28.70625 544.20624 29.45625Q544.3 29.95625 544.3 31.175L544.3 37.55L542.53436 37.55L542.53436 31.2375Q542.53436 30.159374 542.33124 29.628124Q542.1281 29.096874 541.59686 28.784374Q541.08124 28.471874 540.3781 28.471874Q539.2531 28.471874 538.4406 29.190624Q537.6281 29.89375 537.6281 31.878124L537.6281 37.55L535.8625 37.55Z" fill-rule="nonzero"/><path fill="#757575" d="M26.596874 61.55L26.596874 60.2375Q25.6125 61.784374 23.690624 61.784374Q22.45625 61.784374 21.409374 61.096874Q20.378124 60.409374 19.8 59.190624Q19.2375 57.971874 19.2375 56.378124Q19.2375 54.815624 19.753124 53.55Q20.26875 52.284374 21.3 51.6125Q22.346874 50.940624 23.6125 50.940624Q24.55 50.940624 25.284374 51.346874Q26.01875 51.7375 26.4875 52.3625L26.4875 47.2375L28.221874 47.2375L28.221874 61.55L26.596874 61.55ZM21.034374 56.378124Q21.034374 58.3625 21.878124 59.346874Q22.721874 60.33125 23.8625 60.33125Q25.01875 60.33125 25.815624 59.39375Q26.628124 58.45625 26.628124 56.51875Q26.628124 54.39375 25.8 53.39375Q24.9875 52.39375 23.784374 52.39375Q22.6125 52.39375 21.815624 53.3625Q21.034374 54.315624 21.034374 56.378124ZM37.971874 58.20625L39.784374 58.440624Q39.3625 60.01875 38.190624 60.909374Q37.034374 61.784374 35.221874 61.784374Q32.95625 61.784374 31.6125 60.39375Q30.284374 58.9875 30.284374 56.45625Q30.284374 53.83125 31.628124 52.39375Q32.971874 50.940624 35.128124 50.940624Q37.20625 50.940624 38.51875 52.3625Q39.846874 53.76875 39.846874 56.346874Q39.846874 56.503124 39.83125 56.815624L32.096874 56.815624Q32.190624 58.51875 33.065624 59.425Q33.940624 60.33125 35.2375 60.33125Q36.20625 60.33125 36.878124 59.83125Q37.565624 59.315624 37.971874 58.20625ZM32.190624 55.3625L37.9875 55.3625Q37.878124 54.065624 37.33125 53.409374Q36.4875 52.39375 35.14375 52.39375Q33.940624 52.39375 33.1125 53.20625Q32.284374 54.003124 32.190624 55.3625ZM41.159374 58.45625L42.909374 58.175Q43.05 59.221874 43.721874 59.784374Q44.39375 60.33125 45.596874 60.33125Q46.8 60.33125 47.378124 59.846874Q47.971874 59.346874 47.971874 58.690624Q47.971874 58.096874 47.45625 57.753124Q47.096874 57.51875 45.659374 57.159374Q43.721874 56.659374 42.971874 56.315624Q42.2375 55.95625 41.846874 55.33125Q41.45625 54.690624 41.45625 53.925Q41.45625 53.2375 41.76875 52.64375Q42.096874 52.05 42.64375 51.659374Q43.05 51.3625 43.753124 51.159374Q44.471874 50.940624 45.284374 50.940624Q46.503124 50.940624 47.425 51.3Q48.346874 51.64375 48.784374 52.253124Q49.221874 52.846874 49.39375 53.846874L47.675 54.08125Q47.55 53.284374 46.9875 52.846874Q46.425 52.39375 45.409374 52.39375Q44.190624 52.39375 43.675 52.8Q43.159374 53.190624 43.159374 53.721874Q43.159374 54.065624 43.378124 54.346874Q43.58125 54.628124 44.05 54.815624Q44.315624 54.909374 45.596874 55.253124Q47.471874 55.753124 48.20625 56.08125Q48.940624 56.39375 49.3625 57.003124Q49.784374 57.596874 49.784374 58.503124Q49.784374 59.378124 49.26875 60.159374Q48.753124 60.940624 47.784374 61.3625Q46.815624 61.784374 45.596874 61.784374Q43.58125 61.784374 42.51875 60.940624Q41.45625 60.096874 41.159374 58.45625ZM68.31563 56.534374L70.20625 57.003124Q69.6125 59.346874 68.06563 60.58125Q66.51875 61.8 64.26875 61.8Q61.95625 61.8 60.503124 60.8625Q59.065624 59.909374 58.3 58.128124Q57.55 56.33125 57.55 54.284374Q57.55 52.05 58.39375 50.39375Q59.253124 48.721874 60.83125 47.8625Q62.409374 46.9875 64.3 46.9875Q66.45625 46.9875 67.90938 48.08125Q69.37813 49.175 69.95625 51.159374L68.09688 51.596874Q67.59688 50.034374 66.64375 49.33125Q65.70625 48.6125 64.26875 48.6125Q62.6125 48.6125 61.503124 49.409374Q60.39375 50.190624 59.940624 51.534374Q59.503124 52.8625 59.503124 54.26875Q59.503124 56.096874 60.034374 57.471874Q60.565624 58.83125 61.690624 59.503124Q62.815624 60.175 64.1125 60.175Q65.70625 60.175 66.81563 59.253124Q67.925 58.33125 68.31563 56.534374ZM72.09688 61.55L72.09688 47.2375L77.4875 47.2375Q78.925 47.2375 79.675 47.3625Q80.72188 47.55 81.44063 48.05Q82.15938 48.534374 82.58125 49.425Q83.01875 50.315624 83.01875 51.378124Q83.01875 53.20625 81.84688 54.471874Q80.69063 55.721874 77.65938 55.721874L73.9875 55.721874L73.9875 61.55L72.09688 61.55ZM73.9875 54.034374L77.69063 54.034374Q79.51875 54.034374 80.28438 53.3625Q81.06563 52.675 81.06563 51.425Q81.06563 50.534374 80.6125 49.89375Q80.15938 49.253124 79.425 49.05Q78.94063 48.925 77.64375 48.925L73.9875 48.925L73.9875 54.034374ZM88.7375 61.55L88.7375 48.925L84.01875 48.925L84.01875 47.2375L95.3625 47.2375L95.3625 48.925L90.62813 48.925L90.62813 61.55L88.7375 61.55ZM96.45625 56.95625L98.2375 56.8Q98.3625 57.8625 98.81563 58.55Q99.28438 59.2375 100.25313 59.675Q101.2375 60.096874 102.47188 60.096874Q103.55 60.096874 104.37813 59.784374Q105.20625 59.45625 105.6125 58.89375Q106.01875 58.33125 106.01875 57.659374Q106.01875 56.9875 105.62813 56.4875Q105.2375 55.9875 104.34688 55.64375Q103.76875 55.409374 101.78438 54.940624Q99.81563 54.471874 99.03438 54.05Q98.00313 53.51875 97.50313 52.721874Q97.00313 51.925 97.00313 50.940624Q97.00313 49.846874 97.6125 48.909374Q98.22188 47.971874 99.40938 47.4875Q100.59688 46.9875 102.03438 46.9875Q103.62813 46.9875 104.84688 47.503124Q106.06563 48.01875 106.70625 49.01875Q107.3625 50.003124 107.40938 51.26875L105.59688 51.409374Q105.45625 50.05 104.6125 49.3625Q103.76875 48.659374 102.1125 48.659374Q100.39375 48.659374 99.59688 49.3Q98.81563 49.925 98.81563 50.8Q98.81563 51.58125 99.37813 52.08125Q99.925 52.58125 102.2375 53.096874Q104.55 53.6125 105.40938 54.003124Q106.65938 54.58125 107.25313 55.471874Q107.84688 56.346874 107.84688 57.503124Q107.84688 58.64375 107.19063 59.659374Q106.53438 60.675 105.3 61.2375Q104.08125 61.8 102.55 61.8Q100.6125 61.8 99.3 61.2375Q97.9875 60.659374 97.2375 59.51875Q96.4875 58.378124 96.45625 56.95625ZM119.15938 58.01875Q119.14375 57.675 119.14375 57.503124Q119.14375 56.45625 119.44063 55.70625Q119.65938 55.14375 120.14375 54.565624Q120.4875 54.14375 121.39375 53.346874Q122.31563 52.534374 122.58125 52.065624Q122.8625 51.58125 122.8625 51.01875Q122.8625 49.9875 122.05 49.221874Q121.25313 48.440624 120.09688 48.440624Q118.97188 48.440624 118.22188 49.14375Q117.47188 49.846874 117.2375 51.33125L115.425 51.1125Q115.675 49.1125 116.87813 48.05Q118.08125 46.9875 120.06563 46.9875Q122.175 46.9875 123.425 48.128124Q124.675 49.26875 124.675 50.89375Q124.675 51.83125 124.22188 52.628124Q123.78438 53.409374 122.50313 54.55Q121.64375 55.315624 121.37813 55.675Q121.12813 56.034374 120.9875 56.503124Q120.8625 56.971874 120.84688 58.01875L119.15938 58.01875ZM119.05 61.55L119.05 59.55L121.05 59.55L121.05 61.55L119.05 61.55Z" fill-rule="nonzero"/></svg>