<svg version="1.1" viewBox="0.0 0.0 646.0 400.0" fill="none" stroke="none" stroke-linecap="square" stroke-miterlimit="10" width="646" height="400" xmlns:xlink="http://www.w3.org/1999/xlink" xmlns="http://www.w3.org/2000/svg"><path fill="#ffffff" d="M0 0L646.0 0L646.0 400.0L0 400.0L0 0Z" fill-rule="nonzero"/><path fill="#4285f4" d="M323.0 81.333336C382.56775 81.333336 436.43805 116.734375 460.0742 171.41205C483.71033 226.08974 472.59088 289.58463 431.78052 332.97623L323.0 230.66667Z" fill-rule="nonzero"/><path fill="#fbbc04" d="M312.54825 81.69954C316.02682 81.455475 319.51288 81.333336 323.0 81.333336L323.0 230.66667Z" fill-rule="nonzero"/><path fill="#ea4335" d="M431.78052 332.97623C385.9736 381.6804 313.37564 394.00125 254.06487 363.13702C194.75409 332.27277 163.18687 265.74628 176.79012 200.2839C190.39334 134.82153 245.8514 86.37909 312.54825 81.69954L323.0 230.66667Z" fill-rule="nonzero"/><path fill="#000000" d="M417.29187 187.33472L418.51062 187.16284Q418.72937 188.20972 419.22937 188.67847Q419.745 189.13159 420.47937 189.13159Q421.35437 189.13159 421.94812 188.53784Q422.54187 187.92847 422.54187 187.03784Q422.54187 186.19409 421.97937 185.64722Q421.4325 185.10034 420.58875 185.10034Q420.22937 185.10034 419.71375 185.22534L419.85437 184.14722Q419.97937 184.16284 420.04187 184.16284Q420.83875 184.16284 421.46375 183.75659Q422.08875 183.35034 422.08875 182.49097Q422.08875 181.81909 421.63562 181.38159Q421.1825 180.92847 420.44812 180.92847Q419.72937 180.92847 419.245 181.38159Q418.77625 181.81909 418.63562 182.72534L417.41687 182.50659Q417.63562 181.27222 418.4325 180.60034Q419.22937 179.91284 420.41687 179.91284Q421.245 179.91284 421.9325 180.27222Q422.62 180.61597 422.97937 181.22534Q423.35437 181.83472 423.35437 182.52222Q423.35437 183.16284 423.01062 183.69409Q422.66687 184.22534 421.97937 184.55347Q422.87 184.75659 423.35437 185.39722Q423.85437 186.03784 423.85437 187.02222Q423.85437 188.33472 422.88562 189.24097Q421.9325 190.14722 420.47937 190.14722Q419.15125 190.14722 418.27625 189.36597Q417.41687 188.58472 417.29187 187.33472ZM425.29187 187.33472L426.51062 187.16284Q426.72937 188.20972 427.22937 188.67847Q427.745 189.13159 428.47937 189.13159Q429.35437 189.13159 429.94812 188.53784Q430.54187 187.92847 430.54187 187.03784Q430.54187 186.19409 429.97937 185.64722Q429.4325 185.10034 428.58875 185.10034Q428.22937 185.10034 427.71375 185.22534L427.85437 184.14722Q427.97937 184.16284 428.04187 184.16284Q428.83875 184.16284 429.46375 183.75659Q430.08875 183.35034 430.08875 182.49097Q430.08875 181.81909 429.63562 181.38159Q429.1825 180.92847 428.44812 180.92847Q427.72937 180.92847 427.245 181.38159Q426.77625 181.81909 426.63562 182.72534L425.41687 182.50659Q425.63562 181.27222 426.4325 180.60034Q427.22937 179.91284 428.41687 179.91284Q429.245 179.91284 429.9325 180.27222Q430.62 180.61597 430.97937 181.22534Q431.35437 181.83472 431.35437 182.52222Q431.35437 183.16284 431.01062 183.69409Q430.66687 184.22534 429.97937 184.55347Q430.87 184.75659 431.35437 185.39722Q431.85437 186.03784 431.85437 187.02222Q431.85437 188.33472 430.88562 189.24097Q429.9325 190.14722 428.47937 190.14722Q427.15125 190.14722 426.27625 189.36597Q425.41687 188.58472 425.29187 187.33472ZM439.745 188.78784L439.745 189.97534L433.12 189.97534Q433.10437 189.53784 433.26062 189.11597Q433.52625 188.44409 434.07312 187.78784Q434.63562 187.13159 435.6825 186.27222Q437.32312 184.92847 437.88562 184.14722Q438.46375 183.36597 438.46375 182.66284Q438.46375 181.92847 437.9325 181.42847Q437.41687 180.92847 436.58875 180.92847Q435.69812 180.92847 435.15125 181.45972Q434.62 181.99097 434.62 182.94409L433.35437 182.80347Q433.47937 181.39722 434.32312 180.66284Q435.1825 179.91284 436.60437 179.91284Q438.0575 179.91284 438.88562 180.70972Q439.72937 181.50659 439.72937 182.69409Q439.72937 183.30347 439.47937 183.88159Q439.245 184.45972 438.66687 185.10034Q438.10437 185.74097 436.77625 186.86597Q435.66687 187.78784 435.35437 188.13159Q435.04187 188.45972 434.83875 188.78784L439.745 188.78784Z" fill-rule="nonzero"/><path fill="#000000" d="M207.78337 282.29288L209.08025 282.1835Q209.22087 283.121 209.7365 283.60538Q210.26775 284.07413 211.00212 284.07413Q211.89275 284.07413 212.50212 283.40225Q213.12712 282.73038 213.12712 281.63663Q213.12712 280.57413 212.53337 279.96475Q211.93962 279.35538 210.9865 279.35538Q210.39275 279.35538 209.90837 279.63663Q209.43962 279.90225 209.15837 280.32413L208.00212 280.1835L208.97087 275.02725L213.95525 275.02725L213.95525 276.21475L209.95525 276.21475L209.424 278.90225Q210.33025 278.27725 211.31462 278.27725Q212.62712 278.27725 213.51775 279.1835Q214.424 280.08975 214.424 281.52725Q214.424 282.88663 213.64275 283.871Q212.674 285.08975 211.00212 285.08975Q209.64275 285.08975 208.76775 284.32413Q207.90837 283.5585 207.78337 282.29288ZM215.78337 282.29288L217.08025 282.1835Q217.22087 283.121 217.7365 283.60538Q218.26775 284.07413 219.00212 284.07413Q219.89275 284.07413 220.50212 283.40225Q221.12712 282.73038 221.12712 281.63663Q221.12712 280.57413 220.53337 279.96475Q219.93962 279.35538 218.9865 279.35538Q218.39275 279.35538 217.90837 279.63663Q217.43962 279.90225 217.15837 280.32413L216.00212 280.1835L216.97087 275.02725L221.95525 275.02725L221.95525 276.21475L217.95525 276.21475L217.424 278.90225Q218.33025 278.27725 219.31462 278.27725Q220.62712 278.27725 221.51775 279.1835Q222.424 280.08975 222.424 281.52725Q222.424 282.88663 221.64275 283.871Q220.674 285.08975 219.00212 285.08975Q217.64275 285.08975 216.76775 284.32413Q215.90837 283.5585 215.78337 282.29288ZM223.78337 282.29288L225.08025 282.1835Q225.22087 283.121 225.7365 283.60538Q226.26775 284.07413 227.00212 284.07413Q227.89275 284.07413 228.50212 283.40225Q229.12712 282.73038 229.12712 281.63663Q229.12712 280.57413 228.53337 279.96475Q227.93962 279.35538 226.9865 279.35538Q226.39275 279.35538 225.90837 279.63663Q225.43962 279.90225 225.15837 280.32413L224.00212 280.1835L224.97087 275.02725L229.95525 275.02725L229.95525 276.21475L225.95525 276.21475L225.424 278.90225Q226.33025 278.27725 227.31462 278.27725Q228.62712 278.27725 229.51775 279.1835Q230.424 280.08975 230.424 281.52725Q230.424 282.88663 229.64275 283.871Q228.674 285.08975 227.00212 285.08975Q225.64275 285.08975 224.76775 284.32413Q223.90837 283.5585 223.78337 282.29288Z" fill-rule="nonzero"/><path fill="#1a1a1a" d="M20.921875 92.333336L20.921875 83.739586L22.078125 83.739586L26.59375 90.489586L26.59375 83.739586L27.6875 83.739586L27.6875 92.333336L26.515625 92.333336L22.0 85.583336L22.0 92.333336L20.921875 92.333336ZM29.40625 89.22396Q29.40625 87.489586 30.359375 86.66146Q31.15625 85.97396 32.3125 85.97396Q33.59375 85.97396 34.40625 86.81771Q35.234375 87.645836 35.234375 89.13021Q35.234375 90.333336 34.875 91.020836Q34.515625 91.708336 33.8125 92.09896Q33.125 92.47396 32.3125 92.47396Q31.015625 92.47396 30.203125 91.645836Q29.40625 90.802086 29.40625 89.22396ZM30.484375 89.22396Q30.484375 90.41146 31.0 91.00521Q31.53125 91.59896 32.3125 91.59896Q33.109375 91.59896 33.625 91.00521Q34.140625 90.41146 34.140625 89.19271Q34.140625 88.03646 33.609375 87.44271Q33.09375 86.84896 32.3125 86.84896Q31.53125 86.84896 31.0 87.44271Q30.484375 88.020836 30.484375 89.22396ZM36.796875 92.333336L36.796875 86.114586L37.734375 86.114586L37.734375 86.989586Q38.421875 85.97396 39.71875 85.97396Q40.28125 85.97396 40.75 86.177086Q41.234375 86.38021 41.46875 86.708336Q41.703125 87.03646 41.796875 87.47396Q41.84375 87.770836 41.84375 88.50521L41.84375 92.333336L40.796875 92.333336L40.796875 88.552086Q40.796875 87.895836 40.671875 87.583336Q40.546875 87.270836 40.234375 87.083336Q39.921875 86.88021 39.5 86.88021Q38.828125 86.88021 38.328125 87.31771Q37.84375 87.739586 37.84375 88.927086L37.84375 92.333336L36.796875 92.333336Z" fill-rule="nonzero"/><path fill="#9e9e9e" d="M24.46875 109.333336L23.421875 109.333336L23.421875 102.614586Q23.03125 102.97396 22.40625 103.34896Q21.796875 103.708336 21.3125 103.88021L21.3125 102.864586Q22.1875 102.44271 22.84375 101.864586Q23.515625 101.270836 23.796875 100.708336L24.46875 100.708336L24.46875 109.333336ZM28.0625 109.333336L28.0625 108.13021L29.265625 108.13021L29.265625 109.333336Q29.265625 109.989586 29.03125 110.395836Q28.796875 110.81771 28.296875 111.03646L28.0 110.583336Q28.328125 110.44271 28.484375 110.145836Q28.640625 109.864586 28.671875 109.333336L28.0625 109.333336ZM34.46875 109.333336L33.421875 109.333336L33.421875 102.614586Q33.03125 102.97396 32.40625 103.34896Q31.796875 103.708336 31.3125 103.88021L31.3125 102.864586Q32.1875 102.44271 32.84375 101.864586Q33.515625 101.270836 33.796875 100.708336L34.46875 100.708336L34.46875 109.333336ZM37.703125 102.802086Q37.703125 101.88021 38.15625 101.239586Q38.625 100.59896 39.5 100.59896Q40.3125 100.59896 40.84375 101.177086Q41.375 101.75521 41.375 102.864586Q41.375 103.958336 40.828125 104.552086Q40.296875 105.13021 39.515625 105.13021Q38.734375 105.13021 38.21875 104.552086Q37.703125 103.97396 37.703125 102.802086ZM39.53125 101.31771Q39.140625 101.31771 38.875 101.66146Q38.625 102.00521 38.625 102.91146Q38.625 103.739586 38.875 104.083336Q39.140625 104.41146 39.53125 104.41146Q39.9375 104.41146 40.1875 104.06771Q40.453125 103.72396 40.453125 102.833336Q40.453125 101.989586 40.1875 101.66146Q39.921875 101.31771 39.53125 101.31771ZM39.53125 109.645836L44.234375 100.59896L45.09375 100.59896L40.40625 109.645836L39.53125 109.645836ZM43.25 107.31771Q43.25 106.395836 43.703125 105.75521Q44.171875 105.114586 45.0625 105.114586Q45.875 105.114586 46.40625 105.69271Q46.9375 106.25521 46.9375 107.38021Q46.9375 108.47396 46.390625 109.06771Q45.859375 109.645836 45.0625 109.645836Q44.296875 109.645836 43.765625 109.06771Q43.25 108.489586 43.25 107.31771ZM45.09375 105.833336Q44.6875 105.833336 44.421875 106.177086Q44.171875 106.520836 44.171875 107.427086Q44.171875 108.239586 44.4375 108.583336Q44.703125 108.927086 45.09375 108.927086Q45.484375 108.927086 45.75 108.583336Q46.015625 108.239586 46.015625 107.333336Q46.015625 106.50521 45.75 106.177086Q45.484375 105.833336 45.09375 105.833336Z" fill-rule="nonzero"/><path stroke="#757575" stroke-width="1.0" stroke-linecap="butt" d="M20.0 96.833336L167.66667 96.833336L318.03238 88.887" fill-rule="nonzero"/><path fill="#9e9e9e" d="M320.03238 88.887C320.03238 87.78243 319.13693 86.887 318.03238 86.887C316.9278 86.887 316.03238 87.78243 316.03238 88.887C316.03238 89.99157 316.9278 90.887 318.03238 90.887C319.13693 90.887 320.03238 89.99157 320.03238 88.887" fill-rule="nonzero"/><path fill="#1a1a1a" d="M20.921875 286.98386L20.921875 278.3901L22.078125 278.3901L26.59375 285.1401L26.59375 278.3901L27.6875 278.3901L27.6875 286.98386L26.515625 286.98386L22.0 280.23386L22.0 286.98386L20.921875 286.98386ZM34.046875 284.98386L35.140625 285.10886Q34.890625 286.06198 34.1875 286.59323Q33.484375 287.12448 32.40625 287.12448Q31.046875 287.12448 30.234375 286.28073Q29.4375 285.43698 29.4375 283.92136Q29.4375 282.35886 30.25 281.49948Q31.0625 280.62448 32.34375 280.62448Q33.59375 280.62448 34.375 281.46823Q35.171875 282.31198 35.171875 283.85886Q35.171875 283.9526 35.171875 284.1401L30.53125 284.1401Q30.59375 285.17136 31.109375 285.71823Q31.625 286.24948 32.40625 286.24948Q32.984375 286.24948 33.390625 285.9526Q33.8125 285.6401 34.046875 284.98386ZM30.59375 283.28073L34.0625 283.28073Q34.0 282.48386 33.671875 282.09323Q33.15625 281.48386 32.359375 281.48386Q31.625 281.48386 31.125 281.96823Q30.640625 282.4526 30.59375 283.28073ZM39.375 285.12448L40.40625 284.96823Q40.5 285.59323 40.890625 285.92136Q41.296875 286.24948 42.03125 286.24948Q42.75 286.24948 43.09375 285.96823Q43.453125 285.67136 43.453125 285.2651Q43.453125 284.90573 43.140625 284.7026Q42.921875 284.56198 42.0625 284.34323Q40.90625 284.04636 40.453125 283.84323Q40.015625 283.62448 39.78125 283.24948Q39.546875 282.87448 39.546875 282.40573Q39.546875 281.99948 39.734375 281.6401Q39.921875 281.28073 40.25 281.04636Q40.5 280.87448 40.921875 280.74948Q41.34375 280.62448 41.84375 280.62448Q42.5625 280.62448 43.109375 280.84323Q43.671875 281.04636 43.9375 281.40573Q44.203125 281.7651 44.296875 282.35886L43.265625 282.49948Q43.203125 282.03073 42.859375 281.7651Q42.53125 281.48386 41.90625 281.48386Q41.1875 281.48386 40.875 281.73386Q40.5625 281.96823 40.5625 282.29636Q40.5625 282.49948 40.6875 282.65573Q40.828125 282.8276 41.09375 282.93698Q41.25 282.99948 42.03125 283.2026Q43.15625 283.5151 43.59375 283.7026Q44.03125 283.8901 44.28125 284.24948Q44.53125 284.60886 44.53125 285.15573Q44.53125 285.68698 44.21875 286.15573Q43.921875 286.60886 43.34375 286.87448Q42.765625 287.12448 42.03125 287.12448Q40.8125 287.12448 40.171875 286.62448Q39.546875 286.10886 39.375 285.12448ZM51.046875 284.98386L52.140625 285.10886Q51.890625 286.06198 51.1875 286.59323Q50.484375 287.12448 49.40625 287.12448Q48.046875 287.12448 47.234375 286.28073Q46.4375 285.43698 46.4375 283.92136Q46.4375 282.35886 47.25 281.49948Q48.0625 280.62448 49.34375 280.62448Q50.59375 280.62448 51.375 281.46823Q52.171875 282.31198 52.171875 283.85886Q52.171875 283.9526 52.171875 284.1401L47.53125 284.1401Q47.59375 285.17136 48.109375 285.71823Q48.625 286.24948 49.40625 286.24948Q49.984375 286.24948 50.390625 285.9526Q50.8125 285.6401 51.046875 284.98386ZM47.59375 283.28073L51.0625 283.28073Q51.0 282.48386 50.671875 282.09323Q50.15625 281.48386 49.359375 281.48386Q48.625 281.48386 48.125 281.96823Q47.640625 282.4526 47.59375 283.28073ZM56.796875 289.37448L56.796875 280.7651L57.75 280.7651L57.75 281.56198Q58.09375 281.09323 58.515625 280.85886Q58.953125 280.62448 59.5625 280.62448Q60.359375 280.62448 60.96875 281.03073Q61.578125 281.43698 61.875 282.18698Q62.1875 282.93698 62.1875 283.8276Q62.1875 284.78073 61.84375 285.54636Q61.515625 286.31198 60.859375 286.71823Q60.203125 287.12448 59.484375 287.12448Q58.953125 287.12448 58.53125 286.90573Q58.109375 286.67136 57.84375 286.34323L57.84375 289.37448L56.796875 289.37448ZM57.75 283.90573Q57.75 285.10886 58.234375 285.68698Q58.71875 286.24948 59.40625 286.24948Q60.109375 286.24948 60.609375 285.65573Q61.109375 285.06198 61.109375 283.81198Q61.109375 282.62448 60.625 282.04636Q60.140625 281.4526 59.453125 281.4526Q58.78125 281.4526 58.265625 282.0776Q57.75 282.7026 57.75 283.90573ZM63.78125 286.98386L63.78125 280.7651L64.734375 280.7651L64.734375 281.7026Q65.09375 281.04636 65.390625 280.84323Q65.703125 280.62448 66.078125 280.62448Q66.609375 280.62448 67.15625 280.9526L66.796875 281.93698Q66.40625 281.7026 66.03125 281.7026Q65.671875 281.7026 65.390625 281.92136Q65.125 282.12448 65.015625 282.49948Q64.828125 283.06198 64.828125 283.71823L64.828125 286.98386L63.78125 286.98386ZM67.40625 283.87448Q67.40625 282.1401 68.359375 281.31198Q69.15625 280.62448 70.3125 280.62448Q71.59375 280.62448 72.40625 281.46823Q73.234375 282.29636 73.234375 283.78073Q73.234375 284.98386 72.875 285.67136Q72.515625 286.35886 71.8125 286.74948Q71.125 287.12448 70.3125 287.12448Q69.015625 287.12448 68.203125 286.29636Q67.40625 285.4526 67.40625 283.87448ZM68.484375 283.87448Q68.484375 285.06198 69.0 285.65573Q69.53125 286.24948 70.3125 286.24948Q71.109375 286.24948 71.625 285.65573Q72.140625 285.06198 72.140625 283.84323Q72.140625 282.68698 71.609375 282.09323Q71.09375 281.49948 70.3125 281.49948Q69.53125 281.49948 69.0 282.09323Q68.484375 282.67136 68.484375 283.87448ZM74.796875 286.98386L74.796875 280.7651L75.734375 280.7651L75.734375 281.6401Q76.421875 280.62448 77.71875 280.62448Q78.28125 280.62448 78.75 280.8276Q79.234375 281.03073 79.46875 281.35886Q79.703125 281.68698 79.796875 282.12448Q79.84375 282.42136 79.84375 283.15573L79.84375 286.98386L78.796875 286.98386L78.796875 283.2026Q78.796875 282.54636 78.671875 282.23386Q78.546875 281.92136 78.234375 281.73386Q77.921875 281.53073 77.5 281.53073Q76.828125 281.53073 76.328125 281.96823Q75.84375 282.3901 75.84375 283.5776L75.84375 286.98386L74.796875 286.98386ZM81.40625 283.87448Q81.40625 282.1401 82.359375 281.31198Q83.15625 280.62448 84.3125 280.62448Q85.59375 280.62448 86.40625 281.46823Q87.234375 282.29636 87.234375 283.78073Q87.234375 284.98386 86.875 285.67136Q86.515625 286.35886 85.8125 286.74948Q85.125 287.12448 84.3125 287.12448Q83.015625 287.12448 82.203125 286.29636Q81.40625 285.4526 81.40625 283.87448ZM82.484375 283.87448Q82.484375 285.06198 83.0 285.65573Q83.53125 286.24948 84.3125 286.24948Q85.109375 286.24948 85.625 285.65573Q86.140625 285.06198 86.140625 283.84323Q86.140625 282.68698 85.609375 282.09323Q85.09375 281.49948 84.3125 281.49948Q83.53125 281.49948 83.0 282.09323Q82.484375 282.67136 82.484375 283.87448ZM88.796875 286.98386L88.796875 280.7651L89.734375 280.7651L89.734375 281.6401Q90.421875 280.62448 91.71875 280.62448Q92.28125 280.62448 92.75 280.8276Q93.234375 281.03073 93.46875 281.35886Q93.703125 281.68698 93.796875 282.12448Q93.84375 282.42136 93.84375 283.15573L93.84375 286.98386L92.796875 286.98386L92.796875 283.2026Q92.796875 282.54636 92.671875 282.23386Q92.546875 281.92136 92.234375 281.73386Q91.921875 281.53073 91.5 281.53073Q90.828125 281.53073 90.328125 281.96823Q89.84375 282.3901 89.84375 283.5776L89.84375 286.98386L88.796875 286.98386ZM99.859375 284.7026L100.890625 284.84323Q100.71875 285.90573 100.015625 286.5151Q99.3125 287.12448 98.296875 287.12448Q97.015625 287.12448 96.234375 286.29636Q95.46875 285.4526 95.46875 283.8901Q95.46875 282.8901 95.796875 282.1401Q96.140625 281.37448 96.8125 280.99948Q97.5 280.62448 98.3125 280.62448Q99.3125 280.62448 99.953125 281.1401Q100.609375 281.6401 100.796875 282.59323L99.765625 282.74948Q99.625 282.12448 99.25 281.81198Q98.875 281.48386 98.34375 281.48386Q97.546875 281.48386 97.046875 282.06198Q96.546875 282.62448 96.546875 283.85886Q96.546875 285.12448 97.03125 285.68698Q97.515625 286.24948 98.28125 286.24948Q98.90625 286.24948 99.3125 285.87448Q99.734375 285.49948 99.859375 284.7026ZM106.046875 284.98386L107.140625 285.10886Q106.890625 286.06198 106.1875 286.59323Q105.484375 287.12448 104.40625 287.12448Q103.046875 287.12448 102.234375 286.28073Q101.4375 285.43698 101.4375 283.92136Q101.4375 282.35886 102.25 281.49948Q103.0625 280.62448 104.34375 280.62448Q105.59375 280.62448 106.375 281.46823Q107.171875 282.31198 107.171875 283.85886Q107.171875 283.9526 107.171875 284.1401L102.53125 284.1401Q102.59375 285.17136 103.109375 285.71823Q103.625 286.24948 104.40625 286.24948Q104.984375 286.24948 105.390625 285.9526Q105.8125 285.6401 106.046875 284.98386ZM102.59375 283.28073L106.0625 283.28073Q106.0 282.48386 105.671875 282.09323Q105.15625 281.48386 104.359375 281.48386Q103.625 281.48386 103.125 281.96823Q102.640625 282.4526 102.59375 283.28073ZM111.796875 289.37448L111.796875 280.7651L112.75 280.7651L112.75 281.56198Q113.09375 281.09323 113.515625 280.85886Q113.953125 280.62448 114.5625 280.62448Q115.359375 280.62448 115.96875 281.03073Q116.578125 281.43698 116.875 282.18698Q117.1875 282.93698 117.1875 283.8276Q117.1875 284.78073 116.84375 285.54636Q116.515625 286.31198 115.859375 286.71823Q115.203125 287.12448 114.484375 287.12448Q113.953125 287.12448 113.53125 286.90573Q113.109375 286.67136 112.84375 286.34323L112.84375 289.37448L111.796875 289.37448ZM112.75 283.90573Q112.75 285.10886 113.234375 285.68698Q113.71875 286.24948 114.40625 286.24948Q115.109375 286.24948 115.609375 285.65573Q116.109375 285.06198 116.109375 283.81198Q116.109375 282.62448 115.625 282.04636Q115.140625 281.4526 114.453125 281.4526Q113.78125 281.4526 113.265625 282.0776Q112.75 282.7026 112.75 283.90573ZM122.859375 286.21823Q122.265625 286.71823 121.71875 286.92136Q121.1875 287.12448 120.5625 287.12448Q119.53125 287.12448 118.984375 286.62448Q118.4375 286.12448 118.4375 285.34323Q118.4375 284.8901 118.640625 284.5151Q118.84375 284.12448 119.1875 283.90573Q119.53125 283.67136 119.953125 283.56198Q120.25 283.46823 120.890625 283.3901Q122.15625 283.24948 122.765625 283.03073Q122.765625 282.81198 122.765625 282.7651Q122.765625 282.10886 122.46875 281.84323Q122.0625 281.49948 121.265625 281.49948Q120.53125 281.49948 120.171875 281.7651Q119.8125 282.0151 119.640625 282.67136L118.609375 282.53073Q118.75 281.87448 119.078125 281.46823Q119.40625 281.06198 120.015625 280.84323Q120.625 280.62448 121.421875 280.62448Q122.21875 280.62448 122.71875 280.81198Q123.21875 280.99948 123.453125 281.28073Q123.6875 281.56198 123.78125 281.99948Q123.828125 282.2651 123.828125 282.96823L123.828125 284.37448Q123.828125 285.84323 123.890625 286.23386Q123.96875 286.62448 124.171875 286.98386L123.0625 286.98386Q122.90625 286.65573 122.859375 286.21823ZM122.765625 283.85886Q122.1875 284.09323 121.046875 284.2651Q120.390625 284.35886 120.125 284.48386Q119.859375 284.59323 119.703125 284.81198Q119.5625 285.03073 119.5625 285.31198Q119.5625 285.73386 119.875 286.0151Q120.203125 286.29636 120.8125 286.29636Q121.421875 286.29636 121.890625 286.03073Q122.375 285.7651 122.59375 285.29636Q122.765625 284.93698 122.765625 284.24948L122.765625 283.85886ZM125.375 285.12448L126.40625 284.96823Q126.5 285.59323 126.890625 285.92136Q127.296875 286.24948 128.03125 286.24948Q128.75 286.24948 129.09375 285.96823Q129.45312 285.67136 129.45312 285.2651Q129.45312 284.90573 129.14062 284.7026Q128.92188 284.56198 128.0625 284.34323Q126.90625 284.04636 126.453125 283.84323Q126.015625 283.62448 125.78125 283.24948Q125.546875 282.87448 125.546875 282.40573Q125.546875 281.99948 125.734375 281.6401Q125.921875 281.28073 126.25 281.04636Q126.5 280.87448 126.921875 280.74948Q127.34375 280.62448 127.84375 280.62448Q128.5625 280.62448 129.10938 280.84323Q129.67188 281.04636 129.9375 281.40573Q130.20312 281.7651 130.29688 282.35886L129.26562 282.49948Q129.20312 282.03073 128.85938 281.7651Q128.53125 281.48386 127.90625 281.48386Q127.1875 281.48386 126.875 281.73386Q126.5625 281.96823 126.5625 282.29636Q126.5625 282.49948 126.6875 282.65573Q126.828125 282.8276 127.09375 282.93698Q127.25 282.99948 128.03125 283.2026Q129.15625 283.5151 129.59375 283.7026Q130.03125 283.8901 130.28125 284.24948Q130.53125 284.60886 130.53125 285.15573Q130.53125 285.68698 130.21875 286.15573Q129.92188 286.60886 129.34375 286.87448Q128.76562 287.12448 128.03125 287.12448Q126.8125 287.12448 126.171875 286.62448Q125.546875 286.10886 125.375 285.12448Z" fill-rule="nonzero"/><path fill="#9e9e9e" d="M25.96875 297.49948L24.921875 297.5776Q24.78125 296.9526 24.53125 296.67136Q24.09375 296.21823 23.46875 296.21823Q22.96875 296.21823 22.578125 296.49948Q22.09375 296.87448 21.796875 297.5776Q21.515625 298.2651 21.5 299.54636Q21.875 298.96823 22.421875 298.68698Q22.984375 298.40573 23.59375 298.40573Q24.640625 298.40573 25.375 299.18698Q26.125 299.96823 26.125 301.18698Q26.125 301.99948 25.765625 302.7026Q25.421875 303.3901 24.8125 303.7651Q24.203125 304.12448 23.4375 304.12448Q22.109375 304.12448 21.28125 303.15573Q20.453125 302.18698 20.453125 299.96823Q20.453125 297.46823 21.375 296.34323Q22.171875 295.35886 23.53125 295.35886Q24.546875 295.35886 25.1875 295.93698Q25.84375 296.49948 25.96875 297.49948ZM21.671875 301.2026Q21.671875 301.74948 21.890625 302.24948Q22.125 302.73386 22.53125 302.99948Q22.953125 303.2651 23.421875 303.2651Q24.078125 303.2651 24.5625 302.73386Q25.046875 302.18698 25.046875 301.2651Q25.046875 300.37448 24.5625 299.85886Q24.09375 299.34323 23.375 299.34323Q22.65625 299.34323 22.15625 299.85886Q21.671875 300.37448 21.671875 301.2026ZM31.46875 303.98386L30.421875 303.98386L30.421875 297.2651Q30.03125 297.62448 29.40625 297.99948Q28.796875 298.35886 28.3125 298.53073L28.3125 297.5151Q29.1875 297.09323 29.84375 296.5151Q30.515625 295.92136 30.796875 295.35886L31.46875 295.35886L31.46875 303.98386ZM35.0625 303.98386L35.0625 302.78073L36.265625 302.78073L36.265625 303.98386Q36.265625 304.6401 36.03125 305.04636Q35.796875 305.46823 35.296875 305.68698L35.0 305.23386Q35.328125 305.09323 35.484375 304.79636Q35.640625 304.5151 35.671875 303.98386L35.0625 303.98386ZM37.65625 301.99948L38.671875 301.90573Q38.796875 302.62448 39.15625 302.9526Q39.53125 303.2651 40.09375 303.2651Q40.578125 303.2651 40.9375 303.04636Q41.3125 302.81198 41.546875 302.4526Q41.78125 302.0776 41.9375 301.4526Q42.09375 300.81198 42.09375 300.15573Q42.09375 300.0776 42.09375 299.93698Q41.78125 300.43698 41.234375 300.7651Q40.6875 301.0776 40.046875 301.0776Q38.96875 301.0776 38.234375 300.31198Q37.5 299.53073 37.5 298.2651Q37.5 296.9526 38.265625 296.15573Q39.046875 295.35886 40.203125 295.35886Q41.03125 295.35886 41.71875 295.81198Q42.421875 296.2651 42.78125 297.10886Q43.140625 297.93698 43.140625 299.5151Q43.140625 301.15573 42.78125 302.1401Q42.4375 303.10886 41.71875 303.62448Q41.015625 304.12448 40.078125 304.12448Q39.0625 304.12448 38.421875 303.5776Q37.78125 303.0151 37.65625 301.99948ZM41.96875 298.2026Q41.96875 297.29636 41.484375 296.7651Q41.015625 296.23386 40.328125 296.23386Q39.625 296.23386 39.09375 296.81198Q38.578125 297.37448 38.578125 298.29636Q38.578125 299.10886 39.078125 299.62448Q39.578125 300.1401 40.296875 300.1401Q41.03125 300.1401 41.5 299.62448Q41.96875 299.10886 41.96875 298.2026ZM44.703125 297.4526Q44.703125 296.53073 45.15625 295.8901Q45.625 295.24948 46.5 295.24948Q47.3125 295.24948 47.84375 295.8276Q48.375 296.40573 48.375 297.5151Q48.375 298.60886 47.828125 299.2026Q47.296875 299.78073 46.515625 299.78073Q45.734375 299.78073 45.21875 299.2026Q44.703125 298.62448 44.703125 297.4526ZM46.53125 295.96823Q46.140625 295.96823 45.875 296.31198Q45.625 296.65573 45.625 297.56198Q45.625 298.3901 45.875 298.73386Q46.140625 299.06198 46.53125 299.06198Q46.9375 299.06198 47.1875 298.71823Q47.453125 298.37448 47.453125 297.48386Q47.453125 296.6401 47.1875 296.31198Q46.921875 295.96823 46.53125 295.96823ZM46.53125 304.29636L51.234375 295.24948L52.09375 295.24948L47.40625 304.29636L46.53125 304.29636ZM50.25 301.96823Q50.25 301.04636 50.703125 300.40573Q51.171875 299.7651 52.0625 299.7651Q52.875 299.7651 53.40625 300.34323Q53.9375 300.90573 53.9375 302.03073Q53.9375 303.12448 53.390625 303.71823Q52.859375 304.29636 52.0625 304.29636Q51.296875 304.29636 50.765625 303.71823Q50.25 303.1401 50.25 301.96823ZM52.09375 300.48386Q51.6875 300.48386 51.421875 300.8276Q51.171875 301.17136 51.171875 302.0776Q51.171875 302.8901 51.4375 303.23386Q51.703125 303.5776 52.09375 303.5776Q52.484375 303.5776 52.75 303.23386Q53.015625 302.8901 53.015625 301.98386Q53.015625 301.15573 52.75 300.8276Q52.484375 300.48386 52.09375 300.48386Z" fill-rule="nonzero"/><path stroke="#757575" stroke-width="1.0" stroke-linecap="butt" d="M20.0 291.48386L167.66667 291.48386L194.8305 291.48386" fill-rule="nonzero"/><path fill="#9e9e9e" d="M196.8305 291.48386C196.8305 290.37927 195.93507 289.48386 194.8305 289.48386C193.72592 289.48386 192.8305 290.37927 192.8305 291.48386C192.8305 292.5884 193.72592 293.48386 194.8305 293.48386C195.93507 293.48386 196.8305 292.5884 196.8305 291.48386" fill-rule="nonzero"/><path fill="#1a1a1a" d="M607.5781 165.68729Q607.5781 163.54666 608.71875 162.34354Q609.875 161.12479 611.6875 161.12479Q612.8906 161.12479 613.84375 161.70291Q614.7969 162.26541 615.2969 163.28104Q615.7969 164.29666 615.7969 165.59354Q615.7969 166.89041 615.2656 167.92166Q614.7344 168.95291 613.7656 169.48416Q612.8125 170.01541 611.6875 170.01541Q610.46875 170.01541 609.5156 169.43729Q608.5625 168.84354 608.0625 167.84354Q607.5781 166.82791 607.5781 165.68729ZM608.75 165.70291Q608.75 167.26541 609.5781 168.15604Q610.4219 169.04666 611.6875 169.04666Q612.96875 169.04666 613.7969 168.15604Q614.625 167.24979 614.625 165.57791Q614.625 164.53104 614.2656 163.74979Q613.9219 162.96854 613.2344 162.54666Q612.5469 162.10916 611.7031 162.10916Q610.5 162.10916 609.625 162.93729Q608.75 163.76541 608.75 165.70291ZM620.875 169.87479L620.875 168.95291Q620.1406 170.01541 618.8906 170.01541Q618.34375 170.01541 617.8594 169.81229Q617.3906 169.59354 617.15625 169.28104Q616.9219 168.95291 616.8281 168.48416Q616.7656 168.18729 616.7656 167.49979L616.7656 163.65604L617.8281 163.65604L617.8281 167.10916Q617.8281 167.92166 617.8906 168.21854Q617.9844 168.62479 618.2969 168.87479Q618.625 169.10916 619.1094 169.10916Q619.5781 169.10916 619.9844 168.87479Q620.40625 168.62479 620.5781 168.20291Q620.7656 167.78104 620.7656 166.98416L620.7656 163.65604L621.8125 163.65604L621.8125 169.87479L620.875 169.87479ZM623.7969 162.49979L623.7969 161.28104L624.8594 161.28104L624.8594 162.49979L623.7969 162.49979ZM623.7969 169.87479L623.7969 163.65604L624.8594 163.65604L624.8594 169.87479L623.7969 169.87479Z" fill-rule="nonzero"/><path fill="#9e9e9e" d="M591.5 184.60916L592.5625 184.46854Q592.7344 185.35916 593.1719 185.76541Q593.6094 186.15604 594.2344 186.15604Q594.9844 186.15604 595.5 185.64041Q596.0156 185.12479 596.0156 184.35916Q596.0156 183.64041 595.53125 183.17166Q595.0625 182.68729 594.3281 182.68729Q594.03125 182.68729 593.5781 182.81229L593.7031 181.87479Q593.8125 181.89041 593.875 181.89041Q594.5469 181.89041 595.0781 181.54666Q595.625 181.18729 595.625 180.45291Q595.625 179.87479 595.2344 179.49979Q594.84375 179.10916 594.21875 179.10916Q593.6094 179.10916 593.1875 179.49979Q592.78125 179.89041 592.6719 180.65604L591.6094 180.46854Q591.7969 179.42166 592.4844 178.84354Q593.1719 178.24979 594.1875 178.24979Q594.8906 178.24979 595.4844 178.56229Q596.0781 178.85916 596.3906 179.37479Q596.7031 179.89041 596.7031 180.48416Q596.7031 181.03104 596.40625 181.49979Q596.1094 181.95291 595.53125 182.21854Q596.28125 182.39041 596.7031 182.95291Q597.125 183.49979 597.125 184.34354Q597.125 185.46854 596.2969 186.24979Q595.4844 187.03104 594.2344 187.03104Q593.1094 187.03104 592.3594 186.35916Q591.6094 185.67166 591.5 184.60916ZM598.5625 179.40604L598.5625 178.39041L604.125 178.39041L604.125 179.21854Q603.3125 180.09354 602.5 181.54666Q601.7031 182.98416 601.2656 184.51541Q600.9375 185.59354 600.8594 186.87479L599.7656 186.87479Q599.78125 185.85916 600.15625 184.42166Q600.5469 182.98416 601.25 181.65604Q601.96875 180.32791 602.78125 179.40604L598.5625 179.40604ZM606.0625 186.87479L606.0625 185.67166L607.2656 185.67166L607.2656 186.87479Q607.2656 187.53104 607.03125 187.93729Q606.7969 188.35916 606.2969 188.57791L606.0 188.12479Q606.3281 187.98416 606.4844 187.68729Q606.6406 187.40604 606.6719 186.87479L606.0625 186.87479ZM608.5 182.64041Q608.5 181.10916 608.8125 180.18729Q609.125 179.24979 609.7344 178.74979Q610.3594 178.24979 611.2969 178.24979Q611.9844 178.24979 612.5 178.53104Q613.03125 178.81229 613.375 179.34354Q613.71875 179.85916 613.90625 180.60916Q614.09375 181.35916 614.09375 182.64041Q614.09375 184.15604 613.78125 185.07791Q613.4844 185.99979 612.8594 186.51541Q612.25 187.01541 611.2969 187.01541Q610.0625 187.01541 609.34375 186.12479Q608.5 185.06229 608.5 182.64041ZM609.5781 182.64041Q609.5781 184.74979 610.0781 185.45291Q610.5781 186.15604 611.2969 186.15604Q612.03125 186.15604 612.5156 185.45291Q613.0156 184.74979 613.0156 182.64041Q613.0156 180.51541 612.5156 179.82791Q612.03125 179.12479 611.28125 179.12479Q610.5625 179.12479 610.125 179.73416Q609.5781 180.51541 609.5781 182.64041ZM615.7031 180.34354Q615.7031 179.42166 616.15625 178.78104Q616.625 178.14041 617.5 178.14041Q618.3125 178.14041 618.84375 178.71854Q619.375 179.29666 619.375 180.40604Q619.375 181.49979 618.8281 182.09354Q618.2969 182.67166 617.5156 182.67166Q616.7344 182.67166 616.21875 182.09354Q615.7031 181.51541 615.7031 180.34354ZM617.53125 178.85916Q617.1406 178.85916 616.875 179.20291Q616.625 179.54666 616.625 180.45291Q616.625 181.28104 616.875 181.62479Q617.1406 181.95291 617.53125 181.95291Q617.9375 181.95291 618.1875 181.60916Q618.4531 181.26541 618.4531 180.37479Q618.4531 179.53104 618.1875 179.20291Q617.9219 178.85916 617.53125 178.85916ZM617.53125 187.18729L622.2344 178.14041L623.09375 178.14041L618.40625 187.18729L617.53125 187.18729ZM621.25 184.85916Q621.25 183.93729 621.7031 183.29666Q622.1719 182.65604 623.0625 182.65604Q623.875 182.65604 624.40625 183.23416Q624.9375 183.79666 624.9375 184.92166Q624.9375 186.01541 624.3906 186.60916Q623.8594 187.18729 623.0625 187.18729Q622.2969 187.18729 621.7656 186.60916Q621.25 186.03104 621.25 184.85916ZM623.09375 183.37479Q622.6875 183.37479 622.4219 183.71854Q622.1719 184.06229 622.1719 184.96854Q622.1719 185.78104 622.4375 186.12479Q622.7031 186.46854 623.09375 186.46854Q623.4844 186.46854 623.75 186.12479Q624.0156 185.78104 624.0156 184.87479Q624.0156 184.04666 623.75 183.71854Q623.4844 183.37479 623.09375 183.37479Z" fill-rule="nonzero"/><path stroke="#757575" stroke-width="1.0" stroke-linecap="butt" d="M626.0 174.37479L478.33334 174.37479L453.2205 174.37479" fill-rule="nonzero"/><path fill="#9e9e9e" d="M455.2205 174.37479C455.2205 173.27022 454.32504 172.37479 453.2205 172.37479C452.1159 172.37479 451.2205 173.27022 451.2205 174.37479C451.2205 175.47935 452.1159 176.37479 453.2205 176.37479C454.32504 176.37479 455.2205 175.47935 455.2205 174.37479" fill-rule="nonzero"/><path fill="#757575" d="M21.578125 39.0L21.578125 24.6875L31.9375 24.6875L31.9375 26.375L23.484375 26.375L23.484375 30.75L31.390625 30.75L31.390625 32.4375L23.484375 32.4375L23.484375 37.3125L32.265625 37.3125L32.265625 39.0L21.578125 39.0ZM26.90625 22.140625L25.796875 23.8125L23.796875 23.8125L25.90625 21.078125L27.78125 21.078125L29.96875 23.8125L27.984375 23.8125L26.90625 22.140625ZM38.15625 37.421875L38.40625 38.984375Q37.671875 39.140625 37.078125 39.140625Q36.125 39.140625 35.59375 38.84375Q35.078125 38.53125 34.859375 38.046875Q34.640625 37.546875 34.640625 35.96875L34.640625 30.0L33.359375 30.0L33.359375 28.625L34.640625 28.625L34.640625 26.0625L36.390625 25.0L36.390625 28.625L38.15625 28.625L38.15625 30.0L36.390625 30.0L36.390625 36.0625Q36.390625 36.8125 36.484375 37.03125Q36.578125 37.234375 36.78125 37.375Q37.0 37.5 37.390625 37.5Q37.671875 37.5 38.15625 37.421875ZM47.421875 35.65625L49.234375 35.890625Q48.8125 37.46875 47.640625 38.359375Q46.484375 39.234375 44.671875 39.234375Q42.40625 39.234375 41.0625 37.84375Q39.734375 36.4375 39.734375 33.90625Q39.734375 31.28125 41.078125 29.84375Q42.421875 28.390625 44.578125 28.390625Q46.65625 28.390625 47.96875 29.8125Q49.296875 31.21875 49.296875 33.796875Q49.296875 33.953125 49.28125 34.265625L41.546875 34.265625Q41.640625 35.96875 42.515625 36.875Q43.390625 37.78125 44.6875 37.78125Q45.65625 37.78125 46.328125 37.28125Q47.015625 36.765625 47.421875 35.65625ZM41.640625 32.8125L47.4375 32.8125Q47.328125 31.515625 46.78125 30.859375Q45.9375 29.84375 44.59375 29.84375Q43.390625 29.84375 42.5625 30.65625Q41.734375 31.453125 41.640625 32.8125ZM50.609375 35.90625L52.359375 35.625Q52.5 36.671875 53.171875 37.234375Q53.84375 37.78125 55.046875 37.78125Q56.25 37.78125 56.828125 37.296875Q57.421875 36.796875 57.421875 36.140625Q57.421875 35.546875 56.90625 35.203125Q56.546875 34.96875 55.109375 34.609375Q53.171875 34.109375 52.421875 33.765625Q51.6875 33.40625 51.296875 32.78125Q50.90625 32.140625 50.90625 31.375Q50.90625 30.6875 51.21875 30.09375Q51.546875 29.5 52.09375 29.109375Q52.5 28.8125 53.203125 28.609375Q53.921875 28.390625 54.734375 28.390625Q55.953125 28.390625 56.875 28.75Q57.796875 29.09375 58.234375 29.703125Q58.671875 30.296875 58.84375 31.296875L57.125 31.53125Q57.0 30.734375 56.4375 30.296875Q55.875 29.84375 54.859375 29.84375Q53.640625 29.84375 53.125 30.25Q52.609375 30.640625 52.609375 31.171875Q52.609375 31.515625 52.828125 31.796875Q53.03125 32.078125 53.5 32.265625Q53.765625 32.359375 55.046875 32.703125Q56.921875 33.203125 57.65625 33.53125Q58.390625 33.84375 58.8125 34.453125Q59.234375 35.046875 59.234375 35.953125Q59.234375 36.828125 58.71875 37.609375Q58.203125 38.390625 57.234375 38.8125Q56.265625 39.234375 55.046875 39.234375Q53.03125 39.234375 51.96875 38.390625Q50.90625 37.546875 50.609375 35.90625ZM60.640625 34.703125L60.640625 32.9375L66.03125 32.9375L66.03125 34.703125L60.640625 34.703125ZM71.203125 39.0L67.25 28.625L69.109375 28.625L71.34375 34.84375Q71.703125 35.84375 72.0 36.921875Q72.234375 36.109375 72.65625 34.953125L74.953125 28.625L76.765625 28.625L72.84375 39.0L71.203125 39.0ZM76.671875 33.8125Q76.671875 30.9375 78.265625 29.546875Q79.609375 28.390625 81.53125 28.390625Q83.671875 28.390625 85.015625 29.796875Q86.375 31.203125 86.375 33.671875Q86.375 35.671875 85.78125 36.828125Q85.1875 37.96875 84.03125 38.609375Q82.890625 39.234375 81.53125 39.234375Q79.34375 39.234375 78.0 37.84375Q76.671875 36.4375 76.671875 33.8125ZM78.46875 33.8125Q78.46875 35.8125 79.328125 36.796875Q80.203125 37.78125 81.53125 37.78125Q82.84375 37.78125 83.703125 36.796875Q84.578125 35.796875 84.578125 33.75Q84.578125 31.828125 83.703125 30.84375Q82.828125 29.84375 81.53125 29.84375Q80.203125 29.84375 79.328125 30.84375Q78.46875 31.828125 78.46875 33.8125ZM95.109375 39.0L95.109375 37.46875Q93.90625 39.234375 91.828125 39.234375Q90.90625 39.234375 90.109375 38.890625Q89.3125 38.53125 88.921875 38.0Q88.546875 37.46875 88.390625 36.6875Q88.28125 36.171875 88.28125 35.046875L88.28125 28.625L90.03125 28.625L90.03125 34.375Q90.03125 35.75 90.140625 36.234375Q90.3125 36.921875 90.84375 37.328125Q91.390625 37.71875 92.171875 37.71875Q92.96875 37.71875 93.65625 37.3125Q94.359375 36.90625 94.640625 36.21875Q94.9375 35.515625 94.9375 34.1875L94.9375 28.625L96.6875 28.625L96.6875 39.0L95.109375 39.0ZM97.609375 35.90625L99.359375 35.625Q99.5 36.671875 100.171875 37.234375Q100.84375 37.78125 102.046875 37.78125Q103.25 37.78125 103.828125 37.296875Q104.421875 36.796875 104.421875 36.140625Q104.421875 35.546875 103.90625 35.203125Q103.546875 34.96875 102.109375 34.609375Q100.171875 34.109375 99.421875 33.765625Q98.6875 33.40625 98.296875 32.78125Q97.90625 32.140625 97.90625 31.375Q97.90625 30.6875 98.21875 30.09375Q98.546875 29.5 99.09375 29.109375Q99.5 28.8125 100.203125 28.609375Q100.921875 28.390625 101.734375 28.390625Q102.953125 28.390625 103.875 28.75Q104.796875 29.09375 105.234375 29.703125Q105.671875 30.296875 105.84375 31.296875L104.125 31.53125Q104.0 30.734375 103.4375 30.296875Q102.875 29.84375 101.859375 29.84375Q100.640625 29.84375 100.125 30.25Q99.609375 30.640625 99.609375 31.171875Q99.609375 31.515625 99.828125 31.796875Q100.03125 32.078125 100.5 32.265625Q100.765625 32.359375 102.046875 32.703125Q103.921875 33.203125 104.65625 33.53125Q105.390625 33.84375 105.8125 34.453125Q106.234375 35.046875 106.234375 35.953125Q106.234375 36.828125 105.71875 37.609375Q105.203125 38.390625 104.234375 38.8125Q103.265625 39.234375 102.046875 39.234375Q100.03125 39.234375 98.96875 38.390625Q97.90625 37.546875 97.609375 35.90625ZM113.609375 35.90625L115.359375 35.625Q115.5 36.671875 116.171875 37.234375Q116.84375 37.78125 118.046875 37.78125Q119.25 37.78125 119.828125 37.296875Q120.421875 36.796875 120.421875 36.140625Q120.421875 35.546875 119.90625 35.203125Q119.546875 34.96875 118.109375 34.609375Q116.171875 34.109375 115.421875 33.765625Q114.6875 33.40625 114.296875 32.78125Q113.90625 32.140625 113.90625 31.375Q113.90625 30.6875 114.21875 30.09375Q114.546875 29.5 115.09375 29.109375Q115.5 28.8125 116.203125 28.609375Q116.921875 28.390625 117.734375 28.390625Q118.953125 28.390625 119.875 28.75Q120.796875 29.09375 121.234375 29.703125Q121.671875 30.296875 121.84375 31.296875L120.125 31.53125Q120.0 30.734375 119.4375 30.296875Q118.875 29.84375 117.859375 29.84375Q116.640625 29.84375 116.125 30.25Q115.609375 30.640625 115.609375 31.171875Q115.609375 31.515625 115.828125 31.796875Q116.03125 32.078125 116.5 32.265625Q116.765625 32.359375 118.046875 32.703125Q119.921875 33.203125 120.65625 33.53125Q121.390625 33.84375 121.8125 34.453125Q122.234375 35.046875 122.234375 35.953125Q122.234375 36.828125 121.71875 37.609375Q121.203125 38.390625 120.234375 38.8125Q119.265625 39.234375 118.046875 39.234375Q116.03125 39.234375 114.96875 38.390625Q113.90625 37.546875 113.609375 35.90625ZM131.09375 37.71875Q130.10938 38.546875 129.20312 38.890625Q128.29688 39.234375 127.265625 39.234375Q125.5625 39.234375 124.640625 38.40625Q123.71875 37.5625 123.71875 36.265625Q123.71875 35.5 124.0625 34.875Q124.421875 34.25 124.984375 33.875Q125.546875 33.484375 126.25 33.28125Q126.765625 33.15625 127.8125 33.015625Q129.9375 32.765625 130.9375 32.421875Q130.95312 32.0625 130.95312 31.953125Q130.95312 30.890625 130.45312 30.4375Q129.78125 29.84375 128.45312 29.84375Q127.203125 29.84375 126.609375 30.28125Q126.03125 30.71875 125.75 31.828125L124.03125 31.59375Q124.265625 30.484375 124.796875 29.8125Q125.328125 29.125 126.34375 28.765625Q127.359375 28.390625 128.70312 28.390625Q130.03125 28.390625 130.85938 28.703125Q131.6875 29.015625 132.07812 29.5Q132.46875 29.96875 132.625 30.6875Q132.71875 31.140625 132.71875 32.3125L132.71875 34.65625Q132.71875 37.109375 132.82812 37.765625Q132.9375 38.40625 133.28125 39.0L131.4375 39.0Q131.17188 38.453125 131.09375 37.71875ZM130.9375 33.796875Q129.98438 34.1875 128.0625 34.453125Q126.984375 34.609375 126.53125 34.8125Q126.09375 35.0 125.84375 35.375Q125.59375 35.75 125.59375 36.21875Q125.59375 36.921875 126.125 37.390625Q126.65625 37.859375 127.6875 37.859375Q128.70312 37.859375 129.48438 37.421875Q130.28125 36.96875 130.65625 36.203125Q130.9375 35.59375 130.9375 34.4375L130.9375 33.796875ZM139.15625 37.421875L139.40625 38.984375Q138.67188 39.140625 138.07812 39.140625Q137.125 39.140625 136.59375 38.84375Q136.07812 38.53125 135.85938 38.046875Q135.64062 37.546875 135.64062 35.96875L135.64062 30.0L134.35938 30.0L134.35938 28.625L135.64062 28.625L135.64062 26.0625L137.39062 25.0L137.39062 28.625L139.15625 28.625L139.15625 30.0L137.39062 30.0L137.39062 36.0625Q137.39062 36.8125 137.48438 37.03125Q137.57812 37.234375 137.78125 37.375Q138.0 37.5 138.39062 37.5Q138.67188 37.5 139.15625 37.421875ZM141.32812 26.703125L141.32812 24.6875L143.09375 24.6875L143.09375 26.703125L141.32812 26.703125ZM141.32812 39.0L141.32812 28.625L143.09375 28.625L143.09375 39.0L141.32812 39.0ZM144.60938 35.90625L146.35938 35.625Q146.5 36.671875 147.17188 37.234375Q147.84375 37.78125 149.04688 37.78125Q150.25 37.78125 150.82812 37.296875Q151.42188 36.796875 151.42188 36.140625Q151.42188 35.546875 150.90625 35.203125Q150.54688 34.96875 149.10938 34.609375Q147.17188 34.109375 146.42188 33.765625Q145.6875 33.40625 145.29688 32.78125Q144.90625 32.140625 144.90625 31.375Q144.90625 30.6875 145.21875 30.09375Q145.54688 29.5 146.09375 29.109375Q146.5 28.8125 147.20312 28.609375Q147.92188 28.390625 148.73438 28.390625Q149.95312 28.390625 150.875 28.75Q151.79688 29.09375 152.23438 29.703125Q152.67188 30.296875 152.84375 31.296875L151.125 31.53125Q151.0 30.734375 150.4375 30.296875Q149.875 29.84375 148.85938 29.84375Q147.64062 29.84375 147.125 30.25Q146.60938 30.640625 146.60938 31.171875Q146.60938 31.515625 146.82812 31.796875Q147.03125 32.078125 147.5 32.265625Q147.76562 32.359375 149.04688 32.703125Q150.92188 33.203125 151.65625 33.53125Q152.39062 33.84375 152.8125 34.453125Q153.23438 35.046875 153.23438 35.953125Q153.23438 36.828125 152.71875 37.609375Q152.20312 38.390625 151.23438 38.8125Q150.26562 39.234375 149.04688 39.234375Q147.03125 39.234375 145.96875 38.390625Q144.90625 37.546875 144.60938 35.90625ZM155.73438 39.0L155.73438 30.0L154.1875 30.0L154.1875 28.625L155.73438 28.625L155.73438 27.53125Q155.73438 26.484375 155.92188 25.96875Q156.17188 25.28125 156.8125 24.859375Q157.45312 24.4375 158.60938 24.4375Q159.35938 24.4375 160.25 24.609375L159.98438 26.140625Q159.4375 26.046875 158.95312 26.046875Q158.15625 26.046875 157.8125 26.390625Q157.48438 26.734375 157.48438 27.671875L157.48438 28.625L159.51562 28.625L159.51562 30.0L157.48438 30.0L157.48438 39.0L155.73438 39.0ZM168.09375 37.71875Q167.10938 38.546875 166.20312 38.890625Q165.29688 39.234375 164.26562 39.234375Q162.5625 39.234375 161.64062 38.40625Q160.71875 37.5625 160.71875 36.265625Q160.71875 35.5 161.0625 34.875Q161.42188 34.25 161.98438 33.875Q162.54688 33.484375 163.25 33.28125Q163.76562 33.15625 164.8125 33.015625Q166.9375 32.765625 167.9375 32.421875Q167.95312 32.0625 167.95312 31.953125Q167.95312 30.890625 167.45312 30.4375Q166.78125 29.84375 165.45312 29.84375Q164.20312 29.84375 163.60938 30.28125Q163.03125 30.71875 162.75 31.828125L161.03125 31.59375Q161.26562 30.484375 161.79688 29.8125Q162.32812 29.125 163.34375 28.765625Q164.35938 28.390625 165.70312 28.390625Q167.03125 28.390625 167.85938 28.703125Q168.6875 29.015625 169.07812 29.5Q169.46875 29.96875 169.625 30.6875Q169.71875 31.140625 169.71875 32.3125L169.71875 34.65625Q169.71875 37.109375 169.82812 37.765625Q169.9375 38.40625 170.28125 39.0L168.4375 39.0Q168.17188 38.453125 168.09375 37.71875ZM167.9375 33.796875Q166.98438 34.1875 165.0625 34.453125Q163.98438 34.609375 163.53125 34.8125Q163.09375 35.0 162.84375 35.375Q162.59375 35.75 162.59375 36.21875Q162.59375 36.921875 163.125 37.390625Q163.65625 37.859375 164.6875 37.859375Q165.70312 37.859375 166.48438 37.421875Q167.28125 36.96875 167.65625 36.203125Q167.9375 35.59375 167.9375 34.4375L167.9375 33.796875ZM172.32812 26.703125L172.32812 24.6875L174.09375 24.6875L174.09375 26.703125L172.32812 26.703125ZM172.32812 39.0L172.32812 28.625L174.09375 28.625L174.09375 39.0L172.32812 39.0ZM180.15625 37.421875L180.40625 38.984375Q179.67188 39.140625 179.07812 39.140625Q178.125 39.140625 177.59375 38.84375Q177.07812 38.53125 176.85938 38.046875Q176.64062 37.546875 176.64062 35.96875L176.64062 30.0L175.35938 30.0L175.35938 28.625L176.64062 28.625L176.64062 26.0625L178.39062 25.0L178.39062 28.625L180.15625 28.625L180.15625 30.0L178.39062 30.0L178.39062 36.0625Q178.39062 36.8125 178.48438 37.03125Q178.57812 37.234375 178.78125 37.375Q179.0 37.5 179.39062 37.5Q179.67188 37.5 180.15625 37.421875ZM183.32812 32.78125L183.32812 30.78125L185.32812 30.78125L185.32812 32.78125L183.32812 32.78125ZM196.42188 35.65625L198.23438 35.890625Q197.8125 37.46875 196.64062 38.359375Q195.48438 39.234375 193.67188 39.234375Q191.40625 39.234375 190.0625 37.84375Q188.73438 36.4375 188.73438 33.90625Q188.73438 31.28125 190.07812 29.84375Q191.42188 28.390625 193.57812 28.390625Q195.65625 28.390625 196.96875 29.8125Q198.29688 31.21875 198.29688 33.796875Q198.29688 33.953125 198.28125 34.265625L190.54688 34.265625Q190.64062 35.96875 191.51562 36.875Q192.39062 37.78125 193.6875 37.78125Q194.65625 37.78125 195.32812 37.28125Q196.01562 36.765625 196.42188 35.65625ZM190.64062 32.8125L196.4375 32.8125Q196.32812 31.515625 195.78125 30.859375Q194.9375 29.84375 193.59375 29.84375Q192.39062 29.84375 191.5625 30.65625Q190.73438 31.453125 190.64062 32.8125ZM213.04688 39.0L213.04688 37.6875Q212.0625 39.234375 210.14062 39.234375Q208.90625 39.234375 207.85938 38.546875Q206.82812 37.859375 206.25 36.640625Q205.6875 35.421875 205.6875 33.828125Q205.6875 32.265625 206.20312 31.0Q206.71875 29.734375 207.75 29.0625Q208.79688 28.390625 210.0625 28.390625Q211.0 28.390625 211.73438 28.796875Q212.46875 29.1875 212.9375 29.8125L212.9375 24.6875L214.67188 24.6875L214.67188 39.0L213.04688 39.0ZM207.48438 33.828125Q207.48438 35.8125 208.32812 36.796875Q209.17188 37.78125 210.3125 37.78125Q211.46875 37.78125 212.26562 36.84375Q213.07812 35.90625 213.07812 33.96875Q213.07812 31.84375 212.25 30.84375Q211.4375 29.84375 210.23438 29.84375Q209.0625 29.84375 208.26562 30.8125Q207.48438 31.765625 207.48438 33.828125ZM224.42188 35.65625L226.23438 35.890625Q225.8125 37.46875 224.64062 38.359375Q223.48438 39.234375 221.67188 39.234375Q219.40625 39.234375 218.0625 37.84375Q216.73438 36.4375 216.73438 33.90625Q216.73438 31.28125 218.07812 29.84375Q219.42188 28.390625 221.57812 28.390625Q223.65625 28.390625 224.96875 29.8125Q226.29688 31.21875 226.29688 33.796875Q226.29688 33.953125 226.28125 34.265625L218.54688 34.265625Q218.64062 35.96875 219.51562 36.875Q220.39062 37.78125 221.6875 37.78125Q222.65625 37.78125 223.32812 37.28125Q224.01562 36.765625 224.42188 35.65625ZM218.64062 32.8125L224.4375 32.8125Q224.32812 31.515625 223.78125 30.859375Q222.9375 29.84375 221.59375 29.84375Q220.39062 29.84375 219.5625 30.65625Q218.73438 31.453125 218.64062 32.8125ZM234.28125 39.0L234.28125 24.6875L236.03125 24.6875L236.03125 39.0L234.28125 39.0ZM238.21875 26.578125L238.21875 24.53125L240.09375 24.53125L240.09375 26.140625Q240.09375 27.453125 239.79688 28.03125Q239.375 28.828125 238.48438 29.21875L238.0625 28.53125Q238.57812 28.3125 238.82812 27.859375Q239.09375 27.390625 239.125 26.578125L238.21875 26.578125ZM249.09375 37.71875Q248.10938 38.546875 247.20312 38.890625Q246.29688 39.234375 245.26562 39.234375Q243.5625 39.234375 242.64062 38.40625Q241.71875 37.5625 241.71875 36.265625Q241.71875 35.5 242.0625 34.875Q242.42188 34.25 242.98438 33.875Q243.54688 33.484375 244.25 33.28125Q244.76562 33.15625 245.8125 33.015625Q247.9375 32.765625 248.9375 32.421875Q248.95312 32.0625 248.95312 31.953125Q248.95312 30.890625 248.45312 30.4375Q247.78125 29.84375 246.45312 29.84375Q245.20312 29.84375 244.60938 30.28125Q244.03125 30.71875 243.75 31.828125L242.03125 31.59375Q242.26562 30.484375 242.79688 29.8125Q243.32812 29.125 244.34375 28.765625Q245.35938 28.390625 246.70312 28.390625Q248.03125 28.390625 248.85938 28.703125Q249.6875 29.015625 250.07812 29.5Q250.46875 29.96875 250.625 30.6875Q250.71875 31.140625 250.71875 32.3125L250.71875 34.65625Q250.71875 37.109375 250.82812 37.765625Q250.9375 38.40625 251.28125 39.0L249.4375 39.0Q249.17188 38.453125 249.09375 37.71875ZM248.9375 33.796875Q247.98438 34.1875 246.0625 34.453125Q244.98438 34.609375 244.53125 34.8125Q244.09375 35.0 243.84375 35.375Q243.59375 35.75 243.59375 36.21875Q243.59375 36.921875 244.125 37.390625Q244.65625 37.859375 245.6875 37.859375Q246.70312 37.859375 247.48438 37.421875Q248.28125 36.96875 248.65625 36.203125Q248.9375 35.59375 248.9375 34.4375L248.9375 33.796875ZM260.09375 35.203125L261.8125 35.421875Q261.53125 37.21875 260.35938 38.234375Q259.20312 39.234375 257.5 39.234375Q255.375 39.234375 254.07812 37.84375Q252.78125 36.453125 252.78125 33.859375Q252.78125 32.171875 253.32812 30.921875Q253.89062 29.65625 255.03125 29.03125Q256.17188 28.390625 257.51562 28.390625Q259.20312 28.390625 260.26562 29.25Q261.34375 30.109375 261.65625 31.671875L259.9375 31.9375Q259.70312 30.890625 259.07812 30.375Q258.45312 29.84375 257.57812 29.84375Q256.25 29.84375 255.42188 30.796875Q254.59375 31.75 254.59375 33.796875Q254.59375 35.890625 255.39062 36.84375Q256.1875 37.78125 257.48438 37.78125Q258.51562 37.78125 259.20312 37.15625Q259.90625 36.515625 260.09375 35.203125ZM267.15625 37.421875L267.40625 38.984375Q266.67188 39.140625 266.07812 39.140625Q265.125 39.140625 264.59375 38.84375Q264.07812 38.53125 263.85938 38.046875Q263.64062 37.546875 263.64062 35.96875L263.64062 30.0L262.35938 30.0L262.35938 28.625L263.64062 28.625L263.64062 26.0625L265.39062 25.0L265.39062 28.625L267.15625 28.625L267.15625 30.0L265.39062 30.0L265.39062 36.0625Q265.39062 36.8125 265.48438 37.03125Q265.57812 37.234375 265.78125 37.375Q266.0 37.5 266.39062 37.5Q266.67188 37.5 267.15625 37.421875ZM269.32812 26.703125L269.32812 24.6875L271.09375 24.6875L271.09375 26.703125L269.32812 26.703125ZM269.32812 39.0L269.32812 28.625L271.09375 28.625L271.09375 39.0L269.32812 39.0ZM272.67188 33.8125Q272.67188 30.9375 274.26562 29.546875Q275.60938 28.390625 277.53125 28.390625Q279.67188 28.390625 281.01562 29.796875Q282.375 31.203125 282.375 33.671875Q282.375 35.671875 281.78125 36.828125Q281.1875 37.96875 280.03125 38.609375Q278.89062 39.234375 277.53125 39.234375Q275.34375 39.234375 274.0 37.84375Q272.67188 36.4375 272.67188 33.8125ZM274.46875 33.8125Q274.46875 35.8125 275.32812 36.796875Q276.20312 37.78125 277.53125 37.78125Q278.84375 37.78125 279.70312 36.796875Q280.57812 35.796875 280.57812 33.75Q280.57812 31.828125 279.70312 30.84375Q278.82812 29.84375 277.53125 29.84375Q276.20312 29.84375 275.32812 30.84375Q274.46875 31.828125 274.46875 33.8125ZM284.3125 39.0L284.3125 28.625L285.90625 28.625L285.90625 30.109375Q287.04688 28.390625 289.20312 28.390625Q290.14062 28.390625 290.92188 28.734375Q291.71875 29.0625 292.10938 29.609375Q292.5 30.15625 292.65625 30.90625Q292.75 31.40625 292.75 32.625L292.75 39.0L290.98438 39.0L290.98438 32.6875Q290.98438 31.609375 290.78125 31.078125Q290.57812 30.546875 290.04688 30.234375Q289.53125 29.921875 288.82812 29.921875Q287.70312 29.921875 286.89062 30.640625Q286.07812 31.34375 286.07812 33.328125L286.07812 39.0L284.3125 39.0ZM307.42188 35.65625L309.23438 35.890625Q308.8125 37.46875 307.64062 38.359375Q306.48438 39.234375 304.67188 39.234375Q302.40625 39.234375 301.0625 37.84375Q299.73438 36.4375 299.73438 33.90625Q299.73438 31.28125 301.07812 29.84375Q302.42188 28.390625 304.57812 28.390625Q306.65625 28.390625 307.96875 29.8125Q309.29688 31.21875 309.29688 33.796875Q309.29688 33.953125 309.28125 34.265625L301.54688 34.265625Q301.64062 35.96875 302.51562 36.875Q303.39062 37.78125 304.6875 37.78125Q305.65625 37.78125 306.32812 37.28125Q307.01562 36.765625 307.42188 35.65625ZM301.64062 32.8125L307.4375 32.8125Q307.32812 31.515625 306.78125 30.859375Q305.9375 29.84375 304.59375 29.84375Q303.39062 29.84375 302.5625 30.65625Q301.73438 31.453125 301.64062 32.8125ZM315.15625 37.421875L315.40625 38.984375Q314.67188 39.140625 314.07812 39.140625Q313.125 39.140625 312.59375 38.84375Q312.07812 38.53125 311.85938 38.046875Q311.64062 37.546875 311.64062 35.96875L311.64062 30.0L310.35938 30.0L310.35938 28.625L311.64062 28.625L311.64062 26.0625L313.39062 25.0L313.39062 28.625L315.15625 28.625L315.15625 30.0L313.39062 30.0L313.39062 36.0625Q313.39062 36.8125 313.48438 37.03125Q313.57812 37.234375 313.78125 37.375Q314.0 37.5 314.39062 37.5Q314.67188 37.5 315.15625 37.421875ZM330.04688 39.0L330.04688 37.6875Q329.0625 39.234375 327.14062 39.234375Q325.90625 39.234375 324.85938 38.546875Q323.82812 37.859375 323.25 36.640625Q322.6875 35.421875 322.6875 33.828125Q322.6875 32.265625 323.20312 31.0Q323.71875 29.734375 324.75 29.0625Q325.79688 28.390625 327.0625 28.390625Q328.0 28.390625 328.73438 28.796875Q329.46875 29.1875 329.9375 29.8125L329.9375 24.6875L331.67188 24.6875L331.67188 39.0L330.04688 39.0ZM324.48438 33.828125Q324.48438 35.8125 325.32812 36.796875Q326.17188 37.78125 327.3125 37.78125Q328.46875 37.78125 329.26562 36.84375Q330.07812 35.90625 330.07812 33.96875Q330.07812 31.84375 329.25 30.84375Q328.4375 29.84375 327.23438 29.84375Q326.0625 29.84375 325.26562 30.8125Q324.48438 31.765625 324.48438 33.828125ZM341.42188 35.65625L343.23438 35.890625Q342.8125 37.46875 341.64062 38.359375Q340.48438 39.234375 338.67188 39.234375Q336.40625 39.234375 335.0625 37.84375Q333.73438 36.4375 333.73438 33.90625Q333.73438 31.28125 335.07812 29.84375Q336.42188 28.390625 338.57812 28.390625Q340.65625 28.390625 341.96875 29.8125Q343.29688 31.21875 343.29688 33.796875Q343.29688 33.953125 343.28125 34.265625L335.54688 34.265625Q335.64062 35.96875 336.51562 36.875Q337.39062 37.78125 338.6875 37.78125Q339.65625 37.78125 340.32812 37.28125Q341.01562 36.765625 341.42188 35.65625ZM335.64062 32.8125L341.4375 32.8125Q341.32812 31.515625 340.78125 30.859375Q339.9375 29.84375 338.59375 29.84375Q337.39062 29.84375 336.5625 30.65625Q335.73438 31.453125 335.64062 32.8125ZM351.28125 39.0L351.28125 24.6875L353.03125 24.6875L353.03125 39.0L351.28125 39.0ZM355.32812 29.75L354.875 27.078125L354.875 24.6875L356.875 24.6875L356.875 27.078125L356.40625 29.75L355.32812 29.75ZM366.09375 37.71875Q365.10938 38.546875 364.20312 38.890625Q363.29688 39.234375 362.26562 39.234375Q360.5625 39.234375 359.64062 38.40625Q358.71875 37.5625 358.71875 36.265625Q358.71875 35.5 359.0625 34.875Q359.42188 34.25 359.98438 33.875Q360.54688 33.484375 361.25 33.28125Q361.76562 33.15625 362.8125 33.015625Q364.9375 32.765625 365.9375 32.421875Q365.95312 32.0625 365.95312 31.953125Q365.95312 30.890625 365.45312 30.4375Q364.78125 29.84375 363.45312 29.84375Q362.20312 29.84375 361.60938 30.28125Q361.03125 30.71875 360.75 31.828125L359.03125 31.59375Q359.26562 30.484375 359.79688 29.8125Q360.32812 29.125 361.34375 28.765625Q362.35938 28.390625 363.70312 28.390625Q365.03125 28.390625 365.85938 28.703125Q366.6875 29.015625 367.07812 29.5Q367.46875 29.96875 367.625 30.6875Q367.71875 31.140625 367.71875 32.3125L367.71875 34.65625Q367.71875 37.109375 367.82812 37.765625Q367.9375 38.40625 368.28125 39.0L366.4375 39.0Q366.17188 38.453125 366.09375 37.71875ZM365.9375 33.796875Q364.98438 34.1875 363.0625 34.453125Q361.98438 34.609375 361.53125 34.8125Q361.09375 35.0 360.84375 35.375Q360.59375 35.75 360.59375 36.21875Q360.59375 36.921875 361.125 37.390625Q361.65625 37.859375 362.6875 37.859375Q363.70312 37.859375 364.48438 37.421875Q365.28125 36.96875 365.65625 36.203125Q365.9375 35.59375 365.9375 34.4375L365.9375 33.796875ZM377.09375 35.203125L378.8125 35.421875Q378.53125 37.21875 377.35938 38.234375Q376.20312 39.234375 374.5 39.234375Q372.375 39.234375 371.07812 37.84375Q369.78125 36.453125 369.78125 33.859375Q369.78125 32.171875 370.32812 30.921875Q370.89062 29.65625 372.03125 29.03125Q373.17188 28.390625 374.51562 28.390625Q376.20312 28.390625 377.26562 29.25Q378.34375 30.109375 378.65625 31.671875L376.9375 31.9375Q376.70312 30.890625 376.07812 30.375Q375.45312 29.84375 374.57812 29.84375Q373.25 29.84375 372.42188 30.796875Q371.59375 31.75 371.59375 33.796875Q371.59375 35.890625 372.39062 36.84375Q373.1875 37.78125 374.48438 37.78125Q375.51562 37.78125 376.20312 37.15625Q376.90625 36.515625 377.09375 35.203125ZM384.15625 37.421875L384.40625 38.984375Q383.67188 39.140625 383.07812 39.140625Q382.125 39.140625 381.59375 38.84375Q381.07812 38.53125 380.85938 38.046875Q380.64062 37.546875 380.64062 35.96875L380.64062 30.0L379.35938 30.0L379.35938 28.625L380.64062 28.625L380.64062 26.0625L382.39062 25.0L382.39062 28.625L384.15625 28.625L384.15625 30.0L382.39062 30.0L382.39062 36.0625Q382.39062 36.8125 382.48438 37.03125Q382.57812 37.234375 382.78125 37.375Q383.0 37.5 383.39062 37.5Q383.67188 37.5 384.15625 37.421875ZM386.32812 26.703125L386.32812 24.6875L388.09375 24.6875L388.09375 26.703125L386.32812 26.703125ZM386.32812 39.0L386.32812 28.625L388.09375 28.625L388.09375 39.0L386.32812 39.0ZM393.20312 39.0L389.25 28.625L391.10938 28.625L393.34375 34.84375Q393.70312 35.84375 394.0 36.921875Q394.23438 36.109375 394.65625 34.953125L396.95312 28.625L398.76562 28.625L394.84375 39.0L393.20312 39.0ZM399.32812 26.703125L399.32812 24.6875L401.09375 24.6875L401.09375 26.703125L399.32812 26.703125ZM399.32812 39.0L399.32812 28.625L401.09375 28.625L401.09375 39.0L399.32812 39.0ZM407.15625 37.421875L407.40625 38.984375Q406.67188 39.140625 406.07812 39.140625Q405.125 39.140625 404.59375 38.84375Q404.07812 38.53125 403.85938 38.046875Q403.64062 37.546875 403.64062 35.96875L403.64062 30.0L402.35938 30.0L402.35938 28.625L403.64062 28.625L403.64062 26.0625L405.39062 25.0L405.39062 28.625L407.15625 28.625L407.15625 30.0L405.39062 30.0L405.39062 36.0625Q405.39062 36.8125 405.48438 37.03125Q405.57812 37.234375 405.78125 37.375Q406.0 37.5 406.39062 37.5Q406.67188 37.5 407.15625 37.421875ZM416.42188 35.65625L418.23438 35.890625Q417.8125 37.46875 416.64062 38.359375Q415.48438 39.234375 413.67188 39.234375Q411.40625 39.234375 410.0625 37.84375Q408.73438 36.4375 408.73438 33.90625Q408.73438 31.28125 410.07812 29.84375Q411.42188 28.390625 413.57812 28.390625Q415.65625 28.390625 416.96875 29.8125Q418.29688 31.21875 418.29688 33.796875Q418.29688 33.953125 418.28125 34.265625L410.54688 34.265625Q410.64062 35.96875 411.51562 36.875Q412.39062 37.78125 413.6875 37.78125Q414.65625 37.78125 415.32812 37.28125Q416.01562 36.765625 416.42188 35.65625ZM410.64062 32.8125L416.4375 32.8125Q416.32812 31.515625 415.78125 30.859375Q414.9375 29.84375 413.59375 29.84375Q412.39062 29.84375 411.5625 30.65625Q410.73438 31.453125 410.64062 32.8125ZM412.54688 27.34375L413.84375 24.609375L416.14062 24.609375L414.0 27.34375L412.54688 27.34375ZM433.04688 39.0L433.04688 37.6875Q432.0625 39.234375 430.14062 39.234375Q428.90625 39.234375 427.85938 38.546875Q426.82812 37.859375 426.25 36.640625Q425.6875 35.421875 425.6875 33.828125Q425.6875 32.265625 426.20312 31.0Q426.71875 29.734375 427.75 29.0625Q428.79688 28.390625 430.0625 28.390625Q431.0 28.390625 431.73438 28.796875Q432.46875 29.1875 432.9375 29.8125L432.9375 24.6875L434.67188 24.6875L434.67188 39.0L433.04688 39.0ZM427.48438 33.828125Q427.48438 35.8125 428.32812 36.796875Q429.17188 37.78125 430.3125 37.78125Q431.46875 37.78125 432.26562 36.84375Q433.07812 35.90625 433.07812 33.96875Q433.07812 31.84375 432.25 30.84375Q431.4375 29.84375 430.23438 29.84375Q429.0625 29.84375 428.26562 30.8125Q427.48438 31.765625 427.48438 33.828125ZM444.42188 35.65625L446.23438 35.890625Q445.8125 37.46875 444.64062 38.359375Q443.48438 39.234375 441.67188 39.234375Q439.40625 39.234375 438.0625 37.84375Q436.73438 36.4375 436.73438 33.90625Q436.73438 31.28125 438.07812 29.84375Q439.42188 28.390625 441.57812 28.390625Q443.65625 28.390625 444.96875 29.8125Q446.29688 31.21875 446.29688 33.796875Q446.29688 33.953125 446.28125 34.265625L438.54688 34.265625Q438.64062 35.96875 439.51562 36.875Q440.39062 37.78125 441.6875 37.78125Q442.65625 37.78125 443.32812 37.28125Q444.01562 36.765625 444.42188 35.65625ZM438.64062 32.8125L444.4375 32.8125Q444.32812 31.515625 443.78125 30.859375Q442.9375 29.84375 441.59375 29.84375Q440.39062 29.84375 439.5625 30.65625Q438.73438 31.453125 438.64062 32.8125ZM454.3125 42.96875L454.3125 28.625L455.92188 28.625L455.92188 29.96875Q456.48438 29.1875 457.1875 28.796875Q457.90625 28.390625 458.92188 28.390625Q460.25 28.390625 461.26562 29.078125Q462.28125 29.765625 462.79688 31.015625Q463.32812 32.25 463.32812 33.734375Q463.32812 35.328125 462.75 36.609375Q462.1875 37.875 461.09375 38.5625Q460.0 39.234375 458.79688 39.234375Q457.92188 39.234375 457.21875 38.859375Q456.53125 38.484375 456.07812 37.921875L456.07812 42.96875L454.3125 42.96875ZM455.90625 33.875Q455.90625 35.875 456.71875 36.828125Q457.53125 37.78125 458.6875 37.78125Q459.85938 37.78125 460.6875 36.796875Q461.53125 35.8125 461.53125 33.71875Q461.53125 31.75 460.70312 30.765625Q459.89062 29.765625 458.76562 29.765625Q457.64062 29.765625 456.76562 30.828125Q455.90625 31.875 455.90625 33.875ZM465.28125 39.0L465.28125 24.6875L467.03125 24.6875L467.03125 39.0L465.28125 39.0ZM476.09375 37.71875Q475.10938 38.546875 474.20312 38.890625Q473.29688 39.234375 472.26562 39.234375Q470.5625 39.234375 469.64062 38.40625Q468.71875 37.5625 468.71875 36.265625Q468.71875 35.5 469.0625 34.875Q469.42188 34.25 469.98438 33.875Q470.54688 33.484375 471.25 33.28125Q471.76562 33.15625 472.8125 33.015625Q474.9375 32.765625 475.9375 32.421875Q475.95312 32.0625 475.95312 31.953125Q475.95312 30.890625 475.45312 30.4375Q474.78125 29.84375 473.45312 29.84375Q472.20312 29.84375 471.60938 30.28125Q471.03125 30.71875 470.75 31.828125L469.03125 31.59375Q469.26562 30.484375 469.79688 29.8125Q470.32812 29.125 471.34375 28.765625Q472.35938 28.390625 473.70312 28.390625Q475.03125 28.390625 475.85938 28.703125Q476.6875 29.015625 477.07812 29.5Q477.46875 29.96875 477.625 30.6875Q477.71875 31.140625 477.71875 32.3125L477.71875 34.65625Q477.71875 37.109375 477.82812 37.765625Q477.9375 38.40625 478.28125 39.0L476.4375 39.0Q476.17188 38.453125 476.09375 37.71875ZM475.9375 33.796875Q474.98438 34.1875 473.0625 34.453125Q471.98438 34.609375 471.53125 34.8125Q471.09375 35.0 470.84375 35.375Q470.59375 35.75 470.59375 36.21875Q470.59375 36.921875 471.125 37.390625Q471.65625 37.859375 472.6875 37.859375Q473.70312 37.859375 474.48438 37.421875Q475.28125 36.96875 475.65625 36.203125Q475.9375 35.59375 475.9375 34.4375L475.9375 33.796875ZM480.32812 26.703125L480.32812 24.6875L482.09375 24.6875L482.09375 26.703125L480.32812 26.703125ZM480.32812 39.0L480.32812 28.625L482.09375 28.625L482.09375 39.0L480.32812 39.0ZM491.04688 39.0L491.04688 37.6875Q490.0625 39.234375 488.14062 39.234375Q486.90625 39.234375 485.85938 38.546875Q484.82812 37.859375 484.25 36.640625Q483.6875 35.421875 483.6875 33.828125Q483.6875 32.265625 484.20312 31.0Q484.71875 29.734375 485.75 29.0625Q486.79688 28.390625 488.0625 28.390625Q489.0 28.390625 489.73438 28.796875Q490.46875 29.1875 490.9375 29.8125L490.9375 24.6875L492.67188 24.6875L492.67188 39.0L491.04688 39.0ZM485.48438 33.828125Q485.48438 35.8125 486.32812 36.796875Q487.17188 37.78125 488.3125 37.78125Q489.46875 37.78125 490.26562 36.84375Q491.07812 35.90625 491.07812 33.96875Q491.07812 31.84375 490.25 30.84375Q489.4375 29.84375 488.23438 29.84375Q487.0625 29.84375 486.26562 30.8125Q485.48438 31.765625 485.48438 33.828125ZM494.67188 33.8125Q494.67188 30.9375 496.26562 29.546875Q497.60938 28.390625 499.53125 28.390625Q501.67188 28.390625 503.01562 29.796875Q504.375 31.203125 504.375 33.671875Q504.375 35.671875 503.78125 36.828125Q503.1875 37.96875 502.03125 38.609375Q500.89062 39.234375 499.53125 39.234375Q497.34375 39.234375 496.0 37.84375Q494.67188 36.4375 494.67188 33.8125ZM496.46875 33.8125Q496.46875 35.8125 497.32812 36.796875Q498.20312 37.78125 499.53125 37.78125Q500.84375 37.78125 501.70312 36.796875Q502.57812 35.796875 502.57812 33.75Q502.57812 31.828125 501.70312 30.84375Q500.82812 29.84375 499.53125 29.84375Q498.20312 29.84375 497.32812 30.84375Q496.46875 31.828125 496.46875 33.8125ZM506.32812 26.703125L506.32812 24.6875L508.09375 24.6875L508.09375 26.703125L506.32812 26.703125ZM506.32812 39.0L506.32812 28.625L508.09375 28.625L508.09375 39.0L506.32812 39.0ZM510.29688 39.0L510.29688 28.625L511.875 28.625L511.875 30.203125Q512.4844 29.09375 513.0 28.75Q513.5156 28.390625 514.125 28.390625Q515.0156 28.390625 515.9375 28.953125L515.3281 30.59375Q514.6875 30.203125 514.0469 30.203125Q513.46875 30.203125 513.0 30.5625Q512.5469 30.90625 512.34375 31.515625Q512.0625 32.453125 512.0625 33.5625L512.0625 39.0L510.29688 39.0ZM517.3281 26.703125L517.3281 24.6875L519.09375 24.6875L519.09375 26.703125L517.3281 26.703125ZM517.3281 39.0L517.3281 28.625L519.09375 28.625L519.09375 39.0L517.3281 39.0ZM528.4219 35.65625L530.2344 35.890625Q529.8125 37.46875 528.6406 38.359375Q527.4844 39.234375 525.6719 39.234375Q523.40625 39.234375 522.0625 37.84375Q520.7344 36.4375 520.7344 33.90625Q520.7344 31.28125 522.0781 29.84375Q523.4219 28.390625 525.5781 28.390625Q527.65625 28.390625 528.96875 29.8125Q530.2969 31.21875 530.2969 33.796875Q530.2969 33.953125 530.28125 34.265625L522.5469 34.265625Q522.6406 35.96875 523.5156 36.875Q524.3906 37.78125 525.6875 37.78125Q526.65625 37.78125 527.3281 37.28125Q528.0156 36.765625 528.4219 35.65625ZM522.6406 32.8125L528.4375 32.8125Q528.3281 31.515625 527.78125 30.859375Q526.9375 29.84375 525.59375 29.84375Q524.3906 29.84375 523.5625 30.65625Q522.7344 31.453125 522.6406 32.8125ZM545.0469 39.0L545.0469 37.6875Q544.0625 39.234375 542.1406 39.234375Q540.90625 39.234375 539.8594 38.546875Q538.8281 37.859375 538.25 36.640625Q537.6875 35.421875 537.6875 33.828125Q537.6875 32.265625 538.2031 31.0Q538.71875 29.734375 539.75 29.0625Q540.7969 28.390625 542.0625 28.390625Q543.0 28.390625 543.7344 28.796875Q544.46875 29.1875 544.9375 29.8125L544.9375 24.6875L546.6719 24.6875L546.6719 39.0L545.0469 39.0ZM539.4844 33.828125Q539.4844 35.8125 540.3281 36.796875Q541.1719 37.78125 542.3125 37.78125Q543.46875 37.78125 544.2656 36.84375Q545.0781 35.90625 545.0781 33.96875Q545.0781 31.84375 544.25 30.84375Q543.4375 29.84375 542.2344 29.84375Q541.0625 29.84375 540.2656 30.8125Q539.4844 31.765625 539.4844 33.828125ZM556.4219 35.65625L558.2344 35.890625Q557.8125 37.46875 556.6406 38.359375Q555.4844 39.234375 553.6719 39.234375Q551.40625 39.234375 550.0625 37.84375Q548.7344 36.4375 548.7344 33.90625Q548.7344 31.28125 550.0781 29.84375Q551.4219 28.390625 553.5781 28.390625Q555.65625 28.390625 556.96875 29.8125Q558.2969 31.21875 558.2969 33.796875Q558.2969 33.953125 558.28125 34.265625L550.5469 34.265625Q550.6406 35.96875 551.5156 36.875Q552.3906 37.78125 553.6875 37.78125Q554.65625 37.78125 555.3281 37.28125Q556.0156 36.765625 556.4219 35.65625ZM550.6406 32.8125L556.4375 32.8125Q556.3281 31.515625 555.78125 30.859375Q554.9375 29.84375 553.59375 29.84375Q552.3906 29.84375 551.5625 30.65625Q550.7344 31.453125 550.6406 32.8125Z" fill-rule="nonzero"/><path fill="#757575" d="M21.28125 63.0L21.28125 48.6875L23.03125 48.6875L23.03125 63.0L21.28125 63.0ZM25.328125 53.75L24.875 51.078125L24.875 48.6875L26.875 48.6875L26.875 51.078125L26.40625 53.75L25.328125 53.75ZM36.09375 61.71875Q35.109375 62.546875 34.203125 62.890625Q33.296875 63.234375 32.265625 63.234375Q30.5625 63.234375 29.640625 62.40625Q28.71875 61.5625 28.71875 60.265625Q28.71875 59.5 29.0625 58.875Q29.421875 58.25 29.984375 57.875Q30.546875 57.484375 31.25 57.28125Q31.765625 57.15625 32.8125 57.015625Q34.9375 56.765625 35.9375 56.421875Q35.953125 56.0625 35.953125 55.953125Q35.953125 54.890625 35.453125 54.4375Q34.78125 53.84375 33.453125 53.84375Q32.203125 53.84375 31.609375 54.28125Q31.03125 54.71875 30.75 55.828125L29.03125 55.59375Q29.265625 54.484375 29.796875 53.8125Q30.328125 53.125 31.34375 52.765625Q32.359375 52.390625 33.703125 52.390625Q35.03125 52.390625 35.859375 52.703125Q36.6875 53.015625 37.078125 53.5Q37.46875 53.96875 37.625 54.6875Q37.71875 55.140625 37.71875 56.3125L37.71875 58.65625Q37.71875 61.109375 37.828125 61.765625Q37.9375 62.40625 38.28125 63.0L36.4375 63.0Q36.171875 62.453125 36.09375 61.71875ZM35.9375 57.796875Q34.984375 58.1875 33.0625 58.453125Q31.984375 58.609375 31.53125 58.8125Q31.09375 59.0 30.84375 59.375Q30.59375 59.75 30.59375 60.21875Q30.59375 60.921875 31.125 61.390625Q31.65625 61.859375 32.6875 61.859375Q33.703125 61.859375 34.484375 61.421875Q35.28125 60.96875 35.65625 60.203125Q35.9375 59.59375 35.9375 58.4375L35.9375 57.796875ZM39.609375 59.90625L41.359375 59.625Q41.5 60.671875 42.171875 61.234375Q42.84375 61.78125 44.046875 61.78125Q45.25 61.78125 45.828125 61.296875Q46.421875 60.796875 46.421875 60.140625Q46.421875 59.546875 45.90625 59.203125Q45.546875 58.96875 44.109375 58.609375Q42.171875 58.109375 41.421875 57.765625Q40.6875 57.40625 40.296875 56.78125Q39.90625 56.140625 39.90625 55.375Q39.90625 54.6875 40.21875 54.09375Q40.546875 53.5 41.09375 53.109375Q41.5 52.8125 42.203125 52.609375Q42.921875 52.390625 43.734375 52.390625Q44.953125 52.390625 45.875 52.75Q46.796875 53.09375 47.234375 53.703125Q47.671875 54.296875 47.84375 55.296875L46.125 55.53125Q46.0 54.734375 45.4375 54.296875Q44.875 53.84375 43.859375 53.84375Q42.640625 53.84375 42.125 54.25Q41.609375 54.640625 41.609375 55.171875Q41.609375 55.515625 41.828125 55.796875Q42.03125 56.078125 42.5 56.265625Q42.765625 56.359375 44.046875 56.703125Q45.921875 57.203125 46.65625 57.53125Q47.390625 57.84375 47.8125 58.453125Q48.234375 59.046875 48.234375 59.953125Q48.234375 60.828125 47.71875 61.609375Q47.203125 62.390625 46.234375 62.8125Q45.265625 63.234375 44.046875 63.234375Q42.03125 63.234375 40.96875 62.390625Q39.90625 61.546875 39.609375 59.90625ZM49.609375 59.90625L51.359375 59.625Q51.5 60.671875 52.171875 61.234375Q52.84375 61.78125 54.046875 61.78125Q55.25 61.78125 55.828125 61.296875Q56.421875 60.796875 56.421875 60.140625Q56.421875 59.546875 55.90625 59.203125Q55.546875 58.96875 54.109375 58.609375Q52.171875 58.109375 51.421875 57.765625Q50.6875 57.40625 50.296875 56.78125Q49.90625 56.140625 49.90625 55.375Q49.90625 54.6875 50.21875 54.09375Q50.546875 53.5 51.09375 53.109375Q51.5 52.8125 52.203125 52.609375Q52.921875 52.390625 53.734375 52.390625Q54.953125 52.390625 55.875 52.75Q56.796875 53.09375 57.234375 53.703125Q57.671875 54.296875 57.84375 55.296875L56.125 55.53125Q56.0 54.734375 55.4375 54.296875Q54.875 53.84375 53.859375 53.84375Q52.640625 53.84375 52.125 54.25Q51.609375 54.640625 51.609375 55.171875Q51.609375 55.515625 51.828125 55.796875Q52.03125 56.078125 52.5 56.265625Q52.765625 56.359375 54.046875 56.703125Q55.921875 57.203125 56.65625 57.53125Q57.390625 57.84375 57.8125 58.453125Q58.234375 59.046875 58.234375 59.953125Q58.234375 60.828125 57.71875 61.609375Q57.203125 62.390625 56.234375 62.8125Q55.265625 63.234375 54.046875 63.234375Q52.03125 63.234375 50.96875 62.390625Q49.90625 61.546875 49.609375 59.90625ZM59.671875 57.8125Q59.671875 54.9375 61.265625 53.546875Q62.609375 52.390625 64.53125 52.390625Q66.671875 52.390625 68.015625 53.796875Q69.375 55.203125 69.375 57.671875Q69.375 59.671875 68.78125 60.828125Q68.1875 61.96875 67.03125 62.609375Q65.890625 63.234375 64.53125 63.234375Q62.34375 63.234375 61.0 61.84375Q59.671875 60.4375 59.671875 57.8125ZM61.46875 57.8125Q61.46875 59.8125 62.328125 60.796875Q63.203125 61.78125 64.53125 61.78125Q65.84375 61.78125 66.703125 60.796875Q67.578125 59.796875 67.578125 57.75Q67.578125 55.828125 66.703125 54.84375Q65.828125 53.84375 64.53125 53.84375Q63.203125 53.84375 62.328125 54.84375Q61.46875 55.828125 61.46875 57.8125ZM78.09375 59.203125L79.8125 59.421875Q79.53125 61.21875 78.359375 62.234375Q77.203125 63.234375 75.5 63.234375Q73.375 63.234375 72.078125 61.84375Q70.78125 60.453125 70.78125 57.859375Q70.78125 56.171875 71.328125 54.921875Q71.890625 53.65625 73.03125 53.03125Q74.171875 52.390625 75.515625 52.390625Q77.203125 52.390625 78.265625 53.25Q79.34375 54.109375 79.65625 55.671875L77.9375 55.9375Q77.703125 54.890625 77.078125 54.375Q76.453125 53.84375 75.578125 53.84375Q74.25 53.84375 73.421875 54.796875Q72.59375 55.75 72.59375 57.796875Q72.59375 59.890625 73.390625 60.84375Q74.1875 61.78125 75.484375 61.78125Q76.515625 61.78125 77.203125 61.15625Q77.90625 60.515625 78.09375 59.203125ZM81.328125 50.703125L81.328125 48.6875L83.09375 48.6875L83.09375 50.703125L81.328125 50.703125ZM81.328125 63.0L81.328125 52.625L83.09375 52.625L83.09375 63.0L81.328125 63.0ZM92.09375 61.71875Q91.109375 62.546875 90.203125 62.890625Q89.296875 63.234375 88.265625 63.234375Q86.5625 63.234375 85.640625 62.40625Q84.71875 61.5625 84.71875 60.265625Q84.71875 59.5 85.0625 58.875Q85.421875 58.25 85.984375 57.875Q86.546875 57.484375 87.25 57.28125Q87.765625 57.15625 88.8125 57.015625Q90.9375 56.765625 91.9375 56.421875Q91.953125 56.0625 91.953125 55.953125Q91.953125 54.890625 91.453125 54.4375Q90.78125 53.84375 89.453125 53.84375Q88.203125 53.84375 87.609375 54.28125Q87.03125 54.71875 86.75 55.828125L85.03125 55.59375Q85.265625 54.484375 85.796875 53.8125Q86.328125 53.125 87.34375 52.765625Q88.359375 52.390625 89.703125 52.390625Q91.03125 52.390625 91.859375 52.703125Q92.6875 53.015625 93.078125 53.5Q93.46875 53.96875 93.625 54.6875Q93.71875 55.140625 93.71875 56.3125L93.71875 58.65625Q93.71875 61.109375 93.828125 61.765625Q93.9375 62.40625 94.28125 63.0L92.4375 63.0Q92.171875 62.453125 92.09375 61.71875ZM91.9375 57.796875Q90.984375 58.1875 89.0625 58.453125Q87.984375 58.609375 87.53125 58.8125Q87.09375 59.0 86.84375 59.375Q86.59375 59.75 86.59375 60.21875Q86.59375 60.921875 87.125 61.390625Q87.65625 61.859375 88.6875 61.859375Q89.703125 61.859375 90.484375 61.421875Q91.28125 60.96875 91.65625 60.203125Q91.9375 59.59375 91.9375 58.4375L91.9375 57.796875ZM100.15625 61.421875L100.40625 62.984375Q99.671875 63.140625 99.078125 63.140625Q98.125 63.140625 97.59375 62.84375Q97.078125 62.53125 96.859375 62.046875Q96.640625 61.546875 96.640625 59.96875L96.640625 54.0L95.359375 54.0L95.359375 52.625L96.640625 52.625L96.640625 50.0625L98.390625 49.0L98.390625 52.625L100.15625 52.625L100.15625 54.0L98.390625 54.0L98.390625 60.0625Q98.390625 60.8125 98.484375 61.03125Q98.578125 61.234375 98.78125 61.375Q99.0 61.5 99.390625 61.5Q99.671875 61.5 100.15625 61.421875ZM102.328125 50.703125L102.328125 48.6875L104.09375 48.6875L104.09375 50.703125L102.328125 50.703125ZM102.328125 63.0L102.328125 52.625L104.09375 52.625L104.09375 63.0L102.328125 63.0ZM105.671875 57.8125Q105.671875 54.9375 107.265625 53.546875Q108.609375 52.390625 110.53125 52.390625Q112.671875 52.390625 114.015625 53.796875Q115.375 55.203125 115.375 57.671875Q115.375 59.671875 114.78125 60.828125Q114.1875 61.96875 113.03125 62.609375Q111.890625 63.234375 110.53125 63.234375Q108.34375 63.234375 107.0 61.84375Q105.671875 60.4375 105.671875 57.8125ZM107.46875 57.8125Q107.46875 59.8125 108.328125 60.796875Q109.203125 61.78125 110.53125 61.78125Q111.84375 61.78125 112.703125 60.796875Q113.578125 59.796875 113.578125 57.75Q113.578125 55.828125 112.703125 54.84375Q111.828125 53.84375 110.53125 53.84375Q109.203125 53.84375 108.328125 54.84375Q107.46875 55.828125 107.46875 57.8125ZM117.3125 63.0L117.3125 52.625L118.90625 52.625L118.90625 54.109375Q120.046875 52.390625 122.203125 52.390625Q123.140625 52.390625 123.921875 52.734375Q124.71875 53.0625 125.109375 53.609375Q125.5 54.15625 125.65625 54.90625Q125.75 55.40625 125.75 56.625L125.75 63.0L123.984375 63.0L123.984375 56.6875Q123.984375 55.609375 123.78125 55.078125Q123.578125 54.546875 123.046875 54.234375Q122.53125 53.921875 121.828125 53.921875Q120.703125 53.921875 119.890625 54.640625Q119.078125 55.34375 119.078125 57.328125L119.078125 63.0L117.3125 63.0ZM132.96875 56.03125Q132.96875 52.46875 134.875 50.453125Q136.79688 48.421875 139.82812 48.421875Q141.8125 48.421875 143.39062 49.375Q144.98438 50.328125 145.8125 52.03125Q146.65625 53.71875 146.65625 55.859375Q146.65625 58.03125 145.78125 59.75Q144.90625 61.46875 143.28125 62.359375Q141.67188 63.25 139.8125 63.25Q137.79688 63.25 136.20312 62.28125Q134.60938 61.296875 133.78125 59.609375Q132.96875 57.90625 132.96875 56.03125ZM134.92188 56.0625Q134.92188 58.640625 136.3125 60.140625Q137.70312 61.625 139.79688 61.625Q141.9375 61.625 143.3125 60.125Q144.70312 58.609375 144.70312 55.84375Q144.70312 54.109375 144.10938 52.8125Q143.53125 51.5 142.39062 50.78125Q141.25 50.0625 139.82812 50.0625Q137.82812 50.0625 136.375 51.453125Q134.92188 52.828125 134.92188 56.0625ZM148.90625 58.40625L150.6875 58.25Q150.8125 59.3125 151.26562 60.0Q151.73438 60.6875 152.70312 61.125Q153.6875 61.546875 154.92188 61.546875Q156.0 61.546875 156.82812 61.234375Q157.65625 60.90625 158.0625 60.34375Q158.46875 59.78125 158.46875 59.109375Q158.46875 58.4375 158.07812 57.9375Q157.6875 57.4375 156.79688 57.09375Q156.21875 56.859375 154.23438 56.390625Q152.26562 55.921875 151.48438 55.5Q150.45312 54.96875 149.95312 54.171875Q149.45312 53.375 149.45312 52.390625Q149.45312 51.296875 150.0625 50.359375Q150.67188 49.421875 151.85938 48.9375Q153.04688 48.4375 154.48438 48.4375Q156.07812 48.4375 157.29688 48.953125Q158.51562 49.46875 159.15625 50.46875Q159.8125 51.453125 159.85938 52.71875L158.04688 52.859375Q157.90625 51.5 157.0625 50.8125Q156.21875 50.109375 154.5625 50.109375Q152.84375 50.109375 152.04688 50.75Q151.26562 51.375 151.26562 52.25Q151.26562 53.03125 151.82812 53.53125Q152.375 54.03125 154.6875 54.546875Q157.0 55.0625 157.85938 55.453125Q159.10938 56.03125 159.70312 56.921875Q160.29688 57.796875 160.29688 58.953125Q160.29688 60.09375 159.64062 61.109375Q158.98438 62.125 157.75 62.6875Q156.53125 63.25 155.0 63.25Q153.0625 63.25 151.75 62.6875Q150.4375 62.109375 149.6875 60.96875Q148.9375 59.828125 148.90625 58.40625ZM166.1875 63.0L166.1875 50.375L161.46875 50.375L161.46875 48.6875L172.8125 48.6875L172.8125 50.375L168.07812 50.375L168.07812 63.0L166.1875 63.0ZM174.57812 63.0L174.57812 48.6875L184.9375 48.6875L184.9375 50.375L176.48438 50.375L176.48438 54.75L184.39062 54.75L184.39062 56.4375L176.48438 56.4375L176.48438 61.3125L185.26562 61.3125L185.26562 63.0L174.57812 63.0ZM178.5 47.8125L179.79688 45.078125L182.09375 45.078125L179.95312 47.8125L178.5 47.8125ZM186.96875 56.03125Q186.96875 52.46875 188.875 50.453125Q190.79688 48.421875 193.82812 48.421875Q195.8125 48.421875 197.39062 49.375Q198.98438 50.328125 199.8125 52.03125Q200.65625 53.71875 200.65625 55.859375Q200.65625 58.03125 199.78125 59.75Q198.90625 61.46875 197.28125 62.359375Q195.67188 63.25 193.8125 63.25Q191.79688 63.25 190.20312 62.28125Q188.60938 61.296875 187.78125 59.609375Q186.96875 57.90625 186.96875 56.03125ZM188.92188 56.0625Q188.92188 58.640625 190.3125 60.140625Q191.70312 61.625 193.79688 61.625Q195.9375 61.625 197.3125 60.125Q198.70312 58.609375 198.70312 55.84375Q198.70312 54.109375 198.10938 52.8125Q197.53125 51.5 196.39062 50.78125Q195.25 50.0625 193.82812 50.0625Q191.82812 50.0625 190.375 51.453125Q188.92188 52.828125 188.92188 56.0625ZM209.54688 63.0L209.54688 48.6875L214.9375 48.6875Q216.375 48.6875 217.125 48.8125Q218.17188 49.0 218.89062 49.5Q219.60938 49.984375 220.03125 50.875Q220.46875 51.765625 220.46875 52.828125Q220.46875 54.65625 219.29688 55.921875Q218.14062 57.171875 215.10938 57.171875L211.4375 57.171875L211.4375 63.0L209.54688 63.0ZM211.4375 55.484375L215.14062 55.484375Q216.96875 55.484375 217.73438 54.8125Q218.51562 54.125 218.51562 52.875Q218.51562 51.984375 218.0625 51.34375Q217.60938 50.703125 216.875 50.5Q216.39062 50.375 215.09375 50.375L211.4375 50.375L211.4375 55.484375ZM221.96875 56.03125Q221.96875 52.46875 223.875 50.453125Q225.79688 48.421875 228.82812 48.421875Q230.8125 48.421875 232.39062 49.375Q233.98438 50.328125 234.8125 52.03125Q235.65625 53.71875 235.65625 55.859375Q235.65625 58.03125 234.78125 59.75Q233.90625 61.46875 232.28125 62.359375Q230.67188 63.25 228.8125 63.25Q226.79688 63.25 225.20312 62.28125Q223.60938 61.296875 222.78125 59.609375Q221.96875 57.90625 221.96875 56.03125ZM223.92188 56.0625Q223.92188 58.640625 225.3125 60.140625Q226.70312 61.625 228.79688 61.625Q230.9375 61.625 232.3125 60.125Q233.70312 58.609375 233.70312 55.84375Q233.70312 54.109375 233.10938 52.8125Q232.53125 51.5 231.39062 50.78125Q230.25 50.0625 228.82812 50.0625Q226.82812 50.0625 225.375 51.453125Q223.92188 52.828125 223.92188 56.0625ZM247.9375 48.6875L249.82812 48.6875L249.82812 56.953125Q249.82812 59.109375 249.34375 60.390625Q248.85938 61.65625 247.57812 62.453125Q246.3125 63.25 244.23438 63.25Q242.21875 63.25 240.9375 62.5625Q239.67188 61.859375 239.125 60.546875Q238.57812 59.234375 238.57812 56.953125L238.57812 48.6875L240.46875 48.6875L240.46875 56.9375Q240.46875 58.8125 240.8125 59.703125Q241.15625 60.578125 242.0 61.0625Q242.84375 61.53125 244.07812 61.53125Q246.15625 61.53125 247.04688 60.59375Q247.9375 59.640625 247.9375 56.9375L247.9375 48.6875ZM251.57812 63.0L251.57812 48.6875L257.92188 48.6875Q259.82812 48.6875 260.82812 49.078125Q261.82812 49.453125 262.42188 50.4375Q263.01562 51.40625 263.01562 52.59375Q263.01562 54.109375 262.03125 55.15625Q261.04688 56.203125 258.98438 56.484375Q259.73438 56.84375 260.125 57.203125Q260.95312 57.953125 261.70312 59.109375L264.1875 63.0L261.8125 63.0L259.90625 60.015625Q259.07812 58.734375 258.54688 58.046875Q258.01562 57.359375 257.57812 57.09375Q257.15625 56.8125 256.71875 56.703125Q256.39062 56.640625 255.67188 56.640625L253.46875 56.640625L253.46875 63.0L251.57812 63.0ZM253.46875 55.0L257.54688 55.0Q258.84375 55.0 259.5625 54.734375Q260.29688 54.46875 260.67188 53.875Q261.0625 53.28125 261.0625 52.59375Q261.0625 51.578125 260.32812 50.921875Q259.59375 50.265625 258.0 50.265625L253.46875 50.265625L253.46875 55.0ZM275.1875 63.0L275.1875 50.375L270.46875 50.375L270.46875 48.6875L281.8125 48.6875L281.8125 50.375L277.07812 50.375L277.07812 63.0L275.1875 63.0ZM282.96875 56.03125Q282.96875 52.46875 284.875 50.453125Q286.79688 48.421875 289.82812 48.421875Q291.8125 48.421875 293.39062 49.375Q294.98438 50.328125 295.8125 52.03125Q296.65625 53.71875 296.65625 55.859375Q296.65625 58.03125 295.78125 59.75Q294.90625 61.46875 293.28125 62.359375Q291.67188 63.25 289.8125 63.25Q287.79688 63.25 286.20312 62.28125Q284.60938 61.296875 283.78125 59.609375Q282.96875 57.90625 282.96875 56.03125ZM284.92188 56.0625Q284.92188 58.640625 286.3125 60.140625Q287.70312 61.625 289.79688 61.625Q291.9375 61.625 293.3125 60.125Q294.70312 58.609375 294.70312 55.84375Q294.70312 54.109375 294.10938 52.8125Q293.53125 51.5 292.39062 50.78125Q291.25 50.0625 289.82812 50.0625Q287.82812 50.0625 286.375 51.453125Q284.92188 52.828125 284.92188 56.0625ZM308.9375 48.6875L310.82812 48.6875L310.82812 56.953125Q310.82812 59.109375 310.34375 60.390625Q309.85938 61.65625 308.57812 62.453125Q307.3125 63.25 305.23438 63.25Q303.21875 63.25 301.9375 62.5625Q300.67188 61.859375 300.125 60.546875Q299.57812 59.234375 299.57812 56.953125L299.57812 48.6875L301.46875 48.6875L301.46875 56.9375Q301.46875 58.8125 301.8125 59.703125Q302.15625 60.578125 303.0 61.0625Q303.84375 61.53125 305.07812 61.53125Q307.15625 61.53125 308.04688 60.59375Q308.9375 59.640625 308.9375 56.9375L308.9375 48.6875ZM311.90625 58.40625L313.6875 58.25Q313.8125 59.3125 314.26562 60.0Q314.73438 60.6875 315.70312 61.125Q316.6875 61.546875 317.92188 61.546875Q319.0 61.546875 319.82812 61.234375Q320.65625 60.90625 321.0625 60.34375Q321.46875 59.78125 321.46875 59.109375Q321.46875 58.4375 321.07812 57.9375Q320.6875 57.4375 319.79688 57.09375Q319.21875 56.859375 317.23438 56.390625Q315.26562 55.921875 314.48438 55.5Q313.45312 54.96875 312.95312 54.171875Q312.45312 53.375 312.45312 52.390625Q312.45312 51.296875 313.0625 50.359375Q313.67188 49.421875 314.85938 48.9375Q316.04688 48.4375 317.48438 48.4375Q319.07812 48.4375 320.29688 48.953125Q321.51562 49.46875 322.15625 50.46875Q322.8125 51.453125 322.85938 52.71875L321.04688 52.859375Q320.90625 51.5 320.0625 50.8125Q319.21875 50.109375 317.5625 50.109375Q315.84375 50.109375 315.04688 50.75Q314.26562 51.375 314.26562 52.25Q314.26562 53.03125 314.82812 53.53125Q315.375 54.03125 317.6875 54.546875Q320.0 55.0625 320.85938 55.453125Q322.10938 56.03125 322.70312 56.921875Q323.29688 57.796875 323.29688 58.953125Q323.29688 60.09375 322.64062 61.109375Q321.98438 62.125 320.75 62.6875Q319.53125 63.25 318.0 63.25Q316.0625 63.25 314.75 62.6875Q313.4375 62.109375 312.6875 60.96875Q311.9375 59.828125 311.90625 58.40625ZM334.60938 59.46875Q334.59375 59.125 334.59375 58.953125Q334.59375 57.90625 334.89062 57.15625Q335.10938 56.59375 335.59375 56.015625Q335.9375 55.59375 336.84375 54.796875Q337.76562 53.984375 338.03125 53.515625Q338.3125 53.03125 338.3125 52.46875Q338.3125 51.4375 337.5 50.671875Q336.70312 49.890625 335.54688 49.890625Q334.42188 49.890625 333.67188 50.59375Q332.92188 51.296875 332.6875 52.78125L330.875 52.5625Q331.125 50.5625 332.32812 49.5Q333.53125 48.4375 335.51562 48.4375Q337.625 48.4375 338.875 49.578125Q340.125 50.71875 340.125 52.34375Q340.125 53.28125 339.67188 54.078125Q339.23438 54.859375 337.95312 56.0Q337.09375 56.765625 336.82812 57.125Q336.57812 57.484375 336.4375 57.953125Q336.3125 58.421875 336.29688 59.46875L334.60938 59.46875ZM334.5 63.0L334.5 61.0L336.5 61.0L336.5 63.0L334.5 63.0Z" fill-rule="nonzero"/></svg>