<svg version="1.1" viewBox="0.0 0.0 623.0 385.0" fill="none" stroke="none" stroke-linecap="square" stroke-miterlimit="10" width="623" height="385" xmlns:xlink="http://www.w3.org/1999/xlink" xmlns="http://www.w3.org/2000/svg"><path fill="#ffffff" d="M0 0L623.0 0L623.0 385.0L0 385.0L0 0Z" fill-rule="nonzero"/><path fill="#4285f4" d="M311.5 80.083336C351.42285 80.083336 389.52365 96.79171 416.56805 126.15891C443.6125 155.52611 457.13196 194.87158 453.84982 234.65927L311.5 222.91667Z" fill-rule="nonzero"/><path fill="#ea4335" d="M453.84982 234.65927C447.49002 311.75607 380.90894 369.77756 303.6667 365.53503C226.42444 361.2925 166.59836 296.3281 168.72041 218.99854C170.84248 141.66898 234.14134 80.083336 311.5 80.083336L311.5 222.91667Z" fill-rule="nonzero"/><path fill="#000000" d="M386.28378 153.29901L386.28378 154.48651L379.65878 154.48651Q379.64316 154.04901 379.7994 153.62714Q380.06503 152.95526 380.6119 152.29901Q381.1744 151.64276 382.22128 150.78339Q383.8619 149.43964 384.4244 148.65839Q385.00253 147.87714 385.00253 147.17401Q385.00253 146.43964 384.47128 145.93964Q383.95566 145.43964 383.12753 145.43964Q382.2369 145.43964 381.69003 145.97089Q381.15878 146.50214 381.15878 147.45526L379.89316 147.31464Q380.01816 145.90839 380.8619 145.17401Q381.72128 144.42401 383.14316 144.42401Q384.59628 144.42401 385.4244 145.22089Q386.26816 146.01776 386.26816 147.20526Q386.26816 147.81464 386.01816 148.39276Q385.78378 148.97089 385.20566 149.61151Q384.64316 150.25214 383.31503 151.37714Q382.20566 152.29901 381.89316 152.64276Q381.58066 152.97089 381.37753 153.29901L386.28378 153.29901ZM387.83066 151.84589L389.0494 151.67401Q389.26816 152.72089 389.76816 153.18964Q390.28378 153.64276 391.01816 153.64276Q391.89316 153.64276 392.4869 153.04901Q393.08066 152.43964 393.08066 151.54901Q393.08066 150.70526 392.51816 150.15839Q391.97128 149.61151 391.12753 149.61151Q390.76816 149.61151 390.25253 149.73651L390.39316 148.65839Q390.51816 148.67401 390.58066 148.67401Q391.37753 148.67401 392.00253 148.26776Q392.62753 147.86151 392.62753 147.00214Q392.62753 146.33026 392.1744 145.89276Q391.72128 145.43964 390.9869 145.43964Q390.26816 145.43964 389.78378 145.89276Q389.31503 146.33026 389.1744 147.23651L387.95566 147.01776Q388.1744 145.78339 388.97128 145.11151Q389.76816 144.42401 390.95566 144.42401Q391.78378 144.42401 392.47128 144.78339Q393.15878 145.12714 393.51816 145.73651Q393.89316 146.34589 393.89316 147.03339Q393.89316 147.67401 393.5494 148.20526Q393.20566 148.73651 392.51816 149.06464Q393.40878 149.26776 393.89316 149.90839Q394.39316 150.54901 394.39316 151.53339Q394.39316 152.84589 393.4244 153.75214Q392.47128 154.65839 391.01816 154.65839Q389.69003 154.65839 388.81503 153.87714Q387.95566 153.09589 387.83066 151.84589ZM402.20566 146.92401L400.9869 147.01776Q400.81503 146.28339 400.51816 145.95526Q400.01816 145.43964 399.28378 145.43964Q398.69003 145.43964 398.25253 145.76776Q397.6744 146.18964 397.33066 147.00214Q397.00253 147.81464 396.9869 149.31464Q397.4244 148.64276 398.06503 148.31464Q398.72128 147.98651 399.4244 147.98651Q400.65878 147.98651 401.51816 148.89276Q402.37753 149.79901 402.37753 151.23651Q402.37753 152.17401 401.97128 152.98651Q401.56503 153.79901 400.84628 154.23651Q400.14316 154.65839 399.2369 154.65839Q397.70566 154.65839 396.7369 153.53339Q395.76816 152.39276 395.76816 149.79901Q395.76816 146.89276 396.83066 145.56464Q397.76816 144.42401 399.3619 144.42401Q400.5494 144.42401 401.2994 145.09589Q402.0494 145.75214 402.20566 146.92401ZM397.1744 151.23651Q397.1744 151.87714 397.44003 152.45526Q397.72128 153.03339 398.20566 153.34589Q398.69003 153.64276 399.22128 153.64276Q400.00253 153.64276 400.56503 153.01776Q401.12753 152.39276 401.12753 151.31464Q401.12753 150.26776 400.56503 149.67401Q400.01816 149.06464 399.1744 149.06464Q398.34628 149.06464 397.75253 149.67401Q397.1744 150.26776 397.1744 151.23651Z" fill-rule="nonzero"/><path fill="#000000" d="M226.73184 293.7843L225.51309 293.87805Q225.34122 293.14368 225.04434 292.81555Q224.54434 292.29993 223.80997 292.29993Q223.21622 292.29993 222.77872 292.62805Q222.20059 293.04993 221.85684 293.86243Q221.52872 294.67493 221.51309 296.17493Q221.95059 295.50305 222.59122 295.17493Q223.24747 294.8468 223.95059 294.8468Q225.18497 294.8468 226.04434 295.75305Q226.90372 296.6593 226.90372 298.0968Q226.90372 299.0343 226.49747 299.8468Q226.09122 300.6593 225.37247 301.0968Q224.66934 301.51868 223.76309 301.51868Q222.23184 301.51868 221.26309 300.39368Q220.29434 299.25305 220.29434 296.6593Q220.29434 293.75305 221.35684 292.42493Q222.29434 291.2843 223.88809 291.2843Q225.07559 291.2843 225.82559 291.95618Q226.57559 292.61243 226.73184 293.7843ZM221.70059 298.0968Q221.70059 298.73743 221.96622 299.31555Q222.24747 299.89368 222.73184 300.20618Q223.21622 300.50305 223.74747 300.50305Q224.52872 300.50305 225.09122 299.87805Q225.65372 299.25305 225.65372 298.17493Q225.65372 297.12805 225.09122 296.5343Q224.54434 295.92493 223.70059 295.92493Q222.87247 295.92493 222.27872 296.5343Q221.70059 297.12805 221.70059 298.0968ZM234.73184 293.7843L233.51309 293.87805Q233.34122 293.14368 233.04434 292.81555Q232.54434 292.29993 231.80997 292.29993Q231.21622 292.29993 230.77872 292.62805Q230.20059 293.04993 229.85684 293.86243Q229.52872 294.67493 229.51309 296.17493Q229.95059 295.50305 230.59122 295.17493Q231.24747 294.8468 231.95059 294.8468Q233.18497 294.8468 234.04434 295.75305Q234.90372 296.6593 234.90372 298.0968Q234.90372 299.0343 234.49747 299.8468Q234.09122 300.6593 233.37247 301.0968Q232.66934 301.51868 231.76309 301.51868Q230.23184 301.51868 229.26309 300.39368Q228.29434 299.25305 228.29434 296.6593Q228.29434 293.75305 229.35684 292.42493Q230.29434 291.2843 231.88809 291.2843Q233.07559 291.2843 233.82559 291.95618Q234.57559 292.61243 234.73184 293.7843ZM229.70059 298.0968Q229.70059 298.73743 229.96622 299.31555Q230.24747 299.89368 230.73184 300.20618Q231.21622 300.50305 231.74747 300.50305Q232.52872 300.50305 233.09122 299.87805Q233.65372 299.25305 233.65372 298.17493Q233.65372 297.12805 233.09122 296.5343Q232.54434 295.92493 231.70059 295.92493Q230.87247 295.92493 230.27872 296.5343Q229.70059 297.12805 229.70059 298.0968ZM240.98184 301.3468L239.74747 301.3468L239.74747 293.50305Q239.30997 293.92493 238.57559 294.36243Q237.85684 294.7843 237.29434 294.98743L237.29434 293.79993Q238.32559 293.31555 239.09122 292.62805Q239.87247 291.94055 240.18497 291.2843L240.98184 291.2843L240.98184 301.3468Z" fill-rule="nonzero"/><path fill="#1a1a1a" d="M20.171875 310.33655L20.171875 301.7428L21.328125 301.7428L25.84375 308.4928L25.84375 301.7428L26.9375 301.7428L26.9375 310.33655L25.765625 310.33655L21.25 303.58655L21.25 310.33655L20.171875 310.33655ZM28.65625 307.22717Q28.65625 305.4928 29.609375 304.66467Q30.40625 303.97717 31.5625 303.97717Q32.84375 303.97717 33.65625 304.82092Q34.484375 305.64905 34.484375 307.13342Q34.484375 308.33655 34.125 309.02405Q33.765625 309.71155 33.0625 310.10217Q32.375 310.47717 31.5625 310.47717Q30.265625 310.47717 29.453125 309.64905Q28.65625 308.8053 28.65625 307.22717ZM29.734375 307.22717Q29.734375 308.41467 30.25 309.00842Q30.78125 309.60217 31.5625 309.60217Q32.359375 309.60217 32.875 309.00842Q33.390625 308.41467 33.390625 307.19592Q33.390625 306.03967 32.859375 305.44592Q32.34375 304.85217 31.5625 304.85217Q30.78125 304.85217 30.25 305.44592Q29.734375 306.02405 29.734375 307.22717ZM36.046875 310.33655L36.046875 304.1178L36.984375 304.1178L36.984375 304.9928Q37.671875 303.97717 38.96875 303.97717Q39.53125 303.97717 40.0 304.1803Q40.484375 304.38342 40.71875 304.71155Q40.953125 305.03967 41.046875 305.47717Q41.09375 305.77405 41.09375 306.50842L41.09375 310.33655L40.046875 310.33655L40.046875 306.5553Q40.046875 305.89905 39.921875 305.58655Q39.796875 305.27405 39.484375 305.08655Q39.171875 304.88342 38.75 304.88342Q38.078125 304.88342 37.578125 305.32092Q37.09375 305.7428 37.09375 306.9303L37.09375 310.33655L36.046875 310.33655Z" fill-rule="nonzero"/><path fill="#9e9e9e" d="M19.8125 319.8678L19.8125 318.85217L25.375 318.85217L25.375 319.6803Q24.5625 320.5553 23.75 322.00842Q22.953125 323.44592 22.515625 324.97717Q22.1875 326.0553 22.109375 327.33655L21.015625 327.33655Q21.03125 326.32092 21.40625 324.88342Q21.796875 323.44592 22.5 322.1178Q23.21875 320.78967 24.03125 319.8678L19.8125 319.8678ZM26.75 325.07092L27.8125 324.9303Q27.984375 325.82092 28.421875 326.22717Q28.859375 326.6178 29.484375 326.6178Q30.234375 326.6178 30.75 326.10217Q31.265625 325.58655 31.265625 324.82092Q31.265625 324.10217 30.78125 323.63342Q30.3125 323.14905 29.578125 323.14905Q29.28125 323.14905 28.828125 323.27405L28.953125 322.33655Q29.0625 322.35217 29.125 322.35217Q29.796875 322.35217 30.328125 322.00842Q30.875 321.64905 30.875 320.91467Q30.875 320.33655 30.484375 319.96155Q30.09375 319.57092 29.46875 319.57092Q28.859375 319.57092 28.4375 319.96155Q28.03125 320.35217 27.921875 321.1178L26.859375 320.9303Q27.046875 319.88342 27.734375 319.3053Q28.421875 318.71155 29.4375 318.71155Q30.140625 318.71155 30.734375 319.02405Q31.328125 319.32092 31.640625 319.83655Q31.953125 320.35217 31.953125 320.94592Q31.953125 321.4928 31.65625 321.96155Q31.359375 322.41467 30.78125 322.6803Q31.53125 322.85217 31.953125 323.41467Q32.375 323.96155 32.375 324.8053Q32.375 325.9303 31.546875 326.71155Q30.734375 327.4928 29.484375 327.4928Q28.359375 327.4928 27.609375 326.82092Q26.859375 326.13342 26.75 325.07092ZM34.3125 327.33655L34.3125 326.13342L35.515625 326.13342L35.515625 327.33655Q35.515625 327.9928 35.28125 328.39905Q35.046875 328.82092 34.546875 329.03967L34.25 328.58655Q34.578125 328.44592 34.734375 328.14905Q34.890625 327.8678 34.921875 327.33655L34.3125 327.33655ZM36.8125 319.8678L36.8125 318.85217L42.375 318.85217L42.375 319.6803Q41.5625 320.5553 40.75 322.00842Q39.953125 323.44592 39.515625 324.97717Q39.1875 326.0553 39.109375 327.33655L38.015625 327.33655Q38.03125 326.32092 38.40625 324.88342Q38.796875 323.44592 39.5 322.1178Q40.21875 320.78967 41.03125 319.8678L36.8125 319.8678ZM43.953125 320.8053Q43.953125 319.88342 44.40625 319.2428Q44.875 318.60217 45.75 318.60217Q46.5625 318.60217 47.09375 319.1803Q47.625 319.75842 47.625 320.8678Q47.625 321.96155 47.078125 322.5553Q46.546875 323.13342 45.765625 323.13342Q44.984375 323.13342 44.46875 322.5553Q43.953125 321.97717 43.953125 320.8053ZM45.78125 319.32092Q45.390625 319.32092 45.125 319.66467Q44.875 320.00842 44.875 320.91467Q44.875 321.7428 45.125 322.08655Q45.390625 322.41467 45.78125 322.41467Q46.1875 322.41467 46.4375 322.07092Q46.703125 321.72717 46.703125 320.83655Q46.703125 319.9928 46.4375 319.66467Q46.171875 319.32092 45.78125 319.32092ZM45.78125 327.64905L50.484375 318.60217L51.34375 318.60217L46.65625 327.64905L45.78125 327.64905ZM49.5 325.32092Q49.5 324.39905 49.953125 323.75842Q50.421875 323.1178 51.3125 323.1178Q52.125 323.1178 52.65625 323.69592Q53.1875 324.25842 53.1875 325.38342Q53.1875 326.47717 52.640625 327.07092Q52.109375 327.64905 51.3125 327.64905Q50.546875 327.64905 50.015625 327.07092Q49.5 326.4928 49.5 325.32092ZM51.34375 323.83655Q50.9375 323.83655 50.671875 324.1803Q50.421875 324.52405 50.421875 325.4303Q50.421875 326.2428 50.6875 326.58655Q50.953125 326.9303 51.34375 326.9303Q51.734375 326.9303 52.0 326.58655Q52.265625 326.2428 52.265625 325.33655Q52.265625 324.50842 52.0 324.1803Q51.734375 323.83655 51.34375 323.83655Z" fill-rule="nonzero"/><path stroke="#757575" stroke-width="1.0" stroke-linecap="butt" d="M19.25 314.83655L162.66667 314.83655L211.68533 314.83655" fill-rule="nonzero"/><path fill="#9e9e9e" d="M213.68533 314.83655C213.68533 313.73196 212.7899 312.83655 211.68533 312.83655C210.58076 312.83655 209.68533 313.73196 209.68533 314.83655C209.68533 315.9411 210.58076 316.83655 211.68533 316.83655C212.7899 316.83655 213.68533 315.9411 213.68533 314.83655" fill-rule="nonzero"/><path fill="#1a1a1a" d="M585.3281 122.3093Q585.3281 120.16868 586.46875 118.96555Q587.625 117.7468 589.4375 117.7468Q590.6406 117.7468 591.59375 118.32493Q592.5469 118.88743 593.0469 119.90305Q593.5469 120.91868 593.5469 122.21555Q593.5469 123.51243 593.0156 124.54368Q592.4844 125.57493 591.5156 126.10618Q590.5625 126.63743 589.4375 126.63743Q588.21875 126.63743 587.2656 126.0593Q586.3125 125.46555 585.8125 124.46555Q585.3281 123.44993 585.3281 122.3093ZM586.5 122.32493Q586.5 123.88743 587.3281 124.77805Q588.1719 125.66868 589.4375 125.66868Q590.71875 125.66868 591.5469 124.77805Q592.375 123.8718 592.375 122.19993Q592.375 121.15305 592.0156 120.3718Q591.6719 119.59055 590.9844 119.16868Q590.2969 118.73118 589.4531 118.73118Q588.25 118.73118 587.375 119.5593Q586.5 120.38743 586.5 122.32493ZM598.625 126.4968L598.625 125.57493Q597.8906 126.63743 596.6406 126.63743Q596.09375 126.63743 595.6094 126.4343Q595.1406 126.21555 594.90625 125.90305Q594.6719 125.57493 594.5781 125.10618Q594.5156 124.8093 594.5156 124.1218L594.5156 120.27805L595.5781 120.27805L595.5781 123.73118Q595.5781 124.54368 595.6406 124.84055Q595.7344 125.2468 596.0469 125.4968Q596.375 125.73118 596.8594 125.73118Q597.3281 125.73118 597.7344 125.4968Q598.15625 125.2468 598.3281 124.82493Q598.5156 124.40305 598.5156 123.60618L598.5156 120.27805L599.5625 120.27805L599.5625 126.4968L598.625 126.4968ZM601.5469 119.1218L601.5469 117.90305L602.6094 117.90305L602.6094 119.1218L601.5469 119.1218ZM601.5469 126.4968L601.5469 120.27805L602.6094 120.27805L602.6094 126.4968L601.5469 126.4968Z" fill-rule="nonzero"/><path fill="#9e9e9e" d="M574.7969 142.48117L574.7969 143.4968L569.1094 143.4968Q569.1094 143.1218 569.2344 142.76242Q569.4531 142.1843 569.9219 141.6218Q570.40625 141.0593 571.3125 140.32492Q572.71875 139.16867 573.2031 138.4968Q573.7031 137.82492 573.7031 137.23117Q573.7031 136.60617 573.25 136.1843Q572.7969 135.7468 572.0781 135.7468Q571.3125 135.7468 570.8594 136.19992Q570.40625 136.65305 570.3906 137.46555L569.3125 137.35617Q569.4219 136.13742 570.1406 135.51242Q570.875 134.8718 572.1094 134.8718Q573.34375 134.8718 574.0625 135.5593Q574.78125 136.2468 574.78125 137.26242Q574.78125 137.77805 574.5625 138.27805Q574.3594 138.76242 573.8594 139.32492Q573.375 139.8718 572.25 140.82492Q571.2969 141.6218 571.0156 141.91867Q570.75 142.19992 570.5781 142.48117L574.7969 142.48117ZM581.71875 137.01242L580.6719 137.09055Q580.53125 136.46555 580.28125 136.1843Q579.84375 135.73117 579.21875 135.73117Q578.71875 135.73117 578.3281 136.01242Q577.84375 136.38742 577.5469 137.09055Q577.2656 137.77805 577.25 139.0593Q577.625 138.48117 578.1719 138.19992Q578.7344 137.91867 579.34375 137.91867Q580.3906 137.91867 581.125 138.69992Q581.875 139.48117 581.875 140.69992Q581.875 141.51242 581.5156 142.21555Q581.1719 142.90305 580.5625 143.27805Q579.9531 143.63742 579.1875 143.63742Q577.8594 143.63742 577.03125 142.66867Q576.2031 141.69992 576.2031 139.48117Q576.2031 136.98117 577.125 135.85617Q577.9219 134.8718 579.28125 134.8718Q580.2969 134.8718 580.9375 135.44992Q581.59375 136.01242 581.71875 137.01242ZM577.4219 140.71555Q577.4219 141.26242 577.6406 141.76242Q577.875 142.2468 578.28125 142.51242Q578.7031 142.77805 579.1719 142.77805Q579.8281 142.77805 580.3125 142.2468Q580.7969 141.69992 580.7969 140.77805Q580.7969 139.88742 580.3125 139.3718Q579.84375 138.85617 579.125 138.85617Q578.40625 138.85617 577.90625 139.3718Q577.4219 139.88742 577.4219 140.71555ZM583.8125 143.4968L583.8125 142.29367L585.0156 142.29367L585.0156 143.4968Q585.0156 144.15305 584.78125 144.5593Q584.5469 144.98117 584.0469 145.19992L583.75 144.7468Q584.0781 144.60617 584.2344 144.3093Q584.3906 144.02805 584.4219 143.4968L583.8125 143.4968ZM586.25 141.23117L587.3125 141.09055Q587.4844 141.98117 587.9219 142.38742Q588.3594 142.77805 588.9844 142.77805Q589.7344 142.77805 590.25 142.26242Q590.7656 141.7468 590.7656 140.98117Q590.7656 140.26242 590.28125 139.79367Q589.8125 139.3093 589.0781 139.3093Q588.78125 139.3093 588.3281 139.4343L588.4531 138.4968Q588.5625 138.51242 588.625 138.51242Q589.2969 138.51242 589.8281 138.16867Q590.375 137.8093 590.375 137.07492Q590.375 136.4968 589.9844 136.1218Q589.59375 135.73117 588.96875 135.73117Q588.3594 135.73117 587.9375 136.1218Q587.53125 136.51242 587.4219 137.27805L586.3594 137.09055Q586.5469 136.04367 587.2344 135.46555Q587.9219 134.8718 588.9375 134.8718Q589.6406 134.8718 590.2344 135.1843Q590.8281 135.48117 591.1406 135.9968Q591.4531 136.51242 591.4531 137.10617Q591.4531 137.65305 591.15625 138.1218Q590.8594 138.57492 590.28125 138.84055Q591.03125 139.01242 591.4531 139.57492Q591.875 140.1218 591.875 140.96555Q591.875 142.09055 591.0469 142.8718Q590.2344 143.65305 588.9844 143.65305Q587.8594 143.65305 587.1094 142.98117Q586.3594 142.29367 586.25 141.23117ZM593.4531 136.96555Q593.4531 136.04367 593.90625 135.40305Q594.375 134.76242 595.25 134.76242Q596.0625 134.76242 596.59375 135.34055Q597.125 135.91867 597.125 137.02805Q597.125 138.1218 596.5781 138.71555Q596.0469 139.29367 595.2656 139.29367Q594.4844 139.29367 593.96875 138.71555Q593.4531 138.13742 593.4531 136.96555ZM595.28125 135.48117Q594.8906 135.48117 594.625 135.82492Q594.375 136.16867 594.375 137.07492Q594.375 137.90305 594.625 138.2468Q594.8906 138.57492 595.28125 138.57492Q595.6875 138.57492 595.9375 138.23117Q596.2031 137.88742 596.2031 136.9968Q596.2031 136.15305 595.9375 135.82492Q595.6719 135.48117 595.28125 135.48117ZM595.28125 143.8093L599.9844 134.76242L600.84375 134.76242L596.15625 143.8093L595.28125 143.8093ZM599.0 141.48117Q599.0 140.5593 599.4531 139.91867Q599.9219 139.27805 600.8125 139.27805Q601.625 139.27805 602.15625 139.85617Q602.6875 140.41867 602.6875 141.54367Q602.6875 142.63742 602.1406 143.23117Q601.6094 143.8093 600.8125 143.8093Q600.0469 143.8093 599.5156 143.23117Q599.0 142.65305 599.0 141.48117ZM600.84375 139.9968Q600.4375 139.9968 600.1719 140.34055Q599.9219 140.6843 599.9219 141.59055Q599.9219 142.40305 600.1875 142.7468Q600.4531 143.09055 600.84375 143.09055Q601.2344 143.09055 601.5 142.7468Q601.7656 142.40305 601.7656 141.4968Q601.7656 140.66867 601.5 140.34055Q601.2344 139.9968 600.84375 139.9968Z" fill-rule="nonzero"/><path stroke="#757575" stroke-width="1.0" stroke-linecap="butt" d="M603.75 130.9968L460.33334 130.9968L411.31467 130.9968" fill-rule="nonzero"/><path fill="#9e9e9e" d="M413.31467 130.9968C413.31467 129.89223 412.41922 128.9968 411.31467 128.9968C410.21008 128.9968 409.31467 129.89223 409.31467 130.9968C409.31467 132.10136 410.21008 132.9968 411.31467 132.9968C412.41922 132.9968 413.31467 132.10136 413.31467 130.9968" fill-rule="nonzero"/><path fill="#757575" d="M20.15625 33.65625L21.9375 33.5Q22.0625 34.5625 22.515625 35.25Q22.984375 35.9375 23.953125 36.375Q24.9375 36.796875 26.171875 36.796875Q27.25 36.796875 28.078125 36.484375Q28.90625 36.15625 29.3125 35.59375Q29.71875 35.03125 29.71875 34.359375Q29.71875 33.6875 29.328125 33.1875Q28.9375 32.6875 28.046875 32.34375Q27.46875 32.109375 25.484375 31.640625Q23.515625 31.171875 22.734375 30.75Q21.703125 30.21875 21.203125 29.421875Q20.703125 28.625 20.703125 27.640625Q20.703125 26.546875 21.3125 25.609375Q21.921875 24.671875 23.109375 24.1875Q24.296875 23.6875 25.734375 23.6875Q27.328125 23.6875 28.546875 24.203125Q29.765625 24.71875 30.40625 25.71875Q31.0625 26.703125 31.109375 27.96875L29.296875 28.109375Q29.15625 26.75 28.3125 26.0625Q27.46875 25.359375 25.8125 25.359375Q24.09375 25.359375 23.296875 26.0Q22.515625 26.625 22.515625 27.5Q22.515625 28.28125 23.078125 28.78125Q23.625 29.28125 25.9375 29.796875Q28.25 30.3125 29.109375 30.703125Q30.359375 31.28125 30.953125 32.171875Q31.546875 33.046875 31.546875 34.203125Q31.546875 35.34375 30.890625 36.359375Q30.234375 37.375 29.0 37.9375Q27.78125 38.5 26.25 38.5Q24.3125 38.5 23.0 37.9375Q21.6875 37.359375 20.9375 36.21875Q20.1875 35.078125 20.15625 33.65625ZM32.921875 33.0625Q32.921875 30.1875 34.515625 28.796875Q35.859375 27.640625 37.78125 27.640625Q39.921875 27.640625 41.265625 29.046875Q42.625 30.453125 42.625 32.921875Q42.625 34.921875 42.03125 36.078125Q41.4375 37.21875 40.28125 37.859375Q39.140625 38.484375 37.78125 38.484375Q35.59375 38.484375 34.25 37.09375Q32.921875 35.6875 32.921875 33.0625ZM34.71875 33.0625Q34.71875 35.0625 35.578125 36.046875Q36.453125 37.03125 37.78125 37.03125Q39.09375 37.03125 39.953125 36.046875Q40.828125 35.046875 40.828125 33.0Q40.828125 31.078125 39.953125 30.09375Q39.078125 29.09375 37.78125 29.09375Q36.453125 29.09375 35.578125 30.09375Q34.71875 31.078125 34.71875 33.0625ZM51.359375 38.25L51.359375 36.71875Q50.15625 38.484375 48.078125 38.484375Q47.15625 38.484375 46.359375 38.140625Q45.5625 37.78125 45.171875 37.25Q44.796875 36.71875 44.640625 35.9375Q44.53125 35.421875 44.53125 34.296875L44.53125 27.875L46.28125 27.875L46.28125 33.625Q46.28125 35.0 46.390625 35.484375Q46.5625 36.171875 47.09375 36.578125Q47.640625 36.96875 48.421875 36.96875Q49.21875 36.96875 49.90625 36.5625Q50.609375 36.15625 50.890625 35.46875Q51.1875 34.765625 51.1875 33.4375L51.1875 27.875L52.9375 27.875L52.9375 38.25L51.359375 38.25ZM54.5625 38.25L54.5625 23.9375L56.328125 23.9375L56.328125 29.0625Q57.5625 27.640625 59.4375 27.640625Q60.578125 27.640625 61.421875 28.09375Q62.28125 28.546875 62.640625 29.359375Q63.015625 30.15625 63.015625 31.671875L63.015625 38.25L61.265625 38.25L61.265625 31.671875Q61.265625 30.359375 60.6875 29.765625Q60.109375 29.15625 59.078125 29.15625Q58.296875 29.15625 57.59375 29.5625Q56.90625 29.96875 56.609375 30.671875Q56.328125 31.359375 56.328125 32.578125L56.328125 38.25L54.5625 38.25ZM71.34375 36.96875Q70.359375 37.796875 69.453125 38.140625Q68.546875 38.484375 67.515625 38.484375Q65.8125 38.484375 64.890625 37.65625Q63.96875 36.8125 63.96875 35.515625Q63.96875 34.75 64.3125 34.125Q64.671875 33.5 65.234375 33.125Q65.796875 32.734375 66.5 32.53125Q67.015625 32.40625 68.0625 32.265625Q70.1875 32.015625 71.1875 31.671875Q71.203125 31.3125 71.203125 31.203125Q71.203125 30.140625 70.703125 29.6875Q70.03125 29.09375 68.703125 29.09375Q67.453125 29.09375 66.859375 29.53125Q66.28125 29.96875 66.0 31.078125L64.28125 30.84375Q64.515625 29.734375 65.046875 29.0625Q65.578125 28.375 66.59375 28.015625Q67.609375 27.640625 68.953125 27.640625Q70.28125 27.640625 71.109375 27.953125Q71.9375 28.265625 72.328125 28.75Q72.71875 29.21875 72.875 29.9375Q72.96875 30.390625 72.96875 31.5625L72.96875 33.90625Q72.96875 36.359375 73.078125 37.015625Q73.1875 37.65625 73.53125 38.25L71.6875 38.25Q71.421875 37.703125 71.34375 36.96875ZM71.1875 33.046875Q70.234375 33.4375 68.3125 33.703125Q67.234375 33.859375 66.78125 34.0625Q66.34375 34.25 66.09375 34.625Q65.84375 35.0 65.84375 35.46875Q65.84375 36.171875 66.375 36.640625Q66.90625 37.109375 67.9375 37.109375Q68.953125 37.109375 69.734375 36.671875Q70.53125 36.21875 70.90625 35.453125Q71.1875 34.84375 71.1875 33.6875L71.1875 33.046875ZM75.578125 25.953125L75.578125 23.9375L77.34375 23.9375L77.34375 25.953125L75.578125 25.953125ZM75.578125 38.25L75.578125 27.875L77.34375 27.875L77.34375 38.25L75.578125 38.25ZM83.40625 36.671875L83.65625 38.234375Q82.921875 38.390625 82.328125 38.390625Q81.375 38.390625 80.84375 38.09375Q80.328125 37.78125 80.109375 37.296875Q79.890625 36.796875 79.890625 35.21875L79.890625 29.25L78.609375 29.25L78.609375 27.875L79.890625 27.875L79.890625 25.3125L81.640625 24.25L81.640625 27.875L83.40625 27.875L83.40625 29.25L81.640625 29.25L81.640625 35.3125Q81.640625 36.0625 81.734375 36.28125Q81.828125 36.484375 82.03125 36.625Q82.25 36.75 82.640625 36.75Q82.921875 36.75 83.40625 36.671875ZM92.671875 34.90625L94.484375 35.140625Q94.0625 36.71875 92.890625 37.609375Q91.734375 38.484375 89.921875 38.484375Q87.65625 38.484375 86.3125 37.09375Q84.984375 35.6875 84.984375 33.15625Q84.984375 30.53125 86.328125 29.09375Q87.671875 27.640625 89.828125 27.640625Q91.90625 27.640625 93.21875 29.0625Q94.546875 30.46875 94.546875 33.046875Q94.546875 33.203125 94.53125 33.515625L86.796875 33.515625Q86.890625 35.21875 87.765625 36.125Q88.640625 37.03125 89.9375 37.03125Q90.90625 37.03125 91.578125 36.53125Q92.265625 36.015625 92.671875 34.90625ZM86.890625 32.0625L92.6875 32.0625Q92.578125 30.765625 92.03125 30.109375Q91.1875 29.09375 89.84375 29.09375Q88.640625 29.09375 87.8125 29.90625Q86.984375 30.703125 86.890625 32.0625ZM95.640625 38.25L95.640625 36.828125L102.25 29.25Q101.125 29.296875 100.265625 29.296875L96.03125 29.296875L96.03125 27.875L104.515625 27.875L104.515625 29.046875L98.890625 35.625L97.8125 36.828125Q98.984375 36.734375 100.03125 36.734375L104.828125 36.734375L104.828125 38.25L95.640625 38.25ZM104.890625 33.953125L104.890625 32.1875L110.28125 32.1875L110.28125 33.953125L104.890625 33.953125ZM115.453125 38.25L111.5 27.875L113.359375 27.875L115.59375 34.09375Q115.953125 35.09375 116.25 36.171875Q116.484375 35.359375 116.90625 34.203125L119.203125 27.875L121.015625 27.875L117.09375 38.25L115.453125 38.25ZM120.921875 33.0625Q120.921875 30.1875 122.515625 28.796875Q123.859375 27.640625 125.78125 27.640625Q127.921875 27.640625 129.26562 29.046875Q130.625 30.453125 130.625 32.921875Q130.625 34.921875 130.03125 36.078125Q129.4375 37.21875 128.28125 37.859375Q127.140625 38.484375 125.78125 38.484375Q123.59375 38.484375 122.25 37.09375Q120.921875 35.6875 120.921875 33.0625ZM122.71875 33.0625Q122.71875 35.0625 123.578125 36.046875Q124.453125 37.03125 125.78125 37.03125Q127.09375 37.03125 127.953125 36.046875Q128.82812 35.046875 128.82812 33.0Q128.82812 31.078125 127.953125 30.09375Q127.078125 29.09375 125.78125 29.09375Q124.453125 29.09375 123.578125 30.09375Q122.71875 31.078125 122.71875 33.0625ZM139.35938 38.25L139.35938 36.71875Q138.15625 38.484375 136.07812 38.484375Q135.15625 38.484375 134.35938 38.140625Q133.5625 37.78125 133.17188 37.25Q132.79688 36.71875 132.64062 35.9375Q132.53125 35.421875 132.53125 34.296875L132.53125 27.875L134.28125 27.875L134.28125 33.625Q134.28125 35.0 134.39062 35.484375Q134.5625 36.171875 135.09375 36.578125Q135.64062 36.96875 136.42188 36.96875Q137.21875 36.96875 137.90625 36.5625Q138.60938 36.15625 138.89062 35.46875Q139.1875 34.765625 139.1875 33.4375L139.1875 27.875L140.9375 27.875L140.9375 38.25L139.35938 38.25ZM141.85938 35.15625L143.60938 34.875Q143.75 35.921875 144.42188 36.484375Q145.09375 37.03125 146.29688 37.03125Q147.5 37.03125 148.07812 36.546875Q148.67188 36.046875 148.67188 35.390625Q148.67188 34.796875 148.15625 34.453125Q147.79688 34.21875 146.35938 33.859375Q144.42188 33.359375 143.67188 33.015625Q142.9375 32.65625 142.54688 32.03125Q142.15625 31.390625 142.15625 30.625Q142.15625 29.9375 142.46875 29.34375Q142.79688 28.75 143.34375 28.359375Q143.75 28.0625 144.45312 27.859375Q145.17188 27.640625 145.98438 27.640625Q147.20312 27.640625 148.125 28.0Q149.04688 28.34375 149.48438 28.953125Q149.92188 29.546875 150.09375 30.546875L148.375 30.78125Q148.25 29.984375 147.6875 29.546875Q147.125 29.09375 146.10938 29.09375Q144.89062 29.09375 144.375 29.5Q143.85938 29.890625 143.85938 30.421875Q143.85938 30.765625 144.07812 31.046875Q144.28125 31.328125 144.75 31.515625Q145.01562 31.609375 146.29688 31.953125Q148.17188 32.453125 148.90625 32.78125Q149.64062 33.09375 150.0625 33.703125Q150.48438 34.296875 150.48438 35.203125Q150.48438 36.078125 149.96875 36.859375Q149.45312 37.640625 148.48438 38.0625Q147.51562 38.484375 146.29688 38.484375Q144.28125 38.484375 143.21875 37.640625Q142.15625 36.796875 141.85938 35.15625ZM157.85938 35.15625L159.60938 34.875Q159.75 35.921875 160.42188 36.484375Q161.09375 37.03125 162.29688 37.03125Q163.5 37.03125 164.07812 36.546875Q164.67188 36.046875 164.67188 35.390625Q164.67188 34.796875 164.15625 34.453125Q163.79688 34.21875 162.35938 33.859375Q160.42188 33.359375 159.67188 33.015625Q158.9375 32.65625 158.54688 32.03125Q158.15625 31.390625 158.15625 30.625Q158.15625 29.9375 158.46875 29.34375Q158.79688 28.75 159.34375 28.359375Q159.75 28.0625 160.45312 27.859375Q161.17188 27.640625 161.98438 27.640625Q163.20312 27.640625 164.125 28.0Q165.04688 28.34375 165.48438 28.953125Q165.92188 29.546875 166.09375 30.546875L164.375 30.78125Q164.25 29.984375 163.6875 29.546875Q163.125 29.09375 162.10938 29.09375Q160.89062 29.09375 160.375 29.5Q159.85938 29.890625 159.85938 30.421875Q159.85938 30.765625 160.07812 31.046875Q160.28125 31.328125 160.75 31.515625Q161.01562 31.609375 162.29688 31.953125Q164.17188 32.453125 164.90625 32.78125Q165.64062 33.09375 166.0625 33.703125Q166.48438 34.296875 166.48438 35.203125Q166.48438 36.078125 165.96875 36.859375Q165.45312 37.640625 164.48438 38.0625Q163.51562 38.484375 162.29688 38.484375Q160.28125 38.484375 159.21875 37.640625Q158.15625 36.796875 157.85938 35.15625ZM167.92188 33.0625Q167.92188 30.1875 169.51562 28.796875Q170.85938 27.640625 172.78125 27.640625Q174.92188 27.640625 176.26562 29.046875Q177.625 30.453125 177.625 32.921875Q177.625 34.921875 177.03125 36.078125Q176.4375 37.21875 175.28125 37.859375Q174.14062 38.484375 172.78125 38.484375Q170.59375 38.484375 169.25 37.09375Q167.92188 35.6875 167.92188 33.0625ZM169.71875 33.0625Q169.71875 35.0625 170.57812 36.046875Q171.45312 37.03125 172.78125 37.03125Q174.09375 37.03125 174.95312 36.046875Q175.82812 35.046875 175.82812 33.0Q175.82812 31.078125 174.95312 30.09375Q174.07812 29.09375 172.78125 29.09375Q171.45312 29.09375 170.57812 30.09375Q169.71875 31.078125 169.71875 33.0625ZM186.35938 38.25L186.35938 36.71875Q185.15625 38.484375 183.07812 38.484375Q182.15625 38.484375 181.35938 38.140625Q180.5625 37.78125 180.17188 37.25Q179.79688 36.71875 179.64062 35.9375Q179.53125 35.421875 179.53125 34.296875L179.53125 27.875L181.28125 27.875L181.28125 33.625Q181.28125 35.0 181.39062 35.484375Q181.5625 36.171875 182.09375 36.578125Q182.64062 36.96875 183.42188 36.96875Q184.21875 36.96875 184.90625 36.5625Q185.60938 36.15625 185.89062 35.46875Q186.1875 34.765625 186.1875 33.4375L186.1875 27.875L187.9375 27.875L187.9375 38.25L186.35938 38.25ZM193.40625 36.671875L193.65625 38.234375Q192.92188 38.390625 192.32812 38.390625Q191.375 38.390625 190.84375 38.09375Q190.32812 37.78125 190.10938 37.296875Q189.89062 36.796875 189.89062 35.21875L189.89062 29.25L188.60938 29.25L188.60938 27.875L189.89062 27.875L189.89062 25.3125L191.64062 24.25L191.64062 27.875L193.40625 27.875L193.40625 29.25L191.64062 29.25L191.64062 35.3125Q191.64062 36.0625 191.73438 36.28125Q191.82812 36.484375 192.03125 36.625Q192.25 36.75 192.64062 36.75Q192.92188 36.75 193.40625 36.671875ZM202.67188 34.90625L204.48438 35.140625Q204.0625 36.71875 202.89062 37.609375Q201.73438 38.484375 199.92188 38.484375Q197.65625 38.484375 196.3125 37.09375Q194.98438 35.6875 194.98438 33.15625Q194.98438 30.53125 196.32812 29.09375Q197.67188 27.640625 199.82812 27.640625Q201.90625 27.640625 203.21875 29.0625Q204.54688 30.46875 204.54688 33.046875Q204.54688 33.203125 204.53125 33.515625L196.79688 33.515625Q196.89062 35.21875 197.76562 36.125Q198.64062 37.03125 199.9375 37.03125Q200.90625 37.03125 201.57812 36.53125Q202.26562 36.015625 202.67188 34.90625ZM196.89062 32.0625L202.6875 32.0625Q202.57812 30.765625 202.03125 30.109375Q201.1875 29.09375 199.84375 29.09375Q198.64062 29.09375 197.8125 29.90625Q196.98438 30.703125 196.89062 32.0625ZM206.5625 38.25L206.5625 27.875L208.15625 27.875L208.15625 29.359375Q209.29688 27.640625 211.45312 27.640625Q212.39062 27.640625 213.17188 27.984375Q213.96875 28.3125 214.35938 28.859375Q214.75 29.40625 214.90625 30.15625Q215.0 30.65625 215.0 31.875L215.0 38.25L213.23438 38.25L213.23438 31.9375Q213.23438 30.859375 213.03125 30.328125Q212.82812 29.796875 212.29688 29.484375Q211.78125 29.171875 211.07812 29.171875Q209.95312 29.171875 209.14062 29.890625Q208.32812 30.59375 208.32812 32.578125L208.32812 38.25L206.5625 38.25ZM216.57812 25.953125L216.57812 23.9375L218.34375 23.9375L218.34375 25.953125L216.57812 25.953125ZM216.57812 38.25L216.57812 27.875L218.34375 27.875L218.34375 38.25L216.57812 38.25ZM220.54688 38.25L220.54688 27.875L222.125 27.875L222.125 29.453125Q222.73438 28.34375 223.25 28.0Q223.76562 27.640625 224.375 27.640625Q225.26562 27.640625 226.1875 28.203125L225.57812 29.84375Q224.9375 29.453125 224.29688 29.453125Q223.71875 29.453125 223.25 29.8125Q222.79688 30.15625 222.59375 30.765625Q222.3125 31.703125 222.3125 32.8125L222.3125 38.25L220.54688 38.25ZM233.98438 38.25L233.98438 29.25L232.4375 29.25L232.4375 27.875L233.98438 27.875L233.98438 26.78125Q233.98438 25.734375 234.17188 25.21875Q234.42188 24.53125 235.0625 24.109375Q235.70312 23.6875 236.85938 23.6875Q237.60938 23.6875 238.5 23.859375L238.23438 25.390625Q237.6875 25.296875 237.20312 25.296875Q236.40625 25.296875 236.0625 25.640625Q235.73438 25.984375 235.73438 26.921875L235.73438 27.875L237.76562 27.875L237.76562 29.25L235.73438 29.25L235.73438 38.25L233.98438 38.25ZM239.57812 25.953125L239.57812 23.9375L241.34375 23.9375L241.34375 25.953125L239.57812 25.953125ZM239.57812 38.25L239.57812 27.875L241.34375 27.875L241.34375 38.25L239.57812 38.25ZM243.5625 38.25L243.5625 27.875L245.15625 27.875L245.15625 29.359375Q246.29688 27.640625 248.45312 27.640625Q249.39062 27.640625 250.17188 27.984375Q250.96875 28.3125 251.35938 28.859375Q251.75 29.40625 251.90625 30.15625Q252.0 30.65625 252.0 31.875L252.0 38.25L250.23438 38.25L250.23438 31.9375Q250.23438 30.859375 250.03125 30.328125Q249.82812 29.796875 249.29688 29.484375Q248.78125 29.171875 248.07812 29.171875Q246.95312 29.171875 246.14062 29.890625Q245.32812 30.59375 245.32812 32.578125L245.32812 38.25L243.5625 38.25ZM260.34375 36.96875Q259.35938 37.796875 258.45312 38.140625Q257.54688 38.484375 256.51562 38.484375Q254.8125 38.484375 253.89062 37.65625Q252.96875 36.8125 252.96875 35.515625Q252.96875 34.75 253.3125 34.125Q253.67188 33.5 254.23438 33.125Q254.79688 32.734375 255.5 32.53125Q256.01562 32.40625 257.0625 32.265625Q259.1875 32.015625 260.1875 31.671875Q260.20312 31.3125 260.20312 31.203125Q260.20312 30.140625 259.70312 29.6875Q259.03125 29.09375 257.70312 29.09375Q256.45312 29.09375 255.85938 29.53125Q255.28125 29.96875 255.0 31.078125L253.28125 30.84375Q253.51562 29.734375 254.04688 29.0625Q254.57812 28.375 255.59375 28.015625Q256.60938 27.640625 257.95312 27.640625Q259.28125 27.640625 260.10938 27.953125Q260.9375 28.265625 261.32812 28.75Q261.71875 29.21875 261.875 29.9375Q261.96875 30.390625 261.96875 31.5625L261.96875 33.90625Q261.96875 36.359375 262.07812 37.015625Q262.1875 37.65625 262.53125 38.25L260.6875 38.25Q260.42188 37.703125 260.34375 36.96875ZM260.1875 33.046875Q259.23438 33.4375 257.3125 33.703125Q256.23438 33.859375 255.78125 34.0625Q255.34375 34.25 255.09375 34.625Q254.84375 35.0 254.84375 35.46875Q254.84375 36.171875 255.375 36.640625Q255.90625 37.109375 256.9375 37.109375Q257.95312 37.109375 258.73438 36.671875Q259.53125 36.21875 259.90625 35.453125Q260.1875 34.84375 260.1875 33.6875L260.1875 33.046875ZM264.5625 38.25L264.5625 27.875L266.15625 27.875L266.15625 29.359375Q267.29688 27.640625 269.45312 27.640625Q270.39062 27.640625 271.17188 27.984375Q271.96875 28.3125 272.35938 28.859375Q272.75 29.40625 272.90625 30.15625Q273.0 30.65625 273.0 31.875L273.0 38.25L271.23438 38.25L271.23438 31.9375Q271.23438 30.859375 271.03125 30.328125Q270.82812 29.796875 270.29688 29.484375Q269.78125 29.171875 269.07812 29.171875Q267.95312 29.171875 267.14062 29.890625Q266.32812 30.59375 266.32812 32.578125L266.32812 38.25L264.5625 38.25ZM281.34375 34.453125L283.0625 34.671875Q282.78125 36.46875 281.60938 37.484375Q280.45312 38.484375 278.75 38.484375Q276.625 38.484375 275.32812 37.09375Q274.03125 35.703125 274.03125 33.109375Q274.03125 31.421875 274.57812 30.171875Q275.14062 28.90625 276.28125 28.28125Q277.42188 27.640625 278.76562 27.640625Q280.45312 27.640625 281.51562 28.5Q282.59375 29.359375 282.90625 30.921875L281.1875 31.1875Q280.95312 30.140625 280.32812 29.625Q279.70312 29.09375 278.82812 29.09375Q277.5 29.09375 276.67188 30.046875Q275.84375 31.0 275.84375 33.046875Q275.84375 35.140625 276.64062 36.09375Q277.4375 37.03125 278.73438 37.03125Q279.76562 37.03125 280.45312 36.40625Q281.15625 35.765625 281.34375 34.453125ZM284.57812 25.953125L284.57812 23.9375L286.34375 23.9375L286.34375 25.953125L284.57812 25.953125ZM284.57812 38.25L284.57812 27.875L286.34375 27.875L286.34375 38.25L284.57812 38.25ZM295.67188 34.90625L297.48438 35.140625Q297.0625 36.71875 295.89062 37.609375Q294.73438 38.484375 292.92188 38.484375Q290.65625 38.484375 289.3125 37.09375Q287.98438 35.6875 287.98438 33.15625Q287.98438 30.53125 289.32812 29.09375Q290.67188 27.640625 292.82812 27.640625Q294.90625 27.640625 296.21875 29.0625Q297.54688 30.46875 297.54688 33.046875Q297.54688 33.203125 297.53125 33.515625L289.79688 33.515625Q289.89062 35.21875 290.76562 36.125Q291.64062 37.03125 292.9375 37.03125Q293.90625 37.03125 294.57812 36.53125Q295.26562 36.015625 295.67188 34.90625ZM289.89062 32.0625L295.6875 32.0625Q295.57812 30.765625 295.03125 30.109375Q294.1875 29.09375 292.84375 29.09375Q291.64062 29.09375 290.8125 29.90625Q289.98438 30.703125 289.89062 32.0625ZM293.95312 26.59375L292.53125 26.59375L290.28125 23.859375L292.625 23.859375L293.95312 26.59375ZM299.54688 38.25L299.54688 27.875L301.125 27.875L301.125 29.453125Q301.73438 28.34375 302.25 28.0Q302.76562 27.640625 303.375 27.640625Q304.26562 27.640625 305.1875 28.203125L304.57812 29.84375Q303.9375 29.453125 303.29688 29.453125Q302.71875 29.453125 302.25 29.8125Q301.79688 30.15625 301.59375 30.765625Q301.3125 31.703125 301.3125 32.8125L301.3125 38.25L299.54688 38.25ZM313.67188 34.90625L315.48438 35.140625Q315.0625 36.71875 313.89062 37.609375Q312.73438 38.484375 310.92188 38.484375Q308.65625 38.484375 307.3125 37.09375Q305.98438 35.6875 305.98438 33.15625Q305.98438 30.53125 307.32812 29.09375Q308.67188 27.640625 310.82812 27.640625Q312.90625 27.640625 314.21875 29.0625Q315.54688 30.46875 315.54688 33.046875Q315.54688 33.203125 315.53125 33.515625L307.79688 33.515625Q307.89062 35.21875 308.76562 36.125Q309.64062 37.03125 310.9375 37.03125Q311.90625 37.03125 312.57812 36.53125Q313.26562 36.015625 313.67188 34.90625ZM307.89062 32.0625L313.6875 32.0625Q313.57812 30.765625 313.03125 30.109375Q312.1875 29.09375 310.84375 29.09375Q309.64062 29.09375 308.8125 29.90625Q307.98438 30.703125 307.89062 32.0625ZM317.5625 38.25L317.5625 27.875L319.14062 27.875L319.14062 29.328125Q319.625 28.578125 320.4375 28.109375Q321.25 27.640625 322.28125 27.640625Q323.4375 27.640625 324.17188 28.125Q324.90625 28.59375 325.21875 29.453125Q326.45312 27.640625 328.42188 27.640625Q329.96875 27.640625 330.79688 28.5Q331.625 29.359375 331.625 31.125L331.625 38.25L329.875 38.25L329.875 31.71875Q329.875 30.65625 329.70312 30.203125Q329.53125 29.734375 329.07812 29.453125Q328.64062 29.171875 328.03125 29.171875Q326.9375 29.171875 326.20312 29.90625Q325.48438 30.625 325.48438 32.21875L325.48438 38.25L323.73438 38.25L323.73438 31.515625Q323.73438 30.34375 323.29688 29.765625Q322.875 29.171875 321.89062 29.171875Q321.15625 29.171875 320.51562 29.5625Q319.89062 29.953125 319.60938 30.703125Q319.32812 31.453125 319.32812 32.875L319.32812 38.25L317.5625 38.25ZM340.67188 34.90625L342.48438 35.140625Q342.0625 36.71875 340.89062 37.609375Q339.73438 38.484375 337.92188 38.484375Q335.65625 38.484375 334.3125 37.09375Q332.98438 35.6875 332.98438 33.15625Q332.98438 30.53125 334.32812 29.09375Q335.67188 27.640625 337.82812 27.640625Q339.90625 27.640625 341.21875 29.0625Q342.54688 30.46875 342.54688 33.046875Q342.54688 33.203125 342.53125 33.515625L334.79688 33.515625Q334.89062 35.21875 335.76562 36.125Q336.64062 37.03125 337.9375 37.03125Q338.90625 37.03125 339.57812 36.53125Q340.26562 36.015625 340.67188 34.90625ZM334.89062 32.0625L340.6875 32.0625Q340.57812 30.765625 340.03125 30.109375Q339.1875 29.09375 337.84375 29.09375Q336.64062 29.09375 335.8125 29.90625Q334.98438 30.703125 334.89062 32.0625ZM344.5625 38.25L344.5625 27.875L346.15625 27.875L346.15625 29.359375Q347.29688 27.640625 349.45312 27.640625Q350.39062 27.640625 351.17188 27.984375Q351.96875 28.3125 352.35938 28.859375Q352.75 29.40625 352.90625 30.15625Q353.0 30.65625 353.0 31.875L353.0 38.25L351.23438 38.25L351.23438 31.9375Q351.23438 30.859375 351.03125 30.328125Q350.82812 29.796875 350.29688 29.484375Q349.78125 29.171875 349.07812 29.171875Q347.95312 29.171875 347.14062 29.890625Q346.32812 30.59375 346.32812 32.578125L346.32812 38.25L344.5625 38.25ZM358.40625 36.671875L358.65625 38.234375Q357.92188 38.390625 357.32812 38.390625Q356.375 38.390625 355.84375 38.09375Q355.32812 37.78125 355.10938 37.296875Q354.89062 36.796875 354.89062 35.21875L354.89062 29.25L353.60938 29.25L353.60938 27.875L354.89062 27.875L354.89062 25.3125L356.64062 24.25L356.64062 27.875L358.40625 27.875L358.40625 29.25L356.64062 29.25L356.64062 35.3125Q356.64062 36.0625 356.73438 36.28125Q356.82812 36.484375 357.03125 36.625Q357.25 36.75 357.64062 36.75Q357.92188 36.75 358.40625 36.671875ZM366.53125 38.25L366.53125 23.9375L368.28125 23.9375L368.28125 38.25L366.53125 38.25ZM370.57812 29.0L370.125 26.328125L370.125 23.9375L372.125 23.9375L372.125 26.328125L371.65625 29.0L370.57812 29.0ZM381.34375 36.96875Q380.35938 37.796875 379.45312 38.140625Q378.54688 38.484375 377.51562 38.484375Q375.8125 38.484375 374.89062 37.65625Q373.96875 36.8125 373.96875 35.515625Q373.96875 34.75 374.3125 34.125Q374.67188 33.5 375.23438 33.125Q375.79688 32.734375 376.5 32.53125Q377.01562 32.40625 378.0625 32.265625Q380.1875 32.015625 381.1875 31.671875Q381.20312 31.3125 381.20312 31.203125Q381.20312 30.140625 380.70312 29.6875Q380.03125 29.09375 378.70312 29.09375Q377.45312 29.09375 376.85938 29.53125Q376.28125 29.96875 376.0 31.078125L374.28125 30.84375Q374.51562 29.734375 375.04688 29.0625Q375.57812 28.375 376.59375 28.015625Q377.60938 27.640625 378.95312 27.640625Q380.28125 27.640625 381.10938 27.953125Q381.9375 28.265625 382.32812 28.75Q382.71875 29.21875 382.875 29.9375Q382.96875 30.390625 382.96875 31.5625L382.96875 33.90625Q382.96875 36.359375 383.07812 37.015625Q383.1875 37.65625 383.53125 38.25L381.6875 38.25Q381.42188 37.703125 381.34375 36.96875ZM381.1875 33.046875Q380.23438 33.4375 378.3125 33.703125Q377.23438 33.859375 376.78125 34.0625Q376.34375 34.25 376.09375 34.625Q375.84375 35.0 375.84375 35.46875Q375.84375 36.171875 376.375 36.640625Q376.90625 37.109375 377.9375 37.109375Q378.95312 37.109375 379.73438 36.671875Q380.53125 36.21875 380.90625 35.453125Q381.1875 34.84375 381.1875 33.6875L381.1875 33.046875ZM392.34375 34.453125L394.0625 34.671875Q393.78125 36.46875 392.60938 37.484375Q391.45312 38.484375 389.75 38.484375Q387.625 38.484375 386.32812 37.09375Q385.03125 35.703125 385.03125 33.109375Q385.03125 31.421875 385.57812 30.171875Q386.14062 28.90625 387.28125 28.28125Q388.42188 27.640625 389.76562 27.640625Q391.45312 27.640625 392.51562 28.5Q393.59375 29.359375 393.90625 30.921875L392.1875 31.1875Q391.95312 30.140625 391.32812 29.625Q390.70312 29.09375 389.82812 29.09375Q388.5 29.09375 387.67188 30.046875Q386.84375 31.0 386.84375 33.046875Q386.84375 35.140625 387.64062 36.09375Q388.4375 37.03125 389.73438 37.03125Q390.76562 37.03125 391.45312 36.40625Q392.15625 35.765625 392.34375 34.453125ZM399.40625 36.671875L399.65625 38.234375Q398.92188 38.390625 398.32812 38.390625Q397.375 38.390625 396.84375 38.09375Q396.32812 37.78125 396.10938 37.296875Q395.89062 36.796875 395.89062 35.21875L395.89062 29.25L394.60938 29.25L394.60938 27.875L395.89062 27.875L395.89062 25.3125L397.64062 24.25L397.64062 27.875L399.40625 27.875L399.40625 29.25L397.64062 29.25L397.64062 35.3125Q397.64062 36.0625 397.73438 36.28125Q397.82812 36.484375 398.03125 36.625Q398.25 36.75 398.64062 36.75Q398.92188 36.75 399.40625 36.671875ZM401.57812 25.953125L401.57812 23.9375L403.34375 23.9375L403.34375 25.953125L401.57812 25.953125ZM401.57812 38.25L401.57812 27.875L403.34375 27.875L403.34375 38.25L401.57812 38.25ZM404.92188 33.0625Q404.92188 30.1875 406.51562 28.796875Q407.85938 27.640625 409.78125 27.640625Q411.92188 27.640625 413.26562 29.046875Q414.625 30.453125 414.625 32.921875Q414.625 34.921875 414.03125 36.078125Q413.4375 37.21875 412.28125 37.859375Q411.14062 38.484375 409.78125 38.484375Q407.59375 38.484375 406.25 37.09375Q404.92188 35.6875 404.92188 33.0625ZM406.71875 33.0625Q406.71875 35.0625 407.57812 36.046875Q408.45312 37.03125 409.78125 37.03125Q411.09375 37.03125 411.95312 36.046875Q412.82812 35.046875 412.82812 33.0Q412.82812 31.078125 411.95312 30.09375Q411.07812 29.09375 409.78125 29.09375Q408.45312 29.09375 407.57812 30.09375Q406.71875 31.078125 406.71875 33.0625ZM416.5625 38.25L416.5625 27.875L418.15625 27.875L418.15625 29.359375Q419.29688 27.640625 421.45312 27.640625Q422.39062 27.640625 423.17188 27.984375Q423.96875 28.3125 424.35938 28.859375Q424.75 29.40625 424.90625 30.15625Q425.0 30.65625 425.0 31.875L425.0 38.25L423.23438 38.25L423.23438 31.9375Q423.23438 30.859375 423.03125 30.328125Q422.82812 29.796875 422.29688 29.484375Q421.78125 29.171875 421.07812 29.171875Q419.95312 29.171875 419.14062 29.890625Q418.32812 30.59375 418.32812 32.578125L418.32812 38.25L416.5625 38.25ZM439.29688 38.25L439.29688 36.9375Q438.3125 38.484375 436.39062 38.484375Q435.15625 38.484375 434.10938 37.796875Q433.07812 37.109375 432.5 35.890625Q431.9375 34.671875 431.9375 33.078125Q431.9375 31.515625 432.45312 30.25Q432.96875 28.984375 434.0 28.3125Q435.04688 27.640625 436.3125 27.640625Q437.25 27.640625 437.98438 28.046875Q438.71875 28.4375 439.1875 29.0625L439.1875 23.9375L440.92188 23.9375L440.92188 38.25L439.29688 38.25ZM433.73438 33.078125Q433.73438 35.0625 434.57812 36.046875Q435.42188 37.03125 436.5625 37.03125Q437.71875 37.03125 438.51562 36.09375Q439.32812 35.15625 439.32812 33.21875Q439.32812 31.09375 438.5 30.09375Q437.6875 29.09375 436.48438 29.09375Q435.3125 29.09375 434.51562 30.0625Q433.73438 31.015625 433.73438 33.078125ZM450.67188 34.90625L452.48438 35.140625Q452.0625 36.71875 450.89062 37.609375Q449.73438 38.484375 447.92188 38.484375Q445.65625 38.484375 444.3125 37.09375Q442.98438 35.6875 442.98438 33.15625Q442.98438 30.53125 444.32812 29.09375Q445.67188 27.640625 447.82812 27.640625Q449.90625 27.640625 451.21875 29.0625Q452.54688 30.46875 452.54688 33.046875Q452.54688 33.203125 452.53125 33.515625L444.79688 33.515625Q444.89062 35.21875 445.76562 36.125Q446.64062 37.03125 447.9375 37.03125Q448.90625 37.03125 449.57812 36.53125Q450.26562 36.015625 450.67188 34.90625ZM444.89062 32.0625L450.6875 32.0625Q450.57812 30.765625 450.03125 30.109375Q449.1875 29.09375 447.84375 29.09375Q446.64062 29.09375 445.8125 29.90625Q444.98438 30.703125 444.89062 32.0625ZM453.85938 35.15625L455.60938 34.875Q455.75 35.921875 456.42188 36.484375Q457.09375 37.03125 458.29688 37.03125Q459.5 37.03125 460.07812 36.546875Q460.67188 36.046875 460.67188 35.390625Q460.67188 34.796875 460.15625 34.453125Q459.79688 34.21875 458.35938 33.859375Q456.42188 33.359375 455.67188 33.015625Q454.9375 32.65625 454.54688 32.03125Q454.15625 31.390625 454.15625 30.625Q454.15625 29.9375 454.46875 29.34375Q454.79688 28.75 455.34375 28.359375Q455.75 28.0625 456.45312 27.859375Q457.17188 27.640625 457.98438 27.640625Q459.20312 27.640625 460.125 28.0Q461.04688 28.34375 461.48438 28.953125Q461.92188 29.546875 462.09375 30.546875L460.375 30.78125Q460.25 29.984375 459.6875 29.546875Q459.125 29.09375 458.10938 29.09375Q456.89062 29.09375 456.375 29.5Q455.85938 29.890625 455.85938 30.421875Q455.85938 30.765625 456.07812 31.046875Q456.28125 31.328125 456.75 31.515625Q457.01562 31.609375 458.29688 31.953125Q460.17188 32.453125 460.90625 32.78125Q461.64062 33.09375 462.0625 33.703125Q462.48438 34.296875 462.48438 35.203125Q462.48438 36.078125 461.96875 36.859375Q461.45312 37.640625 460.48438 38.0625Q459.51562 38.484375 458.29688 38.484375Q456.28125 38.484375 455.21875 37.640625Q454.15625 36.796875 453.85938 35.15625ZM477.34375 36.96875Q476.35938 37.796875 475.45312 38.140625Q474.54688 38.484375 473.51562 38.484375Q471.8125 38.484375 470.89062 37.65625Q469.96875 36.8125 469.96875 35.515625Q469.96875 34.75 470.3125 34.125Q470.67188 33.5 471.23438 33.125Q471.79688 32.734375 472.5 32.53125Q473.01562 32.40625 474.0625 32.265625Q476.1875 32.015625 477.1875 31.671875Q477.20312 31.3125 477.20312 31.203125Q477.20312 30.140625 476.70312 29.6875Q476.03125 29.09375 474.70312 29.09375Q473.45312 29.09375 472.85938 29.53125Q472.28125 29.96875 472.0 31.078125L470.28125 30.84375Q470.51562 29.734375 471.04688 29.0625Q471.57812 28.375 472.59375 28.015625Q473.60938 27.640625 474.95312 27.640625Q476.28125 27.640625 477.10938 27.953125Q477.9375 28.265625 478.32812 28.75Q478.71875 29.21875 478.875 29.9375Q478.96875 30.390625 478.96875 31.5625L478.96875 33.90625Q478.96875 36.359375 479.07812 37.015625Q479.1875 37.65625 479.53125 38.25L477.6875 38.25Q477.42188 37.703125 477.34375 36.96875ZM477.1875 33.046875Q476.23438 33.4375 474.3125 33.703125Q473.23438 33.859375 472.78125 34.0625Q472.34375 34.25 472.09375 34.625Q471.84375 35.0 471.84375 35.46875Q471.84375 36.171875 472.375 36.640625Q472.90625 37.109375 473.9375 37.109375Q474.95312 37.109375 475.73438 36.671875Q476.53125 36.21875 476.90625 35.453125Q477.1875 34.84375 477.1875 33.6875L477.1875 33.046875ZM480.85938 35.15625L482.60938 34.875Q482.75 35.921875 483.42188 36.484375Q484.09375 37.03125 485.29688 37.03125Q486.5 37.03125 487.07812 36.546875Q487.67188 36.046875 487.67188 35.390625Q487.67188 34.796875 487.15625 34.453125Q486.79688 34.21875 485.35938 33.859375Q483.42188 33.359375 482.67188 33.015625Q481.9375 32.65625 481.54688 32.03125Q481.15625 31.390625 481.15625 30.625Q481.15625 29.9375 481.46875 29.34375Q481.79688 28.75 482.34375 28.359375Q482.75 28.0625 483.45312 27.859375Q484.17188 27.640625 484.98438 27.640625Q486.20312 27.640625 487.125 28.0Q488.04688 28.34375 488.48438 28.953125Q488.92188 29.546875 489.09375 30.546875L487.375 30.78125Q487.25 29.984375 486.6875 29.546875Q486.125 29.09375 485.10938 29.09375Q483.89062 29.09375 483.375 29.5Q482.85938 29.890625 482.85938 30.421875Q482.85938 30.765625 483.07812 31.046875Q483.28125 31.328125 483.75 31.515625Q484.01562 31.609375 485.29688 31.953125Q487.17188 32.453125 487.90625 32.78125Q488.64062 33.09375 489.0625 33.703125Q489.48438 34.296875 489.48438 35.203125Q489.48438 36.078125 488.96875 36.859375Q488.45312 37.640625 487.48438 38.0625Q486.51562 38.484375 485.29688 38.484375Q483.28125 38.484375 482.21875 37.640625Q481.15625 36.796875 480.85938 35.15625ZM490.85938 35.15625L492.60938 34.875Q492.75 35.921875 493.42188 36.484375Q494.09375 37.03125 495.29688 37.03125Q496.5 37.03125 497.07812 36.546875Q497.67188 36.046875 497.67188 35.390625Q497.67188 34.796875 497.15625 34.453125Q496.79688 34.21875 495.35938 33.859375Q493.42188 33.359375 492.67188 33.015625Q491.9375 32.65625 491.54688 32.03125Q491.15625 31.390625 491.15625 30.625Q491.15625 29.9375 491.46875 29.34375Q491.79688 28.75 492.34375 28.359375Q492.75 28.0625 493.45312 27.859375Q494.17188 27.640625 494.98438 27.640625Q496.20312 27.640625 497.125 28.0Q498.04688 28.34375 498.48438 28.953125Q498.92188 29.546875 499.09375 30.546875L497.375 30.78125Q497.25 29.984375 496.6875 29.546875Q496.125 29.09375 495.10938 29.09375Q493.89062 29.09375 493.375 29.5Q492.85938 29.890625 492.85938 30.421875Q492.85938 30.765625 493.07812 31.046875Q493.28125 31.328125 493.75 31.515625Q494.01562 31.609375 495.29688 31.953125Q497.17188 32.453125 497.90625 32.78125Q498.64062 33.09375 499.0625 33.703125Q499.48438 34.296875 499.48438 35.203125Q499.48438 36.078125 498.96875 36.859375Q498.45312 37.640625 497.48438 38.0625Q496.51562 38.484375 495.29688 38.484375Q493.28125 38.484375 492.21875 37.640625Q491.15625 36.796875 490.85938 35.15625ZM500.92188 33.0625Q500.92188 30.1875 502.51562 28.796875Q503.85938 27.640625 505.78125 27.640625Q507.92188 27.640625 509.26562 29.046875Q510.625 30.453125 510.625 32.921875Q510.625 34.921875 510.03125 36.078125Q509.4375 37.21875 508.28125 37.859375Q507.14062 38.484375 505.78125 38.484375Q503.59375 38.484375 502.25 37.09375Q500.92188 35.6875 500.92188 33.0625ZM502.71875 33.0625Q502.71875 35.0625 503.57812 36.046875Q504.45312 37.03125 505.78125 37.03125Q507.09375 37.03125 507.95312 36.046875Q508.82812 35.046875 508.82812 33.0Q508.82812 31.078125 507.95312 30.09375Q507.07812 29.09375 505.78125 29.09375Q504.45312 29.09375 503.57812 30.09375Q502.71875 31.078125 502.71875 33.0625ZM519.34375 34.453125L521.0625 34.671875Q520.78125 36.46875 519.6094 37.484375Q518.4531 38.484375 516.75 38.484375Q514.625 38.484375 513.3281 37.09375Q512.03125 35.703125 512.03125 33.109375Q512.03125 31.421875 512.5781 30.171875Q513.1406 28.90625 514.28125 28.28125Q515.4219 27.640625 516.7656 27.640625Q518.4531 27.640625 519.5156 28.5Q520.59375 29.359375 520.90625 30.921875L519.1875 31.1875Q518.9531 30.140625 518.3281 29.625Q517.7031 29.09375 516.8281 29.09375Q515.5 29.09375 514.6719 30.046875Q513.84375 31.0 513.84375 33.046875Q513.84375 35.140625 514.6406 36.09375Q515.4375 37.03125 516.7344 37.03125Q517.7656 37.03125 518.4531 36.40625Q519.15625 35.765625 519.34375 34.453125ZM522.5781 25.953125L522.5781 23.9375L524.34375 23.9375L524.34375 25.953125L522.5781 25.953125ZM522.5781 38.25L522.5781 27.875L524.34375 27.875L524.34375 38.25L522.5781 38.25ZM533.34375 36.96875Q532.3594 37.796875 531.4531 38.140625Q530.5469 38.484375 529.5156 38.484375Q527.8125 38.484375 526.8906 37.65625Q525.96875 36.8125 525.96875 35.515625Q525.96875 34.75 526.3125 34.125Q526.6719 33.5 527.2344 33.125Q527.7969 32.734375 528.5 32.53125Q529.0156 32.40625 530.0625 32.265625Q532.1875 32.015625 533.1875 31.671875Q533.2031 31.3125 533.2031 31.203125Q533.2031 30.140625 532.7031 29.6875Q532.03125 29.09375 530.7031 29.09375Q529.4531 29.09375 528.8594 29.53125Q528.28125 29.96875 528.0 31.078125L526.28125 30.84375Q526.5156 29.734375 527.0469 29.0625Q527.5781 28.375 528.59375 28.015625Q529.6094 27.640625 530.9531 27.640625Q532.28125 27.640625 533.1094 27.953125Q533.9375 28.265625 534.3281 28.75Q534.71875 29.21875 534.875 29.9375Q534.96875 30.390625 534.96875 31.5625L534.96875 33.90625Q534.96875 36.359375 535.0781 37.015625Q535.1875 37.65625 535.53125 38.25L533.6875 38.25Q533.4219 37.703125 533.34375 36.96875ZM533.1875 33.046875Q532.2344 33.4375 530.3125 33.703125Q529.2344 33.859375 528.78125 34.0625Q528.34375 34.25 528.09375 34.625Q527.84375 35.0 527.84375 35.46875Q527.84375 36.171875 528.375 36.640625Q528.90625 37.109375 529.9375 37.109375Q530.9531 37.109375 531.7344 36.671875Q532.53125 36.21875 532.90625 35.453125Q533.1875 34.84375 533.1875 33.6875L533.1875 33.046875ZM541.40625 36.671875L541.65625 38.234375Q540.9219 38.390625 540.3281 38.390625Q539.375 38.390625 538.84375 38.09375Q538.3281 37.78125 538.1094 37.296875Q537.8906 36.796875 537.8906 35.21875L537.8906 29.25L536.6094 29.25L536.6094 27.875L537.8906 27.875L537.8906 25.3125L539.6406 24.25L539.6406 27.875L541.40625 27.875L541.40625 29.25L539.6406 29.25L539.6406 35.3125Q539.6406 36.0625 539.7344 36.28125Q539.8281 36.484375 540.03125 36.625Q540.25 36.75 540.6406 36.75Q540.9219 36.75 541.40625 36.671875ZM543.5781 25.953125L543.5781 23.9375L545.34375 23.9375L545.34375 25.953125L543.5781 25.953125ZM543.5781 38.25L543.5781 27.875L545.34375 27.875L545.34375 38.25L543.5781 38.25ZM546.9219 33.0625Q546.9219 30.1875 548.5156 28.796875Q549.8594 27.640625 551.78125 27.640625Q553.9219 27.640625 555.2656 29.046875Q556.625 30.453125 556.625 32.921875Q556.625 34.921875 556.03125 36.078125Q555.4375 37.21875 554.28125 37.859375Q553.1406 38.484375 551.78125 38.484375Q549.59375 38.484375 548.25 37.09375Q546.9219 35.6875 546.9219 33.0625ZM548.71875 33.0625Q548.71875 35.0625 549.5781 36.046875Q550.4531 37.03125 551.78125 37.03125Q553.09375 37.03125 553.9531 36.046875Q554.8281 35.046875 554.8281 33.0Q554.8281 31.078125 553.9531 30.09375Q553.0781 29.09375 551.78125 29.09375Q550.4531 29.09375 549.5781 30.09375Q548.71875 31.078125 548.71875 33.0625ZM558.5625 38.25L558.5625 27.875L560.15625 27.875L560.15625 29.359375Q561.2969 27.640625 563.4531 27.640625Q564.3906 27.640625 565.1719 27.984375Q565.96875 28.3125 566.3594 28.859375Q566.75 29.40625 566.90625 30.15625Q567.0 30.65625 567.0 31.875L567.0 38.25L565.2344 38.25L565.2344 31.9375Q565.2344 30.859375 565.03125 30.328125Q564.8281 29.796875 564.2969 29.484375Q563.78125 29.171875 563.0781 29.171875Q561.9531 29.171875 561.1406 29.890625Q560.3281 30.59375 560.3281 32.578125L560.3281 38.25L558.5625 38.25ZM567.8594 35.15625L569.6094 34.875Q569.75 35.921875 570.4219 36.484375Q571.09375 37.03125 572.2969 37.03125Q573.5 37.03125 574.0781 36.546875Q574.6719 36.046875 574.6719 35.390625Q574.6719 34.796875 574.15625 34.453125Q573.7969 34.21875 572.3594 33.859375Q570.4219 33.359375 569.6719 33.015625Q568.9375 32.65625 568.5469 32.03125Q568.15625 31.390625 568.15625 30.625Q568.15625 29.9375 568.46875 29.34375Q568.7969 28.75 569.34375 28.359375Q569.75 28.0625 570.4531 27.859375Q571.1719 27.640625 571.9844 27.640625Q573.2031 27.640625 574.125 28.0Q575.0469 28.34375 575.4844 28.953125Q575.9219 29.546875 576.09375 30.546875L574.375 30.78125Q574.25 29.984375 573.6875 29.546875Q573.125 29.09375 572.1094 29.09375Q570.8906 29.09375 570.375 29.5Q569.8594 29.890625 569.8594 30.421875Q569.8594 30.765625 570.0781 31.046875Q570.28125 31.328125 570.75 31.515625Q571.0156 31.609375 572.2969 31.953125Q574.1719 32.453125 574.90625 32.78125Q575.6406 33.09375 576.0625 33.703125Q576.4844 34.296875 576.4844 35.203125Q576.4844 36.078125 575.96875 36.859375Q575.4531 37.640625 574.4844 38.0625Q573.5156 38.484375 572.2969 38.484375Q570.28125 38.484375 569.21875 37.640625Q568.15625 36.796875 567.8594 35.15625Z" fill-rule="nonzero"/><path fill="#757575" d="M27.34375 58.453125L29.0625 58.671875Q28.78125 60.46875 27.609375 61.484375Q26.453125 62.484375 24.75 62.484375Q22.625 62.484375 21.328125 61.09375Q20.03125 59.703125 20.03125 57.109375Q20.03125 55.421875 20.578125 54.171875Q21.140625 52.90625 22.28125 52.28125Q23.421875 51.640625 24.765625 51.640625Q26.453125 51.640625 27.515625 52.5Q28.59375 53.359375 28.90625 54.921875L27.1875 55.1875Q26.953125 54.140625 26.328125 53.625Q25.703125 53.09375 24.828125 53.09375Q23.5 53.09375 22.671875 54.046875Q21.84375 55.0 21.84375 57.046875Q21.84375 59.140625 22.640625 60.09375Q23.4375 61.03125 24.734375 61.03125Q25.765625 61.03125 26.453125 60.40625Q27.15625 59.765625 27.34375 58.453125ZM37.34375 60.96875Q36.359375 61.796875 35.453125 62.140625Q34.546875 62.484375 33.515625 62.484375Q31.8125 62.484375 30.890625 61.65625Q29.96875 60.8125 29.96875 59.515625Q29.96875 58.75 30.3125 58.125Q30.671875 57.5 31.234375 57.125Q31.796875 56.734375 32.5 56.53125Q33.015625 56.40625 34.0625 56.265625Q36.1875 56.015625 37.1875 55.671875Q37.203125 55.3125 37.203125 55.203125Q37.203125 54.140625 36.703125 53.6875Q36.03125 53.09375 34.703125 53.09375Q33.453125 53.09375 32.859375 53.53125Q32.28125 53.96875 32.0 55.078125L30.28125 54.84375Q30.515625 53.734375 31.046875 53.0625Q31.578125 52.375 32.59375 52.015625Q33.609375 51.640625 34.953125 51.640625Q36.28125 51.640625 37.109375 51.953125Q37.9375 52.265625 38.328125 52.75Q38.71875 53.21875 38.875 53.9375Q38.96875 54.390625 38.96875 55.5625L38.96875 57.90625Q38.96875 60.359375 39.078125 61.015625Q39.1875 61.65625 39.53125 62.25L37.6875 62.25Q37.421875 61.703125 37.34375 60.96875ZM37.1875 57.046875Q36.234375 57.4375 34.3125 57.703125Q33.234375 57.859375 32.78125 58.0625Q32.34375 58.25 32.09375 58.625Q31.84375 59.0 31.84375 59.46875Q31.84375 60.171875 32.375 60.640625Q32.90625 61.109375 33.9375 61.109375Q34.953125 61.109375 35.734375 60.671875Q36.53125 60.21875 36.90625 59.453125Q37.1875 58.84375 37.1875 57.6875L37.1875 57.046875ZM41.546875 62.25L41.546875 51.875L43.125 51.875L43.125 53.453125Q43.734375 52.34375 44.25 52.0Q44.765625 51.640625 45.375 51.640625Q46.265625 51.640625 47.1875 52.203125L46.578125 53.84375Q45.9375 53.453125 45.296875 53.453125Q44.71875 53.453125 44.25 53.8125Q43.796875 54.15625 43.59375 54.765625Q43.3125 55.703125 43.3125 56.8125L43.3125 62.25L41.546875 62.25ZM48.578125 49.953125L48.578125 47.9375L50.34375 47.9375L50.34375 49.953125L48.578125 49.953125ZM48.578125 62.25L48.578125 51.875L50.34375 51.875L50.34375 62.25L48.578125 62.25ZM56.40625 60.671875L56.65625 62.234375Q55.921875 62.390625 55.328125 62.390625Q54.375 62.390625 53.84375 62.09375Q53.328125 61.78125 53.109375 61.296875Q52.890625 60.796875 52.890625 59.21875L52.890625 53.25L51.609375 53.25L51.609375 51.875L52.890625 51.875L52.890625 49.3125L54.640625 48.25L54.640625 51.875L56.40625 51.875L56.40625 53.25L54.640625 53.25L54.640625 59.3125Q54.640625 60.0625 54.734375 60.28125Q54.828125 60.484375 55.03125 60.625Q55.25 60.75 55.640625 60.75Q55.921875 60.75 56.40625 60.671875ZM65.34375 60.96875Q64.359375 61.796875 63.453125 62.140625Q62.546875 62.484375 61.515625 62.484375Q59.8125 62.484375 58.890625 61.65625Q57.96875 60.8125 57.96875 59.515625Q57.96875 58.75 58.3125 58.125Q58.671875 57.5 59.234375 57.125Q59.796875 56.734375 60.5 56.53125Q61.015625 56.40625 62.0625 56.265625Q64.1875 56.015625 65.1875 55.671875Q65.203125 55.3125 65.203125 55.203125Q65.203125 54.140625 64.703125 53.6875Q64.03125 53.09375 62.703125 53.09375Q61.453125 53.09375 60.859375 53.53125Q60.28125 53.96875 60.0 55.078125L58.28125 54.84375Q58.515625 53.734375 59.046875 53.0625Q59.578125 52.375 60.59375 52.015625Q61.609375 51.640625 62.953125 51.640625Q64.28125 51.640625 65.109375 51.953125Q65.9375 52.265625 66.328125 52.75Q66.71875 53.21875 66.875 53.9375Q66.96875 54.390625 66.96875 55.5625L66.96875 57.90625Q66.96875 60.359375 67.078125 61.015625Q67.1875 61.65625 67.53125 62.25L65.6875 62.25Q65.421875 61.703125 65.34375 60.96875ZM65.1875 57.046875Q64.234375 57.4375 62.3125 57.703125Q61.234375 57.859375 60.78125 58.0625Q60.34375 58.25 60.09375 58.625Q59.84375 59.0 59.84375 59.46875Q59.84375 60.171875 60.375 60.640625Q60.90625 61.109375 61.9375 61.109375Q62.953125 61.109375 63.734375 60.671875Q64.53125 60.21875 64.90625 59.453125Q65.1875 58.84375 65.1875 57.6875L65.1875 57.046875ZM73.40625 60.671875L73.65625 62.234375Q72.921875 62.390625 72.328125 62.390625Q71.375 62.390625 70.84375 62.09375Q70.328125 61.78125 70.109375 61.296875Q69.890625 60.796875 69.890625 59.21875L69.890625 53.25L68.609375 53.25L68.609375 51.875L69.890625 51.875L69.890625 49.3125L71.640625 48.25L71.640625 51.875L73.40625 51.875L73.40625 53.25L71.640625 53.25L71.640625 59.3125Q71.640625 60.0625 71.734375 60.28125Q71.828125 60.484375 72.03125 60.625Q72.25 60.75 72.640625 60.75Q72.921875 60.75 73.40625 60.671875ZM75.578125 49.953125L75.578125 47.9375L77.34375 47.9375L77.34375 49.953125L75.578125 49.953125ZM75.578125 62.25L75.578125 51.875L77.34375 51.875L77.34375 62.25L75.578125 62.25ZM82.453125 62.25L78.5 51.875L80.359375 51.875L82.59375 58.09375Q82.953125 59.09375 83.25 60.171875Q83.484375 59.359375 83.90625 58.203125L86.203125 51.875L88.015625 51.875L84.09375 62.25L82.453125 62.25ZM95.671875 58.90625L97.484375 59.140625Q97.0625 60.71875 95.890625 61.609375Q94.734375 62.484375 92.921875 62.484375Q90.65625 62.484375 89.3125 61.09375Q87.984375 59.6875 87.984375 57.15625Q87.984375 54.53125 89.328125 53.09375Q90.671875 51.640625 92.828125 51.640625Q94.90625 51.640625 96.21875 53.0625Q97.546875 54.46875 97.546875 57.046875Q97.546875 57.203125 97.53125 57.515625L89.796875 57.515625Q89.890625 59.21875 90.765625 60.125Q91.640625 61.03125 92.9375 61.03125Q93.90625 61.03125 94.578125 60.53125Q95.265625 60.015625 95.671875 58.90625ZM89.890625 56.0625L95.6875 56.0625Q95.578125 54.765625 95.03125 54.109375Q94.1875 53.09375 92.84375 53.09375Q91.640625 53.09375 90.8125 53.90625Q89.984375 54.703125 89.890625 56.0625ZM98.859375 59.15625L100.609375 58.875Q100.75 59.921875 101.421875 60.484375Q102.09375 61.03125 103.296875 61.03125Q104.5 61.03125 105.078125 60.546875Q105.671875 60.046875 105.671875 59.390625Q105.671875 58.796875 105.15625 58.453125Q104.796875 58.21875 103.359375 57.859375Q101.421875 57.359375 100.671875 57.015625Q99.9375 56.65625 99.546875 56.03125Q99.15625 55.390625 99.15625 54.625Q99.15625 53.9375 99.46875 53.34375Q99.796875 52.75 100.34375 52.359375Q100.75 52.0625 101.453125 51.859375Q102.171875 51.640625 102.984375 51.640625Q104.203125 51.640625 105.125 52.0Q106.046875 52.34375 106.484375 52.953125Q106.921875 53.546875 107.09375 54.546875L105.375 54.78125Q105.25 53.984375 104.6875 53.546875Q104.125 53.09375 103.109375 53.09375Q101.890625 53.09375 101.375 53.5Q100.859375 53.890625 100.859375 54.421875Q100.859375 54.765625 101.078125 55.046875Q101.28125 55.328125 101.75 55.515625Q102.015625 55.609375 103.296875 55.953125Q105.171875 56.453125 105.90625 56.78125Q106.640625 57.09375 107.0625 57.703125Q107.484375 58.296875 107.484375 59.203125Q107.484375 60.078125 106.96875 60.859375Q106.453125 61.640625 105.484375 62.0625Q104.515625 62.484375 103.296875 62.484375Q101.28125 62.484375 100.21875 61.640625Q99.15625 60.796875 98.859375 59.15625ZM122.671875 58.90625L124.484375 59.140625Q124.0625 60.71875 122.890625 61.609375Q121.734375 62.484375 119.921875 62.484375Q117.65625 62.484375 116.3125 61.09375Q114.984375 59.6875 114.984375 57.15625Q114.984375 54.53125 116.328125 53.09375Q117.671875 51.640625 119.828125 51.640625Q121.90625 51.640625 123.21875 53.0625Q124.546875 54.46875 124.546875 57.046875Q124.546875 57.203125 124.53125 57.515625L116.796875 57.515625Q116.890625 59.21875 117.765625 60.125Q118.640625 61.03125 119.9375 61.03125Q120.90625 61.03125 121.578125 60.53125Q122.265625 60.015625 122.671875 58.90625ZM116.890625 56.0625L122.6875 56.0625Q122.578125 54.765625 122.03125 54.109375Q121.1875 53.09375 119.84375 53.09375Q118.640625 53.09375 117.8125 53.90625Q116.984375 54.703125 116.890625 56.0625ZM130.40625 60.671875L130.65625 62.234375Q129.92188 62.390625 129.32812 62.390625Q128.375 62.390625 127.84375 62.09375Q127.328125 61.78125 127.109375 61.296875Q126.890625 60.796875 126.890625 59.21875L126.890625 53.25L125.609375 53.25L125.609375 51.875L126.890625 51.875L126.890625 49.3125L128.64062 48.25L128.64062 51.875L130.40625 51.875L130.40625 53.25L128.64062 53.25L128.64062 59.3125Q128.64062 60.0625 128.73438 60.28125Q128.82812 60.484375 129.03125 60.625Q129.25 60.75 129.64062 60.75Q129.92188 60.75 130.40625 60.671875ZM137.85938 59.15625L139.60938 58.875Q139.75 59.921875 140.42188 60.484375Q141.09375 61.03125 142.29688 61.03125Q143.5 61.03125 144.07812 60.546875Q144.67188 60.046875 144.67188 59.390625Q144.67188 58.796875 144.15625 58.453125Q143.79688 58.21875 142.35938 57.859375Q140.42188 57.359375 139.67188 57.015625Q138.9375 56.65625 138.54688 56.03125Q138.15625 55.390625 138.15625 54.625Q138.15625 53.9375 138.46875 53.34375Q138.79688 52.75 139.34375 52.359375Q139.75 52.0625 140.45312 51.859375Q141.17188 51.640625 141.98438 51.640625Q143.20312 51.640625 144.125 52.0Q145.04688 52.34375 145.48438 52.953125Q145.92188 53.546875 146.09375 54.546875L144.375 54.78125Q144.25 53.984375 143.6875 53.546875Q143.125 53.09375 142.10938 53.09375Q140.89062 53.09375 140.375 53.5Q139.85938 53.890625 139.85938 54.421875Q139.85938 54.765625 140.07812 55.046875Q140.28125 55.328125 140.75 55.515625Q141.01562 55.609375 142.29688 55.953125Q144.17188 56.453125 144.90625 56.78125Q145.64062 57.09375 146.0625 57.703125Q146.48438 58.296875 146.48438 59.203125Q146.48438 60.078125 145.96875 60.859375Q145.45312 61.640625 144.48438 62.0625Q143.51562 62.484375 142.29688 62.484375Q140.28125 62.484375 139.21875 61.640625Q138.15625 60.796875 137.85938 59.15625ZM147.92188 57.0625Q147.92188 54.1875 149.51562 52.796875Q150.85938 51.640625 152.78125 51.640625Q154.92188 51.640625 156.26562 53.046875Q157.625 54.453125 157.625 56.921875Q157.625 58.921875 157.03125 60.078125Q156.4375 61.21875 155.28125 61.859375Q154.14062 62.484375 152.78125 62.484375Q150.59375 62.484375 149.25 61.09375Q147.92188 59.6875 147.92188 57.0625ZM149.71875 57.0625Q149.71875 59.0625 150.57812 60.046875Q151.45312 61.03125 152.78125 61.03125Q154.09375 61.03125 154.95312 60.046875Q155.82812 59.046875 155.82812 57.0Q155.82812 55.078125 154.95312 54.09375Q154.07812 53.09375 152.78125 53.09375Q151.45312 53.09375 150.57812 54.09375Q149.71875 55.078125 149.71875 57.0625ZM159.53125 62.25L159.53125 47.9375L161.28125 47.9375L161.28125 62.25L159.53125 62.25ZM163.57812 49.953125L163.57812 47.9375L165.34375 47.9375L165.34375 49.953125L163.57812 49.953125ZM163.57812 62.25L163.57812 51.875L165.34375 51.875L165.34375 62.25L163.57812 62.25ZM174.29688 62.25L174.29688 60.9375Q173.3125 62.484375 171.39062 62.484375Q170.15625 62.484375 169.10938 61.796875Q168.07812 61.109375 167.5 59.890625Q166.9375 58.671875 166.9375 57.078125Q166.9375 55.515625 167.45312 54.25Q167.96875 52.984375 169.0 52.3125Q170.04688 51.640625 171.3125 51.640625Q172.25 51.640625 172.98438 52.046875Q173.71875 52.4375 174.1875 53.0625L174.1875 47.9375L175.92188 47.9375L175.92188 62.25L174.29688 62.25ZM168.73438 57.078125Q168.73438 59.0625 169.57812 60.046875Q170.42188 61.03125 171.5625 61.03125Q172.71875 61.03125 173.51562 60.09375Q174.32812 59.15625 174.32812 57.21875Q174.32812 55.09375 173.5 54.09375Q172.6875 53.09375 171.48438 53.09375Q170.3125 53.09375 169.51562 54.0625Q168.73438 55.015625 168.73438 57.078125ZM185.34375 60.96875Q184.35938 61.796875 183.45312 62.140625Q182.54688 62.484375 181.51562 62.484375Q179.8125 62.484375 178.89062 61.65625Q177.96875 60.8125 177.96875 59.515625Q177.96875 58.75 178.3125 58.125Q178.67188 57.5 179.23438 57.125Q179.79688 56.734375 180.5 56.53125Q181.01562 56.40625 182.0625 56.265625Q184.1875 56.015625 185.1875 55.671875Q185.20312 55.3125 185.20312 55.203125Q185.20312 54.140625 184.70312 53.6875Q184.03125 53.09375 182.70312 53.09375Q181.45312 53.09375 180.85938 53.53125Q180.28125 53.96875 180.0 55.078125L178.28125 54.84375Q178.51562 53.734375 179.04688 53.0625Q179.57812 52.375 180.59375 52.015625Q181.60938 51.640625 182.95312 51.640625Q184.28125 51.640625 185.10938 51.953125Q185.9375 52.265625 186.32812 52.75Q186.71875 53.21875 186.875 53.9375Q186.96875 54.390625 186.96875 55.5625L186.96875 57.90625Q186.96875 60.359375 187.07812 61.015625Q187.1875 61.65625 187.53125 62.25L185.6875 62.25Q185.42188 61.703125 185.34375 60.96875ZM185.1875 57.046875Q184.23438 57.4375 182.3125 57.703125Q181.23438 57.859375 180.78125 58.0625Q180.34375 58.25 180.09375 58.625Q179.84375 59.0 179.84375 59.46875Q179.84375 60.171875 180.375 60.640625Q180.90625 61.109375 181.9375 61.109375Q182.95312 61.109375 183.73438 60.671875Q184.53125 60.21875 184.90625 59.453125Q185.1875 58.84375 185.1875 57.6875L185.1875 57.046875ZM189.57812 49.953125L189.57812 47.9375L191.34375 47.9375L191.34375 49.953125L189.57812 49.953125ZM189.57812 62.25L189.57812 51.875L191.34375 51.875L191.34375 62.25L189.57812 62.25ZM193.54688 62.25L193.54688 51.875L195.125 51.875L195.125 53.453125Q195.73438 52.34375 196.25 52.0Q196.76562 51.640625 197.375 51.640625Q198.26562 51.640625 199.1875 52.203125L198.57812 53.84375Q197.9375 53.453125 197.29688 53.453125Q196.71875 53.453125 196.25 53.8125Q195.79688 54.15625 195.59375 54.765625Q195.3125 55.703125 195.3125 56.8125L195.3125 62.25L193.54688 62.25ZM207.67188 58.90625L209.48438 59.140625Q209.0625 60.71875 207.89062 61.609375Q206.73438 62.484375 204.92188 62.484375Q202.65625 62.484375 201.3125 61.09375Q199.98438 59.6875 199.98438 57.15625Q199.98438 54.53125 201.32812 53.09375Q202.67188 51.640625 204.82812 51.640625Q206.90625 51.640625 208.21875 53.0625Q209.54688 54.46875 209.54688 57.046875Q209.54688 57.203125 209.53125 57.515625L201.79688 57.515625Q201.89062 59.21875 202.76562 60.125Q203.64062 61.03125 204.9375 61.03125Q205.90625 61.03125 206.57812 60.53125Q207.26562 60.015625 207.67188 58.90625ZM201.89062 56.0625L207.6875 56.0625Q207.57812 54.765625 207.03125 54.109375Q206.1875 53.09375 204.84375 53.09375Q203.64062 53.09375 202.8125 53.90625Q201.98438 54.703125 201.89062 56.0625ZM224.67188 58.90625L226.48438 59.140625Q226.0625 60.71875 224.89062 61.609375Q223.73438 62.484375 221.92188 62.484375Q219.65625 62.484375 218.3125 61.09375Q216.98438 59.6875 216.98438 57.15625Q216.98438 54.53125 218.32812 53.09375Q219.67188 51.640625 221.82812 51.640625Q223.90625 51.640625 225.21875 53.0625Q226.54688 54.46875 226.54688 57.046875Q226.54688 57.203125 226.53125 57.515625L218.79688 57.515625Q218.89062 59.21875 219.76562 60.125Q220.64062 61.03125 221.9375 61.03125Q222.90625 61.03125 223.57812 60.53125Q224.26562 60.015625 224.67188 58.90625ZM218.89062 56.0625L224.6875 56.0625Q224.57812 54.765625 224.03125 54.109375Q223.1875 53.09375 221.84375 53.09375Q220.64062 53.09375 219.8125 53.90625Q218.98438 54.703125 218.89062 56.0625ZM228.5625 62.25L228.5625 51.875L230.15625 51.875L230.15625 53.359375Q231.29688 51.640625 233.45312 51.640625Q234.39062 51.640625 235.17188 51.984375Q235.96875 52.3125 236.35938 52.859375Q236.75 53.40625 236.90625 54.15625Q237.0 54.65625 237.0 55.875L237.0 62.25L235.23438 62.25L235.23438 55.9375Q235.23438 54.859375 235.03125 54.328125Q234.82812 53.796875 234.29688 53.484375Q233.78125 53.171875 233.07812 53.171875Q231.95312 53.171875 231.14062 53.890625Q230.32812 54.59375 230.32812 56.578125L230.32812 62.25L228.5625 62.25ZM243.92188 57.0625Q243.92188 54.1875 245.51562 52.796875Q246.85938 51.640625 248.78125 51.640625Q250.92188 51.640625 252.26562 53.046875Q253.625 54.453125 253.625 56.921875Q253.625 58.921875 253.03125 60.078125Q252.4375 61.21875 251.28125 61.859375Q250.14062 62.484375 248.78125 62.484375Q246.59375 62.484375 245.25 61.09375Q243.92188 59.6875 243.92188 57.0625ZM245.71875 57.0625Q245.71875 59.0625 246.57812 60.046875Q247.45312 61.03125 248.78125 61.03125Q250.09375 61.03125 250.95312 60.046875Q251.82812 59.046875 251.82812 57.0Q251.82812 55.078125 250.95312 54.09375Q250.07812 53.09375 248.78125 53.09375Q247.45312 53.09375 246.57812 54.09375Q245.71875 55.078125 245.71875 57.0625ZM254.85938 59.15625L256.60938 58.875Q256.75 59.921875 257.42188 60.484375Q258.09375 61.03125 259.29688 61.03125Q260.5 61.03125 261.07812 60.546875Q261.67188 60.046875 261.67188 59.390625Q261.67188 58.796875 261.15625 58.453125Q260.79688 58.21875 259.35938 57.859375Q257.42188 57.359375 256.67188 57.015625Q255.9375 56.65625 255.54688 56.03125Q255.15625 55.390625 255.15625 54.625Q255.15625 53.9375 255.46875 53.34375Q255.79688 52.75 256.34375 52.359375Q256.75 52.0625 257.45312 51.859375Q258.17188 51.640625 258.98438 51.640625Q260.20312 51.640625 261.125 52.0Q262.04688 52.34375 262.48438 52.953125Q262.92188 53.546875 263.09375 54.546875L261.375 54.78125Q261.25 53.984375 260.6875 53.546875Q260.125 53.09375 259.10938 53.09375Q257.89062 53.09375 257.375 53.5Q256.85938 53.890625 256.85938 54.421875Q256.85938 54.765625 257.07812 55.046875Q257.28125 55.328125 257.75 55.515625Q258.01562 55.609375 259.29688 55.953125Q261.17188 56.453125 261.90625 56.78125Q262.64062 57.09375 263.0625 57.703125Q263.48438 58.296875 263.48438 59.203125Q263.48438 60.078125 262.96875 60.859375Q262.45312 61.640625 261.48438 62.0625Q260.51562 62.484375 259.29688 62.484375Q257.28125 62.484375 256.21875 61.640625Q255.15625 60.796875 254.85938 59.15625ZM269.40625 60.671875L269.65625 62.234375Q268.92188 62.390625 268.32812 62.390625Q267.375 62.390625 266.84375 62.09375Q266.32812 61.78125 266.10938 61.296875Q265.89062 60.796875 265.89062 59.21875L265.89062 53.25L264.60938 53.25L264.60938 51.875L265.89062 51.875L265.89062 49.3125L267.64062 48.25L267.64062 51.875L269.40625 51.875L269.40625 53.25L267.64062 53.25L267.64062 59.3125Q267.64062 60.0625 267.73438 60.28125Q267.82812 60.484375 268.03125 60.625Q268.25 60.75 268.64062 60.75Q268.92188 60.75 269.40625 60.671875ZM278.67188 58.90625L280.48438 59.140625Q280.0625 60.71875 278.89062 61.609375Q277.73438 62.484375 275.92188 62.484375Q273.65625 62.484375 272.3125 61.09375Q270.98438 59.6875 270.98438 57.15625Q270.98438 54.53125 272.32812 53.09375Q273.67188 51.640625 275.82812 51.640625Q277.90625 51.640625 279.21875 53.0625Q280.54688 54.46875 280.54688 57.046875Q280.54688 57.203125 280.53125 57.515625L272.79688 57.515625Q272.89062 59.21875 273.76562 60.125Q274.64062 61.03125 275.9375 61.03125Q276.90625 61.03125 277.57812 60.53125Q278.26562 60.015625 278.67188 58.90625ZM272.89062 56.0625L278.6875 56.0625Q278.57812 54.765625 278.03125 54.109375Q277.1875 53.09375 275.84375 53.09375Q274.64062 53.09375 273.8125 53.90625Q272.98438 54.703125 272.89062 56.0625ZM274.79688 50.59375L276.09375 47.859375L278.39062 47.859375L276.25 50.59375L274.79688 50.59375ZM281.92188 57.0625Q281.92188 54.1875 283.51562 52.796875Q284.85938 51.640625 286.78125 51.640625Q288.92188 51.640625 290.26562 53.046875Q291.625 54.453125 291.625 56.921875Q291.625 58.921875 291.03125 60.078125Q290.4375 61.21875 289.28125 61.859375Q288.14062 62.484375 286.78125 62.484375Q284.59375 62.484375 283.25 61.09375Q281.92188 59.6875 281.92188 57.0625ZM283.71875 57.0625Q283.71875 59.0625 284.57812 60.046875Q285.45312 61.03125 286.78125 61.03125Q288.09375 61.03125 288.95312 60.046875Q289.82812 59.046875 289.82812 57.0Q289.82812 55.078125 288.95312 54.09375Q288.07812 53.09375 286.78125 53.09375Q285.45312 53.09375 284.57812 54.09375Q283.71875 55.078125 283.71875 57.0625ZM293.5625 66.21875L293.5625 51.875L295.17188 51.875L295.17188 53.21875Q295.73438 52.4375 296.4375 52.046875Q297.15625 51.640625 298.17188 51.640625Q299.5 51.640625 300.51562 52.328125Q301.53125 53.015625 302.04688 54.265625Q302.57812 55.5 302.57812 56.984375Q302.57812 58.578125 302.0 59.859375Q301.4375 61.125 300.34375 61.8125Q299.25 62.484375 298.04688 62.484375Q297.17188 62.484375 296.46875 62.109375Q295.78125 61.734375 295.32812 61.171875L295.32812 66.21875L293.5625 66.21875ZM295.15625 57.125Q295.15625 59.125 295.96875 60.078125Q296.78125 61.03125 297.9375 61.03125Q299.10938 61.03125 299.9375 60.046875Q300.78125 59.0625 300.78125 56.96875Q300.78125 55.0 299.95312 54.015625Q299.14062 53.015625 298.01562 53.015625Q296.89062 53.015625 296.01562 54.078125Q295.15625 55.125 295.15625 57.125ZM311.34375 60.96875Q310.35938 61.796875 309.45312 62.140625Q308.54688 62.484375 307.51562 62.484375Q305.8125 62.484375 304.89062 61.65625Q303.96875 60.8125 303.96875 59.515625Q303.96875 58.75 304.3125 58.125Q304.67188 57.5 305.23438 57.125Q305.79688 56.734375 306.5 56.53125Q307.01562 56.40625 308.0625 56.265625Q310.1875 56.015625 311.1875 55.671875Q311.20312 55.3125 311.20312 55.203125Q311.20312 54.140625 310.70312 53.6875Q310.03125 53.09375 308.70312 53.09375Q307.45312 53.09375 306.85938 53.53125Q306.28125 53.96875 306.0 55.078125L304.28125 54.84375Q304.51562 53.734375 305.04688 53.0625Q305.57812 52.375 306.59375 52.015625Q307.60938 51.640625 308.95312 51.640625Q310.28125 51.640625 311.10938 51.953125Q311.9375 52.265625 312.32812 52.75Q312.71875 53.21875 312.875 53.9375Q312.96875 54.390625 312.96875 55.5625L312.96875 57.90625Q312.96875 60.359375 313.07812 61.015625Q313.1875 61.65625 313.53125 62.25L311.6875 62.25Q311.42188 61.703125 311.34375 60.96875ZM311.1875 57.046875Q310.23438 57.4375 308.3125 57.703125Q307.23438 57.859375 306.78125 58.0625Q306.34375 58.25 306.09375 58.625Q305.84375 59.0 305.84375 59.46875Q305.84375 60.171875 306.375 60.640625Q306.90625 61.109375 307.9375 61.109375Q308.95312 61.109375 309.73438 60.671875Q310.53125 60.21875 310.90625 59.453125Q311.1875 58.84375 311.1875 57.6875L311.1875 57.046875ZM319.40625 60.671875L319.65625 62.234375Q318.92188 62.390625 318.32812 62.390625Q317.375 62.390625 316.84375 62.09375Q316.32812 61.78125 316.10938 61.296875Q315.89062 60.796875 315.89062 59.21875L315.89062 53.25L314.60938 53.25L314.60938 51.875L315.89062 51.875L315.89062 49.3125L317.64062 48.25L317.64062 51.875L319.40625 51.875L319.40625 53.25L317.64062 53.25L317.64062 59.3125Q317.64062 60.0625 317.73438 60.28125Q317.82812 60.484375 318.03125 60.625Q318.25 60.75 318.64062 60.75Q318.92188 60.75 319.40625 60.671875ZM321.5625 62.25L321.5625 47.9375L323.32812 47.9375L323.32812 53.0625Q324.5625 51.640625 326.4375 51.640625Q327.57812 51.640625 328.42188 52.09375Q329.28125 52.546875 329.64062 53.359375Q330.01562 54.15625 330.01562 55.671875L330.01562 62.25L328.26562 62.25L328.26562 55.671875Q328.26562 54.359375 327.6875 53.765625Q327.10938 53.15625 326.07812 53.15625Q325.29688 53.15625 324.59375 53.5625Q323.90625 53.96875 323.60938 54.671875Q323.32812 55.359375 323.32812 56.578125L323.32812 62.25L321.5625 62.25ZM331.57812 49.953125L331.57812 47.9375L333.34375 47.9375L333.34375 49.953125L331.57812 49.953125ZM331.57812 62.25L331.57812 51.875L333.34375 51.875L333.34375 62.25L331.57812 62.25ZM342.67188 58.90625L344.48438 59.140625Q344.0625 60.71875 342.89062 61.609375Q341.73438 62.484375 339.92188 62.484375Q337.65625 62.484375 336.3125 61.09375Q334.98438 59.6875 334.98438 57.15625Q334.98438 54.53125 336.32812 53.09375Q337.67188 51.640625 339.82812 51.640625Q341.90625 51.640625 343.21875 53.0625Q344.54688 54.46875 344.54688 57.046875Q344.54688 57.203125 344.53125 57.515625L336.79688 57.515625Q336.89062 59.21875 337.76562 60.125Q338.64062 61.03125 339.9375 61.03125Q340.90625 61.03125 341.57812 60.53125Q342.26562 60.015625 342.67188 58.90625ZM336.89062 56.0625L342.6875 56.0625Q342.57812 54.765625 342.03125 54.109375Q341.1875 53.09375 339.84375 53.09375Q338.64062 53.09375 337.8125 53.90625Q336.98438 54.703125 336.89062 56.0625ZM355.85938 58.71875Q355.84375 58.375 355.84375 58.203125Q355.84375 57.15625 356.14062 56.40625Q356.35938 55.84375 356.84375 55.265625Q357.1875 54.84375 358.09375 54.046875Q359.01562 53.234375 359.28125 52.765625Q359.5625 52.28125 359.5625 51.71875Q359.5625 50.6875 358.75 49.921875Q357.95312 49.140625 356.79688 49.140625Q355.67188 49.140625 354.92188 49.84375Q354.17188 50.546875 353.9375 52.03125L352.125 51.8125Q352.375 49.8125 353.57812 48.75Q354.78125 47.6875 356.76562 47.6875Q358.875 47.6875 360.125 48.828125Q361.375 49.96875 361.375 51.59375Q361.375 52.53125 360.92188 53.328125Q360.48438 54.109375 359.20312 55.25Q358.34375 56.015625 358.07812 56.375Q357.82812 56.734375 357.6875 57.203125Q357.5625 57.671875 357.54688 58.71875L355.85938 58.71875ZM355.75 62.25L355.75 60.25L357.75 60.25L357.75 62.25L355.75 62.25Z" fill-rule="nonzero"/></svg>