<svg enable-background="new 0 0 460 382.7" height="382.7" viewBox="0 0 460 382.7" width="460" xmlns="http://www.w3.org/2000/svg" xmlns:xlink="http://www.w3.org/1999/xlink"><clipPath id="a"><path d="m61.6 19.6h392.7v339h-392.7z"/></clipPath><path d="m0 0h70.5v4h-70.5z" fill="#62c2d8"/><g fill="#005789"><path d="m3.1 24.4 1.5-.4v-9.3h-1.4l-.6 2.4h-2.4l.2-4.7h12.5l.2 4.7h-2.4l-.6-2.4h-1.4v9.3l1.5.3v1.9h-7v-1.8z"/><path d="m13.6 24.5 1.2-.3v-10.2l-1.2-.3v-1.9l4.5-.5.3.2v5.2h.1c1-.7 1.9-1.3 3.4-1.3 1.6 0 2.8.7 2.8 2.6v6.2l1.1.3v1.8h-5.6v-1.8l.9-.2v-4.9c0-.9-.4-1.2-1.3-1.2-.5 0-.9.1-1.3.3v5.8l.8.2v1.8h-5.7z"/><path d="m26.3 21c0-3.5 2.2-5.5 5.4-5.5 3.3 0 4.8 1.6 4.8 6.1h-6.4c.2 1.9 1.2 2.5 2.9 2.5 1.4 0 2.3-.3 3.1-.5v1.9c-.8.5-2 1.1-4.1 1.1-3.8 0-5.7-2-5.7-5.6zm6.7-1.3c0-1.7-.6-2.2-1.4-2.2s-1.4.5-1.6 2.3z"/><path d="m41.4 25.6v-11.5l-1.1-.3v-1.9l4.4-.5.3.2v5h.1c.6-.5 1.5-1.1 3-1.1 1.9 0 3.9 1.2 3.9 5.2 0 4.4-2.4 6-5.8 6-2.1-.1-3.8-.6-4.8-1.1zm6.8-4.6c0-2.3-.6-3-1.7-3-.6 0-1 .1-1.4.3v5.7c.3.2.6.4 1.2.4 1.2 0 1.9-.6 1.9-3.4z"/><path d="m53.7 23.6v-5.6l-1.1-.3v-1.8l4.5-.4.3.2v6.9c0 .9.3 1.3 1.2 1.3.7 0 1.1-.2 1.4-.3v-5.6l-1.1-.3v-1.8l4.4-.4.3.2v8.3l1.2.3v1.7l-4.4.5-.3-.1v-1.2h-.1c-.7.7-1.7 1.3-3.2 1.3-2.3.1-3.1-1-3.1-2.9z"/><path d="m65.3 24.5 1.2-.3v-6.1l-1.2-.3v-1.9l4.4-.5.3.1v1.6h.1c.6-1 1.5-1.7 2.7-1.7.2 0 .4 0 .5.1v3.2c-.2-.1-.6-.1-.9-.1-1 0-1.7.1-2.3.4v5.2l1.5.3v1.8h-6.3z"/><path d="m73.8 21.2c0-4.3 2.3-5.8 5.2-5.8.8 0 1.3.1 1.7.3v-1.7l-1.3-.3v-1.9l4.6-.5.3.1v12.4l1.1.3v1.9l-4.1.5-.3-.1v-1h-.1c-.6.7-1.6 1.2-3 1.2-2 0-4.1-1.3-4.1-5.4zm6.9 2.5v-5.7c-.3-.2-.6-.4-1.2-.4-1.1 0-1.9.6-1.9 3.2 0 2.4.6 3.1 1.7 3.1.6.1 1-.1 1.4-.2z"/><path d="m86.1 21c0-3.5 2.2-5.5 5.4-5.5 3.3 0 4.8 1.6 4.8 6.1h-6.4c.2 1.9 1.2 2.5 2.9 2.5 1.4 0 2.3-.3 3.1-.5v1.9c-.8.5-2 1.1-4.1 1.1-3.7 0-5.7-2-5.7-5.6zm6.7-1.3c0-1.7-.6-2.2-1.4-2.2s-1.4.5-1.6 2.3z"/><path d="m97 24.5 1.2-.3v-6.1l-1.2-.3v-1.9l4.4-.5.3.1v1.1h.1c1-.8 2-1.3 3.5-1.3 1.6 0 2.8.7 2.8 2.6v6.2l1.1.3v1.8h-5.6v-1.8l.9-.2v-4.9c0-.9-.4-1.1-1.3-1.1-.5 0-.9.1-1.3.3v5.8l.8.2v1.8h-5.7z"/><path d="m113.2 21.1c0-3.7 2.4-5.6 5.5-5.6 3.6 0 5.5 2 5.5 5.5 0 3.7-2.5 5.7-5.5 5.7-3.5-.1-5.5-2.3-5.5-5.6zm7.2 0c0-2.8-.7-3.5-1.7-3.5s-1.6.6-1.6 3.3c0 2.8.7 3.5 1.7 3.5s1.6-.7 1.6-3.3z"/><path d="m124.9 24.5 1.2-.3v-6.4h-1.2v-1.7l1.2-.5v-.9c0-2.6 1.9-3.4 3.9-3.4 1.1 0 1.9.2 2.3.4v2.2c-.4-.1-.7-.1-1.2-.1-.9 0-1.4.3-1.4 1.3v.5h2v2.2h-2v6.4l1.4.3v1.8h-6.2z"/><path d="m135.9 25.9-.2-2.9h2.3l.4 1.2c.2.1.8.3 1.4.3.9 0 1.4-.3 1.4-.9s-.3-.8-1.3-1l-1.2-.3c-2-.5-3-1.4-3-3.3 0-2.1 1.5-3.6 4.8-3.6 1.3 0 2.7.2 3.5.6v2.8h-2.2l-.2-1.1c-.3-.1-.6-.3-1.2-.3-.8 0-1.4.2-1.4.8s.4.8 1.5 1l1.3.3c2.2.5 3 1.6 3 3.2 0 2.3-1.5 3.8-5 3.8-1.3.1-2.8-.1-3.9-.6z"/><path d="m146.2 23.6v-5.8h-1.1v-1.7l1.5-.5.5-2.5h2.9v2.5h2.2v2.2h-2.2v5.2c0 .9.4 1.2 1.3 1.2.3 0 .7-.1 1-.1v1.9c-.5.3-1.4.6-2.6.6-2.2-.1-3.5-.8-3.5-3z"/><path d="m152.9 23.7c0-2.1 1.5-2.8 3.9-3.2l1.9-.4v-.5c0-1.1-.4-1.5-2-1.5-.9 0-2 .1-2.7.2v-2.1c1-.4 2.7-.7 4.5-.7 2.7 0 3.9 1.1 3.9 3.5v4.8c0 .5.3.6.7.6h.3v1.7c-.4.2-1.3.5-2.2.5-1.1 0-1.8-.4-2.1-1.2h-.1c-.5.7-1.5 1.3-2.9 1.3-2-.1-3.2-1.3-3.2-3zm5.7.4v-2.3h-.9c-.8.1-1.2.5-1.2 1.3 0 .9.3 1.3 1.1 1.3.4.1.8-.1 1-.3z"/><path d="m163.8 24.5 1.2-.3v-6.1l-1.2-.3v-1.9l4.4-.5.3.1v1.6h.1c.6-1 1.5-1.7 2.7-1.7.2 0 .4 0 .5.1v3.2c-.2-.1-.6-.1-.9-.1-1 0-1.7.1-2.3.4v5.2l1.5.3v1.8h-6.3z"/><path d="m172.3 24.5 1.2-.3v-6.1l-1.3-.3v-1.9l4.6-.5.3.1v8.6l1.1.3v1.8h-5.9zm.9-11.5c0-1.1.9-1.8 2-1.8s2 .7 2 1.8-.9 1.8-2 1.8-2-.7-2-1.8z"/><path d="m178.7 24.5 1.2-.3v-6.1l-1.2-.3v-1.9l4.4-.5.3.1v1.1h.1c1-.8 2-1.3 3.5-1.3 1.6 0 2.8.7 2.8 2.6v6.2l1.1.3v1.8h-5.6v-1.8l.9-.2v-4.9c0-.9-.4-1.1-1.3-1.1-.5 0-.9.1-1.3.3v5.8l.8.2v1.8h-5.7z"/><path d="m190.8 28c0-1.2 1.1-1.8 2.2-2.2v-.1c-.9-.3-1.4-.9-1.4-1.7 0-.9.7-1.7 1.5-2.3-1-.5-1.6-1.5-1.6-2.7 0-2.3 1.9-3.6 4.7-3.6.9 0 1.6.1 2.2.3l3.4-.5v2.2l-1.4-.1c.3.4.5.9.5 1.4 0 2.3-1.9 3.6-4.7 3.6-.5 0-1 0-1.5-.1-.2.2-.2.4-.2.6 0 .3.2.5.7.5h3.5c1.9 0 3.3.8 3.3 2.9 0 2.2-1.8 4.1-6.2 4.1-3.3.1-5-.9-5-2.3zm7.9-.9c0-.6-.3-.8-1.3-.8h-2.5c-.4.2-.7.5-.7 1 0 .6.5 1 1.9 1 1.9.1 2.6-.5 2.6-1.2zm-1.2-8.2c0-1.4-.6-1.7-1.3-1.7s-1.2.4-1.2 1.7.5 1.7 1.2 1.7c.8 0 1.3-.4 1.3-1.7z"/><path d="m205.9 23.7c0-2.1 1.5-2.8 3.9-3.2l1.9-.4v-.5c0-1.1-.4-1.5-2-1.5-.9 0-2 .1-2.7.2v-2.1c1-.4 2.7-.7 4.5-.7 2.7 0 3.9 1.1 3.9 3.5v4.8c0 .5.3.6.7.6h.3v1.7c-.4.2-1.3.5-2.2.5-1.1 0-1.8-.4-2.1-1.2h-.1c-.5.7-1.5 1.3-2.9 1.3-2-.1-3.2-1.3-3.2-3zm5.8.4v-2.3h-.9c-.8.1-1.2.5-1.2 1.3 0 .9.3 1.3 1.1 1.3.4.1.8-.1 1-.3z"/><path d="m217.7 23.6v-5.8h-1.1v-1.7l1.5-.5.5-2.5h2.9v2.5h2.2v2.2h-2.2v5.2c0 .9.4 1.2 1.3 1.2.3 0 .7-.1 1-.1v1.9c-.5.3-1.4.6-2.6.6-2.3-.1-3.5-.8-3.5-3z"/><path d="m227.8 23.7c0-2.1 1.5-2.8 3.9-3.2l1.9-.4v-.5c0-1.1-.4-1.5-2-1.5-.9 0-2 .1-2.7.2v-2.1c1-.4 2.7-.7 4.5-.7 2.7 0 3.9 1.1 3.9 3.5v4.8c0 .5.3.6.7.6h.3v1.7c-.4.2-1.3.5-2.2.5-1.1 0-1.8-.4-2.1-1.2h-.1c-.5.7-1.5 1.3-2.9 1.3-1.9-.1-3.2-1.3-3.2-3zm5.8.4v-2.3h-.9c-.8.1-1.2.5-1.2 1.3 0 .9.3 1.3 1.1 1.3.4.1.8-.1 1-.3z"/><path d="m242.5 25.9-.2-2.9h2.3l.4 1.2c.2.1.8.3 1.4.3.9 0 1.4-.3 1.4-.9s-.3-.8-1.3-1l-1.2-.3c-2-.5-3-1.4-3-3.3 0-2.1 1.5-3.6 4.8-3.6 1.3 0 2.7.2 3.5.6v2.8h-2.2l-.2-1.1c-.3-.1-.6-.3-1.2-.3-.8 0-1.4.2-1.4.8s.4.8 1.5 1l1.3.3c2.2.5 3 1.6 3 3.2 0 2.3-1.5 3.8-5 3.8-1.4.1-2.8-.1-3.9-.6z"/><path d="m251.7 24.5 1.2-.3v-6.1l-1.2-.3v-1.9l4.4-.5.3.1v1.1h.1c.9-.7 1.9-1.3 3.4-1.3 1.1 0 2 .4 2.4 1.4h.1c.9-.8 2.1-1.4 3.5-1.4 1.6 0 2.8.8 2.8 2.7v6.1l1.1.3v1.8h-5.5v-1.8l.8-.2v-4.9c0-.9-.3-1.2-1.2-1.2-.5 0-.9.1-1.3.3v.5 5.3l.8.2v1.8h-5.3v-1.8l.8-.2v-4.9c0-.9-.4-1.2-1.2-1.2-.6 0-.9.1-1.3.3v5.8l.8.2v1.8h-5.6v-1.7z"/><path d="m270.3 23.7c0-2.1 1.5-2.8 3.9-3.2l1.9-.4v-.5c0-1.1-.4-1.5-2-1.5-.9 0-2 .1-2.7.2v-2.1c1-.4 2.7-.7 4.5-.7 2.7 0 3.9 1.1 3.9 3.5v4.8c0 .5.3.6.7.6h.3v1.7c-.4.2-1.3.5-2.2.5-1.1 0-1.8-.4-2.1-1.2h-.1c-.5.7-1.5 1.3-2.9 1.3-1.9-.1-3.2-1.3-3.2-3zm5.8.4v-2.3h-.9c-.8.1-1.2.5-1.2 1.3 0 .9.3 1.3 1.1 1.3.4.1.8-.1 1-.3z"/><path d="m281.2 24.5 1.2-.3v-6.1l-1.2-.3v-1.9l4.4-.5.3.1v1.6h.1c.6-1 1.5-1.7 2.7-1.7.2 0 .4 0 .5.1v3.2c-.2-.1-.6-.1-.9-.1-1 0-1.7.1-2.3.4v5.2l1.5.3v1.8h-6.3z"/><path d="m290.8 23.6v-5.8h-1.1v-1.7l1.5-.5.5-2.5h2.9v2.5h2.2v2.2h-2.2v5.2c0 .9.4 1.2 1.3 1.2.3 0 .7-.1 1-.1v1.9c-.5.3-1.4.6-2.6.6-2.3-.1-3.5-.8-3.5-3z"/><path d="m297.5 28.6 1.1-.3v-10.2l-1.2-.3v-1.9l4.4-.5.3.1v1h.1c.6-.6 1.6-1.2 3.1-1.2 1.9 0 3.9 1.2 3.9 5.2 0 4.4-2.4 6-5.4 6-.8 0-1.1 0-1.5-.1v1.8l1.3.2v1.8h-6.1zm7.8-7.6c0-2.3-.6-3-1.7-3-.6 0-1 .1-1.4.3v5.7c.3.2.6.4 1.2.4 1.2 0 1.9-.6 1.9-3.4z"/><path d="m309.8 24.5 1.2-.3v-10.2l-1.2-.3v-1.9l4.5-.5.3.2v5.2h.1c1-.7 1.9-1.3 3.4-1.3 1.6 0 2.8.7 2.8 2.6v6.2l1.1.3v1.8h-5.6v-1.8l.9-.2v-4.9c0-.9-.4-1.2-1.3-1.2-.5 0-.9.1-1.3.3v5.8l.8.2v1.8h-5.7z"/><path d="m322.5 21.1c0-3.7 2.4-5.6 5.5-5.6 3.6 0 5.5 2 5.5 5.5 0 3.7-2.5 5.7-5.5 5.7-3.5-.1-5.5-2.3-5.5-5.6zm7.2 0c0-2.8-.7-3.5-1.7-3.5s-1.6.6-1.6 3.3c0 2.8.7 3.5 1.7 3.5s1.6-.7 1.6-3.3z"/><path d="m334.2 24.5 1.2-.3v-6.1l-1.2-.3v-1.9l4.4-.5.3.1v1.1h.1c1-.8 2-1.3 3.5-1.3 1.6 0 2.8.7 2.8 2.6v6.2l1.1.3v1.8h-5.6v-1.8l.9-.2v-4.9c0-.9-.4-1.1-1.3-1.1-.5 0-.9.1-1.3.3v5.8l.8.2v1.8h-5.7z"/><path d="m346.9 21c0-3.5 2.2-5.5 5.4-5.5 3.3 0 4.8 1.6 4.8 6.1h-6.4c.2 1.9 1.2 2.5 2.9 2.5 1.4 0 2.3-.3 3.1-.5v1.9c-.8.5-2 1.1-4.1 1.1-3.7 0-5.7-2-5.7-5.6zm6.7-1.3c0-1.7-.6-2.2-1.4-2.2s-1.4.5-1.6 2.3z"/></g><path d="m460 366h-460" fill="none" stroke="#000" stroke-width=".5"/><path d="m.8 376.4v-.3c0-3 1.7-4.2 3.6-4.2.9 0 1.5.2 1.9.4v1c-.4-.2-1-.4-1.9-.4-1.7 0-2.5 1.2-2.5 3.1v.3c0 2.1.6 3.3 2.4 3.3.4 0 1-.1 1.3-.3 0 0-.1-.3-.1-.8v-.5c0-.4.1-.9.1-.9h-1.5v-.9h2.6v3.8c-.6.3-1.5.5-2.3.5-2.1.1-3.6-1.1-3.6-4.1z"/><path d="m8.3 377.8v-5.7h1.1v5.6c0 1.6.7 2 1.7 2 .9 0 1.6-.5 1.6-2v-5.6h1v5.6c0 1.8-.9 2.9-2.7 2.9s-2.7-1-2.7-2.8z"/><path d="m17.2 372.2h1.3l2.5 8.3h-1.2l-.3-1.2c-.1-.3-.2-.8-.3-1.1h-2.9c-.1.3-.2.7-.3 1.1l-.3 1.2h-1.1zm-.6 5.1h2.4c-.1-.3-.3-.6-.3-.9l-.4-1.4c-.2-.8-.4-1.9-.4-1.9h-.1s-.2 1.1-.4 1.9l-.4 1.4c-.1.3-.3.7-.4.9z"/><path d="m22.1 372.2h2.3c1.7 0 2.6.9 2.6 2.4 0 1.2-.6 1.8-1.5 2.1v.1s.3.5.6 1.1l1.3 2.7h-1.2l-1.6-3.5h-1.5s.1.6.1 1v2.4h-1.1zm2.3 3.9c1 0 1.5-.6 1.5-1.6s-.4-1.5-1.5-1.5h-1.3s.1.6.1.9v1.2c0 .4-.1 1-.1 1z"/><path d="m28.7 372.2h2c2.5 0 3.7 1.3 3.7 3.8v.3c0 2.8-1.2 4.2-3.6 4.2h-2.1zm2.1 7.4c1.5 0 2.4-.7 2.4-3.1v-.3c0-2.6-1-3.1-2.6-3.1h-.8s.1.6.1 1v4.4c0 .4-.1 1-.1 1h1z"/><path d="m36 372.2h1.1v8.3h-1.1z"/><path d="m40.9 372.2h1.3l2.5 8.3h-1.2l-.3-1.2c-.1-.3-.2-.8-.3-1.1h-2.9c-.1.3-.2.7-.3 1.1l-.3 1.2h-1.1zm-.6 5.1h2.4c-.1-.3-.3-.6-.3-.9l-.4-1.4c-.2-.8-.4-1.9-.4-1.9h-.1s-.2 1.1-.4 1.9l-.4 1.4c-.2.3-.3.7-.4.9z"/><path d="m45.7 372.2h1.3l2.1 4c.4.8 1 2.5 1 2.5h.1s-.1-1.5-.1-2.2v-4.4h1v8.3h-1.2l-2.2-4.4c-.4-.8-1-2.4-1-2.4h-.1s.1 1.4.1 2.1v4.7h-1z"/><path d="m55.1 376.4v-.3c0-3 1.7-4.2 3.6-4.2.9 0 1.5.2 1.9.4v1c-.4-.2-1-.4-1.9-.4-1.7 0-2.5 1.2-2.5 3.1v.3c0 2.1.6 3.3 2.4 3.3.4 0 1-.1 1.3-.3 0 0-.1-.3-.1-.8v-.5c0-.4.1-.9.1-.9h-1.6v-.9h2.6v3.8c-.6.3-1.5.5-2.3.5-2.1.1-3.5-1.1-3.5-4.1z"/><path d="m62.6 372.2h2.3c1.7 0 2.6.9 2.6 2.4 0 1.2-.6 1.8-1.5 2.1v.1s.3.5.6 1.1l1.3 2.7h-1.2l-1.6-3.5h-1.5s.1.6.1 1v2.4h-1.1zm2.3 3.9c1 0 1.5-.6 1.5-1.6s-.4-1.5-1.5-1.5h-1.3s.1.6.1.9v1.2c0 .4-.1 1-.1 1z"/><path d="m71 372.2h1.3l2.5 8.3h-1.2l-.3-1.2c-.1-.3-.2-.8-.3-1.1h-2.9c-.1.3-.2.7-.3 1.1l-.3 1.2h-1.1zm-.6 5.1h2.4c-.1-.3-.3-.6-.3-.9l-.4-1.4c-.2-.8-.4-1.9-.4-1.9h-.1s-.2 1.1-.4 1.9l-.4 1.4c-.1.3-.3.7-.4.9z"/><path d="m75.9 372.2h2.3c1.8 0 2.5 1.1 2.5 2.5 0 1.7-1 2.6-2.4 2.6h-1.3s.1.6.1 1v2.2h-1.1v-8.3zm2.2 4.1c1 0 1.5-.5 1.5-1.6 0-1.2-.5-1.7-1.5-1.7h-1.1s.1.6.1 1v1.3c0 .4-.1 1-.1 1z"/><path d="m82 372.2h1.1v2.4c0 .5-.1 1.1-.1 1.1h3.4s-.1-.7-.1-1.1v-2.4h1.1v8.3h-1.1v-2.7c0-.4.1-1.1.1-1.1h-3.4s.1.7.1 1.1v2.7h-1.1z"/><path d="m89.6 372.2h1.1v8.3h-1.1z"/><path d="m92.2 376.4v-.3c0-3.1 1.6-4.1 3.5-4.1.7 0 1.3.1 1.7.4v1c-.6-.2-1.1-.4-1.8-.4-1.2 0-2.2.7-2.2 3.1v.3c0 2.3.7 3.3 2.3 3.3.8 0 1.3-.2 1.8-.5v1c-.5.3-1.1.5-2 .5-2-.1-3.3-1.5-3.3-4.3z"/><g fill="#1d1d1b"><path d="m213.3 380.2v-.9c.6.3 1.3.4 2 .4 1 0 1.5-.4 1.5-1.3 0-.8-.4-1.1-1.2-1.5l-.7-.3c-1-.4-1.6-1.1-1.6-2.3s.8-2.2 2.5-2.2c.8 0 1.4.2 1.8.5v.9c-.4-.2-1-.4-1.8-.4-.9 0-1.4.4-1.4 1.2 0 .7.3 1.1 1.1 1.4l.7.3c1 .4 1.8 1 1.8 2.3 0 1.5-.8 2.4-2.6 2.4-.9-.1-1.6-.3-2.1-.5z"/><path d="m219 376.5v-.3c0-2.8 1.3-4.1 3.2-4.1s3.2 1.3 3.2 4.1v.3c0 2.8-1.3 4.1-3.2 4.1s-3.2-1.3-3.2-4.1zm5.2 0v-.3c0-2.2-.6-3.3-2.1-3.3-1.4 0-2 1.1-2 3.1v.3c0 2.2.6 3.3 2 3.3 1.5.1 2.1-1 2.1-3.1z"/><path d="m226.9 377.8v-5.7h1.1v5.6c0 1.6.7 2 1.7 2 .9 0 1.6-.5 1.6-2v-5.6h1v5.6c0 1.8-.9 2.9-2.7 2.9s-2.7-1-2.7-2.8z"/><path d="m234.2 372.2h2.3c1.7 0 2.6.9 2.6 2.4 0 1.2-.6 1.8-1.5 2.1v.1s.3.5.6 1.1l1.3 2.7h-1.2l-1.6-3.5h-1.5s.1.6.1 1v2.4h-1.1zm2.3 3.9c1 0 1.5-.6 1.5-1.6s-.4-1.5-1.5-1.5h-1.3s.1.6.1.9v1.2c0 .4-.1 1-.1 1z"/><path d="m240.5 376.4v-.3c0-3.1 1.6-4.1 3.5-4.1.7 0 1.3.1 1.7.4v1c-.6-.2-1.1-.4-1.8-.4-1.2 0-2.2.7-2.2 3.1v.3c0 2.3.7 3.3 2.3 3.3.8 0 1.3-.2 1.8-.5v1c-.5.3-1.1.5-2 .5-2-.1-3.3-1.5-3.3-4.3z"/><path d="m247.2 372.2h4.4v.9h-3.4s.1.6.1.9v.8c0 .4-.1.9-.1.9h2.6v.9h-2.6s.1.6.1.9v1.1c0 .4-.1.9-.1.9h3.4v.9h-4.5v-8.2z"/><path d="m253.5 375.3h1.2v1.3h-1.2zm0 3.9h1.2v1.3h-1.2z"/><path d="m259 380.2v-.9c.6.3 1.3.4 2 .4 1 0 1.5-.4 1.5-1.3 0-.8-.4-1.1-1.2-1.5l-.7-.3c-1-.4-1.6-1.1-1.6-2.3s.8-2.2 2.5-2.2c.8 0 1.4.2 1.8.5v.9c-.4-.2-1-.4-1.8-.4-.9 0-1.4.4-1.4 1.2 0 .7.3 1.1 1.1 1.4l.7.3c1 .4 1.8 1 1.8 2.3 0 1.5-.8 2.4-2.6 2.4-.9-.1-1.6-.3-2.1-.5z"/><path d="m265.1 377.8v-5.7h1.1v5.6c0 1.6.7 2 1.7 2 .9 0 1.6-.5 1.6-2v-5.6h1v5.6c0 1.8-.9 2.9-2.7 2.9s-2.7-1-2.7-2.8z"/><path d="m272.5 372.2h2.3c1.7 0 2.6.9 2.6 2.4 0 1.2-.6 1.8-1.5 2.1v.1s.3.5.6 1.1l1.3 2.7h-1.2l-1.6-3.6h-1.5s.1.6.1 1v2.4h-1.1zm2.3 3.9c1 0 1.5-.6 1.5-1.6s-.4-1.5-1.5-1.5h-1.3s.1.6.1.9v1.2c0 .4-.1 1-.1 1z"/><path d="m278.8 376.4v-.3c0-3 1.7-4.2 3.6-4.2.9 0 1.5.2 1.9.4v1c-.4-.2-1-.4-1.9-.4-1.7 0-2.5 1.2-2.5 3.1v.3c0 2.1.6 3.3 2.4 3.3.4 0 1-.1 1.3-.3 0 0-.1-.3-.1-.8v-.5c0-.4.1-.9.1-.9h-1.6v-.9h2.6v3.8c-.6.3-1.5.5-2.3.5-2 .1-3.5-1.1-3.5-4.1z"/><path d="m286.5 372.2h1.1v8.3h-1.1z"/><path d="m289.3 376.4v-.3c0-3.1 1.6-4.1 3.5-4.1.7 0 1.3.1 1.7.4v1c-.6-.2-1.1-.4-1.8-.4-1.2 0-2.2.7-2.2 3.1v.3c0 2.3.7 3.3 2.3 3.3.8 0 1.3-.2 1.8-.5v1c-.5.3-1.1.5-2 .5-2.1-.1-3.3-1.5-3.3-4.3z"/><path d="m297.8 372.2h1.3l2.5 8.3h-1.2l-.3-1.2c-.1-.3-.2-.8-.3-1.1h-2.9c-.1.3-.2.7-.3 1.1l-.3 1.2h-1.1zm-.7 5.1h2.4c-.1-.3-.3-.6-.3-.9l-.4-1.4c-.2-.8-.4-1.9-.4-1.9h-.1s-.2 1.1-.4 1.9l-.4 1.4c-.1.3-.2.7-.4.9z"/><path d="m302.7 372.2h1.1v6.2c0 .5-.1 1.1-.1 1.1h3.2v.9h-4.3v-8.2z"/><path d="m312.4 374.2c0-.4.1-1.2.1-1.2h-2.2v-.9h5.4v.9h-2.2s.1.7.1 1.2v6.2h-1.1v-6.2z"/><path d="m317 372.2h4.4v.9h-3.4s.1.6.1.9v.8c0 .4-.1.9-.1.9h2.6v.9h-2.6s.1.6.1.9v1.1c0 .4-.1.9-.1.9h3.4v.9h-4.4z"/><path d="m322.6 376.4v-.3c0-3.1 1.6-4.1 3.5-4.1.7 0 1.3.1 1.7.4v1c-.6-.2-1.1-.4-1.8-.4-1.2 0-2.2.7-2.2 3.1v.3c0 2.3.7 3.3 2.3 3.3.8 0 1.3-.2 1.8-.5v1c-.5.3-1.1.5-2 .5-2-.1-3.3-1.5-3.3-4.3z"/><path d="m329.4 372.2h1.1v2.4c0 .5-.1 1.1-.1 1.1h3.4s-.1-.7-.1-1.1v-2.4h1.1v8.3h-1.1v-2.7c0-.4.1-1.1.1-1.1h-3.4s.1.7.1 1.1v2.7h-1.1z"/><path d="m336.8 372.2h1.3l2.1 4c.4.8 1 2.5 1 2.5h.1s-.1-1.5-.1-2.2v-4.4h1v8.3h-1.2l-2.2-4.4c-.4-.8-1-2.4-1-2.4h-.1s.1 1.4.1 2.1v4.7h-1z"/><path d="m343.7 376.5v-.3c0-2.8 1.3-4.1 3.2-4.1s3.2 1.3 3.2 4.1v.3c0 2.8-1.3 4.1-3.2 4.1s-3.2-1.3-3.2-4.1zm5.3 0v-.3c0-2.2-.6-3.3-2.1-3.3-1.4 0-2 1.1-2 3.1v.3c0 2.2.6 3.3 2 3.3 1.4.1 2.1-1 2.1-3.1z"/><path d="m351.7 372.2h1.1v6.2c0 .5-.1 1.1-.1 1.1h3.2v.9h-4.3v-8.2z"/><path d="m356.7 376.5v-.3c0-2.8 1.3-4.1 3.2-4.1s3.2 1.3 3.2 4.1v.3c0 2.8-1.3 4.1-3.3 4.1-1.8 0-3.1-1.3-3.1-4.1zm5.3 0v-.3c0-2.2-.6-3.3-2.1-3.3-1.4 0-2 1.1-2 3.1v.3c0 2.2.6 3.3 2 3.3 1.4.1 2.1-1 2.1-3.1z"/><path d="m364.3 376.4v-.3c0-3 1.7-4.2 3.6-4.2.9 0 1.5.2 1.9.4v1c-.4-.2-1-.4-1.9-.4-1.7 0-2.5 1.2-2.5 3.1v.3c0 2.1.6 3.3 2.4 3.3.4 0 1-.1 1.3-.3 0 0-.1-.3-.1-.8v-.5c0-.4.1-.9.1-.9h-1.6v-.9h2.6v3.8c-.6.3-1.5.5-2.3.5-2 .1-3.5-1.1-3.5-4.1z"/><path d="m373.4 377.3-2.4-5.1h1.2l1 2.2c.4.9.8 2.3.8 2.3h.1s.4-1.4.7-2.3l.9-2.2h1.1l-2.3 5.1v3.2h-1.1z"/><path d="m380.7 372.2h1.1v8.3h-1.1z"/><path d="m383.8 372.2h1.3l2.1 4c.4.8 1 2.5 1 2.5h.1s-.1-1.5-.1-2.2v-4.4h1v8.3h-1.2l-2.2-4.4c-.4-.8-1-2.4-1-2.4h-.1s.1 1.4.1 2.1v4.7h-1z"/><path d="m392.8 374.2c0-.4.1-1.2.1-1.2h-2.2v-.9h5.4v.9h-2.2s.1.7.1 1.2v6.2h-1.1v-6.2z"/><path d="m397.4 372.2h4.4v.9h-3.4s.1.6.1.9v.8c0 .4-.1.9-.1.9h2.6v.9h-2.6s.1.6.1.9v1.1c0 .4-.1.9-.1.9h3.4v.9h-4.5v-8.2z"/><path d="m403.5 372.2h2.3c1.7 0 2.6.9 2.6 2.4 0 1.2-.6 1.8-1.5 2.1v.1s.3.5.6 1.1l1.3 2.7h-1.2l-1.6-3.6h-1.5s.1.6.1 1v2.4h-1.1zm2.3 3.9c1 0 1.5-.6 1.5-1.6s-.4-1.5-1.5-1.5h-1.3s.1.6.1.9v1.2c0 .4-.1 1-.1 1z"/><path d="m410.2 372.2h1.3l2.1 4c.4.8 1 2.5 1 2.5h.1s-.1-1.5-.1-2.2v-4.4h1v8.3h-1.2l-2.2-4.4c-.4-.8-1-2.4-1-2.4h-.1s.1 1.4.1 2.1v4.7h-1z"/><path d="m419.4 372.2h1.3l2.5 8.3h-1.2l-.3-1.2c-.1-.3-.2-.8-.3-1.1h-2.9c-.1.3-.2.7-.3 1.1l-.3 1.2h-1.1zm-.6 5.1h2.4c-.1-.3-.3-.6-.3-.9l-.4-1.4c-.2-.8-.4-1.9-.4-1.9h-.1s-.2 1.1-.4 1.9l-.4 1.4c-.2.3-.3.7-.4.9z"/><path d="m425.4 374.2c0-.4.1-1.2.1-1.2h-2.2v-.9h5.4v.9h-2.2s.1.7.1 1.2v6.2h-1.1v-6.2z"/><path d="m430.2 372.2h1.1v8.3h-1.1z"/><path d="m432.9 376.5v-.3c0-2.8 1.3-4.1 3.2-4.1s3.2 1.3 3.2 4.1v.3c0 2.8-1.3 4.1-3.2 4.1s-3.2-1.3-3.2-4.1zm5.3 0v-.3c0-2.2-.6-3.3-2.1-3.3-1.4 0-2 1.1-2 3.1v.3c0 2.2.6 3.3 2 3.3 1.4.1 2.1-1 2.1-3.1z"/><path d="m440.9 372.2h1.3l2.1 4c.4.8 1 2.5 1 2.5h.1s-.1-1.5-.1-2.2v-4.4h1v8.3h-1.2l-2.2-4.4c-.4-.8-1-2.4-1-2.4h-.1s.1 1.4.1 2.1v4.7h-1z"/><path d="m450 372.2h1.3l2.5 8.3h-1.2l-.3-1.2c-.1-.3-.2-.8-.3-1.1h-2.9c-.1.3-.2.7-.3 1.1l-.3 1.2h-1.1zm-.6 5.1h2.4c-.1-.3-.3-.6-.3-.9l-.4-1.4c-.2-.8-.4-1.9-.4-1.9h-.1s-.2 1.1-.4 1.9l-.4 1.4c-.1.3-.3.7-.4.9z"/><path d="m455 372.2h1.1v6.2c0 .5-.1 1.1-.1 1.1h3.2v.9h-4.2z"/></g><path d="m.3 50.2 1.4-.2v-9l-1.3-.2v-.5h7.5l.1 2.5h-.5l-.5-1.8h-4.3v4.1h2.4l.3-1.4h.6v3.5h-.6l-.3-1.4h-2.4v4.4h4.4l.6-2.2h.5l-.2 2.8h-7.7z"/><path d="m8.7 50.3 1.2-.2v-6.4h-1.1v-.4l1.1-.3v-1c0-1.7 1-2.4 2.2-2.4.6 0 .9.1 1.2.3v.5c-.2-.1-.5-.1-.9-.1-.9 0-1.5.4-1.5 1.8v.9h3.4v-1c0-1.8 1-2.5 2.3-2.5.6 0 1 .1 1.3.3v.5c-.3-.1-.6-.1-1.1-.1-1 0-1.6.4-1.6 1.9v1h2v.7h-2v6.4l1.4.2v.4h-3.5v-.4l1.1-.2v-6.4h-3.4v6.4l1.1.2v.4h-3.2z"/><path d="m17.4 46.9c0-2.5 1.5-3.9 3.4-3.9 2.1 0 3 1.4 3 3.8h-5.4c0 2.2.9 3.4 2.8 3.4 1.1 0 1.8-.2 2.3-.5v.5c-.5.3-1.2.7-2.5.7-2.6 0-3.6-1.8-3.6-4zm5.3-.8c0-1.7-.7-2.6-2-2.6-1.4 0-2.2.9-2.3 2.7z"/><path d="m24.5 46.9c0-2.9 1.8-4 3.8-4 .8 0 1.4.1 2 .3v1.8h-.6l-.2-1.3c-.3-.1-.7-.2-1.3-.2-1.6 0-2.7 1-2.7 3.3s1 3.3 2.9 3.3c1 0 1.7-.3 2.1-.5v.5c-.5.3-1.2.6-2.4.6-2.3.2-3.6-1.4-3.6-3.8z"/><path d="m32 49.1v-5.3h-1.1v-.4l1.2-.3.2-1.8h.7v1.8h2.1v.7h-2.1v5.1c0 .9.3 1.3 1.2 1.3.4 0 .7-.1 1-.1v.4c-.3.2-.9.4-1.4.4-1.1-.1-1.8-.5-1.8-1.8z"/><path d="m35.6 50.3 1.2-.2v-6.3l-1.2-.2v-.5l2.1-.3.1.1v7.1l1.2.2v.4h-3.3v-.3zm1-9.5c0-.4.3-.6.6-.6.4 0 .6.3.6.6s-.3.6-.6.6-.6-.3-.6-.6z"/><path d="m39.7 43.7-.8-.2v-.4h2.9v.4l-1 .1 2.2 6 2.2-6-1-.1v-.4h2.6v.4l-.8.2-2.7 7.1h-.8z"/><path d="m46.7 46.9c0-2.5 1.5-3.9 3.4-3.9 2.1 0 3 1.4 3 3.8h-5.4c0 2.2.9 3.4 2.8 3.4 1.1 0 1.8-.2 2.3-.5v.5c-.5.3-1.2.7-2.5.7-2.6 0-3.6-1.8-3.6-4zm5.3-.8c0-1.7-.7-2.6-2-2.6-1.4 0-2.2.9-2.3 2.7z"/><path d="m57 43.7-.8-.2v-.4h2.8v.4l-1 .2 1.7 5.7 2-6.3h.6l2 6.3 1.7-5.7-1-.2v-.4h2.6v.4l-.8.2-2.1 7.1h-.7l-2-6.2-2.1 6.2h-.7z"/><path d="m67.5 46.9c0-2.5 1.5-3.9 3.4-3.9 2.1 0 3 1.4 3 3.8h-5.4c0 2.2.9 3.4 2.8 3.4 1.1 0 1.8-.2 2.3-.5v.5c-.5.3-1.2.7-2.5.7-2.6 0-3.6-1.8-3.6-4zm5.4-.8c0-1.7-.7-2.6-2-2.6-1.4 0-2.2.9-2.3 2.7z"/><path d="m74.4 50.3 1.2-.2v-6.3l-1.2-.2v-.5l2.1-.3.1.1v7.1l1.2.2v.4h-3.3v-.3zm1-9.5c0-.4.3-.6.6-.6.4 0 .6.3.6.6s-.3.6-.6.6-.6-.3-.6-.6z"/><path d="m78 51.9c0-.9.7-1.5 1.5-1.8v-.1c-.5-.1-.9-.5-.9-1s.3-1 .9-1.5c-.6-.4-1-1-1-1.9 0-1.6 1.2-2.5 2.8-2.5.5 0 .9.1 1.3.2l2.2-.2v.8l-1.5-.1c.5.4.8 1 .8 1.7 0 1.6-1.2 2.5-2.9 2.5-.5 0-1-.1-1.4-.3-.3.3-.5.6-.5 1 0 .3.3.6.8.6h2.4c1.4 0 2.3.5 2.3 1.8 0 1.4-1.2 2.7-3.9 2.7-2 0-2.9-1-2.9-1.9zm6-.6c0-.8-.5-1.2-1.6-1.2h-2.4c-.7.3-1.2.9-1.2 1.6 0 .8.6 1.4 2.2 1.4 2.2 0 3-.9 3-1.8zm-.8-5.9c0-1.3-.8-1.9-1.9-1.9s-1.8.7-1.8 1.9c0 1.3.7 1.9 1.8 1.9 1.2 0 1.9-.7 1.9-1.9z"/><path d="m85.1 50.3 1.2-.2v-9.7l-1.2-.2v-.4l2-.3.1.1v4.2h.1c.8-.5 1.8-.9 2.7-.9 1.4 0 2.1.6 2.1 2v5.2l1.2.2v.4h-3.3v-.4l1.2-.2v-4.9c0-1.1-.5-1.5-1.7-1.5-.8 0-1.6.3-2.3.6v5.8l1.2.2v.4h-3.3z"/><path d="m94.4 49.1v-5.3h-1.1v-.4l1.2-.3.2-1.8h.7v1.8h2.1v.7h-2.1v5.1c0 .9.3 1.3 1.2 1.3.4 0 .7-.1 1-.1v.4c-.3.2-.9.4-1.4.4-1.1-.1-1.8-.5-1.8-1.8z"/><path d="m100.9 46.9c0-2.5 1.6-4 3.6-4s3.6 1.5 3.6 3.9c0 2.5-1.7 4-3.6 4-2 .1-3.6-1.4-3.6-3.9zm6.1.1c0-2.4-1.3-3.4-2.6-3.4s-2.5.9-2.5 3.3 1.2 3.4 2.6 3.4c1.3 0 2.5-1 2.5-3.3z"/><path d="m108.5 50.3 1.2-.2v-6.3l-1.2-.2v-.5l2-.3.1.1v.8h.1c.8-.5 1.8-.9 2.8-.9 1.4 0 2.1.6 2.1 2v5.2l1.2.2v.4h-3.3v-.4l1.2-.2v-4.9c0-1.1-.5-1.5-1.7-1.5-.8 0-1.6.3-2.3.6v5.8l1.2.2v.4h-3.3v-.3z"/><path d="m120.8 49.1v-5.3h-1.1v-.4l1.2-.3.2-1.8h.7v1.8h2.1v.7h-2.1v5.1c0 .9.3 1.3 1.2 1.3.4 0 .7-.1 1-.1v.4c-.3.2-.9.4-1.4.4-1.2-.1-1.8-.5-1.8-1.8z"/><path d="m124.3 50.3 1.2-.2v-9.7l-1.2-.2v-.4l2-.3.1.1v4.2h.1c.8-.5 1.8-.9 2.7-.9 1.4 0 2.1.6 2.1 2v5.2l1.2.2v.4h-3.3v-.4l1.2-.2v-4.9c0-1.1-.5-1.5-1.7-1.5-.8 0-1.6.3-2.3.6v5.8l1.2.2v.4h-3.3z"/><path d="m133 46.9c0-2.5 1.5-3.9 3.4-3.9 2.1 0 3 1.4 3 3.8h-5.4c0 2.2.9 3.4 2.8 3.4 1.1 0 1.8-.2 2.3-.5v.5c-.5.3-1.2.7-2.5.7-2.7 0-3.6-1.8-3.6-4zm5.3-.8c0-1.7-.7-2.6-2-2.6-1.4 0-2.2.9-2.3 2.7z"/><path d="m142.9 50.5-.1-1.9h.6l.3 1.3c.4.2.9.4 1.7.4 1.2 0 1.8-.5 1.8-1.4s-.4-1.2-1.5-1.5l-.9-.3c-1.2-.3-1.8-1-1.8-2.1 0-1.2.9-2.1 2.6-2.1.9 0 1.6.1 2.1.3v1.8h-.5l-.3-1.1c-.3-.2-.7-.3-1.4-.3-1 0-1.6.4-1.6 1.3 0 .7.4 1.1 1.5 1.5l.9.3c1.3.4 1.9 1 1.9 2.1 0 1.3-.9 2.2-2.8 2.2-1-.1-1.9-.3-2.5-.5z"/><path d="m148.6 53.3 1.2-.1v-9.3l-1.2-.2v-.5l2-.3.1.1v.8h.1c.7-.5 1.4-.9 2.5-.9 1.5 0 3 .8 3 3.7s-1.5 4.2-3.7 4.2c-.8 0-1.3-.1-1.8-.3v2.5l1.3.2v.4h-3.4v-.3zm6.7-6.5c0-2.4-1-3.1-2.4-3.1-.8 0-1.5.3-2.1.6v5.4c.5.3.9.5 1.9.5 1.5.1 2.6-.8 2.6-3.4z"/><path d="m156.8 50.3 1.2-.2v-6.3l-1.2-.2v-.5l2.1-.3.1.2v7.1l1.2.2v.4h-3.3v-.4zm1-9.5c0-.4.3-.6.6-.6.4 0 .6.3.6.6s-.3.6-.6.6-.6-.3-.6-.6z"/><path d="m160.4 50.3 1.2-.2v-6.3l-1.2-.2v-.5l2-.3.1.1v.8h.1c.8-.5 1.8-.9 2.8-.9 1.4 0 2.1.6 2.1 2v5.2l1.2.2v.4h-3.3v-.4l1.2-.2v-4.9c0-1.1-.5-1.5-1.7-1.5-.8 0-1.6.3-2.3.6v5.8l1.2.2v.4h-3.3v-.3z"/><path d="m169 46.9c0-2.5 1.5-3.9 3.4-3.9 2.1 0 3 1.4 3 3.8h-5.4c0 2.2.9 3.4 2.8 3.4 1.1 0 1.8-.2 2.3-.5v.5c-.5.3-1.2.7-2.5.7-2.6 0-3.6-1.8-3.6-4zm5.4-.8c0-1.7-.7-2.6-2-2.6-1.4 0-2.2.9-2.3 2.7z"/><path d="m178.8 48.8c0-1.3.9-1.8 2.3-2.1l2.1-.3v-1c0-1.3-.3-1.7-1.7-1.7-.7 0-1.5.1-2.1.3v-.5c.6-.3 1.6-.5 2.5-.5 1.6 0 2.3.7 2.3 2.2v4.4c0 .6.3.7.8.7h.4v.4c-.2.1-.6.2-1 .2-.6 0-1-.3-1.1-.9h-.1c-.5.5-1.2.9-2.2.9-1.3 0-2.2-.8-2.2-2.1zm4.4.6v-2.3l-1.8.1c-1.2.1-1.6.6-1.6 1.5s.5 1.5 1.6 1.5c.8 0 1.4-.3 1.8-.8z"/><path d="m185.9 50.5-.1-1.9h.6l.3 1.3c.4.2.9.4 1.7.4 1.2 0 1.8-.5 1.8-1.4s-.4-1.2-1.5-1.5l-.9-.3c-1.2-.3-1.8-1-1.8-2.1 0-1.2.9-2.1 2.6-2.1.9 0 1.6.1 2.1.3v1.8h-.5l-.3-1.1c-.3-.2-.7-.3-1.4-.3-1 0-1.6.4-1.6 1.3 0 .7.4 1.1 1.5 1.5l.9.3c1.3.4 1.9 1 1.9 2.1 0 1.3-.9 2.2-2.8 2.2-1.1-.1-1.9-.3-2.5-.5z"/><path d="m194.3 50.3 1.2-.2v-6.4h-1.1v-.4l1.1-.3v-1c0-1.8 1-2.5 2.3-2.5.6 0 1 .1 1.3.3v.5c-.3-.1-.6-.1-1.1-.1-1 0-1.6.4-1.6 1.9v1h2v.7h-2v6.4l1.4.2v.4h-3.5z"/><path d="m198.6 46.9c0-2.5 1.6-4 3.6-4s3.6 1.5 3.6 3.9c0 2.5-1.7 4-3.6 4-2 .1-3.6-1.4-3.6-3.9zm6.1.1c0-2.4-1.3-3.4-2.6-3.4s-2.5.9-2.5 3.3 1.2 3.4 2.6 3.4c1.3 0 2.5-1 2.5-3.3z"/><path d="m206.2 50.3 1.2-.2v-6.3l-1.2-.2v-.5l2-.3.1.1v1h.1c.5-.6 1.2-1.1 2.1-1.1.1 0 .4 0 .4.1v.9c-.2 0-.4 0-.6 0-.8 0-1.4.3-2 .8v5.5l1.3.2v.4h-3.4z"/><path d="m212.1 43.7-.8-.2v-.4h2.8v.4l-1 .2 1.7 5.7 2-6.3h.6l2 6.3 1.6-5.7-1-.2v-.4h2.6v.4l-.8.2-2.1 7.1h-.7l-2-6.2-2.1 6.2h-.7z"/><path d="m222.7 48.8c0-1.3.9-1.8 2.3-2.1l2.1-.3v-1c0-1.3-.3-1.7-1.7-1.7-.7 0-1.5.1-2.1.3v-.5c.6-.3 1.6-.5 2.5-.5 1.6 0 2.3.7 2.3 2.2v4.4c0 .6.3.7.8.7h.4v.4c-.2.1-.6.2-1 .2-.6 0-1-.3-1.1-.9h-.1c-.5.5-1.2.9-2.2.9-1.2 0-2.2-.8-2.2-2.1zm4.5.6v-2.3l-1.8.1c-1.2.1-1.6.6-1.6 1.5s.5 1.5 1.6 1.5c.7 0 1.4-.3 1.8-.8z"/><path d="m229.4 50.3 1.2-.2v-6.3l-1.2-.2v-.5l2-.3.1.1v1h.1c.5-.6 1.2-1.1 2.1-1.1.1 0 .4 0 .4.1v.9c-.2 0-.4 0-.6 0-.8 0-1.4.3-2 .8v5.5l1.3.2v.4h-3.4z"/><path d="m234.5 47c0-2.8 1.5-4.1 3.7-4.1.8 0 1.3.2 1.8.3v-2.8l-1.3-.2v-.4l2.2-.3.1.1v10.4l1.2.2v.4l-2 .3-.1-.1v-.8h-.1c-.5.5-1.3.9-2.3.9-1.5 0-3.2-.9-3.2-3.9zm5.5 2.4v-5.3c-.5-.3-.9-.6-1.9-.6-1.5 0-2.6.8-2.6 3.4 0 2.4 1 3.2 2.5 3.2.8 0 1.5-.3 2-.7z"/><path d="m246.3 49.1v-5.3h-1.1v-.4l1.2-.3.2-1.8h.7v1.8h2.1v.7h-2.1v5.1c0 .9.3 1.3 1.2 1.3.4 0 .7-.1 1-.1v.4c-.3.2-.9.4-1.4.4-1.2-.1-1.8-.5-1.8-1.8z"/><path d="m249.9 50.3 1.2-.2v-6.3l-1.2-.2v-.5l2.1-.3v.2 7.1l1.2.2v.4h-3.3zm.9-9.5c0-.4.3-.6.6-.6.4 0 .6.3.6.6s-.3.6-.6.6-.6-.3-.6-.6z"/><path d="m253.5 50.3 1.2-.2v-9.7l-1.3-.2v-.5l2.1-.3.1.1v10.5l1.2.2v.4h-3.3z"/><path d="m258.2 49.1v-5.3h-1.1v-.4l1.2-.3.2-1.8h.7v1.8h2.1v.7h-2.1v5.1c0 .9.3 1.3 1.2 1.3.4 0 .7-.1 1-.1v.4c-.3.2-.9.4-1.4.4-1.2-.1-1.8-.5-1.8-1.8z"/><path d="m264.5 50.3 1.2-.2v-6.3l-1.2-.2v-.5l2.1-.3.1.1v7.1l1.2.2v.4h-3.3v-.3zm.9-9.5c0-.4.3-.6.6-.6.4 0 .6.3.6.6s-.3.6-.6.6-.6-.3-.6-.6z"/><path d="m268 50.3 1.2-.2v-6.3l-1.2-.2v-.5l2-.3.1.1v.8h.1c.8-.5 1.8-.9 2.8-.9 1.4 0 2.1.6 2.1 2v5.2l1.2.2v.4h-3.3v-.4l1.2-.2v-4.9c0-1.1-.5-1.5-1.7-1.5-.8 0-1.6.3-2.3.6v5.8l1.2.2v.4h-3.4z"/><path d="m276.7 46.9c0-2.9 1.8-4 3.8-4 .8 0 1.4.1 2 .3v1.8h-.5l-.2-1.3c-.3-.1-.7-.2-1.3-.2-1.6 0-2.7 1-2.7 3.3s1.1 3.3 2.9 3.3c1 0 1.7-.3 2.1-.5v.5c-.5.3-1.2.6-2.4.6-2.4.2-3.7-1.4-3.7-3.8z"/><path d="m283.1 50.3 1.2-.2v-6.3l-1.2-.2v-.5l2-.3.1.1v1h.1c.5-.6 1.2-1.1 2.1-1.1.1 0 .4 0 .4.1v.9c-.2 0-.4 0-.6 0-.8 0-1.4.3-2 .8v5.5l1.3.2v.4h-3.4z"/><path d="m288.1 46.9c0-2.5 1.5-3.9 3.4-3.9 2.1 0 3 1.4 3 3.8h-5.4c0 2.2.9 3.4 2.8 3.4 1.1 0 1.8-.2 2.3-.5v.5c-.5.3-1.2.7-2.5.7-2.6 0-3.6-1.8-3.6-4zm5.3-.8c0-1.7-.7-2.6-2-2.6-1.4 0-2.2.9-2.3 2.7z"/><path d="m295.1 48.8c0-1.3.9-1.8 2.3-2.1l2.1-.3v-1c0-1.3-.3-1.7-1.7-1.7-.7 0-1.5.1-2.1.3v-.5c.6-.3 1.6-.5 2.5-.5 1.6 0 2.3.7 2.3 2.2v4.4c0 .6.3.7.8.7h.4v.4c-.2.1-.6.2-1 .2-.6 0-1-.3-1.1-.9h-.1c-.5.5-1.2.9-2.2.9-1.2 0-2.2-.8-2.2-2.1zm4.5.6v-2.3l-1.8.1c-1.2.1-1.6.6-1.6 1.5s.5 1.5 1.6 1.5c.7 0 1.4-.3 1.8-.8z"/><path d="m302.2 50.5-.1-1.9h.6l.3 1.3c.4.2.9.4 1.7.4 1.2 0 1.8-.5 1.8-1.4s-.4-1.2-1.5-1.5l-.9-.3c-1.2-.3-1.8-1-1.8-2.1 0-1.2.9-2.1 2.6-2.1.9 0 1.6.1 2.1.3v1.8h-.5l-.3-1.1c-.3-.2-.7-.3-1.4-.3-1 0-1.6.4-1.6 1.3 0 .7.4 1.1 1.5 1.5l.9.3c1.3.4 1.9 1 1.9 2.1 0 1.3-.9 2.2-2.8 2.2-1.1-.1-1.9-.3-2.5-.5z"/><path d="m308.1 46.9c0-2.5 1.5-3.9 3.4-3.9 2.1 0 3 1.4 3 3.8h-5.4c0 2.2.9 3.4 2.8 3.4 1.1 0 1.8-.2 2.3-.5v.5c-.5.3-1.2.7-2.5.7-2.6 0-3.6-1.8-3.6-4zm5.4-.8c0-1.7-.7-2.6-2-2.6-1.4 0-2.2.9-2.3 2.7z"/><path d="m315.4 50.5-.1-1.9h.6l.3 1.3c.4.2.9.4 1.7.4 1.2 0 1.8-.5 1.8-1.4s-.4-1.2-1.5-1.5l-.9-.3c-1.2-.3-1.8-1-1.8-2.1 0-1.2.9-2.1 2.6-2.1.9 0 1.6.1 2.1.3v1.8h-.5l-.3-1.1c-.3-.2-.7-.3-1.4-.3-1 0-1.6.4-1.6 1.3 0 .7.4 1.1 1.5 1.5l.9.3c1.3.4 1.9 1 1.9 2.1 0 1.3-.9 2.2-2.8 2.2-1.1-.1-1.9-.3-2.5-.5z"/><path clip-path="url(#a)" d="m161.9 221c6.7-7.1 17.7-27.5 17.7-27.5 2.8-11.1 15.4-21.8 24.6-26.7 9.1-4.9 40.1-6.6 48.3-3.1 8.2 3.6 18 23.3 20.9 30.2s11.1 20.2 15.1 28.7-6.6 15.5-11.3 18.2c-4.7 2.6-9.6 10.7-12.6 15s-8.9 7.4-12.7 9.4-6.2 7-6.6 9.7c-.5 2.7-2.4 9.8-4.2 11.2-1.8 1.5-7.6-1.2-9.4-2.9-1.9-1.7-6.9 3.1-8.8 4.7s-5.7-1.6-6.2.7-4.5 3.2-5.3 2.7-4 2.4-6.6 6.6c-2.6 4.3-8.9 3.7-13.6-1.7 0 0-9.2-14.1-15.9-14.3-6.8-.1-9.3 3.8-8.6 10.9h-48.1" fill="#d8354d" stroke="#fff" stroke-miterlimit="10" stroke-width=".6082"/><path clip-path="url(#a)" d="m275 241.8s6.3-10.4-4-10.4-18.6-1.3-29.3-17.7-14.5 1.6-20.8 3.8 3.2-9.3-6.5-6.8c-9.7 2.4-14.5 8.3-18.4 11.3-3.9 3.1-12.7-2.9-19-8.5s-4.8-3.4-3.5-7.5" fill="none" stroke="#fff" stroke-miterlimit="10" stroke-width=".6082"/><path clip-path="url(#a)" d="m146.7 214c5.4-8.2 12.8-30.1 12.8-30.1.9-11.4 11.5-24.1 19.7-30.5s38.4-13.3 47-11.2c8.7 2.1 21.7 19.9 25.7 26.2s14.3 18.1 19.7 25.7c5.4 7.7-3.9 16.4-8 19.8s-7.7 12.2-9.9 16.9c-2.3 4.8-7.5 8.8-10.9 11.4s-4.9 7.9-4.9 10.7-.8 10-2.3 11.8-7.7.1-9.8-1.3-6.3 4.3-7.9 6.1c-1.6 1.9-5.9-.6-6 1.8s-3.9 3.9-4.8 3.5-3.5 3-5.4 7.7c-1.9 4.6-8.2 5.1-13.7.6 0 0-10.7-10.7-17.3-9.6-6.7 1-8.4 7.3-6.5 14.3h-26.8" fill="#ec6608" stroke="#fff" stroke-miterlimit="10" stroke-width=".6082"/><path clip-path="url(#a)" d="m262.3 215.4s4.3-11.3-5.8-9.5c-10.1 1.9-18.6 2.1-32-12.2-13.4-14.2-14 4.1-19.8 7.4s1.4-9.7-7.6-5.6c-9.1 4.1-12.8 10.7-16.1 14.4s-13-.6-20.2-4.9-5.4-2.5-4.7-6.8" fill="none" stroke="#fff" stroke-miterlimit="10" stroke-width=".6082"/><path clip-path="url(#a)" d="m163 279.2c-3.6-6.2-.1-9.8 6.1-12.5s21.9 6.7 21.9 6.7c6.5 2.9 12.4.8 13-4.1.6-5 2.3-8.9 3.2-8.8s4.2-2.3 3.7-4.6 4.3-1 5.4-3.3c1.1-2.2 3.6-8.8 6-8s8.8.8 9.8-1.3-.2-9.3-.9-12-.6-8.1 2-11.6c2.6-3.4 6.6-8.7 7.6-13.9s2.1-14.6 5.2-18.9 9.8-15.2 2.6-21.2-20.2-14.7-25.7-19.7-22.7-18.8-31.6-18.7c-8.9.2-36.3 14.7-42.6 23-6.2 8.3-13.2 23.3-11.1 34.5 0 0-1.5 23.1-4.6 32.4v60.3" fill="#fbba00" stroke="#fff" stroke-miterlimit="10" stroke-width=".6082"/><path clip-path="url(#a)" d="m244.9 188.6s1.2-12.1-8-7.7c-9.3 4.4-17.4 6.8-34-3.5s-12.5 7.6-17.2 12.3-1.1-9.7-8.8-3.4-9.6 13.7-11.8 18.1-12.7 2.8-20.8.5-5.8-1-6.3-5.4" fill="none" stroke="#fff" stroke-miterlimit="10" stroke-width=".6082"/><path clip-path="url(#a)" d="m89.6 279.2c1.1-1.6 9.7-9.6 10.9-13.9s2.7-11.6 8.9-15.5 4.4-30.2 6.8-37.2c2.3-7 1.7-20.3 1.7-20.3-4.9-10.3-2-26.6 1.8-36.3 3.9-9.6 26.6-30.7 35.2-33.2s28.8 6.4 35.4 9.8 21.4 8.5 29.9 12.4 4.8 16.2 3 21.2c-1.9 5-.5 14.4-.1 19.6.4 5.3-2.1 11.4-3.7 15.3-1.6 4-.3 9.3 1.1 11.7s4.4 9.1 3.9 11.3c-.4 2.3-6.6 3.9-9.1 3.8s-3.3 6.8-3.8 9.3c-.5 2.4-5.4 2.4-4.3 4.5s-1.4 5.3-2.4 5.4c-.9.1-1.5 4.4-.8 9.3.7 5-4.5 8.5-11.5 7.4-7-1.2-13-3.5-20.5-5.7s-10.9 1.5-12.7 5.3c0 0-4.4 7.4 2.6 22.5" fill="#004077" stroke="#fff" stroke-miterlimit="10" stroke-width=".6082"/><path clip-path="url(#a)" d="m222.6 168.2s-1.9-12-9.7-5.3-15 11.1-33.8 5.4c-18.7-5.6-10.1 10.6-13.4 16.3-3.4 5.7-3.6-9.1-9.4-1s-5.7 15.7-6.7 20.5c-1 4.9-11.6 6-20 5.8-8.4-.1-5.9.5-7.5-3.5" fill="none" stroke="#fff" stroke-miterlimit="10" stroke-width=".6082"/><path clip-path="url(#a)" d="m348.2 317.5c-3.3-5.4-8.8 1.3-8.3 7.5 1.3 9.5-9.5 16-17.9 19.2-3.8 2.9-5.8-2.5-4.6-9.2s2.5-13.3-1.7-13.3-5.8 2.9-6.3 10c-.4 7.1-2.9 15.4-6.3 20.4-3.3 5-13.3 9.2-17.1 16.7s-36.3 29.2-50.5 38.4c-4.8 3.1-9.7 5.6-14.1 7.4h54c5.8-6.3 10.7-11.9 13.4-15.3 6.7-8.3 23.8-20 30.4-27.9 6.7-7.9 22.9-21.7 27.9-28.4 5.3-6.7 4.5-20 1.1-25.5z" fill="none"/><g clip-path="url(#a)"><path d="m215.6 416.8c-5.5 1.7-9.4 1.9-10 .4-1.3-2.9.4-26.7-.4-48.4s-25.2-65-25.2-65-13.3-19.5-18.8-27.5-7.5-11.2-6.7-15.3c.7-4.1 4.4-7.8 12.2-7.6s14.2.9 21.3.2 11.2-5.5 9.2-10.1-2.5-8.9-1.6-9.2c.9-.4 2.5-4.1.9-5.9s3.2-3 3-5.5-1.2-9.4 1.2-9.9c2.5-.5 8-3.7 7.8-6s-4.8-8-6.7-9.9c-2-2-4.6-6.7-4.1-11s1.4-10.8-.4-15.8-5.5-13.7-5-19 .9-18.1-8.3-19.7-24.8-2.7-32.1-4.3-29.1-5-36.7-.4-24.1 30.9-25.4 41.2c-1.2 10.3.2 26.8 7.6 35.5 7.5 8.7 12.2 21.1 11.5 25.4s-8.3 14.5-8.9 19.2c-.5 4.6-3.7 11.7-6.6 15.4-2.8 3.7-19.9 24-24.8 41.9 0 0-3.7 21.7-2.9 38.8s.4 39.6 1.7 72.6c1 27 4.3 36.9 5.4 39.6h160.3c4-4.4 8.8-9.5 15.2-15 7.9-6.8 17.2-16.1 25.1-24.6h-57.8z" fill="#63c3d8" stroke="#fff" stroke-miterlimit="10" stroke-width=".6082"/></g><path clip-path="url(#a)" d="m192.4 153.2s-5-11.1-10.8-2.6-11.7 14.6-31.2 14-7 12.8-8.8 19.3c-1.8 6.4-5.8-7.9-9.3 1.5-3.5 9.3-1.5 16.6-1.2 21.6s-9.6 8.8-17.8 10.8-5.5 2-8.2-1.5" fill="none" stroke="#fff" stroke-miterlimit="10" stroke-width=".6082"/><path clip-path="url(#a)" d="m166.1 319.4s4.1 12 5 26.8c.9 14.9-.3 20.1 6.4 27.4s17.2 24.5 19 28.6" fill="none" stroke="#fff" stroke-miterlimit="10" stroke-width=".6082"/><path clip-path="url(#a)" d="m128.5 293.2s-26.3-5-30.6 19.3c-4.4 24.2 1.2 31.8 6.4 45.5 5.3 13.7 18.4 42 18.4 42" fill="none" stroke="#fff" stroke-miterlimit="10" stroke-width=".6082"/><path clip-path="url(#a)" d="m98.4 253.7s.5-3.4 3.6-3.4 20.7.3 31.6 4.4 19.7 5.7 21.2 10.6" fill="none" stroke="#fff" stroke-miterlimit="10" stroke-width=".6082"/><path clip-path="url(#a)" d="m334.6 316.3 9.4-7.6s1.5-1 2.8-1l5.3.2s1.3.1 2.5 1.7.1 3.4-.6 4c-.6.6-.6.6-.6.6l-14.4 17.8-23.9 13.5-8.2-7.2 6.2-10.7z" fill="#1d1d1b" stroke="#fff" stroke-miterlimit="10" stroke-width=".6082"/><path clip-path="url(#a)" d="m353.4 314.2-6.2 5c-.5-.3-1.3-.5-2.5 0-1.9.8-3.2 3.4-3.8 5l-4.4 3.6c-.2-.9-.4-1.9-.5-2.8-.4-2.5-1.1-2.4-2.7-1.4s-2.5 3.1-2.5 4.3c0 .8-.2 3.2-.3 4.8l-4.1 3.3c-.3-2.6-1.2-4.5-3-4.1-2.1.5-3.1 2.7-3 5.5.1 1.3 0 2.6-.2 3.5l-1.6 1.3c-1.8 1.5-3.8.5-4.2.3-.3-.2-3.9-2.4-4.5-3.8s.6-2.7.6-2.7l24.1-19.5s-.9-2.5-4.2-1.7-7 2.1-7.7 2.7-5 1.8-7.9 2.9c-3 1-5.1 3.4-6.4 3.8s-8.3 3.4-10.2 6.1c-1.8 2.6-4.4 6.6-5.3 7.7-.9 1-1.1.1-2.5 1.2s-62.4 37.9-51.3 38.5l56.1 1.4s10.1-8.2 13.6-12 2.8-5.8 2.1-8.2c-.7-2.3-2.2-6.8-2.2-6.8s2.3-.9 4.5-1 5.8-1 8.7-1.3c2.9-.2 4-3.3 4-3.3 1.4 0 4.9-1.8 6.5-2.4s3.1-4.1 3.1-4.1 1.4-.2 3-.9c1.7-.6 2.3-1.1 3.4-2.6 1-1.4 3.8-6.9 4.5-8.3s1.2-4.5 1.2-4.5 2.4-2.7 4.5-5.5c2.2-2.9 1.3-4 1.3-4z" fill="#63c3d8" stroke="#fff" stroke-miterlimit="10" stroke-width=".6082"/><path clip-path="url(#a)" d="m293 337.8s-5.6 5.9-.5 14.8l2.6 4.8s8.6-6.4 9.8-6.8c0 0 2.5 1.3 3.9 1.2" fill="none" stroke="#fff" stroke-miterlimit="10" stroke-width=".6082"/><path d="m368 63.6h92v39.7h-92z" fill="#d8354d" stroke="#fff" stroke-miterlimit="10" stroke-width=".7648"/><path d="m276 63.6h92v39.7h-92z" fill="#ec6608" stroke="#fff" stroke-miterlimit="10" stroke-width=".7648"/><path d="m184 63.6h92v39.7h-92z" fill="#fbba00" stroke="#fff" stroke-miterlimit="10" stroke-width=".7648"/><path d="m92 63.6h92v39.7h-92z" fill="#004077" stroke="#fff" stroke-miterlimit="10" stroke-width=".7648"/><path d="m0 63.6h92v39.7h-92z" fill="#63c3d8" stroke="#fff" stroke-miterlimit="10" stroke-width=".7648"/><g fill="#fff"><path d="m376.9 74.8c0-4.2 2.4-5.8 4.9-5.8 1.1 0 1.9.2 2.4.6v1.1c-.5-.2-1.2-.3-2-.3-1.6 0-2.9.7-3.1 3.5.6-.4 1.5-.8 2.5-.8 1.9 0 3.2 1.2 3.2 3.1s-1.3 3.5-3.8 3.5c-2.6 0-4.1-1.9-4.1-4.9zm5.7 1.5c0-1.5-.7-2-1.8-2-.8 0-1.4.2-1.9.5v.3c0 2 .4 3.4 1.9 3.4 1.3.1 1.8-.8 1.8-2.2z"/><path d="m385.6 74.4c0-3.8 2-5.4 4.3-5.4 2.4 0 4.3 1.6 4.3 5.3 0 3.8-1.9 5.4-4.3 5.4-2.5 0-4.3-1.6-4.3-5.3zm6.5 0c0-2.9-.6-4.3-2.2-4.3-1.5 0-2.2 1.4-2.2 4.2 0 2.9.7 4.2 2.2 4.2 1.5.1 2.2-1.2 2.2-4.1z"/><path d="m396.7 69.2c0-.9.8-1.6 1.8-1.6s1.8.7 1.8 1.6-.8 1.7-1.8 1.7-1.8-.7-1.8-1.7zm2.4 0c0-.4-.3-.7-.7-.7s-.7.3-.7.7c0 .5.3.7.7.7.5.1.7-.2.7-.7z"/><path d="m376.9 92.3c0-4.2 2.4-5.8 4.9-5.8 1.1 0 1.9.2 2.4.6v1.1c-.5-.2-1.2-.3-2-.3-1.6 0-2.9.7-3.1 3.5.6-.4 1.5-.8 2.5-.8 1.9 0 3.2 1.2 3.2 3.1s-1.3 3.5-3.8 3.5c-2.6 0-4.1-1.9-4.1-4.9zm5.7 1.5c0-1.5-.7-2-1.8-2-.8 0-1.4.2-1.9.5v.3c0 2 .4 3.4 1.9 3.4 1.3.1 1.8-.8 1.8-2.2z"/><path d="m385.6 91.9c0-3.8 2-5.4 4.3-5.4 2.4 0 4.3 1.6 4.3 5.3 0 3.8-1.9 5.4-4.3 5.4-2.5 0-4.3-1.6-4.3-5.3zm6.5 0c0-2.9-.6-4.3-2.2-4.3-1.5 0-2.2 1.4-2.2 4.2 0 2.9.7 4.2 2.2 4.2 1.5.1 2.2-1.2 2.2-4.1z"/><path d="m394.9 96.2 1-.2v-8.7l-1.1-.3v-.9l2.8-.3.2.1v10l1 .2v.9h-3.9z"/><path d="m399.9 96.6v-9.3l-1-.2v-.9l2.7-.3.2.1v3.9h.1c.6-.4 1.3-.8 2.3-.8 1.4 0 3 .8 3 3.8s-1.7 4.4-4.1 4.4c-1.4-.1-2.5-.4-3.2-.7zm5.3-3.5c0-2-.7-2.7-1.9-2.7-.6 0-1.1.2-1.5.3v4.9c.3.2.6.4 1.3.4 1.3.1 2.1-.6 2.1-2.9z"/><path d="m287.9 78.6 1.3-.2v-1.8h-4.6v-1.1l4.9-6.3h1.7v6.2h1.5v1.2h-1.5v1.8l1.3.2v.9h-4.6zm1.3-3.3v-4h-.1l-3 3.9h3.1z"/><path d="m293.5 79v-1c.7.2 1.4.4 2.3.4 1.4 0 2.4-.7 2.4-2s-.9-2-2.5-2c-.6 0-1.2.1-1.6.2l.4-5.4h5.6l-.1 1.6h-4.2l-.2 2.4c.3-.1.8-.1 1.3-.1 2.2 0 3.6 1.2 3.6 3.2s-1.5 3.5-4 3.5c-1.5-.1-2.3-.5-3-.8z"/><path d="m302.9 69.2c0-.9.8-1.6 1.8-1.6s1.8.7 1.8 1.6-.8 1.7-1.8 1.7-1.8-.7-1.8-1.7zm2.4 0c0-.4-.3-.7-.7-.7s-.7.3-.7.7c0 .5.3.7.7.7.5.1.7-.2.7-.7z"/><path d="m287.9 96.1 1.3-.2v-1.9h-4.6v-1.1l4.9-6.3h1.7v6.2h1.5v1.2h-1.5v1.8l1.3.2v1h-4.6zm1.3-3.3v-4h-.1l-3 3.9h3.1z"/><path d="m294.1 96.7v-1.1c.5.2 1.2.3 1.9.3 1.8 0 3.1-.7 3.2-3.5-.6.4-1.5.8-2.5.8-1.9 0-3.2-1.2-3.2-3.1 0-2 1.3-3.5 3.8-3.5s4 1.9 4 4.9c0 4.1-2 5.8-5 5.8-.9-.1-1.7-.3-2.2-.6zm5.2-5.3c0-.1 0-.2 0-.3 0-2-.5-3.4-1.9-3.4-1.2 0-1.7.8-1.7 2.2 0 1.5.7 2 1.8 2 .7 0 1.3-.2 1.8-.5z"/><path d="m302.1 96.2 1-.2v-8.7l-1.1-.3v-.9l2.8-.3.2.1v10l1 .2v.9h-3.9z"/><path d="m307.1 96.6v-9.3l-1-.2v-.9l2.7-.3.2.1v3.9h.1c.6-.4 1.3-.8 2.3-.8 1.4 0 3 .8 3 3.8s-1.7 4.4-4.1 4.4c-1.5-.1-2.5-.4-3.2-.7zm5.2-3.5c0-2-.7-2.7-1.9-2.7-.6 0-1.1.2-1.5.3v4.9c.3.2.6.4 1.3.4 1.3.1 2.1-.6 2.1-2.9z"/><path d="m192.7 79v-1.1c.7.2 1.5.4 2.3.4 1.4 0 2.3-.6 2.3-1.8 0-1.4-.7-1.8-2.2-1.8h-.8v-1.2h.6c1.4 0 2.1-.5 2.1-1.6s-.6-1.6-1.9-1.6c-.8 0-1.4.1-2 .3v-1c.7-.4 1.7-.6 2.7-.6 2 0 3.2.9 3.2 2.6 0 1.3-.8 2.1-2 2.4v.1c1.3.2 2.4 1 2.4 2.6 0 1.9-1.4 3-3.9 3-1.2 0-2.2-.3-2.8-.7z"/><path d="m200.4 74.4c0-3.8 2-5.4 4.4-5.4s4.3 1.6 4.3 5.3c0 3.8-1.9 5.4-4.3 5.4-2.5 0-4.4-1.6-4.4-5.3zm6.5 0c0-2.9-.6-4.3-2.2-4.3-1.5 0-2.2 1.4-2.2 4.2 0 2.9.7 4.2 2.2 4.2 1.5.1 2.2-1.2 2.2-4.1z"/><path d="m211.5 69.2c0-.9.8-1.6 1.8-1.6s1.8.7 1.8 1.6-.8 1.7-1.8 1.7-1.8-.7-1.8-1.7zm2.5 0c0-.4-.3-.7-.7-.7s-.7.3-.7.7c0 .5.3.7.7.7s.7-.2.7-.7z"/><path d="m195.9 96.1 1.3-.2v-1.9h-4.6v-1.1l4.9-6.3h1.7v6.2h1.5v1.2h-1.5v1.8l1.3.2v1h-4.6zm1.3-3.3v-4h-.1l-3 3.9h3.1z"/><path d="m201.6 91.9c0-3.8 2-5.4 4.4-5.4s4.3 1.6 4.3 5.3c0 3.8-1.9 5.4-4.3 5.4-2.6 0-4.4-1.6-4.4-5.3zm6.5 0c0-2.9-.6-4.3-2.2-4.3-1.5 0-2.2 1.4-2.2 4.2 0 2.9.7 4.2 2.2 4.2 1.5.1 2.2-1.2 2.2-4.1z"/><path d="m210.9 96.2 1-.2v-8.7l-1.1-.3v-.9l2.8-.3.2.1v10l1 .2v.9h-3.9z"/><path d="m215.9 96.6v-9.3l-1-.2v-.9l2.7-.3.2.1v3.9h.1c.6-.4 1.3-.8 2.3-.8 1.4 0 3 .8 3 3.8s-1.7 4.4-4.1 4.4c-1.4-.1-2.5-.4-3.2-.7zm5.2-3.5c0-2-.7-2.7-1.9-2.7-.6 0-1.1.2-1.5.3v4.9c.3.2.6.4 1.3.4 1.3.1 2.1-.6 2.1-2.9z"/><path d="m100.9 78.6 1.5-.3v-7.3l-1.6.1v-.9l2.9-1.2h.8v9.3l1.5.3v.9h-5v-.9z"/><path d="m106.6 79v-1c.7.2 1.4.4 2.3.4 1.4 0 2.4-.7 2.4-2s-.9-2-2.5-2c-.6 0-1.2.1-1.6.2l.4-5.4h5.6l-.1 1.6h-4.2l-.2 2.4c.3-.1.8-.1 1.3-.1 2.2 0 3.6 1.2 3.6 3.2s-1.5 3.5-4 3.5c-1.5-.1-2.3-.5-3-.8z"/><path d="m116 69.2c0-.9.8-1.6 1.8-1.6s1.8.7 1.8 1.6-.8 1.7-1.8 1.7-1.8-.7-1.8-1.7zm2.5 0c0-.4-.3-.7-.7-.7s-.7.3-.7.7c0 .5.3.7.7.7s.7-.2.7-.7z"/><path d="m100.5 96 2.5-2.5c1.3-1.3 2.2-2.4 2.2-3.7 0-1.2-.6-1.8-2.1-1.8-.8 0-1.5.2-2.2.4v-1.1c.7-.4 1.9-.9 3.1-.9 2.1 0 3.4 1.1 3.4 3.1 0 1.6-1.2 3-3.2 4.6l-1.6 1.3h3.5l.6-1.3h1l-.2 2.8h-6.9v-.9z"/><path d="m114.3 88.3-4.3-.1-.4 1.1h-1.1l.1-2.7h7v1.3l-3.7 9.1h-2.3z"/><path d="m116 96.2 1-.2v-8.7l-1-.3v-.9l2.8-.3.2.1v10l1 .2v.9h-4z"/><path d="m121.1 96.6v-9.3l-1-.2v-.9l2.7-.3.2.1v3.9h.1c.6-.4 1.3-.8 2.3-.8 1.4 0 3 .8 3 3.8s-1.7 4.4-4.1 4.4c-1.5-.1-2.6-.4-3.2-.7zm5.2-3.5c0-2-.7-2.7-1.9-2.7-.6 0-1.1.2-1.5.3v4.9c.3.2.6.4 1.3.4 1.3.1 2.1-.6 2.1-2.9z"/><path d="m8.8 74.4c0-3.8 2-5.4 4.4-5.4s4.3 1.6 4.3 5.3c0 3.8-1.9 5.4-4.3 5.4-2.5 0-4.4-1.6-4.4-5.3zm6.5 0c0-2.9-.6-4.3-2.2-4.3-1.5 0-2.2 1.4-2.2 4.2 0 2.9.7 4.2 2.2 4.2 1.5.1 2.2-1.2 2.2-4.1z"/><path d="m19.9 69.2c0-.9.8-1.6 1.8-1.6s1.8.7 1.8 1.6-.8 1.7-1.8 1.7-1.8-.7-1.8-1.7zm2.5 0c0-.4-.3-.7-.7-.7s-.7.3-.7.7c0 .5.3.7.7.7s.7-.2.7-.7z"/><path d="m8.9 96.1 1.5-.3v-7.3l-1.6.1v-.9l2.9-1.2h.8v9.3l1.5.3v.9h-5v-.9z"/><path d="m14.5 96 2.5-2.5c1.3-1.3 2.2-2.4 2.2-3.7 0-1.2-.6-1.8-2.1-1.8-.8 0-1.5.2-2.2.4v-1.1c.7-.4 1.9-.9 3.1-.9 2.1 0 3.4 1.1 3.4 3.1 0 1.6-1.2 3-3.2 4.6l-1.6 1.3h3.4l.6-1.3h1l-.2 2.9h-6.9z"/><path d="m22.3 96.2 1-.2v-8.7l-1-.3v-.9l2.8-.3.2.1v10l1 .2v.9h-3.9v-.8z"/><path d="m27.4 96.6v-9.3l-1-.2v-.9l2.7-.3.2.1v3.9h.1c.6-.4 1.3-.8 2.3-.8 1.4 0 3 .8 3 3.8s-1.7 4.4-4.1 4.4c-1.5-.1-2.6-.4-3.2-.7zm5.2-3.5c0-2-.7-2.7-1.9-2.7-.6 0-1.1.2-1.5.3v4.9c.3.2.6.4 1.3.4 1.3.1 2.1-.6 2.1-2.9z"/></g></svg>