<svg height="700pt" preserveAspectRatio="xMidYMid meet" viewBox="0 0 700 700" width="700pt" xmlns="http://www.w3.org/2000/svg"><g transform="matrix(.1 0 0 -.1 0 700)"><path d="m2855 5649c-33-4-82-10-110-13-342-39-742-212-1035-450-99-80-1278-1258-1317-1316-135-200-153-452-47-663 57-114 183-239 324-321 74-44 222-103 291-117 30-6 68-13 84-16 52-11 268-7 330 6 57 12 137 34 180 50 111 41 341 176 420 246 17 15 41 37 55 49 29 26 148 153 170 182 117 153 182 276 262 494 62 171 89 227 151 320 58 85 175 208 257 267 128 94 300 167 445 188 22 4 51 8 65 11 34 6 218 5 255-1 200-35 314-78 459-173 80-53 210-172 251-232l28-40 51 28c28 15 81 57 117 94 149 151 201 374 133 576-32 95-75 162-160 246-254 252-609 448-961 531-110 26-128 30-203 39-25 3-56 8-70 11-41 9-360 11-425 4z"/><path d="m5739 4256c-2-2-29-6-59-9-122-12-206-39-360-114-267-132-466-315-628-576-58-95-95-176-159-352-78-215-138-317-263-448-130-137-332-257-490-292-8-1-33-8-55-13-58-15-138-23-230-22-75 0-101 2-182 15-156 24-312 92-453 195-67 50-183 165-214 212l-18 28-50-27c-87-48-185-153-226-243-81-179-72-382 23-540 67-111 241-267 439-395 201-129 465-238 679-281 10-2 26-5 35-8 19-5 84-16 122-21 14-1 45-6 69-10 62-10 311-13 406-5 237 22 441 70 630 147 178 73 387 197 535 317 41 33 352 337 690 676 657 657 666 668 711 810 76 243 16 483-166 664-135 134-316 231-510 272-63 13-267 28-276 20z"/><path d="m3330 4076c-265-77-444-311-444-580 0-98 5-132 33-214 57-166 198-310 365-371 78-29 123-36 231-35 256 3 489 179 568 429 29 93 31 272 4 355-72 215-219 359-432 420-89 25-231 24-325-4z"/></g></svg>