<svg height="1400" viewBox="0 0 1400 1400" width="1400" xmlns="http://www.w3.org/2000/svg" xmlns:xlink="http://www.w3.org/1999/xlink"><clipPath id="a"><path d="m-374.48 661.63c-1.58-259.43 150.93-466.66 378.42-548.73 249.93-90.17 724.23-9.76 847.33-7.71 305.01 5.06 304.92-113.83 478.92-67.96 125.82 33.17 92.85 235.99 39.83 356.76-117.49 267.64 9.25 275-39.83 455.75-94.08 346.51-500.8 555.85-692.58 585.06-294.75 44.89-1007.91-86.63-1012.09-773.17z"/></clipPath><g clip-path="url(#a)"><path d="m453.33 1160.72s-121.31 443.66-135.18 544.18c-13.86 100.52 45.06 748.67 45.06 748.67h209.07s-25.37-526.84-21.9-596.17c3.47-69.32 114.38-374.34 128.25-388.2 13.86-13.86-13.42-315.49-13.42-315.49z" fill="#003177"/><path d="m585.33 2438.4s-25.37-526.84-21.9-596.17c3.47-69.32 114.38-374.34 128.25-388.2 13.86-13.86-13.42-315.49-13.42-315.49l-66.63 2.2c7.03 75.73 21.86 272.21-3.07 365.79-31.26 117.33-107.46 265.78-109.22 293.81-1.65 26.27 53.08 524.48 48.51 638.05h37.48z" fill="#002756"/><path d="m639.69 1187.14s4.25 277.88 24.66 364.23c20.4 86.36 69.86 314.16 72.86 337.17s79.26 626.11 79.26 626.11l232.23-13.86s-16.61-501.92-51.63-614.9 28.09-428.98 0-570.8c-28.11-141.81-357.38-127.95-357.38-127.95z" fill="#003177"/><g fill="#002756"><path d="m406.45 1370.5c.36.03.72.09 1.09.09.9 0 1.81-.1 2.73-.31 1.6-.37 39.71-9.36 73.83-37.17 34.77-28.34 47.25-67.94 47.77-69.61 1.97-6.4-1.62-13.19-8.03-15.16-6.4-1.97-13.17 1.61-15.16 8.01-.17.53-11.09 34.46-39.91 57.96-20.63 16.82-43.41 25.86-55.44 29.82-2.27 8.68-4.57 17.48-6.88 26.37z"/><path d="m431.72 1187.14h492.18v65.86h-492.18z"/><path d="m901.56 1398.32c-.9 0-1.81-.1-2.73-.31-1.6-.37-39.71-9.36-73.83-37.17-34.77-28.34-47.25-67.94-47.77-69.61-1.97-6.4 1.62-13.19 8.03-15.16 6.4-1.97 13.17 1.61 15.16 8.01.17.53 11.09 34.46 39.91 57.96 29.58 24.11 63.62 32.26 63.96 32.34 6.52 1.52 10.58 8.04 9.07 14.55-1.3 5.6-6.28 9.39-11.8 9.39z"/><path d="m997.05 1885.89c-35.02-112.98 28.09-428.98 0-570.8-10.14-51.19-45.38-109.35-104.34-127.95 83.19 145.58 10.4 457.52 34.66 644.69 30.93 238.64 91.71 651.8 93.58 668.95h27.73c0 .01-16.6-501.91-51.63-614.89z"/><path d="m648.94 1440.17h-15.04c-8.29 0-15.01-6.72-15.01-15.01v-164.09c0-8.29 6.72-15.01 15.01-15.01h15.04c8.29 0 15.01 6.72 15.01 15.01v164.09c0 8.29-6.72 15.01-15.01 15.01z"/></g><path d="m635.08 1428.62c-1.92 0-3.47-1.55-3.47-3.47s1.55-3.47 3.47-3.47c6.36 0 11.54-5.18 11.54-11.54v-134.63c0-1.92 1.55-3.47 3.47-3.47s3.47 1.55 3.47 3.47v134.63c-.01 10.2-8.3 18.48-18.48 18.48z" fill="#003177"/></g><path d="m590.92 552.99 69.8-24.05 141.95-5.15 48.1 20.29 10.47 715.96-212.53-11.47c-38.53-2.08-77.1-3.12-115.69-3.12h-109.62l92.43-385.14z" fill="#9952bd"/><path d="m290.46 924.01s133.62-286.15 184.4-322.8 140.25-56.56 140.25-56.56-110.85 466.21-133.12 477.79-191.53-98.43-191.53-98.43z" fill="#b1ccfc"/><path d="m509.6 1270.09c2.67-50.78 84.18-502.42 74.83-549.19-7.4-37.01 30.2-144.16 46.21-187.25-41.83 14-78.28 30.91-78.28 30.91-36.52 44.54-52.56 179.05-62.36 295.75-6.15 73.24-65.03 175.49-77.5 241.41-33.49 176.99-51.67 342.96-51.67 342.96l141.99 3.84c2.18-63.57 5.19-148.21 6.78-178.43z" fill="#e1efff"/><path d="m607.29 558.89-56.72 47.55 32.96 21.68-40.25 25.83s8.77 27.94 11.74 69.95-.93 154.86-.93 154.86z" fill="#3838ba"/><path d="m666.28 519.14s-20.95-8.91-67.6 34.74c-31.6 29.56-48.1 52.56-48.1 52.56l32.51 12.92-39.8 34.59s11.5 33.27 17.96 73.63c7.13 44.54-31.5 403.78-31.5 403.78s77.11-380.67 82.45-430.56 1.34-86.77 5.98-110.39c6.71-34.16 36.55-66 48.1-71.27z" fill="#fff"/><path d="m973.71 1229.12c-17.82-75.72-32.34-272.68-24.32-343.94 8.02-71.27 18.98-291.21 18.98-291.21s-16.03-14.25-85.52-45.43c-17.12-7.68-32.58-13.71-47.03-18.4-3.44 14.49-8.95 32.2-17.74 50.47-21.2 44.1-93.36 208.27-100.04 263.82-6.68 55.54-30.29 142.4-23.16 257.31 5.38 86.78 20.41 268.8 27.45 352.73l1.05.03 305.55-16.93c.01 0-37.4-132.73-55.22-208.45z" fill="#e1efff"/><path d="m947.64 885.17c6.67-59.3 15.38-221.51 18.12-274.32l-.28-17.8c-3.89-2.99-18.75-13.47-58.21-32.39-24.99 9.51-46.91 29.82-58.51 68.33-32.87 109.05 43.47 310.61 43.47 310.61s-139.21 39.53-197.78 57.42l-1.3 104.71 254.55-84.98c-2.85-53.51-3.29-102.8-.06-131.58z" fill="#b1ccfc"/><path d="m846.13 862.54-110.83 3.88c-4.67.16-8.6-3.49-8.76-8.17l-.87-24.91c-.16-4.67 3.49-8.6 8.17-8.76l110.83-3.88c4.67-.16 8.6 3.49 8.76 8.17l.87 24.91c.16 4.68-3.5 8.6-8.17 8.76z" fill="#8cb6f4"/><path d="m834.95 533.66s13.45 1.22 22.36 38.04 9.61 62.36 9.61 62.36l-69.6 7.72 49.29 50.48s-90.86 111.74-108.09 179.69 21.97-227.2 21.97-227.2z" fill="#3838ba"/><path d="m796.44 499.38s19.87 14.69 18.2 34.28c-2.16 25.23-32.67 42.49-61.63 91.48-14.48 24.5-44.76 89.08-58.12 186.18s2.98 303.51 3.87 347.16c0 0 14.2-234.92 56.71-340.04 23.53-58.19 85.74-131.84 85.74-131.84l-38.16-51.67 58.04-7.28s-7.07-79.63-19.66-95.67c-8.37-10.65-44.99-32.6-44.99-32.6z" fill="#fff"/><path d="m973.71 1229.12c-10.93-46.46-20.62-138.55-24.63-219.26l-21.01 13.44s18.15 204.03 37.68 318.95c6.32 37.2 12.56 70.19 18.1 97.81l45.08-2.5c.01.01-37.4-132.72-55.22-208.44z" fill="#b1ccfc"/><path d="m850.86 1143.73c3.49 3.12 5.33 7.29 5.18 11.74l-.01.22 2.83 44.23 3.79-.85c1.84-.2 3.65-.1 5.38.24l-2.8-43.77c.17-7.12-2.75-13.74-8.24-18.66-6.33-5.67-15.09-8.18-24.01-6.89l1.32 9.1c6.22-.9 12.26.79 16.56 4.64z" fill="#2c49a2"/><path d="m756.09 1210.74 9.56-.22-11.94-38.46-.16-.44c-1.8-4.22-1.54-8.86.75-13.09 2.78-5.14 8.2-8.87 14.49-9.99l-1.6-9.05c-9.03 1.6-16.87 7.08-20.97 14.67-3.55 6.57-3.99 14.15-1.21 20.84z" fill="#2c49a2"/><path d="m750.21 1178.45c-2.29.4-4.63-.8-5.58-3.02-2.95-6.89-2.53-14.73 1.13-21.51 4.18-7.72 12.15-13.3 21.33-14.93 2.78-.49 5.43 1.36 5.92 4.14s-1.36 5.43-4.14 5.92c-6.14 1.09-11.43 4.72-14.13 9.73-2.21 4.08-2.46 8.57-.73 12.64 1.11 2.59-.1 5.59-2.69 6.7-.36.16-.74.27-1.11.33z" fill="#8cb6f4"/><path d="m861.37 1160.67c-.3.04-.6.06-.91.05-2.82-.09-5.03-2.46-4.93-5.27.14-4.29-1.64-8.32-5.01-11.34-4.19-3.75-10.08-5.4-16.15-4.52-2.79.4-5.38-1.53-5.78-4.32s1.53-5.38 4.32-5.78c9.08-1.31 17.98 1.24 24.43 7.02 5.67 5.07 8.65 11.92 8.4 19.29-.09 2.5-1.97 4.53-4.37 4.87z" fill="#8cb6f4"/><path d="m887.73 1226.94-27.79 7.06c-26.1 6.63-52.87 10.24-79.8 10.76l-27.87.54c-9.63 1.3-18.49-5.44-19.8-15.07-1.3-9.63 5.44-18.49 15.07-19.8l26.74-.46c26.94-.47 53.73-4.03 79.85-10.61l28.87-7.27c9.63-1.3 18.49 5.44 19.8 15.07 1.31 9.61-5.44 18.48-15.07 19.78z" fill="#8cb6f4"/><path d="m772.62 1154.97c-3.52.62-6.9-1.74-7.52-5.26l-1.78-10.04c-.62-3.52 1.74-6.9 5.26-7.52s6.9 1.74 7.52 5.26l1.78 10.04c.62 3.51-1.75 6.9-5.26 7.52z" fill="#1a317a"/><path d="m831.61 1148.6c-3.53.51-6.84-1.96-7.35-5.5l-1.46-10.09c-.51-3.53 1.96-6.84 5.5-7.35 3.53-.51 6.84 1.96 7.35 5.5l1.46 10.09c.51 3.53-1.96 6.84-5.5 7.35z" fill="#1a317a"/><path d="m522.73 896.71h-318.92l-32.22-120.26c-7.78-29.03 9.45-52.56 38.48-52.56h213.8c29.03 0 58.86 23.53 66.64 52.56z" fill="#8cb6f4"/><path d="m604.9 1189.36h-347.42l-112.66-420.46h347.42z" fill="#543e8b"/><path d="m410.54 753.4-43.24.11c-4.62-16.32-21.46-29.46-37.82-29.41s-26.05 13.27-21.82 29.59l-43.21.11c-3 .01-4.77 2.45-3.95 5.45l5.78 21.17c.82 2.99 3.89 5.4 6.88 5.39l146.09-.4c3-.01 4.76-2.45 3.95-5.45l-5.78-21.17c-.82-2.99-3.89-5.4-6.88-5.39zm-69.65 12.79c-6.95.02-14.11-5.6-16-12.55s2.22-12.61 9.17-12.63 14.11 5.6 16 12.55c1.89 6.96-2.22 12.61-9.17 12.63z" fill="#59699b"/><path d="m401.45 723.89h-262.42c-29.03 0-46.25 23.53-38.48 52.56l15.21 35.5c11.47 26.77 17.26 55.63 17.01 84.76h262.42l-.02-3.4c-.15-28.44-6.06-56.56-17.38-82.65l-14.83-34.2c-7.76-29.04 9.46-52.57 38.49-52.57z" fill="#f8fbff"/><path d="m697.797 1075.771c2.303 35.409-6.66 64.819-20.019 65.688s-26.056-27.132-28.359-62.542 6.66-64.82 20.019-65.688c13.36-.869 26.056 27.132 28.359 62.542z" fill="#003177"/><path d="m759.36 1012.79-104.96 32.59c-10.9-7.02-30.65-18.9-45.91-23.47-22.26-6.67-51.44-17.65-52.94-11.38s-.8 22.03 5.99 25.81c6.79 3.77 11.32 10.15-12 11.85s-63.08-3.87-66.54-6.03-25.29 4.69-15.75 20.82 37.28 64.78 54.01 70.34 49.25 11.61 75.01 4.75 40.78-19.67 46.92-17.69c19.14 6.18 118.97 6.35 201.8 4.16 55.59-1.48-85.63-111.75-85.63-111.75z" fill="#f6ad83"/><g fill="#f4a076"><path d="m816.99 1099.8c-32.36 1.29-176.13 1.02-176.13 1.02s-11.65.52-37.73 20.23c-19.47 14.71-75.67.87-102.95-7.1 7.54 9.69 15.03 17.34 21.08 19.35 16.73 5.56 49.25 11.61 75.01 4.75s40.78-19.67 46.92-17.69c16.33 5.27 91.38 6.17 164.5 4.96 70.12-1.15 41.66-26.81 9.3-25.52z"/><path d="m527.44 1113.61c-8.02-1.17-22.1-5.27-34.22-9.1.93 1.32 1.86 2.62 2.79 3.91 11.27 3.5 23.54 6.96 31.01 8.05 16.23 2.36 36.37 4.07 36.57 4.08.44.04.84-.13 1.13-.41.24-.23.39-.55.42-.91.07-.79-.52-1.49-1.32-1.56-.18-.02-20.24-1.71-36.38-4.06z"/><path d="m557.17 1096.8c.37-.02.71-.17.95-.42.28-.28.45-.66.43-1.08-.03-.79-.7-1.41-1.5-1.38-.43.02-43.31 1.69-70.77-5.11-1.52-.38-2.91-.77-4.21-1.18.76 1.2 1.53 2.42 2.31 3.64.41.11.78.23 1.2.33 27.87 6.91 71.16 5.22 71.59 5.2z"/><path d="m484.47 1071.38c28.39 4.22 71.32-1.57 71.75-1.63.32-.04.6-.19.82-.4.31-.31.48-.75.41-1.22-.11-.79-.84-1.34-1.63-1.23-.42.06-42.96 5.8-70.93 1.64-9.96-1.48-15.36-4.13-18.28-6.72.2.38.39.76.63 1.16.74 1.25 1.6 2.71 2.54 4.31 3.8 1.83 8.7 3.2 14.69 4.09z"/></g><path d="m1063.8 793.53c-1.45-8.99-3.07-17.9-4.87-26.69-28.19-137.66-61.82-186.38-104.89-192.03-68.24-8.96-100.66 81.93-94.55 151.25 6.14 69.64 45.7 194.74 57.87 227.9l-223.44 53.11 17.71 129.68s231.22-12.45 319.29-49.12c87.79-36.55 34.59-285.93 32.88-294.1z" fill="#e1efff"/><path d="m1058.93 766.84c-28.19-137.66-61.82-186.38-104.89-192.03-13.87-1.82-25.91.47-36.32 5.86 21.13 6.81 58.97 43.19 73.31 78.13 37.33 90.94 75.63 321.65 36.3 375.73-28.51 39.2-251.44 58.44-320.72 65.52l5.01 36.7s231.22-12.45 319.29-49.12c87.79-36.55 34.59-285.93 32.88-294.1-1.44-8.98-3.06-17.89-4.86-26.69z" fill="#b1ccfc"/><path d="m721.4 1068.42c-2.63-26.25-9.6-49.15-18.31-63.57-18.56 4.48-33.03 8.14-37.74 9.03 13.06.28 25.3 27.84 27.56 62.53 2.15 32.97-5.48 60.73-17.33 65.1 8.49-1.21 30.87-4.35 39.75-5.12 6.22-15.82 8.82-40.59 6.07-67.97z" fill="#f8fbff"/><path d="m722.35 1097.16c-10.99 1.09-20.96 2.05-29.6 2.88-1.82 21.84-8.32 38.2-17.18 41.46 8.49-1.21 30.87-4.35 39.75-5.12 3.95-10.01 6.43-23.63 7.03-39.22z" fill="#cae0ff"/><path d="m592.79 381.17s-37.21-44.71-13.47-98.76 45.37 15.23 37.04 21.98-24.49 63.32-23.57 76.78z" fill="#002756"/><path d="m603.94 393.26s-37.21-44.71-13.47-98.76 45.37 15.23 37.04 21.98-24.49 63.31-23.57 76.78z"/><path d="m808.85 540.68c6.12-6.85 7.92-16.56 4.6-25.12-2.4-6.18-4.89-14.85-6.02-27.01-2.48-26.74 10.66-59.01 10.66-59.01l-157.04 27c2.31 2.22 6.48 25.27-.31 50.42-6.12 22.67-23.16 36.23-23.16 51.93 0 52 55.23 41.98 73.49 40.77 35.6-2.38 78.76-37.71 97.78-58.98z" fill="#f6ad83"/><path d="m807.43 488.55c-2.48-26.74 10.66-59.01 10.66-59.01l-157.04 27c2.31 2.22 6.48 25.27-.31 50.42 0 .01-.01.03-.01.04 16.12 11.96 35.76 14.87 56.52 16.59 23.48 1.95 62.48-10.8 91.16-27.17-.39-2.45-.72-5.06-.98-7.87z" fill="#f4a076"/><path d="m838.4 319.81c-4.16-.35-8.2.16-11.95 1.35-8.85-62.06-50.75-110.53-104.9-115.02-65.19-5.4-123.4 54.95-130.02 134.81-6.62 79.85 40.86 148.97 106.05 154.37 59.8 4.96 113.69-45.44 127.31-115.44 2.63.99 5.43 1.66 8.37 1.9 17.11 1.42 32.13-11.3 33.55-28.42 1.43-17.11-11.3-32.13-28.41-33.55z" fill="#f6ad83"/><path d="m791.29 289.4c7.68-7.62-3.61-40.26-3.61-40.26l-113.48-35.24c-34.5 14.59-62.71 47.79-75.65 90.26 1.85 1.03 4.28 1.05 7.48-.49 17.86-8.54 61.74-30.82 99.69-26.01 37.96 4.81 77.89 19.37 85.57 11.74z" fill="#f4a076"/><path d="m781.96 269.3s3.17 32.91 10.91 38.73 14.92 33.32 16.44 37.23 14.81-36.84 14.81-36.84l-29.56-42.74z" fill="#f4a076" opacity=".41"/><path d="m819.19 285.49c16.92-8.79 27.73-39.18 25.1-55.1-3.43-20.75-17.78-68.01-68.26-69.67-50.47-1.66-110.29 19.43-138.27 24.7s-58.09 4.83-62.94-1.17-9.82 1.81-11.99 9.7c-5.51 19.97 8.09 43.79 6.55 41.82-1.01-1.28-22.55 5.84-14 28.68s22.2 29.72 41.14 29c15.32-.58 49.75-34.14 133.11-23.18 31.82 4.19 68.77 26.03 89.56 15.22z" fill="#002756"/><path d="m643.48 362.36c-5.59-.26-9.91-5-9.65-10.59l.67-14.46c.26-5.59 5-9.91 10.59-9.65s9.91 5 9.65 10.59l-.67 14.46c-.26 5.59-5 9.91-10.59 9.65z"/><path d="m733.82 363.69c-5.59-.26-9.91-5-9.65-10.59l.67-14.46c.26-5.59 5-9.91 10.59-9.65s9.91 5 9.65 10.59l-.67 14.46c-.26 5.59-5 9.91-10.59 9.65z"/><path d="m619.64 320.83c-1.28.06-2.56-.45-3.47-1.48-1.58-1.81-1.39-4.55.42-6.13 11.31-9.87 24.7-14.21 40.95-13.3 2.39.14 4.22 2.19 4.09 4.58-.14 2.39-2.18 4.21-4.58 4.09-14.06-.79-25.1 2.76-34.75 11.18-.77.67-1.71 1.02-2.66 1.06z"/><path d="m763.78 319.98c1.27.07 2.57-.43 3.48-1.46 1.59-1.79 1.42-4.54-.37-6.13-11.24-9.95-24.59-14.4-40.85-13.61-2.4.12-4.24 2.15-4.13 4.55.12 2.39 2.15 4.23 4.55 4.13 14.07-.68 25.08 2.95 34.67 11.44.77.67 1.71 1.03 2.65 1.08z"/><path d="m694.07 395.78c.13-.21.27-.41.42-.61-.22.3-.44.59-.67.89.38-.49.81-.93 1.29-1.32-.29.23-.58.46-.87.69.54-.42 1.12-.76 1.74-1.04-.34.15-.69.3-1.03.45.57-.24 1.16-.41 1.77-.51-.38.06-.77.12-1.15.17.62-.09 1.24-.1 1.87-.04-.39-.05-.77-.09-1.16-.14.7.09 1.36.26 2.01.52-.35-.14-.7-.28-1.04-.42.59.25 1.13.56 1.65.93-.3-.22-.59-.44-.89-.67.51.39.96.82 1.36 1.31-.23-.29-.46-.58-.69-.87.12.15.23.3.34.46.65.93 1.5 1.66 2.63 1.96 1.04.27 2.43.12 3.34-.49 1.86-1.24 2.85-3.97 1.47-5.96-2.29-3.31-6.08-5.51-10.18-5.35-4.03.15-7.65 2.37-9.76 5.78-1.2 1.93-.38 4.88 1.65 5.92 2.16 1.09 4.62.4 5.9-1.66z"/><path d="m685.18 440.87c-1.28.02-2.56 0-3.84-.06l-.78-.03c-2.39-.11-4.25-2.14-4.14-4.53.1-2.39 1.99-4.24 4.53-4.15l.78.03c12.09.57 24.25-2.98 34.17-9.95 1.96-1.38 4.67-.91 6.05 1.05s.91 4.67-1.06 6.05c-10.42 7.34-22.98 11.39-35.71 11.59z"/><path d="m653.84 393.93c0 7.992-6.478 14.47-14.47 14.47s-14.47-6.478-14.47-14.47 6.478-14.47 14.47-14.47 14.47 6.478 14.47 14.47z" fill="#f28d77"/><path d="m766.06 391.85c0 7.992-6.478 14.47-14.47 14.47s-14.47-6.478-14.47-14.47 6.478-14.47 14.47-14.47 14.47 6.478 14.47 14.47z" fill="#f28d77"/><path d="m823.02 252.82c-1.35-.05-2.52-1.05-2.75-2.43-2.53-15.29-14.68-65.21-64.94-67.23-.18-.01-.36-.01-.54-.02-36.42-1.2-78.14 9.69-108.6 17.64-11.47 2.99-21.37 5.58-29.03 7.02-26.7 5.03-59.43 5.62-65.74-2.2-1.01-1.25-.81-3.08.43-4.09 1.24-1 3.08-.82 4.09.43 3.24 4 29.92 5.83 60.14.14 7.46-1.4 17.27-3.97 28.64-6.93 30.81-8.04 73-19.05 110.26-17.82.2.01.4.01.6.02 54.65 2.19 67.72 55.69 70.43 72.09.26 1.58-.81 3.08-2.4 3.34-.19.03-.39.05-.59.04z" fill="#064172"/><path d="m811.26 270.67c-1.08-.04-2.02-.84-2.2-1.95-2.02-12.24-11.74-52.18-51.96-53.79-.15-.01-.29-.01-.43-.02-29.14-.96-62.52 7.75-86.89 14.11-9.17 2.39-17.1 4.46-23.22 5.61-21.36 4.03-47.55 4.5-52.6-1.76-.81-1-.65-2.46.35-3.27 1-.8 2.46-.65 3.27.35 2.59 3.2 23.94 4.67 48.12.11 5.97-1.12 13.82-3.17 22.91-5.54 24.65-6.43 58.41-15.24 88.22-14.26.16.01.32.01.48.02 43.72 1.75 54.18 44.56 56.35 57.68.21 1.27-.65 2.46-1.92 2.67-.17.03-.33.04-.48.04z" fill="#064172"/><path d="m852.41 230.06c-10.81-3-29.62 10.72-42.02 30.47-13.67.53-29.98 5.58-19.09 28.87 16.79 35.92 19.47 51.09 18.01 55.85-1.3 4.26 6.62 5.64 9.9 2.63 5.78-5.29 13.59-13.11 18.8-20.92 2.94-4.42 8.88-5.71 13.47-3.04 10.11 5.89 16.46 17.28 15.31 29.73-1.37 14.82-13.6 26.79-28.43 28.1-4.84.43-9.35-.34-13.47-1.89-4.17 21.41-12.11 40.97-22.83 57.69 1.36 11.55 5.04 19.69 12.63 20.08 27.33 1.4 72.04-59.44 79.38-132.73 7.34-73.26-25.68-90.41-41.66-94.84z" fill="#002756"/><path d="m868.2 237.47c-9.25 28.43-38.47 50.18-74.99 56.11 3.88 8.49 6.93 15.74 9.28 21.89 37.33-7.64 67.98-29.46 82.67-58.45-4.88-9.2-10.97-15.37-16.96-19.55z" fill="#064172"/></svg>